<svg width="656" height="533" viewBox="0 0 656 533" fill="none" xmlns="http://www.w3.org/2000/svg">
<g clip-path="url(#clip0_106_1607)">
<path d="M-53.7068 215.422C-16.0162 219.882 22.5069 220.666 59.9755 213.729C93.6708 207.469 126.352 194.577 153.93 174.019C167.329 163.964 179.27 152.1 189.412 138.766C199.484 125.625 208.306 111.556 218.837 98.7271C229.175 86.0917 241.367 75.4683 256.6 69.4822C272.95 63.0313 290.721 61.211 307.444 55.9599C339.746 45.8375 368.795 27.3476 391.642 2.36745C394.503 -0.774602 397.263 -4.01452 399.922 -7.35227C400.477 -8.19468 400.677 -9.22232 400.479 -10.2115C400.28 -11.2008 399.699 -12.0715 398.862 -12.6344C398.018 -13.1778 396.996 -13.3726 396.012 -13.1774C395.028 -12.9823 394.158 -12.4126 393.585 -11.5884C372.796 14.2743 345.42 34.0541 314.34 45.6689C298.205 51.7097 281.202 54.1216 264.709 58.8709C256.277 61.1314 248.189 64.5241 240.667 68.9562C233.811 73.1666 227.495 78.1985 221.858 83.9401C210.294 95.7195 201.081 109.515 191.535 122.91C181.989 136.306 171.844 148.989 159.391 159.816C134.592 181.343 104.015 195.591 72.2744 203.221C35.7009 212.158 -2.2848 212.707 -39.6796 209.245C-44.2343 208.806 -48.7858 208.326 -53.3341 207.804C-54.3419 207.766 -55.3248 208.123 -56.0735 208.798C-56.8223 209.474 -57.278 210.415 -57.3436 211.422C-57.3737 212.427 -57.0132 213.405 -56.3378 214.15C-55.6623 214.895 -54.7245 215.349 -53.7213 215.417L-53.7068 215.422Z" fill="#005635"/>
<path d="M24.5945 -46.5566C41.0794 -22.8884 65.8462 -6.8465 91.9767 4.41048C121.359 17.0474 152.806 23.3821 183.614 31.4802C200.249 35.6129 216.573 40.9108 232.465 47.3347C247.773 53.7556 261.977 62.2668 276.283 70.6191C290.59 78.9714 305.084 87.1938 320.77 92.5354C335.934 97.5784 351.924 99.6665 367.875 98.6866C383.858 97.6481 399.724 95.2498 415.3 91.5176C430.94 87.9116 446.334 83.31 461.387 77.7412C465.054 76.3979 468.686 74.9952 472.285 73.533C476.839 71.6996 473.415 64.8907 468.9 66.7048C439.956 78.5516 409.545 86.4342 378.492 90.1389C363.106 91.8608 347.29 91.8463 332.213 87.9956C316.679 84.0234 302.313 76.7606 288.449 68.8623C274.176 60.7463 260.324 52.0477 245.476 44.8805C230.234 37.7378 214.399 31.937 198.151 27.5438C167.315 18.8093 135.655 13.0142 105.619 1.70186C79.7752 -8.01183 54.5752 -21.8512 36.6448 -43.3189C34.4131 -45.9649 32.3165 -48.7265 30.3455 -51.5745C29.6775 -52.3319 28.7372 -52.7945 27.7295 -52.8613C26.7219 -52.9282 25.7287 -52.594 24.9663 -51.9315C24.2222 -51.2571 23.7678 -50.3208 23.6985 -49.3188C23.6292 -48.3169 23.9503 -47.327 24.5945 -46.5566Z" fill="#005635"/>
<path d="M242.072 154.243L242.016 154.31L243.259 153.484L243.172 153.455L244.644 152.951L246.211 152.833L246.109 152.8L247.638 153.083C247.624 153.076 247.611 153.068 247.599 153.058L247.654 153.085L247.714 153.097C247.698 153.097 247.683 153.096 247.667 153.092L249.058 153.788L248.884 153.73L250.029 154.72L249.955 154.607C249.944 154.592 249.934 154.577 249.924 154.561L249.955 154.607C250.006 154.68 250.065 154.748 250.131 154.808L250.029 154.72L250.789 155.865C250.65 155.833 250.514 155.788 250.385 155.729L250.865 157.126L250.855 156.964C250.862 157.05 250.877 157.136 250.898 157.22L250.865 157.126L250.95 158.42L250.974 158.292C250.975 158.286 250.976 158.281 250.978 158.276L250.974 158.292C250.961 158.367 250.955 158.444 250.957 158.521L250.962 158.608C250.959 158.579 250.957 158.55 250.957 158.521L250.95 158.42L250.678 159.848L250.681 159.842C250.691 159.815 250.703 159.789 250.719 159.765L250.681 159.842C250.68 159.846 250.678 159.85 250.677 159.854L250.661 159.938C250.663 159.91 250.668 159.881 250.677 159.854L250.678 159.848L249.964 161.297C249.969 161.256 249.982 161.216 250.003 161.181L248.911 162.423C248.909 162.41 248.909 162.396 248.914 162.383C248.918 162.371 248.925 162.359 248.935 162.351L247.569 163.259L246.007 163.796L246.093 163.825L244.484 163.959L244.541 163.996L244.44 163.962L244.484 163.959L239.047 160.385C239.402 161.172 239.954 161.856 240.649 162.369C241.033 162.817 241.532 163.152 242.093 163.336C242.86 163.799 243.736 164.049 244.632 164.059L246.363 163.932L247.965 163.376C248.748 163.023 249.43 162.477 249.944 161.788C250.386 161.398 250.719 160.901 250.911 160.344C251.376 159.572 251.628 158.691 251.639 157.79L251.488 156.131L250.932 154.529C250.582 153.738 250.029 153.054 249.33 152.545C248.946 152.097 248.447 151.763 247.886 151.578C247.122 151.108 246.244 150.857 245.347 150.855L243.688 151.006L242.072 151.558C241.043 152.068 240.164 152.837 239.523 153.79C239.52 153.795 239.517 153.8 239.514 153.805C239.816 153.391 240.165 153.011 240.556 152.674C241.013 152.321 241.492 151.999 241.99 151.707L238.729 155.438C238.79 155.127 238.926 154.836 239.126 154.59C239.228 154.315 239.358 154.052 239.514 153.805C239.517 153.8 239.52 153.795 239.523 153.79C240.164 152.837 241.043 152.068 242.072 151.558L243.688 151.006L245.347 150.855C246.244 150.857 247.122 151.108 247.886 151.578C248.447 151.763 248.946 152.097 249.33 152.545C250.029 153.054 250.582 153.738 250.932 154.529L251.488 156.131L251.639 157.79C251.628 158.691 251.376 159.572 250.911 160.344C250.719 160.901 250.386 161.398 249.944 161.788C249.43 162.477 248.748 163.023 247.965 163.376L246.363 163.932L244.632 164.059C243.736 164.049 242.86 163.799 242.093 163.336C241.532 163.152 241.033 162.817 240.649 162.369C239.954 161.856 239.402 161.172 239.047 160.385L244.484 163.959L246.093 163.825L246.007 163.796L247.569 163.259L248.935 162.351C248.925 162.359 248.918 162.371 248.914 162.383C248.909 162.396 248.909 162.41 248.911 162.423L250.003 161.181C249.982 161.216 249.969 161.256 249.964 161.297L250.678 159.848L250.95 158.42L250.865 157.126L250.385 155.729C250.514 155.788 250.65 155.833 250.789 155.865L250.029 154.72L248.884 153.73L249.058 153.788L247.667 153.092C247.657 153.09 247.648 153.087 247.638 153.083L246.109 152.8L246.211 152.833L244.644 152.951L243.172 153.455L243.259 153.484L242.016 154.31L241.956 154.349C241.999 154.319 242.038 154.283 242.072 154.243Z" fill="#004A20"/>
<path d="M270.5 151.22C270.489 151.301 270.463 151.38 270.423 151.451L270.598 150.545C270.583 150.636 270.554 150.724 270.511 150.805L270.917 149.977C270.876 150.063 270.823 150.143 270.758 150.213L271.352 149.543C271.272 149.638 271.179 149.72 271.077 149.789L271.82 149.298L271.453 149.481L272.292 149.184C272.181 149.226 272.064 149.251 271.945 149.26L272.852 149.194C272.736 149.202 272.619 149.196 272.505 149.174L273.444 149.345C273.353 149.331 273.265 149.301 273.184 149.258L274.037 149.688L273.791 149.606L274.484 150.224L274.325 150.026L274.839 150.794C274.795 150.728 274.759 150.657 274.734 150.581L275.036 151.455C275.006 151.359 274.985 151.26 274.974 151.16L275.044 152.101C275.054 152.045 275.072 151.991 275.098 151.942L274.908 152.891C274.908 152.891 274.956 152.747 274.981 152.674L274.535 153.57C274.611 153.443 274.695 153.321 274.787 153.204L274.134 153.95C274.212 153.854 274.305 153.771 274.41 153.705L273.58 154.263C273.666 154.196 273.764 154.147 273.869 154.119L272.904 154.454L273.165 154.397L272.109 154.477L270.158 153.822L269.364 153.122L268.763 152.229C268.985 152.728 269.333 153.16 269.773 153.484C270.168 153.89 270.66 154.188 271.203 154.35L272.306 154.559C273.035 154.601 273.761 154.451 274.414 154.124L275.389 153.47C275.947 152.986 276.364 152.358 276.593 151.655C276.778 151.158 276.83 150.622 276.745 150.098C276.749 149.56 276.617 149.029 276.362 148.555C276.039 147.915 275.559 147.367 274.967 146.961L274.866 146.927C274.233 146.506 273.5 146.26 272.742 146.215C272.194 146.164 271.642 146.256 271.141 146.482C270.614 146.609 270.131 146.874 269.741 147.251C269.176 147.744 268.753 148.379 268.513 149.09L269.017 148.069C268.822 148.418 268.648 148.778 268.494 149.148L269.669 147.371L270.523 146.789C270.243 146.953 269.891 147.188 269.635 147.376C269.621 147.403 269.611 147.432 269.606 147.462C269.587 147.493 269.576 147.528 269.572 147.564C269.35 147.795 269.045 148.127 268.852 148.367C268.823 148.432 268.8 148.5 268.784 148.57C268.564 148.929 268.378 149.308 268.228 149.702L268.16 149.904C268.043 150.251 267.922 150.612 267.95 151.008C267.933 151.039 267.921 151.073 267.916 151.109C267.903 151.575 267.941 152.04 268.03 152.498L267.959 151.557C267.982 151.919 267.987 152.29 268.044 152.647C268.101 153.004 268.187 153.081 268.24 153.26C268.303 153.46 268.376 153.656 268.461 153.848C268.629 154.114 268.816 154.418 269.018 154.679C269.064 154.702 269.112 154.719 269.163 154.727C269.418 155.001 269.702 155.247 270.01 155.461C270.179 155.533 270.353 155.591 270.53 155.636L271.041 155.888L271.142 155.921C271.46 156.028 271.821 156.053 272.154 156.116C272.585 156.156 273.021 156.134 273.446 156.051L273.653 156.008C274.001 155.907 274.343 155.785 274.676 155.643C274.738 155.625 274.797 155.595 274.85 155.557C275.13 155.394 275.405 155.196 275.675 155.014C275.681 154.984 275.69 154.954 275.704 154.927C276.032 154.652 276.318 154.331 276.554 153.974C276.761 153.654 276.935 153.313 277.072 152.958C277.102 152.893 277.125 152.825 277.14 152.755C277.359 152.038 277.399 151.278 277.255 150.543C277.03 149.702 276.522 148.964 275.818 148.452L275.004 148.051C274.579 147.887 274.119 147.838 273.669 147.909C273.375 147.898 273.083 147.96 272.82 148.09C272.399 148.199 272.012 148.412 271.696 148.71L271.101 149.379C270.769 149.89 270.573 150.477 270.529 151.085L270.5 151.22Z" fill="#004A20"/>
<path d="M263.09 174.463C268.626 176.32 271.525 167.725 265.975 165.863C260.425 164.002 257.555 172.607 263.09 174.463Z" fill="#004A20"/>
<path d="M298.69 151.83L297.681 150.044C297.492 149.639 297.208 149.285 296.854 149.011C296.527 148.681 296.121 148.44 295.675 148.31C295.241 148.143 294.771 148.09 294.311 148.158C293.863 148.163 293.423 148.274 293.028 148.484L292.299 148.979C291.833 149.382 291.485 149.905 291.293 150.491L291.113 151.411C291.075 152.008 291.197 152.604 291.467 153.138L292.282 155.02C292.727 155.845 293.469 156.47 294.357 156.768C295.246 157.066 296.214 157.014 297.066 156.624L297.834 156.11C298.311 155.695 298.668 155.159 298.868 154.559L299.053 153.624C299.067 153.02 298.931 152.422 298.656 151.883L298.69 151.83Z" fill="#004A20"/>
<path d="M128.335 211.614C113.49 185.167 105.054 164.681 79.2583 165.034C53.4623 165.387 39.3191 187.852 29.7851 199.834C20.2511 211.816 5.11706 192.654 -25.8881 207.195C-56.8934 221.737 -31.9666 229.728 -25.0252 270.344C-18.0838 310.961 -7.03119 306.483 9.96738 328.715C26.9659 350.948 59.0934 367.239 83.7707 377.124C108.448 387.009 106.437 402.737 106.437 402.737C108.468 381.533 123.724 389.978 144.116 356.552C164.509 323.126 156.234 319.562 153.51 289.189C150.786 258.816 143.166 238.056 128.335 211.614ZM80.5073 179.909C90.7083 172.074 113.6 180.38 101.387 186.591C101.387 186.591 70.3161 187.715 80.5073 179.909ZM86.268 222.896C87.4919 210.522 126.363 219.604 122.911 229.703C119.46 239.801 85.0342 235.346 86.268 222.896ZM-16.7137 221.979C9.74762 208.904 25.6309 219.41 6.98867 229.929C-11.6536 240.449 -43.1317 235.068 -16.7137 221.979ZM-0.810529 302.893C-0.810529 302.893 -12.0055 296.05 -2.171 275.646C7.66348 255.241 45.7504 220.401 49.6248 243.844C53.4993 267.287 11.0833 307.268 -0.810529 302.893ZM29.3516 333.528C29.3516 333.528 24.2157 326.981 32.1697 316.881C40.1238 306.781 45.766 305.731 49.6536 297.016C53.5412 288.302 59.0611 272.995 66.2277 278.905C73.3944 284.814 50.9492 335.482 29.3516 333.528ZM61.6379 349.97C61.6379 349.97 59.1994 347.029 69.2227 336.32C79.246 325.612 83.1519 312.337 88.297 316.651C93.442 320.966 71.0461 355.907 61.6379 349.97ZM46.548 206.614C35.5124 207.206 49.2351 180.291 58.9013 182.391C68.5675 184.492 57.5642 206.08 46.5286 206.672L46.548 206.614ZM142.864 328.023C143.202 342.882 130.226 362.828 124.414 356.473C124.414 356.473 109.059 334.518 113.181 324.194C117.303 313.87 142.507 313.221 142.845 328.081L142.864 328.023ZM139.326 287.326C139.326 287.326 96.835 280.889 98.7446 270.498C100.654 260.107 130.57 255.717 139.299 266.412C148.028 277.107 146.525 286.524 139.326 287.326Z" fill="#217F5E"/>
<path d="M128.335 211.615C113.49 185.168 105.054 164.682 79.2582 165.035C76.69 165.062 74.13 165.328 71.6112 165.831C68.353 178.133 66.9268 190.39 73.8925 200.59C81.4447 211.63 108.8 217.412 134.008 222.169C132.25 218.733 130.372 215.176 128.335 211.615ZM101.358 186.582C101.358 186.582 70.2871 187.706 80.4784 179.9C90.6697 172.094 113.6 180.38 101.387 186.592L101.358 186.582Z" fill="#0D7859"/>
<path d="M141.428 322.862C146.413 325.822 151.234 329.05 155.871 332.53C160.001 318.398 155.461 310.217 153.573 289.194C152.406 274.039 149.209 259.111 144.069 244.807C118.318 239.226 90.0838 226.523 80.7056 257.887C73.1517 283.141 104.322 300.944 131.547 316.942C133.529 317.137 135.444 317.768 137.153 318.792C138.861 319.815 140.321 321.205 141.428 322.862ZM98.7445 270.498C100.606 260.155 130.589 255.659 139.289 266.296C147.99 276.933 146.559 286.423 139.36 287.225C139.326 287.326 96.835 280.889 98.7445 270.498Z" fill="#0D7859"/>
<path d="M49.6249 243.844C51.1499 253.103 45.4389 264.953 37.2717 275.593C50.0799 268.134 64.4046 249.107 62.325 234.934C60.5644 222.878 47.3234 227.265 35.8935 237.421C42.8406 234.589 48.2954 235.728 49.6249 243.844Z" fill="#006A45"/>
<path d="M153.524 289.194C150.849 258.821 143.166 238.056 128.34 211.6C113.514 185.143 105.059 164.667 79.263 165.02C78.1832 165.027 77.1466 165.098 76.1052 165.183C81.7974 165.709 86.2878 166.99 87.416 169.427C88.5442 171.863 87.9556 174.625 86.895 177.164C97.7408 174.98 111.434 181.47 101.421 186.587C95.5413 186.801 89.6543 186.5 83.8273 185.687C83.4822 188.998 84.464 192.311 86.5575 194.9C94.7306 206.438 132.393 212.316 129.683 227.97C126.972 243.624 109.473 231.081 117.881 253.568C118.738 255.873 119.734 258.124 120.862 260.309C128.334 260.129 135.706 261.927 139.342 266.378C147.321 276.146 146.774 284.872 141.087 286.92C143.103 290.511 144.608 294.366 145.558 298.373C148.237 309.178 144.711 317.386 142.412 324.961C142.748 325.981 142.933 327.046 142.96 328.12C142.975 331.752 142.42 335.364 141.315 338.825C142.434 342.575 144.492 345.977 147.293 348.709C147.613 349.046 147.952 349.364 148.309 349.661C163.329 322.473 155.997 317.296 153.524 289.194Z" fill="#006A45"/>
<path d="M23.6011 204.273C33.2983 203.976 42.8837 206.41 51.263 211.3C55.4611 213.811 59.3001 216.878 62.6754 220.419C63.498 221.322 64.3592 222.205 65.1432 223.128L67.3889 226.02C68.1632 226.971 68.8362 227.985 69.514 228.984C70.1918 229.983 70.9034 230.977 71.5426 231.996C81.8419 248.411 88.6671 266.508 94.3592 284.771C97.1087 293.975 99.5641 303.193 101.412 312.689C103.259 322.185 104.335 331.632 105.252 341.122C106.17 350.611 106.913 360.139 107.367 369.667C107.551 374.44 107.72 379.208 107.711 383.981C107.697 386.372 107.702 388.802 107.572 391.155C107.512 392.341 107.433 393.536 107.31 394.717C107.219 395.913 107.005 397.097 106.672 398.25C106.883 397.08 106.969 395.89 106.929 394.702C106.926 393.511 106.885 392.34 106.82 391.144C106.714 388.776 106.545 386.404 106.342 384.037C105.932 379.316 105.478 374.581 104.937 369.865C103.909 360.418 102.698 350.991 101.409 341.601C100.121 332.212 98.6927 322.808 96.7869 313.582C94.8811 304.356 92.3917 295.239 89.613 286.219C86.8342 277.198 83.8384 268.201 80.336 259.468C76.9294 250.704 72.8938 242.197 68.2607 234.015C67.6648 233.011 67.0401 231.997 66.4152 231.032C65.7904 230.067 65.1946 229.014 64.4974 228.121L62.4781 225.273L60.2898 222.593C57.2766 219.072 53.8085 215.968 49.9768 213.361C42.1208 208.098 33.032 204.966 23.6011 204.273Z" fill="#006A45"/>
<path d="M321.18 -20.5376C308.125 -43.2643 300.673 -60.8799 278.381 -60.3807C256.089 -59.8815 244.068 -40.3393 235.988 -29.8633C227.908 -19.3873 214.62 -35.8565 187.956 -23.0425C161.293 -10.2285 182.857 -3.52621 189.149 31.5013C195.441 66.5287 205.008 62.5495 219.896 81.5817C234.784 100.614 262.67 114.453 284.048 122.766C305.426 131.078 303.891 144.81 303.891 144.81C305.478 126.464 318.711 133.701 336.088 104.569C353.464 75.4381 346.229 72.5129 343.627 46.2812C341.026 20.0494 334.234 2.14084 321.18 -20.5376ZM279.586 -47.5302C288.31 -54.3651 308.177 -47.3959 297.691 -41.9238C297.691 -41.9238 270.847 -40.7001 279.586 -47.5302ZM284.904 -10.3687C285.86 -21.0795 319.527 -13.55 316.623 -4.79526C313.719 3.95945 283.958 0.313228 284.909 -10.3831L284.904 -10.3687ZM195.939 -10.3628C218.695 -21.8822 232.514 -12.9378 216.482 -3.68163C200.45 5.57455 173.173 1.1856 195.939 -10.3628ZM210.336 59.4159C210.336 59.4159 200.599 53.5934 208.939 35.8717C217.279 18.15 249.876 -12.26 253.429 7.97119C256.982 28.2024 220.678 63.0941 210.336 59.4159ZM236.659 85.6284C236.659 85.6284 232.124 79.9746 238.967 71.2222C245.81 62.4699 250.613 61.4759 253.901 53.879C257.188 46.2821 261.837 33.0469 268.075 38.0819C274.313 43.117 255.351 87.1379 236.674 85.6333L236.659 85.6284ZM264.703 99.5695C264.703 99.5695 262.558 97.0489 271.099 87.6922C279.64 78.3356 282.915 66.8431 287.401 70.5347C291.887 74.2262 272.884 104.613 264.718 99.5743L264.703 99.5695ZM250.463 -24.1238C240.922 -23.5289 252.55 -46.8854 260.925 -45.1537C269.3 -43.4221 259.99 -24.7234 250.463 -24.1238ZM334.708 79.9694C335.112 92.8089 324.064 110.169 318.993 104.721C318.993 104.721 305.536 85.8798 309.024 76.9189C312.512 67.9579 334.284 67.1396 334.708 79.9694ZM331.318 44.7737C331.318 44.7737 294.547 39.596 296.087 30.6411C297.627 21.6863 323.488 17.544 331.088 26.6699C338.687 35.7958 337.548 43.9848 331.318 44.7737Z" fill="#217F5E"/>
<path d="M295.449 107.181C289.932 103.111 282.385 99.583 274.178 96.1064C270.672 99.3687 267.192 101.112 264.718 99.5747C264.718 99.5747 263.438 98.0682 266.755 93.1181C259.129 90.1102 251.282 87.1405 244.115 83.9165C241.828 85.1298 239.254 85.6952 236.669 85.5517C235.517 83.8209 235.013 81.7383 235.248 79.6722C224.215 73.8328 216.53 67.1222 217.159 58.2958C214.389 59.5057 212.026 59.9353 210.374 59.3489C210.374 59.3489 200.638 53.5264 208.978 35.8047C212.483 29.0502 216.964 22.8481 222.274 17.3978C220.316 13.2191 216.37 9.54782 209.294 6.19382C205.952 4.60637 202.354 2.9172 198.882 1.1897C191.019 1.57546 185.219 -0.595023 187.969 -4.62529C183.583 -7.12088 179.468 -10.0641 175.689 -13.4078C171.801 -4.54881 184.565 5.9075 189.149 31.5017C195.489 66.5293 205.007 62.55 219.896 81.5822C234.784 100.614 262.669 114.454 284.048 122.766C291.813 125.789 296.544 129.514 299.411 133.049C304.55 125.012 306.444 115.291 295.449 107.181Z" fill="#0D7859"/>
<path d="M333.434 75.4742C337.746 78.0014 341.921 80.7545 345.942 83.7219C349.393 71.4681 345.4 64.4364 343.598 46.2718C342.464 33.1923 339.576 20.3248 335.014 8.01479C312.717 3.39873 288.215 -7.34423 280.368 19.8375C274.055 41.7284 301.137 56.8585 324.795 70.454C326.517 70.5984 328.185 71.1237 329.679 71.9919C331.173 72.8601 332.456 74.0495 333.434 75.4742ZM296.087 30.6415C297.628 21.6866 323.489 17.5444 331.088 26.6703C338.687 35.7961 337.548 43.9852 331.318 44.7741C331.318 44.7741 294.547 39.5964 296.087 30.6415Z" fill="#0D7859"/>
<path d="M253.443 7.97649C254.836 15.9532 250.005 26.2327 243.031 35.5199C254.025 28.964 266.253 12.4016 264.343 0.166894C262.719 -10.2353 251.311 -6.32693 241.518 2.54534C247.505 0.0348363 252.208 0.969104 253.443 7.97649Z" fill="#006A45"/>
<path d="M287.952 112.755C280.591 94.9126 262.796 106.263 251.234 102.047C239.673 97.8317 229.986 88.9864 225.303 80.0829C220.619 71.1793 213.611 70.8386 207.527 65.9678C201.443 61.0969 202.416 36.048 203.646 23.0332C204.876 10.0184 197.921 12.1559 182.313 6.48657C181.749 6.29751 181.2 6.1133 180.68 5.84237C184.654 13.9712 187.503 22.6036 189.149 31.5015C195.489 66.5291 205.007 62.5498 219.896 81.582C234.784 100.614 262.669 114.454 284.047 122.766C285.955 123.505 287.816 124.36 289.62 125.326C290.105 121.062 289.532 116.744 287.952 112.755Z" fill="#006A45"/>
<path d="M343.598 46.2722C340.992 20.0549 334.263 2.19949 321.179 -20.5369C308.096 -43.2732 300.677 -60.8936 278.381 -60.38C277.455 -60.3527 276.549 -60.2869 275.652 -60.2018C280.583 -59.8022 284.495 -58.7634 285.455 -56.6403C285.88 -55.5641 286.066 -54.4084 286.001 -53.2531C285.935 -52.0978 285.62 -50.9706 285.076 -49.9492C294.437 -51.9232 306.396 -46.4004 297.691 -41.923C292.608 -41.6944 287.514 -41.907 282.468 -42.5584C282.205 -39.6944 283.087 -36.8427 284.921 -34.6279C292.119 -24.7844 324.697 -19.9519 322.473 -6.41819C320.249 7.11552 305.051 -3.56221 312.452 15.7407C313.215 17.7028 314.105 19.6129 315.117 21.4587C321.611 21.2729 327.952 22.7405 331.097 26.5453C338.066 34.9131 337.671 42.4671 332.77 44.2805C334.546 47.3627 335.88 50.6791 336.733 54.1325C339.14 63.4466 336.176 70.5572 334.24 77.1441C334.521 78.0185 334.682 78.9271 334.717 79.8448C334.754 82.9631 334.309 86.0684 333.398 89.0508C334.376 92.2752 336.165 95.1949 338.593 97.5311C338.872 97.8214 339.166 98.0971 339.474 98.3571C352.341 74.9499 346.015 70.5607 343.598 46.2722Z" fill="#006A45"/>
<path d="M230.625 -26.0019C239.002 -26.3436 247.305 -24.3166 254.582 -20.1534C258.242 -18.0342 261.59 -15.4174 264.531 -12.3779C265.253 -11.6052 265.994 -10.8421 266.691 -10.0454L268.644 -7.57337C269.322 -6.767 269.899 -5.89813 270.509 -5.03403C271.12 -4.16993 271.721 -3.32513 272.278 -2.44666C281.314 11.6476 287.373 27.2358 292.439 42.909C294.896 50.825 297.084 58.779 298.838 66.9734C300.591 75.1677 301.521 83.3268 302.406 91.5195C303.292 99.7123 303.99 107.938 304.461 116.169C304.685 120.296 304.928 124.366 304.881 128.531C304.897 130.595 304.897 132.653 304.831 134.721C304.771 135.763 304.716 136.789 304.613 137.864C304.546 138.894 304.371 139.913 304.091 140.906C304.265 139.897 304.328 138.872 304.28 137.849C304.272 136.818 304.226 135.805 304.156 134.768C304.054 132.724 303.913 130.699 303.685 128.645C303.288 124.556 302.857 120.471 302.359 116.397C301.396 108.242 300.264 100.112 299.06 92.0052C297.856 83.8986 296.57 75.7967 294.85 67.8387C293.129 59.8807 290.888 52.0374 288.401 44.2563C285.914 36.4753 283.263 28.7518 280.178 21.2203C277.16 13.6768 273.601 6.36162 269.527 -0.66787C268.999 -1.53664 268.484 -2.35235 267.908 -3.22122C267.331 -4.09008 266.869 -4.92016 266.225 -5.73129L264.456 -8.17403L262.527 -10.429C259.888 -13.4352 256.858 -16.074 253.518 -18.2751C246.685 -22.7912 238.796 -25.4538 230.625 -26.0019Z" fill="#006A45"/>
<path d="M86.7974 41.3612C84.8091 60.1842 81.3947 65.9537 88.35 84.1421C95.3052 102.331 94.0529 101.75 104.155 123.02C114.257 144.29 121.712 155.86 128.225 163.335C134.738 170.81 145.806 178.028 147.73 190.702C147.73 190.702 166.227 178.027 174.002 155.517C181.777 133.007 186.2 136.693 188.831 109.531C191.462 82.3686 191.378 65.938 176.567 46.7227C161.756 27.5075 151.261 40.3414 146.234 34.812C141.207 29.2826 133.449 10.0851 119.487 8.28053C105.525 6.47598 88.8195 22.4853 86.7974 41.3612ZM160.181 135.604C167.164 136.499 170.119 171.935 161.199 165.454C152.278 158.972 153.221 134.637 160.2 135.546L160.181 135.604ZM164.139 97.2931C163.814 88.3396 173.731 97.7927 179.179 107.435C184.628 117.078 184.015 127.389 178.076 127.359C172.137 127.329 164.479 106.203 164.159 97.2352L164.139 97.2931ZM142.368 105.348C156.499 119.591 131.188 154.021 117.789 137.643C104.39 121.265 128.276 91.0371 142.388 105.29L142.368 105.348ZM173.025 66.0539C179.194 67.2222 187.913 80.2456 181.788 81.6808C175.663 83.1159 166.857 64.8855 173.025 66.0539ZM161.383 46.0682C163.843 40.4609 173.785 47.0117 174.742 53.0254C175.7 59.0392 158.928 51.6128 161.402 46.0104L161.383 46.0682ZM132.407 76.0364C139.203 81.8053 118.928 101.361 113.572 91.3477C108.216 81.334 125.635 70.2917 132.407 76.0364ZM111.584 31.6486C123.37 29.6357 142.041 39.5966 141.562 50.1781C141.084 60.7596 128.828 49.0266 114.788 48.0319C108.478 47.7722 102.192 47.1085 95.9669 46.0449C86.3994 37.7061 99.7796 33.6712 111.584 31.6486Z" fill="#0F7F5D"/>
<path d="M111.398 83.881C106.502 70.2426 135.823 61.6809 144.287 69.7622C148.796 74.0564 140.538 81.6587 131.092 85.7587C133.784 82.0947 134.914 78.1483 132.436 76.0465C126.824 71.3019 114.114 77.9415 112.71 86.1059C112.13 85.4584 111.684 84.7021 111.398 83.881Z" fill="#006F54"/>
<path d="M88.3696 84.0849C81.4143 65.8965 84.8287 60.127 86.817 41.3041C88.8052 22.4812 105.53 6.46217 119.487 8.28118C120.012 8.34482 120.537 8.45666 121.005 8.54912C117.476 13.412 113.717 17.9081 113.331 20.882C112.449 28.305 128.897 20.5393 138.672 36.4091C139.391 37.4643 139.849 38.6751 140.008 39.9419C140.167 41.2086 140.024 42.4951 139.589 43.6955C134.518 35.9483 120.925 30.0706 111.613 31.659C99.8087 33.6815 86.4382 37.6875 95.9961 46.0552C102.211 47.1144 108.488 47.7748 114.788 48.0326C121.054 48.5261 127.022 51.0585 131.699 52.8364C120.648 61.5762 102.071 70.606 97.6547 83.7741C91.6568 101.992 109.097 97.2605 121.843 107.534C114.361 115.171 110.325 128.499 117.765 137.571C119.097 139.424 121 140.787 123.182 141.452C125.365 142.117 127.705 142.047 129.843 141.253C128.997 145.346 128.728 149.537 129.043 153.704C130.38 175.99 138.136 163.363 145.956 175.667C148.383 179.504 148.923 184.702 148.469 190.13C147.971 190.51 147.687 190.688 147.687 190.688C145.778 178.019 134.747 170.83 128.182 163.321C121.616 155.812 114.248 144.175 104.131 122.948C94.0146 101.721 95.3199 102.288 88.3696 84.0849Z" fill="#006F54"/>
<path d="M147.73 190.702C148.671 189.313 149.487 187.843 150.168 186.31C150.836 184.764 151.406 183.177 151.874 181.559C152.832 178.304 153.417 174.951 153.619 171.563C153.782 168.151 153.632 164.731 153.17 161.346C152.782 158 152.286 154.827 152.056 151.533C151.495 144.991 151.325 138.42 151.549 131.857C151.737 125.335 152.495 118.842 153.813 112.452L154.334 110.085L154.941 107.748C155.198 106.982 155.368 106.187 155.605 105.43L156.391 103.089C157.438 99.7834 158.154 96.3819 158.527 92.9346C158.897 89.5485 159.089 86.1452 159.1 82.7389C159.149 79.3599 159.027 75.9805 158.734 72.6139C158.218 65.8833 157.062 59.2172 155.282 52.7059C154.376 49.4548 153.215 46.2802 151.81 43.2115C151.1 41.6841 150.298 40.2014 149.408 38.7717C148.48 37.3529 147.417 36.027 146.234 34.8125C148.138 37.5216 149.609 40.5106 150.594 43.6721C151.647 46.7905 152.474 49.9806 153.068 53.2177C153.694 56.4345 154.116 59.6799 154.491 62.9734C154.866 66.267 155.038 69.5891 155.123 72.8338C155.357 79.3681 155.039 85.9104 154.175 92.3915C153.761 95.5542 153.064 98.6734 152.093 101.712C150.959 104.93 150.033 108.219 149.322 111.556C148.957 113.219 148.713 114.906 148.421 116.593C148.128 118.28 147.952 119.957 147.804 121.644C147.445 125.013 147.275 128.398 147.215 131.787C147.156 135.176 147.265 138.541 147.49 141.897C147.584 143.537 147.764 145.205 147.886 146.95C148.008 148.696 148.246 150.287 148.483 151.975C148.959 155.351 149.473 158.611 150.2 161.91C150.866 165.091 151.25 168.325 151.348 171.574C151.469 174.841 151.24 178.112 150.664 181.33C150.122 184.574 149.135 187.728 147.73 190.702Z" fill="#006A45"/>
<path d="M188.86 109.541C187.026 98.0876 177.32 88.8663 175.283 77.827C177.293 80.3666 179.695 82.1693 181.808 81.6235C187.147 80.375 181.212 70.312 175.468 66.9701C176.692 59.6297 178.973 58.7709 174.738 52.8958C173.89 47.5621 166.043 41.8588 162.519 44.4558C159.312 42.3189 156.777 39.7157 156.573 35.627C161.876 35.251 168.608 36.3192 176.572 46.6606C191.407 65.9482 191.491 82.3789 188.86 109.541Z" fill="#006F54"/>
<path d="M164.399 165.788C165.503 164.659 166.185 163.184 166.33 161.612C166.688 160.928 167.075 160.254 167.501 159.56C175.513 146.649 172.292 144.652 175.272 133.945C175.993 131.379 177.334 129.028 179.176 127.101C179.887 126.892 180.536 126.512 181.068 125.996C181.599 125.48 181.997 124.842 182.228 124.137C184.505 122.325 186.416 120.095 187.857 117.567C185.136 136.128 180.89 135.508 173.988 155.464C171.174 163.367 167.005 170.718 161.668 177.19C162.024 173.278 162.944 169.437 164.399 165.788Z" fill="#006F54"/>
</g>
<defs>
<clipPath id="clip0_106_1607">
<rect width="606.162" height="509.307" fill="white" transform="translate(80.9595 -143) rotate(18.542)"/>
</clipPath>
</defs>
</svg>
