<?xml version="1.0" encoding="UTF-8"?><svg id="Layer_1" xmlns="http://www.w3.org/2000/svg" viewBox="0 0 514.28 381.28"><defs><style>.cls-1{fill:#0a6f37;}</style></defs><g id="G3JWvX"><path class="cls-1" d="m514.28,381.28v-159.25c-1.38.03-2.77-.03-4.14.12-1.42.16-1.8.88-1.15,2.12.85,1.63.58,3.28.52,5.08-.92,0-1.61-.04-2.28,0-1.65.12-2.41,1.1-1.98,2.65.73,2.58.18,5.17.36,7.83-.57.1-.97.21-1.36.23-.18,0-.37-.15-.53-.22q-.62-3.22-4.03-3.39c-.62-.03-1.25-.11-1.86-.07-1.1.08-2.21.17-3.29.37-.92.17-1.36.73-1.29,1.78.18,2.89.25,5.78.34,8.67,0,.32-.15.64-.26,1.08-.6,0-1.15-.05-1.69,0-2.06.21-4.13.32-6.16.72-1.85.36-2.31,1.28-2.24,3.11.08,1.85.02,3.7.02,5.62-2.07.77-4.19,1.4-6.16,2.34-2.36,1.12-4.62,2.48-6.89,3.79-1.05.6-2.04,1.04-3.31.56-.6-.23-1.36-.09-2.04-.06-1.56.07-3.13.19-4.73.29-.28-.86-.49-1.5-.75-2.29,1.47-.36,2.81-.66,4.13-1.01,3.89-1.01,7.69-2.18,9.7-6.46-.43-.54-.95-1.24-1.52-1.91-.67-.78-1.48-1.47-2.05-2.31-1.24-1.84-2.86-2.67-5.09-2.53-.94.06-1.91-.18-2.84-.42-1.98-.5-3.84-1.64-6.02-.85-.32.12-.8-.14-1.18-.29-2.43-.97-4.86-1.94-7.27-2.95-3.72-1.55-7.57-2.09-11.57-1.53-3.72.53-6.94,2.28-9.99,4.33-7.86,5.29-12.97,12.72-16.06,21.54-1.56,4.45-1.08,8.73,2.47,12.27.24.24.44.51.77.88-.81.72-1.56,1.39-2.42,2.15-2.89-2.34-5.68-4.58-8.45-6.84-2.84-2.32-5.9-4.31-9.1-6.11-3.11-1.75-6.12-3.67-9.26-5.57-.28.47-.55.92-.95,1.6.92.84,1.81,1.65,2.86,2.61-.81.19-1.45.34-2.23.52-.04.69-.07,1.34-.12,2.11,1.18.2,2.19.37,3.2.53,2.06.34,4.06.87,5.78,2.1.27.19.42.57.76,1.05-.54,0-.81.04-1.05,0-3.31-.66-6.62-1.36-9.94-2-1.62-.31-3.25-.43-4.78-1.23-.79-.41-1.88-.34-2.83-.31-1.24.03-2.12.72-2.32,1.97-.17,1.05-.16,2.12-.23,3.29-.24.04-.57.14-.9.13-1.81-.06-2.23-.69-1.58-2.36.22-.58.55-1.12.77-1.7,1.51-3.87.23-6.62-3.67-8.01-1.11-.39-2.23-.75-3.3-1.23-.54-.24-1.23-.62-1.41-1.11-.61-1.66-1.9-1.82-3.35-1.83-2.12-.02-2.18-.11-1.54-2.06.06-.18.07-.37.07-.41-.58-.09-1.11-.17-1.52-.23.15,1.15.37,2.37.47,3.59.17,2.2,1.37,3.59,3.38,4.25.82.27,1.76.26,2.65.27,1.36,0,2.34.7,3.29,1.53.87.75.5,1.59.35,2.48-.08.45.08.95.13,1.43.04.4.23.87.1,1.2-.53,1.38-1.16,2.71-1.79,4.16-1.1-.86-1.44-2.63-3.24-2.58-1.87.05-2.14,1.62-2.79,2.96-6.44-1.65-12.51-4.12-18.73-6.15-.76,1.24.11,2.17.56,2.95.54.94.75,2.2,2.09,2.66,1.66.56,3.24,1.34,5.14,2.15-.93.6-1.53,1.04-2.18,1.4-1.89,1.06-3.81,1.8-6.1,1.4-2.51-.43-5.07-.61-7.61-.84-1.35-.12-2.72-.14-4.14-.2.1-.71.18-1.24.28-1.97q-2.12,1.98-4.47,1.3c.98-2.45,3.07-3.91,4.93-5.61-.45,0-.83.12-1.18.27-2.43,1-4.34,2.67-5.93,4.72-.53.68-1.04,1.31-1.99.7.05-3.29,1.24-5.82,3.65-7.74.81-.65,1.68-1.21,2.51-1.83.47-.35.91-.75,1.36-1.12-.07-.14-.14-.29-.21-.43-1.55.53-3.1,1.07-4.87,1.67,1.05-2.38,2.39-4.36,2.46-6.82-1.69,2.2-3.52,4.34-4.65,6.81-1.42,3.11-4.3,4.28-6.69,6.19.46-5.5,2.3-10.59,3.83-15.77-2.42,2.78-3.62,6.19-4.97,9.47-1.34,3.26-2.19,6.73-3.26,10.11-.27-4.35.54-8.54,1.47-12.73-1.84,3.51-3.53,7.08-4.22,10.97-.59,3.34-1.09,2.61-3.52,2.68-.11,0-.23-.11-.44-.21.45-.77.91-1.53,1.36-2.3-.11-.15-.21-.3-.32-.45-1.52.26-3.04.52-4.73.8.12-.78.25-1.61.39-2.53,3.7.62,5.29-1.65,6.86-4.39-1.48-.18-2.76-.33-4.12-.49.29-2.24,1.03-4.17,2.4-6.08,1.28.95,2.29.84,3.57-.08,1.95-1.4,2.66-2.47,2.09-4.63-.37-1.42-2.86-2.75-4.06-2-1.32.82-2.54,1.03-3.92.35-.17-.08-.39-.07-.74-.13.46-2.63-1.93-1.95-3.14-2.48-1.31-.58-1.33,1.21-2.04,1.86-1.21-.21-2.13-.23-2.88,1.2-.57,1.09-1.25,1.76-.06,2.77.17.14.04.62.06.94.02.33-.05.76.12.99,1.41,1.79,2.32,4.12,4.91,4.69.17.04.31.25.56.46-.05.53-.11,1.09-.18,1.9-1.62-1.27-2.91-2.72-5.08-2.23.21,3.24,1.01,5.97,4.5,6.95-.26,1.61-.48,3-.77,4.81-1.45-2.06-2.64-3.79-4.76-4.58-.1,1.93-.2,3.75-.31,5.64-1.74.11-3.3.21-5.19.33.42-1.07.7-1.9,1.07-2.69.91-1.97,1.45-4.03,1.55-6.19.1-2.28.08-4.56.16-6.84.05-1.35.2-2.69.3-4.03-1.62,4.21-1.3,9.12-5.04,12.48.01-1.26.11-2.49.38-3.69.46-2.09,1.02-4.16,1.53-6.23.25-.99.32-1.96,0-3.25-.78.86-1.43,1.4-1.84,2.08-.84,1.41-1.55,2.89-2.45,4.61-.28-1.81-.55-3.41-.76-5.02-.04-.3.1-.72.31-.93,1.21-1.28,1.71-2.68,1.17-4.43-.49-1.59-.52-3.47-1.42-4.74-.71-1-.73-2.63-2.23-3.06,0-1.68-1.39-1.96-2.57-2.5-.39.43-.8.87-1.12,1.23.46,1.85,1.12,3.59,1.27,5.36.14,1.61.28,3.2.67,4.77.33,1.32.86,2.54,2,3.29.82.54,1.04,1.19,1.09,2.06.13,2.21.3,4.41.42,6.62.02.41-.11.82-.21,1.49-2.74-5.36-5.32-10.41-7.96-15.58-.13.32-.21.44-.22.56-.02.55-.04,1.11-.01,1.66.26,4.97,1.92,9.61,3.7,14.16,1.45,3.7,2.54,7.44,2.84,11.4.03.35-.14.71-.21,1.06-.46-.41-.68-.81-.74-1.24-.7-5.13-3.04-9.57-5.74-13.86-1.21-1.93-2.46-3.84-3.7-5.75-.22-.34-.51-.62-.77-.93.92,5.67,2.27,11.14,3.18,16.73-.62-.64-1-1.35-1.41-2.05-1.01-1.73-1.98-3.48-3.07-5.15-.33-.51-.98-.8-1.5-1.18.07-1.26.15-2.51.22-3.77-.15-.07-.3-.14-.45-.21-.94.81-1.89,1.63-2.99,2.57,0-.69.09-1.17-.02-1.61-.32-1.34-.14-2.3,1.23-3.1,1.14-.67.99-2.11-.04-3.12-.44-.43-.89-.84-1.2-1.14-.57-2.3-.16-4.13,1.61-5.65.6-.52,1.1-.83,1.8-.63.95.27,1.87.67,2.8,1.02.27-2.71-.69-3.76-3.93-4.26q-.39-1.64,1.35-2.64c-1.3-.34-2.35-.9-3.34-.79-.68.07-1.26,1.05-1.88,1.62-.62-.37-1.25-.74-2.05-1.21-.13.95-.23,1.67-.35,2.48-2.01.44-2.17,1.99-2.22,3.73.72-.2,1.33-.37,2.01-.56.87,1.58.27,3.63,1.87,4.77.4-.21.79-.41,1.54-.79-.13,1.06-.22,1.8-.31,2.47h-4.84c.42-.99.75-1.78,1.03-2.43-.3-.71-.57-1.33-.86-2-.57.12-1.15.24-1.75.37-.25-.54-.45-.98-.7-1.52-.75.82-1.36,1.48-1.95,2.13h-2.72c.47.66.8,1.13,1.14,1.6-.41.35-.75.64-1.14.96,2.47,1.18,4.33,2.71,5.24,5.26.19.54.9,1.03,1.49,1.27,1.38.57,2.5,1.42,3.52,2.47,1.65,1.7,2.63,5.65,1.98,7.89-.91-.79-1.92-1.52-2.75-2.42-.83-.89-1.49-1.94-2.22-2.92.25,4.02.74,7.88,4.03,10.91-1.55.02-2.05-.77-2.59-1.6-2.07-3.18-4.15-6.36-6.3-9.49-1.15-1.68-2.67-3-4.75-4.23,1.19,2.19,2.27,3.95,3.13,5.81.85,1.84,2.06,3.56,2.35,6.08-.97-.61-1.64-1.04-2.32-1.45-1.77-1.07-3.49-2.25-5.33-3.18-1.47-.74-2.64-1.68-3.58-3.02-1.04-1.48-2.22-2.87-3.89-3.81.64,1.16,1.27,2.33,2.11,3.86-1.27-.49-2.15-.83-3.03-1.17,1.3,1.36,2.96,2.21,4.04,3.54,1.12,1.38,1.75,3.19,2.18,5.23-1.79-.58-3.04-1.78-5.02-1.83,1.8,1.73,3.6,3.06,4.88,4.86-.1.11-.2.21-.29.32-1.84-1.31-3.69-2.62-5.53-3.94-.1.11-.2.21-.3.32,3.23,2.94,5.38,6.54,6.75,10.64-2.66-4.31-5.6-8.37-9.66-11.49.53,1.28,1.14,2.51,1.96,3.57,1.76,2.28,1.19,4.56.29,7.1-1.27-1.03-2.28-2.14-3.52-2.79-1.78-.93-2.23-2.24-2.01-4.06.11-.89.02-1.79.02-2.69,0-.81,0-1.62,0-2.44-.07.01-.14.03-.21.04-.6,2.22-1.21,4.44-1.81,6.66-1.8-.61-3.37-1.13-4.93-1.66,1.18,1.22,2.44,2.17,3.74,3.06.84.58.96,1.22.4,2.14-.52-.41-.95-.75-1.39-1.09.56,2.01,1.74,3.81.86,5.96-1.45-3-2.75-6.02-4.35-8.87-1.62-2.87-2.99-5.94-5.64-8.15,2.28,6.09,3.96,12.32,5.13,18.74-1.1-2.12-2.21-4.23-3.31-6.35,1.22,3.19,2.32,6.36,3.01,9.7-3.13-6.19-5.9-12.56-10.78-17.67,2.11,5.3,4.73,10.42,5.03,16.25-1.22-2.16-2.24-4.41-3.49-6.52-1.24-2.09-2.38-4.31-4.49-5.8.47,2.79,2.08,5.19,2.52,7.97-.64-.59-1.11-1.27-1.59-1.93-.49-.66-.84-1.47-1.86-2.07,1.42,3.67,3.48,6.73,3.72,10.4-.14.06-.27.12-.41.19-1.14-1.83-2.29-3.66-3.44-5.49-.03,2.51,1.03,4.78.76,7.23-1.08-1.73-1.46-3.79-2.99-5.64-.13,1.32-.23,2.26-.37,3.69-.69-1.52-1.16-2.54-1.63-3.57-.12.03-.24.06-.37.08v4.14c-.6-.48-1.15-1.06-1.07-1.54.27-1.68-.05-3.5,1.01-5,.42-.6.81-1.23.32-1.89-.97-1.28-.88-2.71-.75-4.17.33-3.75.08-7.45-.84-11.11-.34-1.34-.59-2.7-.75-4.07-.26-2.3.08-2.64,2.44-2.63,3.01.01,5.88-.42,8.56-1.99,1.19-.7,2.68-.91,4.26-1.41.25,1.6.46,2.97.72,4.66.55-.67.88-1.06,1.24-1.49.2.42.36.77.59,1.26.56-.6,1.02-1.1,1.56-1.67.19.68.33,1.17.46,1.65.13,0,.25.02.38.03.27-1.09.54-2.17.85-3.43,2.23,2.56,2.64,5.67,3.24,8.76,1.38-2.56,1.33-5.32,1.53-8.35.49.8.81,1.33,1.13,1.86.14-.02.28-.04.42-.05.05-.7.22-1.42.14-2.11-.43-3.82-.63-7.65-2.76-11.13-.85-1.39-1.3-3-2.68-4.05-.15-.12-.25-.34-.32-.53-.75-2.09-2.3-3.58-3.85-5.07-.28-.27-.81-.75-.75-.86.7-1.24-.51-1.62-1.03-2.15-2.63-2.66-5.83-4.38-9.4-5.45-1.02-.31-2.05-.6-3.07-.9,0-.11.02-.21.02-.32.63-.19,1.27-.38,2.28-.68-1.49-.42-2.73-.46-3.56-1.07-1.2-.87-2.42-.88-3.71-.82-1.45.08-2.89.23-4.32.45-5.69.88-11,2.58-15.32,6.66-2.53,2.39-4.34,5.17-5.23,8.54-.48,1.82-.37,3.65.73,5.18.78,1.08.65,2,.28,3.09-2.06,6.11-.95,11.68,2.84,16.84,1.26,1.72,2.34,3.59,3.45,5.42.46.76.98,1.6.41,2.51-.6.96-1.63.67-2.46.57-1.43-.18-2.84-.57-4.26-.84-2.26-.42-4.11.2-5.31,2.25-.49.83-1.14,1.32-2.11,1.48-2.95.48-4.26,2.19-4.57,5.31-.17,1.78-.19,3.61.04,5.37.3,2.32,1.59,4.02,4.01,4.87,0-.96-.02-1.77,0-2.59.06-2.21.55-4.09,3.15-4.67,1.33-.3,2.01-1.4,2.22-2.73.1-.61.09-1.24.17-1.86.33-2.44,1.27-3.19,3.77-3,.69.05,1.37.15,2.06.25,1.37.21,2.72.54,4.09.64,3.49.26,5.25-1.74,4.38-5.14-.38-1.51-1.24-2.9-1.88-4.35-.81-1.83-1.77-3.6-2.38-5.49-.86-2.71-.05-5.19,1.72-7.34.89-1.08,1.71-1.19,2.89-.39,2.62,1.78,4.81,3.91,5.37,7.24.67,4.01,1.32,8.03,2.03,12.04.22,1.23,0,2.31-.59,3.38-.65,1.19-.98,2.43-.28,3.75.15.28.22.69.14.99-.49,1.89-.9,3.82-1.9,5.82-.67-.94-1.17-1.67-1.71-2.36-.55-.7-.98-1.58-2.19-1.71.53,1.45,1.04,2.66,1.41,3.9.37,1.25.71,2.53.54,4.38-1.35-2.38-1.67-4.74-3.36-6.38.27,1.69.74,3.33,1.04,5,.14.79.75,1.84-.41,2.38-.72.34-1.21-.32-1.64-1.86-.49-1.76-1.04-3.5-2.39-4.98v5.23c-.13.03-.26.06-.38.08-.68-1.63-1.35-3.26-2.21-5.33-.52,2.24-.08,4.08-.77,5.82-.57-1.22-1.14-2.45-1.71-3.67-.27,1.97.77,3.8-.15,5.82-.87-1.01-1.61-1.88-2.35-2.75-.09.04-.18.08-.28.12.19.68.39,1.36.62,2.16-.72-.11-1.25-.2-1.82-.29.45,1.31.84,2.44,1.22,3.57-1.29-.88-1.55-2.55-3.18-3.15.04,1.49,1.02,3.06-.9,3.87q-1.35-1.06-2.46-.75c-.45-.59-.91-1.19-1.38-1.78-.52-.64-1.05-1.29-1.6-1.9-.45-.5-.94-.97-1.41-1.45-.07.08-.14.15-.21.23.4,1.22.8,2.43,1.2,3.65-.12.07-.25.14-.37.21-1.34-1.68-2.35-3.68-4.22-4.89.44,1.24,1.26,2.32,1.21,4-.74-1.12-1.29-1.95-2.1-3.17-.06,1.16-.1,1.8-.13,2.44-.1,0-.2.02-.3.02-.23-1.23-.46-2.47-.69-3.7-.13,0-.26,0-.38.01-.14,1.51-.29,3.02-.47,4.93-.67-1.24-1.15-2.15-1.83-3.41-.1,1.34-.16,2.18-.25,3.43-1.2-1.56-2.1-2.76-3.04-3.92-.97-1.18-1.83-2.52-3.63-3.14,2.41,3.47,2.82,4.47,2.57,6.11-.69-1.15-1.36-2.26-2.03-3.38-.1.06-.21.11-.31.17.13.87.25,1.73.38,2.6l-.59.12c-.32-1.08-.92-2.16-.89-3.22.05-1.77.3-3.61.87-5.28.63-1.85.87-3.55.74-5.56-.27-4.33.04-8.7.15-13.05,0-.41.22-.81.47-1.7.79,1.67,1.49,2.85,1.9,4.12.42,1.32.56,2.73.87,4.41,1.2-1.6,1.2-3.38,2.13-4.83v2.72c.14.04.27.08.41.11.37-.69.86-1.34,1.1-2.08.63-1.92.86-3.89.53-5.93-.11-.71-.1-1.51.12-2.18.23-.68.46-1.14.35-2-.15-1.15-1.29-.56-1.43-1.3-.04-.34-.04-.68-.04-1.03.03-2.62.25-5.26.04-7.86-.32-3.88-2.13-7.01-5.74-8.76-2.32-1.13-4.83-1.67-7.45-1.45-2.57.22-4.89,1.04-6.5,3.18-1.33,1.75-2.53,3.6-3.82,5.39-.36.5-.82.93-1.23,1.4-.39-.65-.55-1.16-.41-1.55.5-1.35.95-2.75,1.7-3.96,1.38-2.23,2.96-4.33,4.45-6.5,1.3-1.89,1.87-3.95,1.72-6.26-.27-4.23-3.03-7.25-7.23-7.79-3.2-.41-5.7,1.46-5.74,4.67-.02,1.72-.41,3.16-1.14,4.68-1.14,2.37.04,5.42,2.28,6.45.21-1.29.37-2.59.65-3.87.21-.95.53-1.9,1.63-2.22,1.64-.48,2.35-1.82,3.05-3.19.2-.39.4-.79.63-1.27,1.4,1.02,1.91,2.31,1.58,3.73-.32,1.39-.84,2.78-1.55,4.01-.79,1.36-1.92,2.53-2.88,3.79-1.81,2.39-3.38,4.92-3.93,7.91-.56,3.04.14,5.85,2.45,7.95,1.19,1.09,2.93,1.57,4.17,2.62,1.24,1.05,2.17,2.47,3.24,3.73.09.1.22.17.33.25,1.36,1.08,2.19,2.44,2.34,4.21.31,3.79.7,7.56.94,11.35.07,1.14-.61,2.38-.36,3.43.59,2.49-.31,4.79-.49,7.17-.03.34-.23.67-.45,1.26-1.78-2.85-3.33-5.5-6.02-7.19,2.23,3.46,3.62,7.17,3.78,11.31-1.1-2.56-2.08-5.17-3.92-7.34.11,1.18.41,2.31.58,3.45.16,1.14.5,2.34-.31,3.61-.7-1.33-1.32-2.48-1.91-3.63q-1.22-2.36-2.15-3.01c.36,1.75.71,3.46,1.07,5.17-.16.07-.32.14-.48.21-.53-.75-1.11-1.48-1.58-2.27-.49-.82-.88-1.71-1.32-2.57-.08.03-.17.05-.25.08v2.75c-.48-.64-.77-1.03-1.28-1.71-.09,1.6-.16,2.84-.23,4.07-1.59-2.22-1.51-4.76-2.22-7.16-.16,1.84-.32,3.67-.48,5.51-1.45-2.18-2.12-4.66-4.49-6.64.82,2.21,1.46,3.98,1.13,6.35-1.34-2.07-2.06-4.07-4.09-5.49.66,2.09,1.22,3.89,1.79,5.7-1.07-.78-1.78-1.76-2.59-2.65-1.74-1.92-1.76-1.91-2.83-2.2.8,1.48,1.6,2.95,2.4,4.43-1.31-1.04-1.9-2.65-3.42-3.44-.44.78.13,1.74-.8,2.41-.98-1.71-.58-3.55-.86-5.24-.17-.01-.33-.03-.5-.05-.47,1.63-.95,3.26-1.48,5.07-.34-1.17-.6-2.07-.86-2.97-1.29-4.4-1.95-8.9-2.03-13.47-.02-1.14-.28-2.12-.69-3.18-1.07-2.69-1.96-5.44-2.88-8.19-.11-.32.03-.73.06-1.09.14-.06.27-.12.41-.18.37.52.78,1.01,1.1,1.56.37.61.66,1.26,1.13,2.17.15-.8.24-1.25.4-2.15.47,1.2.77,1.96,1.09,2.75.3-.33.56-.61.91-.99.55.74,1.03,1.38,1.58,2.11.2-.48.37-.87.55-1.31,1.65,1.08,3.17,2.14,5.2,2.24-.19-.45-.32-.76-.49-1.17,1,.26,1.83.47,2.76.71-.17-.77-.3-1.34-.43-1.92.47-.09.8-.16,1.21-.24-.38-.51-.73-.98-1.34-1.79,1.57.46,2.64,1.25,4.1,1.18-1.02-1.53-2.59-2.28-3.03-4.03.7.36,1.39.73,2.27,1.19-.12-.8-.22-1.45-.33-2.18,1.04-.22,2.24.18,2.93-1.15-3.91-1.62-6.43-4.86-9.22-7.8-1.42-1.5-2.92-2.94-4.42-4.37-4.66-4.45-10.33-5.29-16.39-4.3-4.09.67-6.6,3.22-7.61,7.24-.12.47-.28.93-.34,1.41-.28,2.33-.53,4.66-.8,6.99-.12,1.02-.14,2.08-.41,3.06-.31,1.12-1.13,1.34-2.07.66-.39-.28-.72-.65-1.02-1.02-.82-1.02-1.62-2.06-2.42-3.1-.07-.09-.04-.24-.06-.4.52-.09,1.04-.17,1.5-.25.12-.51.35-.94.27-1.3-.06-.29-.51-.49-.8-.75.42-.29.73-.52,1.19-.84-.52-.21-.87-.35-1.22-.49.21-.26.4-.51.66-.84-.51-.06-.89-.11-1.32-.16.22-.43.39-.77.56-1.11-.72-.15-1.34-.27-1.96-.4.08-.41.15-.82.25-1.34-.53.32-.91.55-1.39.84.03-.54.05-.85.07-1.2-.36.14-.65.25-1,.38-.08-.43-.14-.82-.22-1.24-.31.21-.57.4-.89.62-.11-.41-.21-.79-.31-1.19-.2.3-.37.56-.65.97-.25-.6-.44-1.04-.67-1.61-.26.66-.44,1.15-.69,1.77-.35-.55-.61-.94-.97-1.51-.14.45-.23.76-.34,1.11-.31-.28-.61-.54-1.04-.92.06.62.09,1.01.13,1.46-.46-.37-.83-.67-1.33-1.07.07.8.12,1.36.19,2.04-.53-.32-.87-.53-1.5-.91.45,1-1.3,1.22-.29,2.09-1.7.34-.98,1.97-1.62,2.83.3.2.56.37.89.6-.3.13-.54.23-.74.32-.44.94,1.25,1.3.53,2.34h1.5c.13,1.08.42,2.06.33,3.02-.1,1-.55,1.97-.93,3.21,2.41-.9,4.43-1.74,6.52-2.42,2.34-.77,3.38-.35,4.88,1.7.37.5.68,1.04,1.05,1.54,2.33,3.09,6.37,2.7,8.08-.76.21-.43.37-.89.54-1.35.33-.89.95-1.35,1.91-1.24,1.3.15,2.6.34,3.89.53,1.07.16,1.68.75,1.91,1.86.35,1.69.88,3.34,1.19,5.04.21,1.14.44,2.38.22,3.49-.96,4.69-3.06,8.97-4.87,13.48-.68-.36-1.15-.6-1.63-.86-.29,1.33,1.91,2.77-.36,4.01-1.26-1.47-1.95-3.35-3.86-4.51.5,1.75,1.51,3.05,1.48,5.02-1.51-1.46-2-3.42-3.99-4.39.31,1.14.55,1.99.76,2.75-.81-.15-1.45-.27-2.31-.43-1.18-1.54-2.56-3.33-3.94-5.12-.1.06-.21.11-.31.17.37,1.37.73,2.74,1.1,4.11-1.6-1.64-2.47-3.69-4.41-5.25.44,1.42.79,2.58,1.15,3.74-.1.03-.19.06-.29.09-.52-.84-1.04-1.69-1.55-2.53-.11.03-.22.07-.33.1-.04.65-.09,1.3-.13,1.95-.11,0-.22,0-.33,0-.18-1.28-.37-2.57-.55-3.85-.13,0-.25.01-.38.02-.23,1.51-.46,3.02-.74,4.86-.57-1.2-.98-2.08-1.4-2.95-.1.03-.2.07-.29.1-.11.81-.21,1.61-.35,2.65-2.08-2.31-3.14-5.02-5.78-6.98.93,2.35,2.12,4.19,2.22,6.39-.99-1-.96-2.65-2.41-3.55.28,1.64.53,3.08.77,4.53-1.08-1.1-1.04-2.78-2.41-3.78-.1.82-.18,1.44-.31,2.46-1-2.1-1.55-3.96-3.08-5.58.21,1.72.38,3.16.55,4.59-.11.02-.23.04-.34.06-.3-.45-.6-.91-1.07-1.63-.25,1.41-.44,2.47-.69,3.9-.43-.69-.68-1.08-1.04-1.66-.48,1.22-.86,2.2-1.25,3.19-1.21-3.58-2.44-6.98-4.98-9.78.41,1.99.83,3.98,1.24,5.97-1.74-2.66-2.53-5.71-4.33-8.27.59,3.03.92,6.04.48,9.36-1.12-2.84-2.13-5.38-3.1-7.93-.17-.44-.12-.96-.21-1.43-.9-4.57-.05-9.21-.52-13.79,0-.07.17-.16.41-.38.39.45.76.92,1.17,1.34.99,1.03,1.95,2.11,3.04,3.04.61.52.96,1.01,1.18,1.81.7,2.53,1.42,5.06,4.15,6.33,1.12.52,1.57,1.69,1.84,2.88.11.48.23.96.37,1.56,1.63-1.83,1.93-3.37,1.2-5.91-.32-1.12-.68-2.14-.24-3.39.39-1.11.04-2.32-.65-3.36-1.03-1.55-2.31-2.71-4.19-3.16-1.73-.42-3.19-1.25-4.06-2.93-.51-.97-1.02-2.04-1.83-2.72-.79-.66-1.94-.89-3.06-1.36-.4-3.9-.52-7.89-.34-11.9.04-.94.48-1.36,1.37-1.48,1.7-.23,3.21.59,3.68,2.3.43,1.59.54,3.26.89,4.88.31,1.41.22,3.23,2.54,3.02.25-.02.52.4.8.58.58.37,1.13.86,1.76,1.03,1.32.37,1.88,1.33,2.26,2.48.28.87.51,1.76.8,2.78,1.53-1.37,2.15-2.98,2.47-4.68.27-1.46.18-2.89-1.08-4-.32-.28-.47-.81-.57-1.25-.43-1.82-.69-2.05-2.49-2.02-2.39.04-3.29-.83-3.23-3.17.02-.62.16-1.23.26-1.84.23-1.36.58-2.71.7-4.08.47-5.62-1.08-10.52-5.41-14.34-5.17-4.56-15.47-5.43-21.97-2-.64.34-1.17.89-1.76,1.34.04.09.08.19.12.28.63-.06,1.26-.12,2.17-.21-1.31,1.04-2.38,1.89-3.69,2.94.71.06.96.08,1.5.12-.95.67-1.73,1.05-2.27,1.64-.54.59-.78,1.44-1.27,2.08-.57.74-1.15,1.76-1.93,2.01-2.71.86-4.39,2.77-5.88,4.99-.34.51-.65,1.11-1.13,1.46-2.08,1.56-4.22,3.04-6.34,4.55v7.47c.82-.06,1.66-.04,2.47-.2,1.28-.25,2.45-.11,3.59.52.78.43,1.6.83,2.43,1.15,1.93.74,3.86,1.46,5.82,2.1,1.1.36,2.25.53,3.65.84-.65,4.97-1.1,9.87-2.79,14.53,1.4.94,2.68,1.87,4.04,2.69,2.38,1.44,2.57,3.62,2.23,6.32-.68-.76-1.19-1.34-1.95-2.19-.1,1.47-.17,2.57-.24,3.66-.18,0-.35.02-.53.03-.4-2.22-.8-4.44-1.26-7.01-1.34,2.28-1.19,4.58-1.8,7.15-1.66-2.95-3.27-5.26-5.55-7.03.61,1.49,1.22,2.99,1.83,4.48l-.29.12c-.65-1.11-1.3-2.22-1.95-3.34l-.24.16c.14.69.28,1.38.42,2.07-1.2-1.46-1.86-3.23-3.67-4.47.51,2.43,1.76,4.47,1.13,7.24-1.11-2.16-1.38-4.29-2.44-6.04-.16.04-.32.07-.48.11v4.52c-1.28-2.4-1.47-4.95-1.62-7.88-1.2,1.6-.92,3.25-1.5,4.64-.27-.47-.31-.96-.52-1.36-.11-.22-.51-.28-.77-.42v100.35h514.28ZM21.24,263.51c-.27,3.26.26,6.51-.24,9.77-.13.85.05,1.73.06,2.6.01,1.06,0,2.11,0,3.43-.7-.39-1.17-.64-1.62-.91-1.82-1.09-2.48-2.56-1.84-4.7.75-2.51,1.24-5.09,1.92-7.62.25-.94.75-1.81,1.14-2.71.19.04.38.09.57.13Zm2.11,20.72c1.58,2.25,3.55,3.85,3.39,6.86-1.27-1.56-3.3-5.49-3.39-6.86Zm8.64,5.9c-.15.04-.29.09-.44.13-1.21-2.71-1.54-5.84-3.74-8.54.22,2.45,1.25,4.46.6,6.6-.42-.45-.63-.94-.87-1.42-.99-1.92-1.63-4.08-3.9-5.08-.45-.2-.75-.97-.91-1.53-.2-.72-.3-1.51-.24-2.25.21-2.23.42-4.41.08-6.69-.27-1.8.18-3.71.38-5.56.14-1.28.38-2.54.58-3.83.94-.13,1.66-.23,2.49-.34.21,1.2.37,2.29.59,3.36.35,1.74,1.01,3.48,2.56,4.34,1.81,1,1.73,2.44,1.64,4.03-.04.75-.2,1.5-.16,2.24.08,1.29.36,2.57.41,3.86.09,2.62-.1,5.24.65,7.81.26.9.19,1.9.27,2.86Zm4.48-25.55c-1.5.33-2.64,1.54-4.34.89.11-1.82-.28-3.71.85-5.23,1.91-2.58,2.74-5.34,2.21-8.53.88,4.26,1.53,8.5,1.28,12.87Zm.63,21.78c-.44-.51-.65-.77-1.13-1.34.24,2.4.44,4.36.63,6.33-.14.02-.29.04-.43.06-.51-1.75-1.02-3.5-1.65-5.67-.18,1.62-.32,2.81-.45,4.01-1.15-1.7-1.17-3.54-1.41-5.37-.54-4.09.63-8.17-.09-12.25-.06-.33-.06-.73.08-1.02.21-.45.48-.99.88-1.23.98-.6,2.06-1.02,3.5-.78-.08,1.3-.15,2.52-.23,3.74-.04.68-.31,1.44-.1,2.03.93,2.7.46,5.47.6,8.21.05,1.01-.11,2.03-.18,3.28Zm65.47,11.52c-1.07-1.05-2.15-2.1-3.22-3.15-.09.07-.18.14-.27.21.5,1.1,1,2.19,1.5,3.28-.09.04-.19.08-.28.12-.55-.67-1.1-1.33-1.94-2.35.11.85.15,1.15.23,1.81-1.12-1.26-1.96-2.2-2.8-3.15.22,2.35,1.67,4.35,1.08,7.11-1.19-2.12-1.58-4.23-2.85-6.11-.69,1.77.35,3.41-.75,4.9-.49-2.5-.98-5.01-1.47-7.51-.1-.02-.2-.03-.31-.05-.27,1.48-.54,2.95-.88,4.77-.35-.95-.57-1.57-.74-2.05-.52-.11-.87-.18-1.27-.26.06-.42.05-.71.15-.96,1.61-4.11,3.25-8.21,4.84-12.33.27-.68.6-1.48.48-2.15-.42-2.36-1.04-4.69-1.56-7.04-.11-.5-.09-1.03-.13-1.61h4.76c3.57,8.48,5.13,17.28,5.41,26.51Zm43.06,4.43c-1.72.48-2.24-.45-2.57-1.72-.18-.69-.51-1.34-.78-2.01-.13.04-.25.08-.38.12.21,1.68.42,3.37.62,5.05-1.52-1.8-1.64-3.96-1.62-6.16-.19,0-.38,0-.57,0-.38,1.56-.77,3.11-1.15,4.67-.1,0-.2.02-.3.03.03-.45.02-.91.09-1.36.25-1.63.5-3.26.79-4.89.17-.94.29-1.93.66-2.8.4-.96.49-1.83.14-2.8-.19-.51-.37-1.06-.4-1.6-.23-4.27-.5-8.55-.61-12.83-.06-2.13,1.68-3.39,3.76-2.93,1.26.28,2.51.63,3.88.97,1.25,9.63.63,19.03-1.56,28.24Zm53.02-12.74c-.02.47-.17.95-.35,1.39-.35.81-.42,1.54.02,2.37.19.35-.01.91-.04,1.48-1.17-.54-1.26-1.95-2.73-2,.49,1.23.9,2.29,1.29,3.27-1.31,2.01-2.57,3.94-3.84,5.88-.83-1.47-.9-1.49-.65-2.51.52-2.14.74-4.48,1.78-6.34,1.56-2.8,1.7-5.51,1.15-8.51-.51-2.77-.76-5.59-1.16-8.39-.35-2.5-.74-5-1.12-7.56,2.87.28,3.18.55,3.87,2.89,1.75,5.9,2.09,11.93,1.79,18.03Zm35.57,5.43c-.11.18-.21.35-.32.53-.35-.07-.84-.01-1.02-.23-1.14-1.37-2.23-2.79-3.31-4.22-.48-.63-.52-1.32.07-2.41,1.64,2.27,3.11,4.3,4.58,6.33Zm4.02-1.5c-2.32-1.52-2.46-1.94-1.6-4.79,1.23,1.55,1.86,3.46,1.6,4.79Zm14.08-4.32c-2.36-2.2-4.32-4.21-6.49-5.97-1.53-1.24-1.95-2.83-2.52-4.93,3.88,3.13,6.57,6.66,9.02,10.9Zm7.07-21.1c-.15.58-.23.91-.36,1.42-.76-.72-.52-1.01.36-1.42Zm4.67,17.65q.68.93.25,1.86c-.1-.75-.18-1.3-.25-1.86Zm3.6-.12c-1.39-1.14-2.07-2.05-1.88-3.56.19-1.52-.48-2.86-1.26-4.07-.4.88-.77,1.7-1.14,2.52-.82-1.07-1.23-2.08-1.57-3.11-.3-.9-.25-1.68.64-2.37.68-.52,1.14-1.31,1.7-1.99,1.13,4.06,2.27,8.11,3.51,12.57Zm32.3-20.24c.68-.8,1.35-1.22,1.92-.31.51.81-.13,1.21-.68,1.72-.11-.52-.19-.95-.28-1.36-.39-.02-.68-.03-.96-.05Zm-1.91,7.54c.06-1.3.1-2.1.14-2.88.66-.48,1.25-.91,2.24-1.63-.76,1.67-.86,3.15-2.38,4.51Zm15.9,7.96c-.16-.1-.32-.2-.47-.3.35-.5.7-1.01,1.05-1.51.26.85.25,1.53-.57,1.82Zm8.34,6.71c-.33,1-.6,1.82-.87,2.63q-.38-2.1.87-2.63Zm54.45,10.41c6.4-2.63,12.91-3.1,19.57-2.38-1.86.43-3.5,1.89-5.6,1.16-1.07.67-2.06.11-3.09-.14-.24-.06-.74.04-.75.12-.27,1.56-1.36.6-2.06.64-.59.04-1.19-.22-1.84-.36.05.4.08.67.11.92-1.08,0-2.11-.03-3.13,0-1.02.04-2.05.6-3.21.03Zm27.06-9.48c-2.06,0-3.71.05-5.36,0-5.34-.19-10.6.44-15.87,1.19-3.82.55-7.67.83-11.5,1.29-1.3.15-2.6.37-3.85.72-4.46,1.23-8.88,2.15-13.15-.59-.17-.11-.38-.16-.57-.24-3.18-1.23-4.6-.15-4.2,3.35-3.61.62-7.2,1.99-10.82-.08-.17-.09-.29-.26-.45-.4.41-.34.78-.64,1.36-1.12-2.18-1.07-4.29-.71-6.3-.94-2.02-.23-4.05-.34-6.16-.52.23-.83.41-1.48.6-2.15-1.49.17-1.62,2.56-3.66,1.71.14-1.03.27-2.03.41-3.04.47-.09.81-.22,1.14-.2,4.13.3,8.25.6,12.38.95.43.04.86.34,1.26.59,1.36.85,2.48.84,3.79-.06,2-1.36,4.03-2.67,6.01-4.05,2.59-1.81,5.38-2.03,8.27-1.01.73.26,1.42.81,1.95,1.4.97,1.07,1.73,2.34,2.72,3.38,2.59,2.71,5.76,2.34,7.52-.68,1.35.09,2.77.54,3.89.15,1.17-.41,2.06-1.64,3.18-2.6,2.22.66,4.46.3,5.76-1.99.94-1.66,2.14-2.11,3.85-2,.89.05,1.8-.09,2.68-.02,1.26.11,2.54.21,3.59,1.18-1.15.21-2.28.25-3.41.3-1.07.05-1.69.56-1.72,1.36.38.21.76.42,1.15.63-.46.82-.83,1.49-1.35,2.42,2.13-.92,3.85-2.02,5.7-2.37,1.91-.36,4.06-.35,5.92.17,1.81.5,3.52,1.64,5.26,3.28Zm24.73-19.54c-.67,1.33-.93,2.66-1.73,3.23-1.24.87-2.85,1.22-4.34,1.81-.89-1.98-2.31-2.98-4.3-2.83-2.15.17-3.55,1.35-3.92,3.76-.35-.4-.47-.48-.52-.6-.73-1.54-.82-3.15.18-4.51,1-1.37,2.59-1.03,4.01-.76,2.94.57,5.87.71,8.82.15.44-.08.89-.12,1.8-.24Zm6.08,1.02c-1.28.33-2.16.56-3.04.79-.11-.14-.22-.28-.33-.41.47-.82.93-1.63,1.54-2.7.69.87,1.13,1.44,1.82,2.32Zm10.66-3.06c-1.33.33-2.37.58-3.41.85-2.5.66-2.67.58-3.97-2.13,1.8-.74,3.59-1.47,5.55-2.27.65,1.27,1.2,2.32,1.84,3.56Zm10.98-1.89c-.58.15-1.03.3-1.49.39-.81.15-1.62.29-2.43.4-2.17.29-3.73-.98-4.12-3.5,1.79-.05,3.56-.18,5.33-.14,2.31.06,2.4.21,2.72,2.84Zm12.53,18.22c-.12-.1-.31-.19-.31-.28-.02-1.13-.01-2.26-.01-3.59-.58.75-1.1,1.41-1.78,2.28-.41-2.08.35-3.63.81-5.25-1.57,1.68-1.93,3.91-2.85,6.1-.37-1.61-.7-3.01-1.03-4.41-1.26,2.4-1.1,5.19-3.09,7.53-.89-1.8-.52-3.35-.3-4.87.23-1.58.55-3.15.91-5.19-1.7,1.94-2.84,3.64-3.54,5.61-.68,1.88-1.29,3.79-1.97,5.67-.14.39-.44.71-.67,1.07-.76-4.06.48-7.75,1.73-11.65-3.31,2.05-4.12,5.32-5.27,8.4-.3-1.17-.34-2.27-.52-3.35-.16-.99.68-2.08-.39-3.25-.42,1.57-.78,2.9-1.2,4.47-.82-1.51-1.51-2.77-2.2-4.03-.05.04-.11.08-.16.12.61,2.95,1.21,5.9,1.82,8.86-1.11-.87-1.89-1.88-2.73-2.85-.91-1.04-1.84-2.06-2.83-3.03-1.86-1.83-1.88-1.81-3.02-2.05,2.91,3.43,5.01,7.21,5.57,11.72-.85-1.01-1.51-2.12-2.25-3.18-.71-1.02-1.47-2.01-2.27-2.95-1.61-1.91-1.62-1.89-2.92-2.34,1.8,3.03,3.34,6.06,3.98,9.52-.87-1.11-1.74-2.22-2.62-3.33-.11.06-.22.12-.33.18.49,1.24.98,2.47,1.46,3.71-.13.07-.26.13-.39.2-2.35-3.73-4.98-7.17-9.05-9.12,3.25,3.69,6.17,7.51,7.18,12.47-2.17-2.53-3.65-5.65-6.74-7.43,1.33,2.89,2.76,5.73,2.89,8.98-.9-1.69-1.36-3.61-2.99-4.98v4.54c-.6-1.39-.85-2.8-1.16-4.19-.32-1.44-.66-2.89-1.81-4.46-.31,3.37.45,6.42-.9,9.35-1.34-3.68-2.32-7.45-4.19-10.88,0,1.7.23,3.35.29,5,.06,1.57.41,3.19-.39,5.05-1.76-3.34-2.03-6.78-2.95-10.01-.17.02-.35.03-.52.05-.22,2.68-.43,5.36-.65,8.04-1.42-2.58-1.67-5.4-2.24-8.19-.62,1.17-.99,2.34-1.4,3.49-.05.13-.29.2-.45.31-.19-.52-.36-.98-.56-1.51q-1.53,1.55-2.63,1.36c1.18-2.25,3.01-3.91,4.92-5.5,5.08-4.22,10.31-8.14,17.08-9.23.2-.03.39-.13.58-.21,3.54-1.52,7.21-1.72,10.96-1.03.91.17,1.78.23,2.4-.63-.09-.35-.17-.65-.34-1.29,2.1.3,3.71-.69,5.43-1.33.06-.02.14-.02.2-.03,1.57-.21,3.14-.53,4.72-.6,3.03-.13,6.08-.17,9.11-.12,1.69.03,2.13.44,2.2,1.84.14,3.04.2,6.07.25,9.11.01.6-.02,1.3-.92,1.3Zm14.3-15.92c-2.03-1.13-4.44.28-6.31-1.65,1.35-.93,2.46-1.87,3.91-1.54,1.21.27,1.92,0,2.39-1.15v4.34Z"/></g></svg>