<svg width="736" height="999" viewBox="0 0 736 999" fill="none" xmlns="http://www.w3.org/2000/svg">
<path d="M312.771 136.503C312.771 136.503 298.781 182.664 266.618 211.112C234.455 239.56 149.446 285.844 149.446 285.844C149.446 285.844 192.957 163.029 312.771 136.503Z" fill="#004916"/>
<path d="M122.014 308.345C123.503 311.742 161.732 254.393 152.947 165.67C152.947 165.67 93.9439 244.201 122.014 308.345Z" fill="#004916"/>
<path d="M142.102 297.051C142.102 297.051 184.053 253.344 275.056 289.197C275.056 289.197 176.467 333.737 142.102 297.051Z" fill="#006D4B"/>
<path d="M238.727 341.082C238.727 341.082 132.003 347.576 113.87 322.769C113.87 322.769 192.685 301.552 238.727 341.082Z" fill="#004916"/>
<path d="M77.9273 202.13C77.9273 202.13 125 289.257 102.767 325.697C102.767 325.697 56.2831 259.924 77.9273 202.13Z" fill="#006D4B"/>
<path d="M99.4817 335.803C99.4817 335.803 182.973 330.973 219.714 378.742C219.688 378.743 114.027 367.697 99.4817 335.803Z" fill="#006D4B"/>
<path d="M81.478 355.924C81.478 355.924 178.577 361.062 217.219 415.69C217.192 415.665 102.101 408.944 81.478 355.924Z" fill="#004916"/>
<path d="M82.397 349.711C82.397 349.711 83.2767 287.244 47.1017 226.252C47.1017 226.252 30.5669 276.807 75.9635 356.152L82.397 349.711Z" fill="#004916"/>
<path d="M66.8694 376.316C66.8694 376.316 145.664 398.558 187.052 456.251C187.052 456.251 94.5486 457.071 59.112 381.959L66.8694 376.316Z" fill="#004916"/>
<path d="M58.4574 371.931C58.4574 371.931 43.2557 292.987 -3.28192 257.798C-3.28192 257.798 9.57021 331.78 50.6526 380.019L58.4574 371.931Z" fill="#006D4B"/>
<path d="M45.5204 393.695C45.5204 393.695 116.573 443.283 149.175 496.071C149.175 496.071 70.8767 469.514 37.7159 401.809L45.5204 393.695Z" fill="#006D4B"/>
<path d="M38.515 392.524L27.1077 402.445C27.1077 402.445 -39.329 391.106 -65.0799 321.388C-65.0533 321.414 5.91714 352.296 38.515 392.524Z" fill="#004916"/>
<path d="M157.711 280.85C157.711 280.85 -26.432 450.006 -55.7068 551.986C-55.7068 551.986 -58.5227 557.776 -64.2655 552.516C-70.0084 547.256 -15.9957 421.758 157.711 280.85Z" fill="#004916"/>
<g clip-path="url(#clip0_379_1899)">
<path d="M450.46 428.184C461.816 421.814 473.24 414.223 483.757 405.923L441.755 377.103L494.879 396.528C515.915 377.513 531.152 355.798 530.942 335.926C530.624 303.496 507.134 323.516 468.115 312.573C429.095 301.63 401.509 300.269 361.348 306.515C349.524 308.362 340.283 309.305 332.113 309.954C336.064 323.184 339.079 339.64 335.279 352.623L306.632 311.748C297.203 312.573 287 313.873 273.208 316.802C236.309 324.63 217.999 340.716 180.485 353.072C142.991 365.466 146.041 377.417 146.041 377.417C146.041 377.417 162.589 409.693 169.266 429.088C175.942 448.482 166.638 457.642 166.638 457.642C164.211 441.135 124.383 383.787 124.383 383.787L88.0498 413.656C74.4366 424.078 58.2171 434.824 41.5693 448.689C56.9638 458.754 76.3944 474.632 80.6728 492.758C80.6728 492.758 49.7212 471.438 23.5481 464.986C14.6355 473.783 5.80619 483.717 -2.56033 495.343C-32.3129 536.503 -11.4486 579.762 -11.4486 579.762C6.00002 605.208 43.8111 625.244 77.1718 618.106C110.503 610.959 147.248 586.9 147.248 586.9L123.19 550.155L165.932 576.647C165.932 576.647 191.159 569.596 215.713 558.947C240.258 548.328 332.424 489.987 328.174 487.1C323.924 484.213 290.112 442.729 290.112 442.729L339.098 474.658C339.014 474.729 410.454 450.66 450.46 428.184Z" fill="#84CF75"/>
<path opacity="0.41" d="M454.757 362.433C463.778 347.563 512.208 339.011 515.642 329.26C519.068 319.539 461.365 331.886 439.32 340.465C417.245 349.034 417.286 344.181 398.142 343.204C378.997 342.226 376.39 355.81 362.38 363.764C348.37 371.717 331.204 353.952 305.184 353.11C279.134 352.259 276.216 388.17 261.998 403.853C247.78 419.536 233.048 412.558 210.553 410.195C188.059 407.832 192.615 451.731 173.899 461.657C155.175 471.613 145.841 439.46 118.485 437.085C91.1291 434.71 120.37 477.919 106.977 493.937C93.5837 509.956 68.773 503.74 43.2429 504.058C17.7127 504.375 19.9326 544.384 -3.49825 556.313C-10.2913 559.779 -14.9061 557.931 -18.0719 553.609C-16.5011 569.233 -11.4191 579.77 -11.4191 579.77C6.02944 605.216 43.8406 625.253 77.2012 618.114C85.913 616.254 94.8393 613.217 103.306 609.792C77.4065 607.108 32.5948 608.125 25.7723 599.531C15.4615 586.522 66.2224 603.353 96.2765 582.409C126.331 561.464 106.1 546.371 121.381 523.301C136.662 500.232 162.635 532.349 203.966 510.131C245.296 487.912 244.187 452.294 277.194 443.305C310.173 434.306 319.092 434.033 345.068 418.264C371.044 402.496 374.823 414.785 415.531 405.995C439.785 400.761 445.881 391.591 448.765 381.872L441.822 377.09L449.323 379.84C450.762 373.898 451.471 367.839 454.757 362.433Z" fill="#42B164"/>
<path d="M515.613 329.251C515.613 329.251 496.526 333.664 442.495 348.477C388.494 363.298 30.8968 504.417 -82.0408 658.323C-82.0408 658.323 -74.3669 678.992 -67.9495 674.082C-61.5236 669.142 40.891 498.796 515.613 329.251Z" fill="#74D179"/>
<path opacity="0.41" d="M237.977 350.107C260.38 362.206 249.544 400.748 231.756 396.412C213.997 392.084 215.573 338.009 237.977 350.107Z" fill="#42B164"/>
<path opacity="0.41" d="M379.13 435.114C374.864 443.129 352.537 442.817 343.533 431.333C334.558 419.856 383.395 427.099 379.13 435.114Z" fill="#42B164"/>
<path opacity="0.41" d="M287.952 478.987C287.024 493.249 257.959 490.188 255.37 477.417C252.76 464.608 288.888 464.696 287.952 478.987Z" fill="#42B164"/>
<path opacity="0.41" d="M81.0529 443.9C93.8115 451.323 103.496 477.664 91.0543 478.791C78.6038 479.947 68.2943 436.477 81.0529 443.9Z" fill="#42B164"/>
<path d="M192.023 571.798C216.525 603.983 228.445 602.144 228.907 654.007C229.367 705.848 206.13 707.09 218.784 732.316C218.784 732.316 209.882 713.137 175.01 719.375C140.139 725.613 92.2144 729.787 57.3011 716.864C22.3879 703.942 13.0372 716.721 -23.4763 676.011C-59.9929 635.278 -93.8538 643.828 -68.9862 605.736C-44.1186 567.643 -13.3947 578.541 -11.1243 558.37C-8.85399 538.199 -8.66822 503.082 20.3306 484.578C49.3072 466.078 73.311 483.151 108.775 502.411C144.242 521.694 167.521 539.612 192.023 571.798ZM60.6124 493.25C70.0489 477.719 38.2846 484.494 32.2299 500.412C26.1975 516.328 60.6124 493.25 60.6124 493.25ZM115.424 526.603C112.204 512.828 61.7682 529.933 69.1073 544.699C76.4435 559.442 118.643 540.378 115.424 526.603ZM-15.7592 608.195C-2.06899 583.283 -27.4827 582.641 -48.2402 615.881C-68.9947 649.143 -29.4465 633.129 -15.7592 608.195ZM42.3397 593.851C21.4071 570.251 2.82458 636.096 6.07964 665.928C9.33173 695.738 26.842 695.555 26.842 695.555C43.4171 692.097 63.2499 617.454 42.3397 593.851ZM85.8563 621.507C73.5901 619.904 78.0925 640.916 79.8593 653.48C81.6261 666.044 75.995 671.213 74.0791 688.097C72.1632 704.981 82.6118 708.753 82.6118 708.753C108.476 695.787 98.1448 623.107 85.8563 621.507ZM137.411 648.452C128.546 647.211 133.439 664.863 129.683 683.919C125.927 702.974 130.784 704.569 130.784 704.569C145.65 704.602 146.299 649.691 137.411 648.452ZM9.53328 518.438C-2.90313 522.861 0.554492 562.702 12.6404 554.294C24.704 545.888 21.9474 514.018 9.53328 518.438ZM171.038 639.503C173.628 653.996 206.535 667.843 206.535 667.843C217.591 670.899 218.235 639.391 207.364 622.944C196.519 606.517 168.447 625.01 171.038 639.503ZM159.786 556.185C142.424 550.345 111.627 576.429 116.798 589.377C121.966 602.303 174.629 579.646 174.629 579.646C182.208 573.628 177.152 562.046 159.786 556.185Z" fill="#00805C"/>
<path d="M177.469 689.913C166.927 689.009 154.103 690.357 140.519 692.464C138.494 699.53 135.316 704.576 130.806 704.566C130.806 704.566 127.938 703.612 128.305 694.478C115.839 696.64 103.091 699.066 91.1156 700.663C88.8722 704.225 86.0737 707.022 82.6119 708.753C82.6119 708.753 78.614 707.315 76.0287 702.2C56.7749 703.41 41.2662 700.767 34.9942 688.735C32.3264 692.512 29.5532 694.989 26.8643 695.552C26.8643 695.552 9.35409 695.736 6.10201 665.925C5.08332 656.592 6.20268 643.756 8.85646 631.213C2.92196 627.315 -5.24717 625.687 -17.2891 626.953C-22.9636 627.552 -28.9689 628.217 -35.0367 628.755C-45.1164 635.559 -54.4858 637.33 -54.1213 629.874C-62.3036 630.014 -70.2397 629.623 -77.3789 628.242C-75.3923 642.793 -50.1446 646.266 -23.4762 676.011C13.0403 716.743 22.388 703.942 57.3012 716.864C92.2145 729.787 140.139 725.613 175.011 719.375C187.69 717.117 196.897 718.2 203.548 720.507C203.801 705.929 198.48 691.686 177.469 689.913Z" fill="#007957"/>
<path d="M122.673 510.299C90.7678 522.643 55.6518 535.37 39.3236 528.283C24.245 521.731 17.2234 506.968 12.2214 490.871C14.64 488.622 17.3272 486.52 20.3335 484.601C49.3101 466.1 73.3139 483.173 108.778 502.434C113.635 505.048 118.244 507.673 122.673 510.299ZM32.2521 500.409C26.2197 516.325 60.6345 493.247 60.6345 493.247C70.0711 477.716 38.2845 484.494 32.2521 500.409Z" fill="#007957"/>
<path d="M186.668 618.433C144.526 619.592 96.6608 621.493 87.4134 587.838C75.9261 546.055 116.845 540.482 149.977 528.677C165.163 540.447 178.402 553.928 192.026 571.82C209 594.113 219.924 600.086 225.193 618.867C218.235 618.164 210.402 618.031 202.077 618.122C197.494 615.698 191.875 616.198 186.668 618.433ZM174.629 579.646C182.208 573.628 177.149 562.024 159.786 556.185C142.424 550.345 111.627 576.429 116.798 589.378C121.966 602.304 174.629 579.646 174.629 579.646Z" fill="#007957"/>
<path d="M42.3396 593.852C50.6058 603.17 52.4813 620.454 50.745 638.176C59.9826 620.813 62.7922 589.401 50.4419 574.941C39.9422 562.636 28.0467 576.887 22.255 596.304C28.1351 588.248 35.0886 585.689 42.3396 593.852Z" fill="#006A41"/>
<path d="M172.058 703.186C148.006 685.756 133.715 714.825 115.02 718.52C96.3242 722.215 76.5002 718.471 63.168 710.576C49.8359 702.682 40.3273 707.824 28.3712 706.338C16.4152 704.852 -2.39021 671.385 -11.2269 653.376C-20.0635 635.366 -27.5092 643.745 -52.6613 648.799C-53.565 648.988 -54.4301 649.126 -55.3175 649.267C-46.1063 655.31 -34.9213 663.242 -23.4764 676.011C13.0402 716.743 22.3879 703.942 57.3011 716.864C92.2143 729.787 140.139 725.613 175.01 719.375C178.395 718.765 181.543 718.413 184.466 718.249C181.667 712.551 177.676 707.261 172.058 703.186Z" fill="#006A41"/>
<path d="M192.023 571.798C167.521 539.612 144.242 521.694 108.778 502.434C73.314 483.174 49.3103 466.1 20.3337 484.601C19.1228 485.374 17.9847 486.183 16.8718 487.011C23.6872 483.587 29.6807 481.813 32.6694 483.839C35.955 486.051 36.9539 489.293 37.5463 492.884C48.301 482.818 68.3812 480.502 60.6154 493.273C60.6154 493.273 48.6155 501.308 40.0417 504.626C41.5644 507.889 44.2936 510.856 49.6374 513.042C67.0547 520.143 113.898 500.392 121.841 519.857C129.785 539.322 101.139 537.548 126.443 556.895C129.268 559.056 131.951 560.827 134.557 562.36C142.916 556.918 152.53 553.755 159.789 556.207C175.705 561.56 181.232 571.742 176.225 578.028C180.447 580.297 184.795 583.342 189.369 587.738C200.025 597.984 201.806 609.64 204.564 619.784C205.585 620.644 206.519 621.698 207.364 622.944C209.864 626.734 211.743 631.309 213.036 636.075C216.194 639.029 220.519 641.397 226.78 642.986C227.392 643.154 227.994 643.255 228.596 643.356C226.605 602.276 214.711 601.598 192.023 571.798Z" fill="#006A41"/>
<path d="M-15.0665 567.709C-4.53569 560.55 8.27027 556.689 21.2293 556.184C27.7289 555.996 34.273 556.822 40.6006 558.402C42.1781 558.849 43.7718 559.248 45.33 559.72L49.9035 561.398C51.4454 561.917 52.916 562.582 54.3837 563.224C55.8513 563.866 57.3605 564.481 58.8118 565.171C82.0539 576.365 102.544 591.891 121.874 608.41C131.467 616.804 140.753 625.443 149.543 634.782C158.122 644.24 166.219 653.988 173.967 664.01C181.754 673.982 189.256 684.195 196.484 694.558C200.056 699.768 203.612 705.025 206.976 710.376C208.647 713.053 210.299 715.755 211.868 718.513C212.643 719.905 213.395 721.3 214.081 722.704C214.747 724.133 215.48 725.553 215.847 727.112C215.33 725.618 214.45 724.286 213.637 722.944C212.802 721.606 211.905 720.321 211.009 719.036C209.213 716.443 207.334 713.907 205.458 711.394C201.662 706.373 197.824 701.379 193.862 696.471C186.042 686.595 178.015 676.859 169.933 667.222C161.748 657.666 153.621 648.034 144.943 639.02C136.298 630.092 127.022 621.52 117.503 613.343C108.043 605.09 98.2673 597.197 88.1316 589.827C78.0344 582.406 67.4965 575.589 56.4987 569.738C55.1112 569.017 53.7103 568.366 52.3065 567.692C50.9026 567.019 49.5181 566.32 48.0623 565.766L43.7692 563.983L39.4064 562.526C33.5477 560.725 27.416 559.595 21.2058 559.404C8.85214 559.013 -3.82331 561.814 -15.0665 567.709Z" fill="#006A41"/>
</g>
<defs>
<clipPath id="clip0_379_1899">
<rect width="610.749" height="610.749" fill="white" transform="matrix(-0.96037 -0.278729 -0.278729 0.96037 614.191 291.214)"/>
</clipPath>
</defs>
</svg>
