<?xml version="1.0" encoding="UTF-8"?>
<svg enable-background="new 0 0 16 16" version="1.1" viewBox="0 0 16 16" xml:space="preserve" xmlns="http://www.w3.org/2000/svg">
<style type="text/css">
	.st0{fill:#0A7A3E;}
</style>

<path d="m5.9313 3.8297c1.501-2.1687 3.8282-2.3511 5.6684-0.83744 1.8312 1.5063 2.309 3.996 0.80794 6.1646-0.89967 1.2998-1.9754 1.8275-3.106 1.6914-0.03678 0.61246-0.32066 1.2607-0.76039 1.896-0.84396 1.2194-1.8739 1.7762-2.7285 1.0733-0.70219-0.57759-0.45014-1.2422-0.10002-1.9732l-0.26497-0.21797c-0.52898 0.58398-1.0628 1.13-1.8909 0.44887-0.92077-0.75742-0.66228-2.0621 0.18171-3.2815 0.46792-0.67604 1.0106-1.1904 1.6201-1.3691-0.41127-1.12-0.28731-2.3525 0.57261-3.5949zm4.4737 5.1043c0.57276-0.05243 1.3748-0.40001 1.1499-0.69638-0.14584-0.1922-0.72746-0.44375-1.3779-0.7251-0.35246-0.15244-0.72513-0.31361-1.0597-0.47884-0.33452-0.16521-0.69867-0.37398-1.043-0.5714l-6e-5 -3.4e-5c-0.63561-0.36442-1.2039-0.69023-1.3945-0.6325-0.29386 0.08902-0.06351 0.89765 0.27799 1.4016 0.3415 0.50402 0.89658 0.96656 1.5431 1.2859s1.3315 0.46922 1.9042 0.41678zm-2.7435-4.3976c-0.35152-0.16319-0.60174 0.06864-0.68037 0.19769-0.03062 0.05025-0.09279 0.06391-0.13889 0.03057-0.0461-0.03338-0.05866-0.10119-0.02804-0.15144 0.10876-0.1785 0.45169-0.4979 0.9258-0.27781 0.30703 0.14251 0.4353 0.37477 0.48206 0.57584 0.02285 0.09832 0.02585 0.18694 0.02322 0.25102-0.0013 0.03219-4e-3 0.05859-0.0066 0.07748-0.0012 0.0094-0.0025 0.01703-0.0034 0.02259-4.94e-4 0.0028-8.99e-4 5e-3 -0.0012 0.0068-1.52e-4 8.93e-4 -3.03e-4 0.0016-4.18e-4 0.0022l-1.51e-4 7.88e-4 -9.1e-5 4.58e-4s-3.1e-5 9.9e-5 -0.09771-0.02418l0.09768 0.02428c-0.01233 0.05882-0.06604 0.0956-0.12 0.08221-0.0538-0.0134-0.08755-0.07169-0.07547-0.13037v-9.9e-5c9.1e-5 -3.97e-4 2.42e-4 -0.0013 4.94e-4 -0.0027 4.94e-4 -0.0027 0.0012-0.0073 0.0021-0.0136 0.0017-0.01257 0.0037-0.03163 0.0047-0.05561 2e-3 -0.04827-3.34e-4 -0.11476-0.01727-0.18757-0.03283-0.14116-0.12202-0.31513-0.36633-0.42853zm3.3776 2.051c0.09198-0.11807 0.36544-0.31625 0.69694-0.10923 0.23041 0.1439 0.30023 0.3281 0.31765 0.47246 9e-3 0.0745 0.0041 0.14079-3e-3 0.1885-0.0036 0.02369-0.0076 0.04238-0.01068 0.05462-0.0015 0.0061-0.0028 0.01059-0.0035 0.01323-2.73e-4 9.45e-4 -4.94e-4 0.0017-6.18e-4 0.0021l-1.51e-4 4.58e-4 -3.1e-5 9.9e-5c-0.01827 0.0567 0.0089 0.11893 0.06093 0.1391 0.05213 0.02024 0.10942-0.0094 0.128-0.06626l-0.0944-0.03662c0.0944 0.03662 0.09443 0.03652 0.09443 0.03652l6.2e-5 -1.32e-4 9.1e-5 -2.98e-4 2.42e-4 -7.35e-4 3.8e-4 -0.0013 2.73e-4 -7.87e-4c5.32e-4 -0.0017 0.0011-0.0039 0.0019-0.0066 0.0016-0.0054 0.0036-0.0128 0.0059-0.02203 0.0046-0.01842 0.01013-0.04429 0.01493-0.07605 0.0095-0.06332 0.01608-0.15171 0.0039-0.25227-0.02476-0.20566-0.12712-0.45271-0.4167-0.63356-0.44713-0.27927-0.82208-6e-3 -0.94932 0.1574-0.0358 0.04598-0.03065 0.11492 0.01153 0.15396 0.04218 0.03904 0.10542 0.03341 0.14123-0.01257z" clip-rule="evenodd" fill="#0a7a3e" fill-rule="evenodd" stroke-width=".31683"/></svg>
