<svg width="100" height="66" viewBox="0 0 50 33" fill="none" xmlns="http://www.w3.org/2000/svg"><path fill-rule="evenodd" clip-rule="evenodd" d="M22.1099 0.640211C16.11 1.42875 11.0682 5.37721 8.95457 10.9427C8.31561 12.6255 8.03305 14.0605 7.96844 15.9522C7.87472 18.6963 8.38791 21.1107 9.58248 23.5461C10.3307 25.0715 11.7098 26.9824 12.0629 26.983C12.3728 26.9835 12.352 26.8803 11.9436 26.3893C10.5473 24.7104 9.35106 22.3733 8.84815 20.3417C7.77391 16.0017 8.54754 11.5484 11.004 7.93243C13.5077 4.2469 17.1282 1.93815 21.6779 1.12584C22.8225 0.921474 25.6299 0.921474 26.7745 1.12584C31.2802 1.93025 34.9626 4.26523 37.4378 7.88736C38.4317 9.34171 39.3703 11.5064 39.7103 13.1282C39.7909 13.5132 39.8774 13.8272 39.9023 13.8256C39.9272 13.8242 40.0209 13.7685 40.1104 13.7019C40.2689 13.584 40.2671 13.5572 40.0407 12.6697C38.0241 4.76232 30.2794 -0.433409 22.1099 0.640211ZM21.9309 1.47713C18.3016 2.05748 15.0022 3.81346 12.6772 6.40211C7.64295 12.0073 7.44376 20.2675 12.2029 26.0738C12.5416 26.4871 12.8614 26.8013 12.9207 26.779C12.9794 26.7569 13.1664 26.7131 13.336 26.6818C13.5057 26.6506 13.6445 26.6088 13.6445 26.5891C13.6445 26.5693 13.3958 26.2668 13.0918 25.9168C12.5651 25.3103 11.6577 24.0834 11.6577 23.9778C11.6577 23.9504 11.7841 23.9293 11.9384 23.9309C12.1912 23.9334 12.2638 23.9991 12.6667 24.5886C12.9128 24.9488 13.3793 25.5174 13.7033 25.852L14.2923 26.4606L15.4829 26.1067L16.6736 25.7527L15.8069 25.7286L14.9402 25.7044V24.2236V22.743L12.9403 22.7201L10.9404 22.6974L10.654 22.038C10.4966 21.6754 10.3102 21.1885 10.2399 20.9559L10.1122 20.5332H10.3688C10.5568 20.5332 10.6439 20.5843 10.6947 20.7241C10.7328 20.8292 10.8719 21.2111 11.0037 21.5728L11.2433 22.2306H13.0917H14.9402V21.882C14.9402 21.5991 14.9659 21.5431 15.0769 21.585C15.152 21.6133 15.2492 21.6365 15.2928 21.6365C15.3384 21.6365 15.3721 22.393 15.3721 23.4188V25.2011L16.8622 25.2006L18.3523 25.2L19.6387 24.7312C20.3461 24.4734 20.9774 24.2336 21.0414 24.1984C21.1236 24.1533 20.9901 24.0107 20.5867 23.7129C19.8757 23.1882 19.071 22.3323 18.5656 21.5632L18.1795 20.9757L16.7343 20.9454C15.3242 20.9158 15.2842 20.9099 15.083 20.7029C14.7944 20.4059 14.0986 18.3607 14.2212 18.1696C14.2974 18.0506 14.519 18.026 15.6917 18.0062L17.0725 17.983L17.0646 16.7756C17.0602 16.1115 17.0875 15.425 17.1253 15.2499L17.194 14.9317H15.2854C13.2791 14.9317 12.9704 14.8815 12.8249 14.5317C12.6039 14.0005 12.0896 12.4045 12.0896 12.2501C12.0896 12.1478 12.1511 12.041 12.2263 12.0127C12.3014 11.9843 13.6953 11.9612 15.3237 11.9612H18.2846L18.5888 11.511C19.9831 9.4478 22.2133 8.0139 24.691 7.5876C26.12 7.34172 27.8209 7.46946 29.1796 7.9247C30.4756 8.35899 32.4233 9.5241 32.6461 9.99836C32.7213 10.1583 32.7102 10.2454 32.5926 10.4219C32.3182 10.8333 30.8097 12.3007 30.661 12.3007C30.58 12.3007 30.3428 12.1724 30.1338 12.0157C28.6371 10.8928 26.9394 10.4672 25.306 10.8054C24.2183 11.0306 23.3079 11.531 22.4467 12.377C21.3762 13.4289 20.8338 14.572 20.6807 16.0993C20.5749 17.1541 20.9218 18.5905 21.5206 19.5775C21.9028 20.2073 22.8086 21.1028 23.4496 21.4846C24.0256 21.8276 25.16 22.2318 25.5371 22.2284C25.6713 22.2271 26.6168 21.8163 27.6383 21.3154L29.4955 20.4047V19.9809V19.5571L28.0532 19.5339C26.3149 19.5059 26.4371 19.5936 25.8976 17.9874C25.589 17.0686 25.5496 16.8771 25.6454 16.7636C25.7456 16.645 26.1606 16.6291 29.1544 16.6291C32.1259 16.6291 32.5666 16.6457 32.6855 16.7624C32.7906 16.8657 32.8212 17.0854 32.8212 17.7362V18.5765L33.8058 17.9922C34.9656 17.304 36.9675 16.0324 36.9675 15.984C36.9675 15.9653 36.2095 15.9501 35.283 15.9501H33.5986L33.5982 16.3533L33.598 16.7564L33.4325 16.4898C33.3415 16.3432 33.2251 16.1978 33.1737 16.1665C33.1102 16.128 33.0803 15.3102 33.0803 13.6108C33.0803 11.274 33.0915 11.0913 33.2531 10.7951C33.3481 10.621 33.4258 10.3428 33.4258 10.1768C33.4258 10.011 33.3481 9.7255 33.2531 9.54235C33.1214 9.28875 33.0803 9.04186 33.0803 8.50599V7.80249H31.9806C31.0638 7.80249 30.8088 7.77312 30.4473 7.62613L30.0138 7.44976L30.0405 6.43793L30.0671 5.4261H29.1982H28.3293V4.28492V3.14374L27.4655 2.95236C26.6224 2.76555 26.6017 2.7552 26.6017 2.5224C26.6017 2.28943 26.6103 2.28518 26.9688 2.34052C27.1707 2.37167 27.6469 2.47979 28.027 2.58071L28.718 2.7642L28.7421 3.88297L28.7662 5.00174H29.6275H30.4889V6.18994V7.37813H32.0437H33.5986V8.86338V10.3486H35.5753C37.3826 10.3486 37.556 10.3614 37.5984 10.4971C37.6239 10.5789 37.7623 10.9212 37.9058 11.2578C38.0495 11.5945 38.2055 12.0073 38.2526 12.1752C38.3383 12.48 38.3382 12.4803 38.0753 12.4542C37.8326 12.43 37.7938 12.3783 37.5752 11.788C37.1585 10.6617 37.4005 10.773 35.3664 10.773H33.5986V11.4095V12.046H34.7647H35.9309V12.8948V13.7435H36.3959C36.8052 13.7435 36.8672 13.7664 36.913 13.9344C36.9416 14.0395 36.9657 14.1541 36.9663 14.189C36.9669 14.224 36.6371 14.2527 36.2332 14.2527H35.499V13.3616V12.4704H34.5488H33.5986V13.9557V15.4409L35.6933 15.4395L37.7881 15.438L38.6303 14.83C39.6183 14.1167 39.5918 14.2096 39.2154 12.7751C37.8886 7.71949 34.1339 3.74607 29.1499 2.12342C27.36 1.54069 26.631 1.42493 24.5285 1.38979C23.2146 1.36781 22.4548 1.39336 21.9309 1.47713ZM23.5783 4.61982C23.5783 6.08368 23.5454 7.12352 23.499 7.12352C23.4554 7.12352 23.3582 7.14669 23.2831 7.17504C23.1603 7.22129 23.1464 6.96651 23.1464 4.67134V2.11612H23.3624H23.5783V4.61982ZM25.306 2.37073C25.306 2.58571 25.2724 2.62535 25.09 2.62535C24.9077 2.62535 24.8741 2.58571 24.8741 2.37073C24.8741 2.15576 24.9077 2.11612 25.09 2.11612C25.2724 2.11612 25.306 2.15576 25.306 2.37073ZM21.8507 2.53055C21.8507 2.72422 21.8056 2.7838 21.6348 2.81588C21.4464 2.85128 21.4188 2.82641 21.4188 2.62068C21.4188 2.491 21.4674 2.36564 21.5268 2.34205C21.7685 2.24623 21.8507 2.29418 21.8507 2.53055ZM20.1231 2.9493C20.1231 3.16547 20.0763 3.20298 19.6362 3.33928C19.3683 3.4222 18.9796 3.56148 18.7723 3.64881L18.3955 3.80752V5.59278V7.37813H19.0433H19.6912V6.18994V5.00174H20.555H21.4188V4.54488C21.4188 4.12485 21.4363 4.08471 21.6348 4.04736L21.8507 4.0068V4.71335V5.41999L21.0085 5.44426L20.1663 5.46853L20.1418 6.42333L20.1174 7.37813L21.3512 7.38518L22.585 7.39222L22.153 7.59218C21.7246 7.79044 21.6957 7.79213 18.5466 7.79731L15.3721 7.80249V9.49991V11.1973H15.1622C15.0102 11.1973 14.9446 11.1446 14.9247 11.0064C14.8979 10.8215 14.8664 10.8154 13.9468 10.8154C13.0272 10.8154 12.9958 10.8215 12.969 11.0064C12.949 11.1446 12.8835 11.1973 12.7314 11.1973C12.5372 11.1973 12.5215 11.1658 12.5215 10.773V10.3486H13.7309H14.9402V8.86338V7.37813H16.4503H17.9604L17.9836 5.40488L18.0067 3.43162L18.9137 3.07245C20.0085 2.63893 20.1231 2.62722 20.1231 2.9493ZM41.4161 3.19365C40.1494 3.30542 36.5873 3.90419 36.4632 4.02615C36.431 4.0578 37.1071 4.84744 38.2327 6.09276L38.5667 6.46237L39.214 6.36706C40.2723 6.21116 42.4874 6.0207 43.2455 6.02045C44.7827 6.01994 46.0238 6.34058 46.3443 6.82121C46.4583 6.99222 46.4824 7.15798 46.4477 7.53336C46.2833 9.31574 43.3936 12.4884 39.0788 15.6237C33.6854 19.5429 25.9466 23.5032 18.8059 25.9984C12.637 28.154 6.6449 29.0897 4.36832 28.2528C3.73299 28.0192 3.53785 27.7689 3.53785 27.1872C3.53785 26.1678 4.45047 24.7347 6.25014 22.9276L7.45784 21.715L7.21614 20.1269C7.08329 19.2534 6.95467 18.4348 6.93031 18.3078L6.88617 18.0769L6.24712 18.5962C3.60773 20.7413 1.64273 22.93 0.7365 24.7343C-0.0089719 26.2184 -0.168086 27.2067 0.166901 28.2723C0.662039 29.8474 2.02332 30.8218 4.37471 31.2843C5.39591 31.4852 8.06596 31.4837 9.58455 31.2814C21.2671 29.7254 38.1956 21.6316 46.1696 13.7896C48.2344 11.759 49.4405 9.95745 49.8567 8.28252C50.0205 7.62324 50.032 7.45562 49.951 6.9037C49.6625 4.93639 48.0234 3.6758 45.2169 3.26273C44.4294 3.1468 42.3705 3.10937 41.4161 3.19365ZM32.2597 4.44473C33.9617 5.53083 35.5284 7.09551 36.663 8.84216L36.8146 9.07556L36.5239 9.07403C36.2721 9.07267 36.1965 9.01733 35.9585 8.6596C34.8457 6.98696 32.9614 5.3268 30.8992 4.20183C30.3859 3.92184 30.3161 3.85411 30.3161 3.6354V3.38707L30.9424 3.6954C31.2868 3.86498 31.8796 4.20217 32.2597 4.44473ZM25.306 4.40764V5.00174H26.1698H27.0336V5.88109V6.76053L26.8176 6.71996C26.6105 6.681 26.6017 6.65376 26.6017 6.0527V5.4261H25.7379H24.8741V4.61982C24.8741 3.81635 24.8748 3.81354 25.09 3.81354C25.2998 3.81354 25.306 3.83052 25.306 4.40764ZM16.4818 4.83115C14.575 6.05262 12.8497 7.90654 11.7247 9.94311C11.3202 10.6754 11.2423 10.7684 11.0314 10.7706C10.9008 10.7719 10.7939 10.753 10.7939 10.7287C10.7939 10.7043 10.954 10.3701 11.1498 9.98605C12.2538 7.81955 13.9785 5.91249 16.1063 4.50541L16.6246 4.1627L16.6532 4.43285C16.6753 4.64027 16.6354 4.73278 16.4818 4.83115ZM19.5184 9.28773C19.3225 9.4927 19.2777 9.49991 18.2077 9.49991H17.0997V10.3486V11.1973H16.8838H16.6678V10.1364V9.07556H18.1945H19.7213L19.5184 9.28773ZM11.3122 12.2582C11.3122 12.4482 11.277 12.4704 10.9762 12.4704H10.6403L10.4993 13.0008C10.4218 13.2926 10.3285 13.6841 10.2919 13.8708C10.236 14.157 10.1889 14.2145 9.99149 14.2371C9.81277 14.2576 9.75731 14.2275 9.7574 14.1098C9.75757 13.931 10.1685 12.2325 10.2386 12.1211C10.2645 12.0798 10.5167 12.046 10.799 12.046C11.2888 12.046 11.3122 12.0557 11.3122 12.2582ZM31.871 14.1254V15.8653H31.6118H31.3527V14.3382C31.3527 12.8908 31.3625 12.8001 31.541 12.5984C31.6446 12.4813 31.7613 12.3855 31.8001 12.3855C31.8391 12.3855 31.871 13.1685 31.871 14.1254ZM38.6951 13.9981C38.6951 14.2101 38.6605 14.2527 38.4884 14.2527C38.2884 14.2527 38.1768 14.1133 38.1768 13.8638C38.1768 13.7867 38.2698 13.7435 38.436 13.7435C38.6663 13.7435 38.6951 13.7717 38.6951 13.9981ZM12.8023 15.4742C12.8854 15.5362 12.9534 15.6686 12.9534 15.7685C12.9534 15.9413 12.9137 15.9501 12.1328 15.9501H11.3122V15.6992V15.4484L11.9384 15.4191C12.2829 15.403 12.5841 15.3834 12.6079 15.3756C12.6317 15.3678 12.7191 15.4121 12.8023 15.4742ZM10.0689 15.5752C10.04 15.649 10.0165 15.7636 10.0165 15.8298C10.0165 15.9016 9.9293 15.9501 9.8005 15.9501C9.61815 15.9501 9.58455 15.9105 9.58455 15.6955C9.58455 15.4672 9.61228 15.4409 9.85294 15.4409C10.0622 15.4409 10.1097 15.4705 10.0689 15.5752ZM15.3721 16.4057V17.2009L14.7352 17.241C14.2682 17.2705 14.0284 17.33 13.8364 17.4644C13.5864 17.6393 13.4849 17.6475 11.5796 17.6475H9.58455V17.3929V17.1383H12.2624H14.9402V16.3745C14.9402 15.6163 14.9418 15.6106 15.1562 15.6106C15.3712 15.6106 15.3721 15.6142 15.3721 16.4057ZM10.2604 19.1179C10.2858 19.3358 10.2663 19.355 10.0444 19.33C9.84931 19.3081 9.79489 19.2546 9.77252 19.0629C9.74712 18.8449 9.76664 18.8257 9.98847 18.8507C10.1836 18.8727 10.238 18.9261 10.2604 19.1179ZM12.9534 19.6845V20.5332H13.5392C14.1107 20.5332 14.1273 20.5394 14.2227 20.7878L14.3205 21.0424H13.421H12.5215V20.1937V19.345H12.0464C11.6939 19.345 11.5713 19.3139 11.5713 19.2246C11.5713 19.1584 11.5477 19.0438 11.5189 18.97C11.4735 18.854 11.5674 18.8357 12.2099 18.8357H12.9534V19.6845ZM39.8794 19.956C39.7293 20.0906 39.5942 20.3888 39.4443 20.917C38.1166 25.5933 34.1932 29.6237 29.3709 31.265C28.8748 31.4338 27.9808 31.6741 27.3841 31.799C26.3878 32.0074 26.1339 32.0263 24.2694 32.0296C22.4835 32.0327 22.1214 32.0096 21.258 31.8378C20.0854 31.6045 19.1604 31.3273 18.0445 30.875C17.3196 30.5811 17.1873 30.5519 16.9647 30.6361L16.711 30.732L17.0484 30.9034C17.7171 31.2431 19.1467 31.7581 20.079 31.9952C21.4888 32.3536 22.6914 32.5 24.2262 32.5C25.7609 32.5 26.9639 32.3536 28.3725 31.9953C33.6277 30.6586 37.8587 26.7959 39.6262 21.7214C39.9963 20.6589 40.2078 19.8693 40.1401 19.8028C40.1165 19.7796 39.9992 19.8485 39.8794 19.956ZM37.9038 21.1978C37.2549 21.6025 36.5454 22.0376 36.3274 22.1648C36.0643 22.3183 35.9309 22.454 35.9309 22.568C35.9309 22.7054 35.8745 22.7398 35.649 22.7398C35.4529 22.7398 34.8685 23.0107 33.727 23.6308C32.825 24.1208 31.3386 24.8889 30.4241 25.3376L28.7612 26.1533V27.12V28.0867H27.9019H27.0427L27.0165 28.5323C26.9938 28.9205 26.9654 28.9813 26.7961 29.005C26.6075 29.0313 26.6017 29.0105 26.6017 28.3048V27.5775H27.4655H28.3293V26.9834C28.3293 26.6566 28.312 26.3893 28.291 26.3893C28.2699 26.3893 27.5993 26.675 26.8009 27.0243L25.3492 27.6594L25.3256 29.2483C25.3019 30.8432 25.2772 30.9675 24.982 30.971C24.8995 30.972 24.8741 30.6035 24.8741 29.4076V27.8429L24.2262 28.1086L23.5783 28.3742V28.8337C23.5783 29.2177 23.556 29.2846 23.4417 29.2415C23.3665 29.2132 23.2694 29.19 23.2257 29.19C23.1821 29.19 23.1464 29.0438 23.1464 28.8651V28.5402L21.6321 29.0958C20.5366 29.4978 20.1245 29.686 20.1422 29.7762C20.164 29.8879 20.4797 29.9882 21.6132 30.2431C21.8048 30.2862 21.8507 30.3439 21.8507 30.5412V30.7858L21.1201 30.6289C19.7943 30.3443 19.6912 30.3001 19.6912 30.0162C19.6912 29.8513 19.6544 29.7796 19.5832 29.8059C19.5239 29.828 19.1351 29.9545 18.7194 30.0872C18.3037 30.2198 17.9635 30.3536 17.9635 30.3844C17.9635 30.4598 19.2131 30.9153 20.1257 31.1726C21.9948 31.6997 24.7452 31.8537 26.6449 31.5378C30.0115 30.978 32.8781 29.5181 35.2398 27.1606C36.4298 25.9727 37.2017 24.9315 37.9507 23.5037C38.489 22.4776 39.1589 20.7777 39.1084 20.5657C39.0939 20.5047 38.5983 20.7648 37.9038 21.1978ZM17.0997 22.5701V23.5037H18.1633H19.227L19.4752 23.7583L19.7235 24.0129H18.1957H16.6678V22.8247V21.6365H16.8838H17.0997V22.5701ZM37.3178 23.062C36.2548 25.0952 34.623 26.9633 32.765 28.2738C31.8602 28.9119 31.7846 28.938 31.7846 28.6121C31.7846 28.3866 31.871 28.2963 32.4972 27.8684C33.5673 27.1372 35.2539 25.4308 35.9882 24.3369C36.3228 23.8383 36.7286 23.1614 36.89 22.8326C37.1648 22.2729 37.2015 22.2347 37.468 22.2327L37.7525 22.2306L37.3178 23.062ZM33.5986 24.8192V25.7103L32.0653 25.7054L30.532 25.7004L31.1785 25.4508C31.6837 25.2557 31.9621 25.2011 32.4527 25.2011H33.0803V24.8748C33.0803 24.6576 33.1374 24.4977 33.2508 24.3968C33.3446 24.3133 33.4445 24.1738 33.4726 24.0866C33.5717 23.7799 33.5986 23.9363 33.5986 24.8192ZM30.4889 27.6545V29.5985L29.8626 29.8525C29.2741 30.0913 28.459 30.3782 28.3695 30.3782C28.3474 30.3782 28.3293 30.2662 28.3293 30.1293C28.3293 29.945 28.3798 29.8654 28.5237 29.8224C28.6306 29.7905 29.0193 29.6515 29.3875 29.5135L30.057 29.2626V27.536C30.057 26.234 30.0835 25.7988 30.1649 25.7665C30.4849 25.6397 30.4889 25.6628 30.4889 27.6545ZM27.0336 30.4532C27.0336 30.6468 26.9885 30.7064 26.8176 30.7385C26.6292 30.7739 26.6017 30.749 26.6017 30.5433C26.6017 30.4136 26.6503 30.2883 26.7097 30.2647C26.9514 30.1688 27.0336 30.2168 27.0336 30.4532ZM23.5783 30.7177C23.5783 30.8577 23.5427 30.9723 23.499 30.9723C23.2874 30.9723 23.1464 30.8499 23.1464 30.6662C23.1464 30.5061 23.1922 30.4631 23.3624 30.4631C23.5447 30.4631 23.5783 30.5027 23.5783 30.7177Z" fill="#8192AA"></path></svg>