<svg width="626" height="563" viewBox="0 0 626 563" fill="none" xmlns="http://www.w3.org/2000/svg">
<path d="M678.766 409.189C634.749 400.124 591.207 386.706 551.702 364.934C516.196 345.34 484.291 318.701 461.016 285.292C449.695 269.063 440.947 251.369 434.455 232.645C428.043 214.12 423.372 195.001 416.247 176.674C409.359 158.94 399.74 142.513 385.015 130.163C369.023 116.744 349.667 108.075 332.764 95.9229C300.543 72.6872 274.497 40.941 258.347 4.64265C256.289 0.0113491 254.388 -4.69913 252.607 -9.44918C251.776 -11.745 253.557 -14.3972 255.734 -14.9909C258.268 -15.6638 260.445 -14.1201 261.276 -11.8638C274.814 24.7117 298.524 57.2891 328.885 81.7519C344.719 94.4979 362.848 103.523 379.592 114.963C388.182 120.821 396.336 127.471 403.065 135.467C409.24 142.83 414.347 150.944 418.543 159.574C426.974 176.911 432.159 195.516 437.82 213.883C443.52 232.447 450.17 250.458 460.106 267.242C479.897 300.769 509.031 328.24 541.965 348.784C579.688 372.297 622.082 387.022 665.15 396.997C670.454 398.224 675.798 399.372 681.142 400.481C683.517 400.956 684.902 403.806 684.269 406.022C683.635 408.516 681.181 409.664 678.766 409.189Z" fill="#005530"/>
<path d="M627.364 137.453C596.598 152.08 561.786 154.087 528.356 150.315C490.78 146.087 454.806 134.147 418.435 124.428C398.889 119.199 379.105 114.569 358.977 112.09C339.516 109.702 319.908 110.109 300.338 110.323C280.807 110.544 261.05 110.478 241.811 106.762C223.155 103.162 205.793 95.6604 189.86 85.4153C173.966 75.1778 159.333 63.0507 145.427 50.3006C131.452 37.4964 118.352 23.7351 106.126 9.21851C103.152 5.6862 100.263 2.13039 97.381 -1.46428C93.7595 -6.01188 101.285 -11.0229 104.867 -6.4829C127.671 22.306 154.227 48.8496 183.968 70.4943C198.746 81.278 214.994 90.5364 232.753 95.4126C251.048 100.435 270.024 101.395 288.903 101.409C308.303 101.445 327.709 100.634 347.058 101.951C366.919 103.328 386.507 107.113 405.78 111.884C442.522 120.95 478.451 133.527 515.915 139.548C548.145 144.698 582.133 145.232 613.086 133.748C616.917 132.326 620.702 130.732 624.4 128.961C626.586 127.899 629.393 129.623 630.144 131.748C631.028 134.222 629.589 136.4 627.364 137.453Z" fill="#005530"/>
<path d="M92.8241 135.73C92.8241 135.73 83.4031 116.532 57.0403 117.719C30.6775 118.867 32.4588 118.155 17.694 126.151L2.29339e-05 132.682C2.29339e-05 132.682 1.5834 134.503 20.267 144.874C38.9109 155.245 50.9048 162.528 63.1362 159.955C75.3676 157.382 97.0199 143.37 98.92 140.916C100.82 138.422 92.8241 135.73 92.8241 135.73Z" fill="#A2DD7D"/>
<path d="M136.367 142.934C136.367 142.934 124.334 143.568 108.263 150.297C92.1915 157.026 82.9289 165.972 76.0809 173.731C69.2329 181.489 61.1182 192.889 61.1182 192.889C61.1182 192.889 96.5062 191.979 110.756 184.616C125.046 177.253 137 155.007 136.367 142.934Z" fill="#A2DD7D"/>
<path d="M175.159 135.334C175.159 135.334 157.148 140.005 148.717 151.128C140.286 162.291 130.706 180.935 128.608 190.791C126.511 200.608 125.64 206.823 122.552 212.879C122.552 212.879 130.113 210.979 138.623 206.743C147.134 202.508 155.05 200.133 166.411 185.131C177.811 170.089 184.224 144.478 175.159 135.334Z" fill="#A2DD7D"/>
<path d="M212.723 108.496C212.723 108.496 195.821 123.657 190.873 136.957C185.925 150.297 182.323 164.785 185.094 177.491C187.825 190.197 192.456 204.487 192.456 204.487C192.456 204.487 201.363 192.137 210.665 173.731C219.928 155.324 219.611 119.144 212.723 108.496Z" fill="#A2DD7D"/>
<path d="M245.776 73.8607C245.776 73.8607 235.405 83.4003 230.18 97.2547C224.955 111.109 226.42 127.338 234.851 144.716C243.322 162.093 241.897 179.906 241.897 179.906C241.897 179.906 268.853 148.595 266.003 121.678C263.153 94.7213 248.349 78.3732 245.776 73.8607Z" fill="#A2DD7D"/>
<path d="M260.145 74.3355C261.293 85.4982 266.677 95.8691 274.91 105.29C283.183 114.711 289.24 114.474 292.763 124.33C296.285 134.186 299.69 140.995 299.69 140.995C299.69 140.995 304.717 115.621 304.083 95.2358C303.45 74.8106 303.767 66.9334 295.692 56.1666C287.617 45.3998 273.208 33.1684 273.208 33.1684C273.208 33.1684 258.998 63.1729 260.145 74.3355Z" fill="#A2DD7D"/>
<path d="M261.571 37.4434C261.571 37.4434 253.654 33.8809 240.037 31.1892C226.46 28.4975 221.947 25.1725 207.855 29.3684C193.764 33.5642 188.143 40.056 182.482 40.9268C176.822 41.8373 166.767 44.1331 166.767 44.1331C166.767 44.1331 170.053 52.5645 189.805 59.5312C209.557 66.498 222.778 74.3356 235.445 65.7459C248.112 57.1562 264.737 41.0852 264.737 41.0852L261.571 37.4434Z" fill="#A2DD7D"/>
<path d="M215.771 97.4921C215.771 97.4921 207.934 86.6065 198.79 81.6586C189.646 76.7106 182.917 74.5335 170.013 74.4543C157.108 74.4148 149.706 75.1668 147.608 74.6127C145.51 74.0189 147.291 78.8877 157.742 89.9712C168.152 101.055 198.078 122.509 215.771 97.4921Z" fill="#A2DD7D"/>
<path d="M179.71 129.832C179.71 129.832 167.677 112.969 158.414 107.348C149.112 101.688 138.108 92.1483 128.093 93.3754C118.118 94.6421 102.126 93.1775 102.126 93.1775C102.126 93.1775 111.468 96.6213 117.287 105.884C123.106 115.146 128.608 123.895 141.116 128.961C153.664 134.028 179.71 129.832 179.71 129.832Z" fill="#A2DD7D"/>
<path d="M121.76 137.709C121.76 137.709 104.779 105.33 86.491 95.0379C68.2033 84.7066 52.251 78.5315 52.251 78.5315C52.251 78.5315 62.2658 83.5191 76.1597 103.351C90.0536 123.182 112.141 134.463 121.76 137.709Z" fill="#A2DD7D"/>
<path d="M89.8557 139.372C89.8557 139.372 128.252 138.184 144.442 134.582C160.632 130.98 166.055 133.513 177.257 126.982C188.499 120.451 194.832 115.74 203.105 108.536C211.378 101.371 229.23 85.8149 235.682 80.2335C242.095 74.6522 247.162 70.2584 254.366 53.5541C261.57 36.8497 278.71 19.512 281.56 9.81395C284.41 0.115917 294.227 -17.301 296.087 -25.3365C297.948 -33.372 299.729 -40.5762 304.321 -44.5742C308.913 -48.5722 319.838 -50.8284 317.423 -47.1076C315.008 -43.3867 303.252 -29.1365 300.481 -20.3093C297.71 -11.4426 286.389 8.86393 283.658 16.8599C280.927 24.8558 280.293 27.8246 274.435 37.7601C268.577 47.6957 255.118 67.4084 251.358 72.3168C247.558 77.2252 239.641 85.6961 230.932 93.2962C222.224 100.857 209.834 111.623 201.442 120.53C193.051 129.436 180.661 134.582 173.14 137.076C165.659 139.57 138.188 144.082 131.735 144.082C125.283 144.003 89.8557 139.372 89.8557 139.372Z" fill="#8AC65C"/>
<path d="M8.62979 134.701C16.9028 136.482 25.255 137.749 33.6072 138.857C37.803 139.451 41.9989 139.847 46.1948 140.322C50.3907 140.718 54.6262 141.074 58.8221 141.391C63.0575 141.668 67.2534 141.866 71.4889 142.024L77.8223 142.143C78.8911 142.143 79.9202 142.182 80.989 142.182L84.1557 142.103C88.3912 142.063 92.6266 141.786 96.8621 141.47L103.156 140.718C105.254 140.322 107.312 139.926 109.41 139.53C100.979 140.203 92.5871 140.005 84.1953 139.768C75.8035 139.491 67.4118 139.016 59.02 138.422C50.6282 137.868 42.2364 137.234 33.8447 136.561C25.4529 135.888 17.0611 135.255 8.62979 134.701Z" fill="#8AC65C"/>
<path d="M63.4533 85.894C68.0846 90.5253 73.0721 94.8003 78.1388 98.9566C80.7118 101.055 83.1264 103.034 85.4223 105.33C87.6786 107.626 89.9348 109.921 92.1119 112.336L98.7224 119.54C100.979 121.915 103.195 124.33 105.57 126.626C107.945 128.922 110.4 131.138 113.052 133.117C115.743 135.057 118.594 136.838 121.8 137.709C118.871 136.245 116.377 134.147 114.002 131.97C111.627 129.792 109.45 127.378 107.273 125.003C105.135 122.549 102.958 120.134 100.86 117.64C98.7224 115.186 96.5453 112.732 94.3682 110.278C92.1515 107.863 89.8161 105.488 87.4015 103.232C84.9473 101.015 82.2556 98.8775 79.6035 97.0566C74.2597 93.2962 68.8762 89.5753 63.4533 85.894Z" fill="#8AC65C"/>
<path d="M65.8278 190.474C66.4216 189.762 67.1341 189.247 67.8862 188.733C68.5987 188.218 69.3904 187.704 70.1425 187.229C71.6862 186.279 73.2696 185.408 74.8529 184.576C78.0592 182.874 81.3051 181.331 84.5906 179.787L94.4865 175.314C97.8115 173.81 101.097 172.266 104.382 170.603C107.628 168.941 110.874 167.16 113.962 165.18C115.505 164.151 117.049 163.162 118.514 162.053C119.266 161.499 120.018 160.985 120.731 160.391L122.868 158.61C128.489 153.82 133.199 147.764 135.812 140.955C132.052 147.209 127.104 152.514 121.364 156.789C115.664 161.103 109.41 164.666 102.957 167.912C96.5449 171.237 89.8948 174.166 83.4426 177.649C80.2363 179.391 77.0696 181.251 74.0216 183.27C72.5175 184.299 71.0133 185.368 69.5883 186.516C68.282 187.704 66.8174 188.891 65.8278 190.474Z" fill="#8AC65C"/>
<path d="M179.71 129.832C173.337 129.792 167.044 128.763 161.146 126.784C158.216 125.755 155.366 124.528 152.675 122.984C149.983 121.48 147.489 119.619 145.035 117.68C140.127 113.801 135.614 109.328 130.745 105.171C128.331 103.073 125.797 101.055 123.026 99.313C120.256 97.6504 117.168 96.2254 113.922 96.0671C117.049 96.8983 119.701 98.5609 122.156 100.5C124.61 102.44 126.866 104.657 129.122 106.873C131.339 109.13 133.635 111.346 135.891 113.603C138.227 115.819 140.602 117.997 143.135 120.015C145.708 121.994 148.36 123.894 151.289 125.438C154.219 126.942 157.266 128.17 160.433 129.001C166.767 130.703 173.417 131.059 179.71 129.832Z" fill="#8AC65C"/>
<path d="M126.352 204.408C127.143 205.041 128.291 205.081 129.32 204.883C129.598 204.843 129.835 204.764 130.073 204.685C130.31 204.606 130.587 204.527 130.825 204.408C131.26 204.17 131.775 203.973 132.21 203.695C133.991 202.666 135.496 201.202 136.921 199.777C139.691 196.768 142.106 193.483 144.204 190.039C148.519 183.191 152.042 175.947 155.683 168.862C159.246 161.737 163.006 154.73 167.321 148.08C171.675 141.47 176.742 135.334 182.402 129.634C175.911 134.384 170.211 140.243 165.381 146.734C162.967 149.98 160.79 153.424 158.731 156.868C156.712 160.351 154.812 163.914 152.992 167.476L147.648 178.203C145.906 181.806 144.046 185.329 142.146 188.812L140.681 191.385L139.137 193.918C138.108 195.581 136.96 197.204 135.773 198.787C134.545 200.331 133.239 201.835 131.695 202.983C131.339 203.3 130.904 203.537 130.508 203.814C130.073 204.012 129.637 204.289 129.202 204.408C128.291 204.764 127.262 204.923 126.352 204.408Z" fill="#8AC65C"/>
<path d="M151.963 78.5315C156.198 82.4899 160.909 85.8941 165.817 89.0212C170.725 92.1483 175.871 94.8796 181.255 97.1755C186.638 99.4317 192.219 101.253 198.038 102.242C203.817 103.271 209.795 103.39 215.455 102.005C209.636 102.123 204.015 101.332 198.513 99.9463C195.782 99.2338 193.051 98.4421 190.359 97.4921C187.667 96.5817 185.015 95.5525 182.403 94.4046C179.75 93.3358 177.178 92.1087 174.605 90.8816C172.032 89.6545 169.498 88.3483 166.965 87.0024C161.938 84.3107 156.95 81.5003 151.963 78.5315Z" fill="#8AC65C"/>
<path d="M213.278 104.696C211.932 106.24 210.744 107.903 209.597 109.565C208.449 111.228 207.34 112.969 206.272 114.671C204.134 118.155 202.155 121.717 200.413 125.438C198.671 129.159 197.167 133.038 196.257 137.155C195.821 139.253 195.623 141.311 195.465 143.37C195.307 145.428 195.228 147.486 195.228 149.545C195.267 153.662 195.623 157.739 195.861 161.737C195.98 163.755 196.059 165.735 196.019 167.714C196.019 168.703 195.94 169.693 195.861 170.683L195.584 173.691C194.832 181.766 194.159 189.841 193.803 197.995C195.426 190.039 196.732 182.004 197.919 173.968L198.355 170.96C198.474 169.93 198.592 168.901 198.632 167.833C198.751 165.735 198.751 163.676 198.671 161.618C198.513 157.501 198.196 153.503 198.196 149.505C198.196 147.526 198.196 145.507 198.355 143.528C198.474 141.549 198.711 139.53 198.988 137.67C199.661 133.83 201.046 130.07 202.511 126.349C204.015 122.628 205.678 118.947 207.499 115.344C208.369 113.524 209.319 111.742 210.269 109.961C210.744 109.051 211.219 108.18 211.694 107.269C212.209 106.438 212.684 105.528 213.278 104.696Z" fill="#8AC65C"/>
<path d="M172.982 47.0227C175.595 50.0706 179.355 51.9707 183.195 53.1582C185.134 53.7519 187.153 54.0686 189.172 54.3457C190.161 54.4644 191.191 54.504 192.22 54.5436L195.268 54.5436C199.186 54.4644 203.105 54.3853 207.064 54.4644C211.022 54.504 215.099 54.3853 219.058 53.9103C227.014 52.8811 234.772 51.2186 242.452 49.2394C246.291 48.2498 250.091 47.1018 253.852 45.8352C255.712 45.1622 257.612 44.5289 259.433 43.7372C261.254 42.9851 263.114 42.1539 264.777 41.1247C262.956 41.8768 261.056 42.431 259.156 42.9455C257.256 43.4601 255.356 43.9747 253.416 44.4101C249.577 45.3206 245.737 46.1518 241.897 46.9435C238.018 47.6956 234.179 48.4873 230.299 49.1206C226.42 49.7935 222.541 50.4665 218.662 50.9019C214.783 51.4165 210.943 51.5748 206.984 51.6144C203.026 51.6936 199.028 51.8123 195.07 52.2082C191.23 52.5644 187.351 52.4852 183.551 51.7332C179.79 50.9811 176.03 49.5956 172.982 47.0227Z" fill="#8AC65C"/>
<path d="M270.912 32.6539C270.952 33.208 270.714 33.7622 270.596 34.3164L270.081 35.9789C269.764 37.0873 269.448 38.1956 269.17 39.304C268.616 41.5602 268.22 43.8561 267.983 46.152C267.508 50.7833 267.706 55.5333 268.656 60.1646C268.893 61.3126 269.17 62.4605 269.487 63.6084C269.645 64.1626 269.804 64.7563 269.962 65.3105L270.516 66.973C270.873 68.0814 271.348 69.1897 271.783 70.2981C272.298 71.3669 272.733 72.4752 273.327 73.5044C275.504 77.7398 278.433 81.4211 281.046 85.142C283.698 88.8233 286.112 92.6233 288.012 96.7005C289.952 100.738 291.337 105.092 292.644 109.446C295.177 118.194 297.117 127.18 298.898 136.205C298.344 127.022 297.037 117.838 294.9 108.813C293.831 104.301 292.485 99.8276 290.585 95.4734C288.685 91.1588 286.192 87.1608 283.5 83.3607C280.769 79.6003 277.958 76.0377 275.821 72.1189C273.604 68.2793 272.139 63.9647 270.912 59.65C269.804 55.2958 269.289 50.7833 269.408 46.2707C269.448 44.0144 269.645 41.7186 269.962 39.4623C270.12 38.3144 270.318 37.206 270.516 36.0581L270.793 34.356C270.873 33.8018 271.071 33.2476 270.912 32.6539Z" fill="#8AC65C"/>
<path d="M243.915 172.583C244.826 172.028 245.38 170.999 245.855 170.049C246.29 169.06 246.686 168.03 246.963 167.001C247.557 164.943 247.953 162.805 248.23 160.668C248.784 156.393 248.982 152.118 248.982 147.843C248.982 143.488 248.309 139.134 247.24 134.938C246.132 130.743 244.588 126.705 242.886 122.747C241.144 118.828 239.244 115.028 237.661 111.188C236.117 107.348 234.851 103.469 236.078 99.6692C236.592 97.6504 237.226 95.6712 237.898 93.6921C238.571 91.7129 239.324 89.7337 240.115 87.7941C241.699 83.8753 243.44 79.9961 245.221 76.1564C242.846 79.6794 240.749 83.4003 238.769 87.2003C236.869 91.0003 235.048 94.9191 233.782 99.0754C233.465 100.065 233.109 101.253 233.03 102.44C232.951 103.628 233.03 104.776 233.188 105.884C233.544 108.14 234.217 110.238 234.969 112.296C236.553 116.334 238.453 120.134 240.115 124.013C243.559 131.653 246.172 139.649 246.647 147.922C246.844 152.118 246.963 156.353 246.765 160.549C246.686 162.647 246.488 164.745 246.171 166.803C246.013 167.833 245.776 168.862 245.459 169.851C245.103 170.88 244.746 171.91 243.915 172.583Z" fill="#8AC65C"/>
<path d="M398.394 234.743C398.394 234.783 398.433 234.823 398.433 234.902C398.196 234.348 397.958 233.754 397.721 233.2C397.76 233.239 397.76 233.318 397.8 233.358C397.444 232.883 397.048 232.408 396.691 231.933C396.731 231.973 396.731 232.012 396.771 232.012C396.296 231.656 395.821 231.26 395.346 230.904C395.385 230.943 395.385 230.943 395.425 230.943C394.871 230.706 394.277 230.468 393.723 230.231C393.762 230.231 393.802 230.27 393.841 230.27C393.208 230.191 392.575 230.112 391.941 230.033C391.981 230.033 392.021 230.033 392.1 230.033C391.466 230.112 390.833 230.191 390.2 230.27C390.279 230.27 390.358 230.231 390.437 230.191C389.883 230.429 389.289 230.666 388.735 230.904C388.854 230.864 388.973 230.785 389.052 230.706C388.577 231.062 388.062 231.458 387.587 231.814C387.666 231.735 387.746 231.695 387.825 231.616C387.429 232.091 387.073 232.606 386.677 233.081C386.716 233.002 386.796 232.883 386.835 232.804C386.598 233.398 386.36 233.952 386.083 234.546C386.123 234.427 386.162 234.308 386.202 234.15C386.123 234.823 386.043 235.456 385.925 236.129C385.925 236.05 385.925 235.971 385.925 235.891C386.004 236.564 386.123 237.237 386.202 237.871C386.202 237.831 386.202 237.791 386.162 237.712C386.4 238.306 386.677 238.9 386.914 239.494C386.914 239.454 386.875 239.414 386.875 239.375C387.271 239.889 387.666 240.404 388.062 240.919C388.023 240.879 388.023 240.879 387.983 240.839C388.498 241.235 389.012 241.631 389.527 242.027C389.487 241.987 389.448 241.987 389.408 241.948C390.002 242.185 390.635 242.462 391.229 242.7C391.189 242.7 391.15 242.66 391.11 242.66C393.604 241.987 396.098 241.354 398.591 240.681L398.552 240.721C397.839 241.473 397.008 242.027 396.058 242.344C395.464 242.7 394.791 242.858 394.079 242.858C393.05 243.096 392.021 243.056 390.952 242.7C390.318 242.423 389.725 242.185 389.091 241.908C388.577 241.512 388.023 241.077 387.508 240.681C386.756 239.969 386.202 239.137 385.885 238.187C385.529 237.593 385.37 236.921 385.37 236.208C385.133 235.179 385.173 234.15 385.529 233.081C385.806 232.448 386.043 231.854 386.321 231.22C386.716 230.706 387.152 230.152 387.548 229.637C388.26 228.885 389.091 228.331 390.041 228.014C390.635 227.658 391.308 227.5 392.021 227.5C393.05 227.262 394.079 227.302 395.148 227.658C395.781 227.935 396.375 228.173 397.008 228.45C397.523 228.845 398.077 229.281 398.591 229.677C399.541 230.666 400.214 231.814 400.61 233.121C400.689 233.477 400.729 233.793 400.769 234.15C400.887 234.506 400.967 234.862 400.887 235.218C400.135 233.398 399.383 231.616 398.631 229.795C398.671 229.795 398.671 229.835 398.671 229.835C399.106 230.35 399.541 230.864 399.898 231.458C400.294 232.052 400.531 232.725 400.729 233.398C400.927 234.071 401.046 234.823 401.006 235.535L401.006 235.575C401.006 235.654 400.769 237.514 400.729 237.593C400.729 237.633 400.729 237.633 400.729 237.673C400.531 238.346 400.254 238.979 399.937 239.573C399.779 239.889 399.344 240.325 399.264 240.444C399.027 240.76 398.789 241.156 398.433 241.433C398.196 241.631 397.879 241.869 397.681 242.027C397.483 242.185 397.166 242.423 396.929 242.621C396.929 242.621 396.889 242.621 396.889 242.66C396.85 242.66 396.85 242.7 396.81 242.7C396.731 242.739 396.691 242.779 396.612 242.819C397.087 242.423 397.602 242.066 398.077 241.671C397.562 242.066 397.008 242.541 396.454 242.898C396.414 242.937 396.335 242.977 396.296 243.016C395.702 243.333 395.069 243.571 394.396 243.808C394.356 243.808 394.277 243.848 394.237 243.848C393.564 243.966 392.931 244.046 392.258 244.125C392.218 244.125 392.218 244.125 392.179 244.125C391.862 244.125 391.229 244.006 391.15 244.006C391.189 244.006 390.437 243.966 390.121 243.848L390.081 243.848C390.002 243.808 388.458 243.175 388.379 243.135C388.339 243.135 388.339 243.096 388.3 243.096C387.785 242.739 387.271 242.344 386.796 241.948L386.756 241.908C385.568 240.523 385.489 240.325 384.856 238.623C384.856 238.583 384.816 238.543 384.816 238.504C384.658 237.831 384.618 237.158 384.539 236.485C384.5 235.496 384.698 234.585 385.133 233.754C385.41 232.883 385.925 232.131 386.598 231.458C387.073 231.102 387.548 230.706 388.023 230.35C388.854 229.835 389.725 229.558 390.675 229.518C391.308 229.36 391.941 229.36 392.575 229.518C393.525 229.558 394.396 229.835 395.227 230.35C395.702 230.706 396.177 231.102 396.652 231.458C397.444 232.487 398.077 233.516 398.394 234.743Z" fill="#004916"/>
<path d="M367.004 218.989C366.964 219.068 366.924 219.187 366.924 219.266C366.964 218.91 367.004 218.554 367.083 218.197C367.083 218.316 367.083 218.395 367.083 218.514C367.043 218.158 367.004 217.801 366.924 217.445C366.924 217.564 366.964 217.683 367.004 217.762C366.885 217.445 366.727 217.129 366.608 216.772C366.647 216.891 366.727 217.01 366.806 217.129C366.608 216.851 366.37 216.574 366.172 216.297C366.291 216.416 366.37 216.535 366.529 216.654C366.252 216.456 365.974 216.218 365.697 216.02C365.816 216.099 365.935 216.179 366.054 216.218C365.737 216.06 365.381 215.941 365.064 215.783C365.183 215.822 365.341 215.862 365.46 215.901C365.104 215.862 364.708 215.783 364.351 215.743C364.47 215.743 364.549 215.743 364.668 215.743C364.312 215.783 363.916 215.862 363.56 215.901C363.679 215.901 363.758 215.862 363.876 215.822C363.52 215.981 363.204 216.099 362.847 216.258C362.926 216.218 363.006 216.179 363.085 216.099C362.808 216.337 362.531 216.535 362.214 216.772C362.293 216.733 362.333 216.654 362.412 216.574C362.174 216.851 361.976 217.168 361.739 217.445C361.818 217.366 361.858 217.247 361.897 217.129C361.739 217.485 361.62 217.801 361.462 218.158C361.501 218.079 361.501 218.039 361.541 217.96C361.501 218.356 361.422 218.712 361.383 219.108C361.383 219.029 361.383 218.91 361.383 218.831C361.422 219.227 361.501 219.622 361.541 219.979C361.501 219.82 361.462 219.622 361.383 219.464C361.541 219.82 361.699 220.177 361.858 220.533C361.818 220.414 361.739 220.256 361.62 220.137C361.858 220.454 362.095 220.77 362.333 221.087C362.254 220.968 362.174 220.889 362.056 220.81C362.372 221.047 362.689 221.285 363.006 221.562C362.926 221.483 362.847 221.443 362.729 221.404C363.124 221.562 363.481 221.72 363.876 221.879C363.837 221.879 363.837 221.879 363.797 221.839C364.668 221.839 365.499 221.839 366.37 221.839C366.766 221.681 367.122 221.522 367.518 221.364C367.479 221.364 367.479 221.404 367.439 221.404C367.756 221.127 368.112 220.889 368.429 220.612C367.993 221.087 367.439 221.443 366.806 221.641C366.212 221.958 365.579 222.077 364.866 222.077C364.431 222.037 363.995 221.958 363.56 221.918C362.729 221.681 361.976 221.245 361.343 220.652C361.066 220.295 360.789 219.939 360.512 219.543C360.076 218.791 359.839 217.96 359.839 217.089C359.799 216.416 359.958 215.783 360.274 215.189C360.472 214.595 360.829 214.041 361.304 213.606C361.897 213.012 362.649 212.576 363.481 212.339C363.52 212.339 363.56 212.299 363.599 212.299C364.47 212.062 365.381 212.062 366.252 212.299C366.885 212.458 367.479 212.735 367.954 213.21C368.508 213.566 368.943 214.041 369.22 214.595C369.656 215.387 369.893 216.218 369.893 217.129C369.854 216.693 369.774 216.258 369.735 215.822C369.814 216.297 369.893 216.733 369.933 217.208C369.695 216.416 369.497 215.585 369.26 214.793C369.26 214.793 369.26 214.793 369.26 214.833C369.022 214.516 368.745 214.199 368.508 213.843L368.547 213.883C368.785 214.16 369.102 214.556 369.339 214.872C369.379 214.912 369.379 214.951 369.418 214.991C369.458 215.031 369.458 215.07 369.497 215.11C369.497 215.11 369.497 215.149 369.537 215.149C369.695 215.466 369.893 215.981 370.012 216.337C370.052 216.416 370.052 216.495 370.091 216.574C370.17 217.049 370.249 217.564 370.289 218.039C370.289 218.118 370.289 218.197 370.289 218.316C370.249 218.752 370.21 219.187 370.131 219.622C370.131 219.662 370.131 219.702 370.091 219.741C369.933 220.256 369.695 220.77 369.418 221.245C369.577 220.889 369.695 220.572 369.854 220.216C369.695 220.612 369.537 221.047 369.339 221.404C369.22 221.602 369.022 221.839 368.904 221.997C368.785 222.156 368.627 222.393 368.429 222.552C368.389 222.591 368.389 222.591 368.349 222.631C368.072 222.868 367.716 223.145 367.439 223.343C367.399 223.383 367.32 223.422 367.241 223.462C366.885 223.62 366.449 223.858 366.014 223.977C365.816 224.016 365.539 224.056 365.341 224.056C365.143 224.095 364.906 224.135 364.668 224.135C364.629 224.135 364.589 224.135 364.549 224.135C364.154 224.095 363.718 224.056 363.322 223.977C362.808 223.897 362.333 223.66 361.897 223.422C361.818 223.383 361.739 223.343 361.699 223.304C361.343 223.066 360.987 222.789 360.67 222.512C360.631 222.472 360.551 222.393 360.512 222.354C360.274 222.077 360.037 221.76 359.799 221.443C359.76 221.404 359.76 221.364 359.72 221.324C359.443 220.889 359.245 220.414 359.126 219.939C359.008 219.543 358.968 218.87 358.929 218.593C358.929 218.514 358.929 218.435 358.929 218.316C359.008 217.326 359.126 216.693 359.641 215.822C359.879 215.347 360.235 214.991 360.67 214.714C361.066 214.358 361.501 214.12 362.016 214.001C362.372 213.962 362.729 213.922 363.085 213.843C363.639 213.804 364.154 213.922 364.629 214.199C364.985 214.279 365.262 214.476 365.499 214.714C365.935 214.991 366.291 215.387 366.529 215.822C366.647 216.139 366.806 216.456 366.924 216.772C367.202 217.564 367.202 218.277 367.004 218.989Z" fill="#004916"/>
<path d="M366.568 247.727C365.183 247.727 363.758 247.133 362.768 246.143C361.818 245.193 361.145 243.689 361.185 242.343C361.264 240.958 361.699 239.533 362.768 238.543C363.837 237.593 365.103 236.96 366.568 236.96C367.953 236.96 369.379 237.554 370.368 238.543C371.318 239.493 371.991 240.998 371.951 242.343C371.872 243.729 371.437 245.154 370.368 246.143C369.299 247.133 367.993 247.727 366.568 247.727Z" fill="#004916"/>
<path d="M335.179 209.093C335.773 208.539 336.366 208.024 336.96 207.47C337.316 207.074 337.752 206.797 338.266 206.639C338.741 206.401 339.295 206.283 339.85 206.283C340.404 206.243 340.958 206.362 341.433 206.639C341.948 206.797 342.383 207.074 342.739 207.47C342.937 207.747 343.175 208.024 343.373 208.301C343.729 208.935 343.927 209.647 343.927 210.36C343.887 210.716 343.848 211.072 343.768 211.468C343.571 212.181 343.214 212.774 342.7 213.289C342.145 213.883 341.631 214.476 341.077 215.07C340.681 215.466 340.245 215.783 339.731 215.941C339.216 216.218 338.702 216.337 338.108 216.297C337.514 216.337 337 216.179 336.485 215.941C335.97 215.783 335.495 215.466 335.139 215.07C334.902 214.793 334.704 214.516 334.466 214.199C334.07 213.526 333.872 212.814 333.872 212.062C333.912 211.706 333.991 211.31 334.031 210.954C334.268 210.241 334.664 209.608 335.179 209.093Z" fill="#004916"/>
<path d="M503.608 340.115C530.168 316.048 547.348 296.296 576.125 306.35C604.903 316.444 612.305 346.924 618.44 363.945C624.576 380.966 648.762 365.172 678.054 393.118C707.346 421.064 676.391 420.629 653.353 463.538C630.316 506.447 619.628 497.263 592.196 515.709C564.804 534.155 522.648 540.409 491.337 542.191C460.026 543.972 456.305 562.458 456.305 562.458C462.005 537.916 441.738 541.637 431.407 496.511C421.115 451.385 431.724 450.515 446.211 417.502C460.699 384.528 477.047 364.143 503.608 340.115ZM569.119 322.54C560.648 309.953 531.871 310.625 543.192 322.184C543.231 322.184 577.629 335.128 569.119 322.54ZM546.517 368.616C549.802 354.286 502.816 349.853 502.895 362.48C502.974 375.107 543.231 382.945 546.517 368.616ZM662.26 406.22C637.52 381.639 615.749 387.418 632.691 406.26C649.632 425.062 687 430.802 662.26 406.22ZM614.047 490.93C614.047 490.93 629.168 487.486 625.803 460.925C622.438 434.364 592.869 381.005 579.727 405.825C566.546 430.604 599.044 491.326 614.047 490.93ZM568.723 513.888C568.723 513.888 576.957 508.465 571.811 494.176C566.665 479.886 560.767 476.561 559.698 465.319C558.629 454.038 558.194 434.879 547.942 438.798C537.689 442.717 543.785 507.99 568.723 513.888ZM526.368 520.222C526.368 520.222 530.208 517.847 523.083 502.053C515.918 486.259 516.512 469.95 509.11 472.84C501.708 475.729 513.583 523.309 526.368 520.222ZM597.144 365.291C609.297 370.12 604.032 334.772 592.434 333.505C580.796 332.238 584.992 360.501 597.144 365.291ZM443.559 465.161C437.582 481.707 444.667 508.901 453.534 503.992C453.534 503.992 478.987 485.15 478.274 472.048C477.522 458.906 449.536 448.615 443.559 465.161ZM462.836 420.787C462.836 420.787 512.87 429.575 514.652 417.304C516.433 404.993 484.528 388.685 470.793 397.354C457.018 405.983 455.078 417.106 462.836 420.787Z" fill="#00805C"/>
<path d="M503.608 340.115C530.169 316.049 547.348 296.296 576.126 306.35C579.095 307.38 581.866 308.686 584.399 310.111C583.409 325.113 580.401 339.403 568.763 348.191C556.176 357.73 523.321 353.93 493.277 349.774C496.562 346.607 500.006 343.401 503.608 340.115ZM543.232 322.184C543.232 322.184 577.63 335.128 569.159 322.54C560.649 309.992 531.871 310.665 543.232 322.184Z" fill="#007957"/>
<path d="M447.122 459.817C439.917 461.479 433.228 463.221 427.369 465.24C428.042 447.863 436.197 440.381 446.211 417.541C454.247 399.174 462.876 384.726 473.524 371.387C504.479 374.791 540.896 371.189 539.629 409.862C538.6 441.015 496.997 449.248 460.461 456.927C455.513 456.096 450.565 456.809 447.122 459.817ZM514.652 417.264C516.433 404.954 484.528 388.645 470.793 397.314C457.057 405.983 455.078 417.106 462.836 420.748C462.836 420.787 512.87 429.575 514.652 417.264Z" fill="#007957"/>
<path d="M579.728 405.785C574.542 415.602 576.482 431 581.628 446.002C570.069 432.821 561.203 406.102 568.842 391.02C575.334 378.156 588.555 388.091 597.541 403.766C590.772 397.987 584.28 397.195 579.728 405.785Z" fill="#006A41"/>
<path d="M446.211 417.541C460.699 384.529 477.047 364.143 503.608 340.076C530.169 316.009 547.348 296.257 576.126 306.311C577.313 306.746 578.461 307.182 579.609 307.696C573.038 306.153 567.496 305.836 565.359 308.211C562.984 310.824 562.786 313.832 563.023 317.078C551.702 310.546 533.89 312.684 543.231 322.184C543.231 322.184 555.225 326.697 563.3 327.805C562.667 330.932 560.925 334.099 556.769 337.068C543.231 346.845 498.818 339.363 495.968 357.889C493.118 376.453 517.423 368.972 499.65 391.02C497.67 393.475 495.731 395.572 493.791 397.433C485.479 394.425 476.533 393.672 470.793 397.314C458.205 405.271 455.514 415.246 461.135 419.679C457.968 422.529 454.841 426.052 451.832 430.842C444.786 441.925 445.618 452.454 445.38 461.796C444.668 462.746 444.074 463.855 443.638 465.121C442.253 468.921 441.58 473.275 441.461 477.709C439.363 480.915 436.118 483.884 431.051 486.536C430.536 486.813 430.061 487.011 429.547 487.209C422.738 451.148 432.832 448.14 446.211 417.541Z" fill="#006A41"/>
<path d="M623.745 371.228C613.215 367.191 601.38 366.478 590.098 368.735C584.438 369.922 579.015 371.98 573.869 374.672C572.602 375.385 571.296 376.058 570.069 376.81L566.467 379.185C565.24 379.976 564.131 380.847 562.983 381.718C561.836 382.589 560.688 383.42 559.579 384.331C541.885 398.858 527.398 416.591 514.177 434.919C507.645 444.181 501.431 453.602 495.77 463.538C490.347 473.513 485.36 483.646 480.768 493.978C476.097 504.27 471.782 514.641 467.666 525.17C465.647 530.434 463.707 535.739 461.886 541.082C461.016 543.774 460.145 546.426 459.353 549.158C458.957 550.503 458.601 551.889 458.324 553.274C458.047 554.66 457.691 556.045 457.73 557.47C457.888 556.085 458.363 554.739 458.759 553.393C459.195 552.047 459.709 550.741 460.224 549.435C461.214 546.822 462.322 544.249 463.43 541.637C465.647 536.491 467.943 531.345 470.318 526.278C475.028 516.066 479.897 505.972 484.885 495.917C489.951 485.903 494.979 475.888 500.599 466.269C506.22 456.729 512.435 447.388 518.927 438.323C525.379 429.219 532.148 420.312 539.392 411.841C546.556 403.331 554.235 395.216 562.508 387.854C563.538 386.943 564.646 386.112 565.675 385.201C566.744 384.331 567.813 383.42 568.921 382.668L572.246 380.253L575.69 378.076C580.361 375.306 585.428 373.049 590.732 371.585C601.38 368.616 612.859 368.418 623.745 371.228Z" fill="#006A41"/>
<path d="M374.762 7.4927C397.919 -13.0513 412.921 -30.0328 437.7 -21.0868C462.48 -12.1409 468.615 14.2615 473.761 29.0263C478.907 43.7911 499.966 30.3326 525.022 54.7558C550.079 79.1394 523.36 78.5061 503.093 115.398C482.826 152.29 473.642 144.255 449.813 159.97C425.984 175.684 389.527 180.751 362.452 182.018C335.376 183.284 332.012 199.237 332.012 199.237C337.118 178.099 319.582 181.147 311.072 142.078C302.561 103.008 311.745 102.336 324.53 73.9143C337.316 45.5328 351.606 28.0367 374.762 7.4927ZM431.525 -7.11372C424.281 -18.0389 399.423 -17.7222 409.121 -7.62832C409.121 -7.6679 438.73 3.81141 431.525 -7.11372ZM411.575 32.5097C414.544 20.1595 373.97 15.9241 373.931 26.8492C373.891 37.7347 408.646 44.8598 411.575 32.5097ZM511.287 65.958C490.109 44.5036 471.267 49.3328 485.755 65.7205C500.243 82.1478 532.464 87.4124 511.287 65.958ZM468.892 138.753C468.892 138.753 481.995 135.903 479.303 112.904C476.611 89.9062 451.515 43.5931 439.917 64.8892C428.398 86.2249 455.949 138.99 468.892 138.753ZM429.546 158.228C429.546 158.228 436.671 153.597 432.357 141.207C428.042 128.817 422.975 125.888 422.144 116.15C421.313 106.413 421.075 89.827 412.208 93.1521C403.342 96.4375 408.052 152.884 429.546 158.228ZM392.891 163.295C392.891 163.295 396.256 161.276 390.2 147.58C384.143 133.884 384.777 119.792 378.364 122.246C371.952 124.7 381.848 165.868 392.891 163.295ZM455.355 30.0555C465.805 34.3305 461.569 3.77183 451.555 2.54473C441.54 1.35721 444.905 25.7804 455.355 30.0555ZM321.839 115.042C316.534 129.292 322.432 152.844 330.151 148.649C330.151 148.649 352.318 132.578 351.764 121.257C351.21 109.936 327.103 100.792 321.839 115.042ZM338.86 76.8435C338.86 76.8435 382.006 84.879 383.668 74.2706C385.291 63.6621 357.899 49.2932 345.945 56.6558C333.951 64.058 332.17 73.6372 338.86 76.8435Z" fill="#00805C"/>
<path d="M355.604 160.286C363.323 157.792 373.1 156.605 383.629 155.892C386.361 160.84 389.567 164.126 392.931 163.334C392.931 163.334 394.911 162.147 393.05 155.338C402.709 154.824 412.644 154.467 421.867 153.636C424.163 155.932 426.736 157.555 429.586 158.267C429.586 158.267 432.317 156.486 433.386 152.211C447.953 149.836 459.076 145.165 461.689 135.071C464.341 137.446 466.834 138.832 468.932 138.792C468.932 138.792 482.035 135.942 479.343 112.944C478.512 105.74 475.464 96.2792 471.347 87.3332C475.107 83.3749 480.926 80.7623 490.11 79.654C494.464 79.1394 499.016 78.5852 503.647 77.9519C512.316 81.3561 519.639 81.079 518.095 75.5373C524.231 74.231 530.089 72.5685 535.156 70.3122C536.185 81.5936 517.937 88.5208 503.093 115.477C482.826 152.369 473.643 144.334 449.813 160.049C425.984 175.763 389.527 180.83 362.452 182.097C352.596 182.572 345.906 184.986 341.354 187.837C338.702 176.832 340.206 165.234 355.604 160.286Z" fill="#007957"/>
<path d="M374.762 7.49271C397.919 -13.0513 412.921 -30.0328 437.701 -21.0868C440.274 -20.1764 442.649 -19.0285 444.826 -17.7618C443.836 -4.81787 441.144 7.49271 431.011 15.0136C420.046 23.1679 391.665 19.5658 365.777 15.7657C368.627 13.074 371.596 10.3032 374.762 7.49271ZM409.121 -7.6679C409.121 -7.6679 438.73 3.77183 431.526 -7.15331C424.282 -18.0784 399.423 -17.7222 409.121 -7.6679Z" fill="#007957"/>
<path d="M324.966 110.49C318.752 111.836 312.933 113.3 307.866 115.002C308.579 99.9604 315.704 93.5874 324.571 73.9538C331.696 58.1599 339.256 45.7306 348.558 34.2908C375.277 37.4971 406.786 34.6867 405.361 68.0954C404.213 95.0124 368.192 101.781 336.564 108.115C332.25 107.323 327.975 107.877 324.966 110.49ZM383.669 74.2705C385.292 63.662 357.9 49.2931 345.946 56.6557C333.991 64.0183 332.21 73.5976 338.9 76.8434C338.86 76.8434 382.007 84.8789 383.669 74.2705Z" fill="#007957"/>
<path d="M439.957 64.8892C435.405 73.3206 436.949 86.6207 441.263 99.6834C431.407 88.2041 423.925 65.0475 430.655 52.0641C436.394 41.0202 447.715 49.689 455.315 63.3059C449.615 58.2391 443.955 57.5266 439.957 64.8892Z" fill="#006A41"/>
<path d="M361.898 169.311C376.861 152.092 392.496 171.488 407.063 171.093C421.63 170.657 435.801 164.442 444.391 156.249C452.98 148.055 460.976 150.271 469.645 147.105C478.314 143.938 486.626 115.556 490.11 100.475C493.633 85.4332 500.6 90.4207 520.233 89.9457C520.946 89.9457 521.619 89.9061 522.292 89.827C516.473 95.9625 509.466 103.84 503.093 115.398C482.826 152.29 473.643 144.255 449.814 159.969C425.984 175.684 389.527 180.751 362.452 182.018C359.8 182.136 357.425 182.414 355.208 182.77C356.317 178.02 358.375 173.388 361.898 169.311Z" fill="#006A41"/>
<path d="M324.531 73.9539C337.316 45.5327 351.606 28.0763 374.762 7.53226C397.919 -13.0117 412.921 -29.9932 437.701 -21.0473C438.73 -20.691 439.719 -20.2556 440.709 -19.8202C435.048 -21.2056 430.259 -21.5223 428.398 -19.5035C426.34 -17.2868 426.142 -14.6743 426.3 -11.8638C416.563 -17.6035 401.165 -15.9014 409.161 -7.62835C409.161 -7.62835 419.492 -3.63038 426.459 -2.6012C425.865 0.090498 424.361 2.82179 420.759 5.35515C409.002 13.6677 370.646 6.85933 368.073 22.8512C365.46 38.843 386.519 32.5888 370.962 51.5099C369.221 53.6078 367.519 55.4287 365.856 57.012C358.691 54.3599 350.972 53.6078 345.985 56.6953C335.02 63.4642 332.645 72.0539 337.435 75.9331C334.664 78.3477 331.972 81.3956 329.281 85.5124C323.066 95.0521 323.739 104.117 323.422 112.231C322.828 113.063 322.274 114.013 321.878 115.081C320.651 118.367 320.058 122.127 319.899 125.927C318.039 128.698 315.228 131.232 310.835 133.488C310.399 133.725 309.964 133.884 309.528 134.082C303.947 102.771 312.695 100.238 324.531 73.9539Z" fill="#006A41"/>
<path d="M478.314 35.3993C469.249 31.8367 459.037 31.0847 449.259 32.9451C444.391 33.9347 439.641 35.6764 435.168 37.9327C434.059 38.5264 432.951 39.1202 431.882 39.7139L428.755 41.7327C427.686 42.4056 426.697 43.1577 425.707 43.8702C424.718 44.6223 423.688 45.3348 422.738 46.0869C407.301 58.4767 394.673 73.6768 383.075 89.3916C377.336 97.3479 371.913 105.423 366.965 113.973C362.175 122.563 357.821 131.271 353.744 140.138C349.627 148.965 345.787 157.951 342.185 166.976C340.404 171.528 338.662 176.08 337.079 180.672C336.287 182.968 335.496 185.303 334.823 187.639C334.466 188.826 334.15 189.974 333.873 191.162C333.596 192.349 333.318 193.537 333.318 194.764C333.437 193.537 333.873 192.389 334.269 191.241C334.664 190.093 335.1 188.984 335.575 187.837C336.485 185.58 337.435 183.364 338.425 181.147C340.404 176.713 342.423 172.32 344.521 167.926C348.677 159.138 352.992 150.469 357.385 141.84C361.858 133.25 366.292 124.621 371.2 116.348C376.109 108.154 381.571 100.119 387.271 92.3604C392.932 84.5228 398.869 76.9227 405.163 69.6393C411.417 62.3163 418.107 55.3891 425.311 49.0953C426.222 48.3036 427.172 47.5911 428.082 46.839C428.993 46.0869 429.943 45.3348 430.893 44.6619L433.782 42.6035L436.791 40.7431C440.868 38.3681 445.222 36.468 449.814 35.2805C458.997 32.9451 468.933 32.9055 478.314 35.3993Z" fill="#006A41"/>
<path d="M614.165 164.878C609.336 186.728 610.998 194.447 596.352 212.22C581.706 229.993 583.329 229.795 564.012 249.825C544.695 269.854 532.068 280.106 521.895 286.044C511.722 291.981 496.641 295.9 489.753 309.359C489.753 309.359 473.801 288.181 473.524 260.037C473.247 231.893 466.913 234.347 474.197 202.918C481.44 171.488 487.734 153.121 511.524 137.169C535.354 121.217 542.32 139.544 550.079 135.23C557.798 130.915 573.671 112.311 589.979 115.556C606.288 118.802 618.994 143.028 614.165 164.878ZM496.482 242.898C488.328 241.275 471.703 279.869 484.132 275.95C496.561 272.031 504.637 244.481 496.482 242.898ZM506.457 198.484C510.178 188.549 495.493 195.437 485.795 204.185C476.097 212.933 472.851 224.729 479.54 226.945C486.191 229.122 502.737 208.42 506.457 198.484ZM527.833 215.664C506.655 226.312 522.093 274.406 543.231 261.106C564.408 247.806 549.01 205.016 527.833 215.664ZM508.239 160.207C500.876 159.217 486.23 170.538 492.563 174.418C498.897 178.336 515.601 161.197 508.239 160.207ZM528.822 142.117C528.149 134.913 514.572 138.475 511.207 144.888C507.882 151.301 529.456 149.321 528.822 142.117ZM549.96 186.649C540.183 190.568 555.541 220.097 565.319 210.874C575.096 201.691 559.737 182.77 549.96 186.649ZM590.019 144.73C577.55 138.04 552.889 142.196 549.445 154.23C546.002 166.263 564.131 157.674 580.242 161.909C596.352 166.145 602.092 166.738 602.092 166.738C615.986 160.999 602.488 151.459 590.019 144.73Z" fill="#00805B"/>
<path d="M570.623 203.314C581.232 189.895 551.583 169.272 539.075 175.13C532.385 178.257 538.798 189.895 547.823 198.01C546.2 192.903 546.398 188.074 549.96 186.649C558.035 183.443 569.871 195.753 568.288 205.333C569.158 204.858 569.95 204.185 570.623 203.314Z" fill="#007052"/>
<path d="M596.352 212.22C610.998 194.447 609.336 186.689 614.165 164.878C618.994 143.028 606.288 118.802 589.979 115.596C589.346 115.477 588.752 115.398 588.119 115.319C590.256 122.088 592.75 128.54 592.077 132.023C590.375 140.692 574.739 125.809 557.916 139.901C555.225 142.157 554.116 144.809 554.156 147.738C562.746 140.969 580.202 139.465 590.019 144.769C602.488 151.459 615.946 160.999 602.092 166.778C602.092 166.778 596.392 166.184 580.242 161.949C572.998 160.049 565.398 160.722 559.46 160.959C568.564 174.893 586.021 191.953 585.942 208.42C585.823 231.102 568.05 219.187 549.92 225.956C555.423 237.316 554.948 253.783 543.191 261.146C537.649 264.629 532.464 263.917 528.268 260.71C527.833 264.55 526.843 269.142 524.508 275C514.612 299.463 510.693 282.402 497.314 293.248C493.157 296.652 490.584 302.313 489.08 308.528C489.516 309.121 489.753 309.438 489.753 309.438C496.641 295.98 511.722 292.061 521.895 286.123C532.068 280.186 544.695 269.933 564.012 249.904C583.329 229.795 581.706 229.993 596.352 212.22Z" fill="#007052"/>
<path d="M489.753 309.398C489.199 307.498 488.882 305.519 488.684 303.54C488.526 301.561 488.486 299.582 488.565 297.563C488.724 293.565 489.397 289.606 490.426 285.688C491.495 281.808 492.999 278.048 494.78 274.406C496.482 270.883 498.224 267.4 499.728 263.837C502.776 256.673 505.507 249.389 507.684 241.987C509.822 234.545 511.643 227.024 512.434 219.385L512.751 216.535L512.949 213.685C513.028 212.735 513.068 211.785 513.068 210.835L513.107 207.945C513.147 203.749 513.701 199.712 514.532 195.753C515.364 191.795 516.432 187.916 517.66 184.116C518.887 180.316 520.312 176.555 521.895 172.913C525.022 165.59 528.783 158.505 533.256 151.894C535.512 148.609 537.966 145.442 540.697 142.553C542.043 141.088 543.547 139.742 545.052 138.475C546.635 137.248 548.297 136.14 550.039 135.23C546.793 137.525 544.181 140.415 541.806 143.503C539.47 146.59 537.333 149.876 535.472 153.28C533.572 156.644 531.791 160.128 530.208 163.69C528.624 167.253 527.12 170.815 525.774 174.457C523.162 181.741 520.826 189.182 519.52 196.703C518.847 200.464 518.332 204.264 518.332 207.945C518.332 211.903 518.253 216.06 517.739 220.018C517.541 222.037 517.145 224.016 516.868 225.995C516.472 227.974 516.155 229.954 515.641 231.893C514.77 235.812 513.701 239.652 512.474 243.491C511.207 247.291 509.901 251.052 508.357 254.733C507.645 256.594 506.814 258.414 506.022 260.235C505.151 262.017 504.359 263.837 503.449 265.619C501.707 269.181 499.768 272.704 497.788 276.108C495.849 279.433 494.186 282.877 492.88 286.519C491.534 290.121 490.545 293.882 489.99 297.721C489.476 301.561 489.199 305.48 489.753 309.398Z" fill="#006A41"/>
<path d="M474.158 202.957C480.531 190.805 494.86 184.155 501.312 172.517C498.106 174.615 494.741 175.724 492.564 174.378C487.022 170.974 497.472 161.909 505.112 160.326C506.498 151.657 504.241 149.796 511.208 144.848C514.177 139.188 525.102 135.744 528.071 139.98C532.465 138.792 536.304 136.813 538.046 132.3C532.227 129.886 524.31 128.54 511.485 137.169C487.695 153.161 481.401 171.528 474.158 202.957Z" fill="#007052"/>
<path d="M480.451 275.198C479.699 274.09 479.541 272.19 479.857 269.854C479.699 268.944 479.541 268.033 479.303 267.123C475.186 249.666 479.541 248.598 480.253 235.495C480.451 232.012 479.58 229.083 478.353 226.352C476.889 225.441 476.137 223.858 476.057 221.879C474.355 218.791 472.653 215.822 472.218 212.418C468.299 234.229 473.286 235.139 473.524 260.077C473.643 271.081 476.137 281.017 479.145 289.052C480.055 285.252 480.728 280.502 480.451 275.198Z" fill="#007052"/>
</svg>
