<svg width="560" height="622" viewBox="0 0 560 622" fill="none" xmlns="http://www.w3.org/2000/svg">
<path d="M503.16 582.309C509.42 601.129 514.193 606.232 511.213 626.525C508.232 646.818 509.37 645.916 503.878 670.097C498.386 694.279 493.499 707.897 488.456 717.118C483.414 726.34 473.868 736.349 474.783 749.738C474.783 749.738 453.125 741.105 440.105 719.861C427.085 698.616 423.455 703.447 414.668 676.224C405.881 649 402.318 632.273 413.129 609.053C423.939 585.833 437.458 596.528 441.426 589.701C445.395 582.874 448.84 561.349 462.625 556.197C476.41 551.045 496.944 563.506 503.16 582.309ZM449.755 696.167C442.834 698.775 447.822 735.741 455.412 726.985C463.001 718.229 456.678 693.645 449.783 696.229L449.755 696.167ZM437.115 657.836C435.424 648.574 427.467 660.614 424.102 671.761C420.738 682.909 423.668 693.357 429.703 691.93C435.739 690.503 438.834 667.159 437.143 657.897L437.115 657.836ZM461.037 660.986C449.883 678.938 483.369 708.244 493.279 688.285C503.19 668.326 472.245 643.071 461.037 660.986ZM421.062 628.003C415.039 630.647 409.112 646.057 415.679 646.089C422.247 646.12 427.1 625.364 421.107 628.019L421.062 628.003ZM428.39 604.712C424.612 599.561 415.966 608.581 416.349 614.992C416.732 621.403 432.191 609.888 428.434 604.728L428.39 604.712ZM464.592 628.684C458.975 636.192 483.993 651.447 487.194 639.915C490.394 628.383 470.239 621.186 464.637 628.7L464.592 628.684ZM475.806 578.252C463.355 578.951 446.614 593.571 449.46 604.295C452.306 615.02 462.116 600.066 476.181 595.767C482.538 594.016 488.78 591.852 494.868 589.289C502.845 578.538 488.307 577.554 475.85 578.268L475.806 578.252Z" fill="#0F7F5D"/>
<path d="M487.789 631.741C489.695 616.628 457.963 614.771 451.176 625.032C447.49 630.527 457.67 636.349 468.259 638.357C464.69 635.23 462.652 631.464 464.711 628.727C469.343 622.534 483.873 626.369 487.034 634.371C487.45 633.55 487.706 632.657 487.789 631.741Z" fill="#006F54"/>
<path d="M511.257 626.541C514.223 606.243 509.448 601.19 503.16 582.31C496.871 563.429 476.285 551.017 462.505 556.154C461.977 556.354 461.473 556.581 460.983 556.813C465.666 560.96 470.502 564.685 471.565 567.652C474.204 575.004 455.647 570.969 449.341 589.505C448.851 590.757 448.661 592.107 448.788 593.443C448.915 594.779 449.355 596.062 450.072 597.187C453.41 588.012 465.97 578.809 475.805 578.252C488.262 577.538 502.711 578.489 494.927 589.311C488.839 591.873 482.597 594.037 476.24 595.789C469.923 597.711 464.469 601.759 460.118 604.722C473.33 611.067 494.262 615.898 501.663 628.382C511.864 645.645 493.036 644.861 482.409 658.441C491.743 664.503 498.84 677.219 493.32 688.266C492.382 690.482 490.751 692.332 488.678 693.529C486.606 694.727 484.206 695.206 481.849 694.892C483.641 698.889 484.865 703.125 485.486 707.477C489.141 730.628 478.408 719.512 473.233 733.965C471.586 738.493 472.26 743.967 473.935 749.378C474.531 749.595 474.858 749.714 474.858 749.714C473.96 736.28 483.566 726.293 488.532 717.095C493.498 707.897 498.402 694.233 503.954 670.074C509.505 645.914 508.329 646.922 511.257 626.541Z" fill="#006F54"/>
<path d="M474.87 749.821C473.603 748.614 472.445 747.295 471.412 745.879C470.381 744.46 469.439 742.975 468.592 741.436C466.905 738.311 465.574 735.001 464.625 731.568C463.719 728.088 463.122 724.531 462.841 720.939C462.553 717.417 462.267 714.031 461.776 710.606C460.86 703.786 459.544 697.03 457.834 690.375C456.175 683.736 453.941 677.263 451.158 671.028L450.11 668.716L448.93 666.441C448.547 665.686 448.138 664.956 447.692 664.281L446.393 662.1C444.593 658.952 443.1 655.634 441.935 652.19C439.686 645.404 438.102 638.406 437.206 631.296C436.213 624.282 435.887 617.182 436.232 610.094C436.41 606.541 436.872 603.006 437.615 599.524C437.992 597.792 438.478 596.085 439.07 594.414C439.68 592.754 440.448 591.156 441.362 589.643C440.038 592.867 439.214 596.273 438.919 599.742C438.541 603.18 438.41 606.639 438.527 610.092C438.606 613.538 438.849 617.044 439.271 620.428C439.693 623.811 440.159 627.261 440.811 630.66C442.081 637.43 443.912 644.075 446.286 650.526C447.411 653.674 448.819 656.709 450.494 659.593C452.355 662.626 454.026 665.774 455.499 669.019C456.257 670.645 456.863 672.318 457.545 673.967C458.227 675.617 458.792 677.309 459.302 679.015C460.438 682.385 461.366 685.815 462.188 689.259C463.01 692.702 463.659 696.202 464.188 699.71C464.486 701.442 464.687 703.207 464.929 704.952C465.171 706.698 465.321 708.512 465.427 710.26C465.73 713.788 465.898 717.266 465.927 720.849C465.965 724.266 466.301 727.67 466.932 731.023C467.538 734.403 468.503 737.705 469.81 740.871C471.088 744.074 472.79 747.084 474.87 749.821V749.821Z" fill="#006A45"/>
<path d="M414.786 676.317C414.16 664.128 421.876 652.427 421.464 640.623C419.992 643.693 417.942 646.177 415.724 646.105C409.995 646.088 413.789 634.361 418.823 629.614C415.924 622.373 413.404 622.02 416.377 615.054C416.041 609.395 422.738 601.698 426.921 603.51C429.679 600.566 431.693 597.301 430.988 593.028C425.506 593.905 418.9 596.576 413.129 609.053C402.318 632.273 405.994 649.109 414.786 676.317Z" fill="#006F54"/>
<path d="M426.53 607.179C419.434 612.953 411.9 618.155 404 622.734L396.579 588.745L395.251 627.446C377.955 636.036 360.422 640.269 347.987 635.129C327.702 626.757 346.21 616.83 349.311 589.25C352.413 561.67 358.564 543.744 372.728 519.745C376.874 512.709 379.848 507.041 382.339 502.001C389.64 507.853 399.225 513.921 408.343 514.778L390.034 486.277C393.486 479.368 397.381 472.69 401.694 466.288C416.017 444.773 430.841 437.18 448.12 416.399C465.398 395.618 472.204 400.606 472.204 400.606C472.204 400.606 488.251 419.279 498.73 428.406C509.209 437.533 517.351 433.933 517.351 433.933C507.614 428.238 481.732 388.42 481.732 388.42L509.763 372.816C519.768 366.784 530.656 359.16 543.603 352.046C546.012 364.388 551.032 380.774 561.343 388.046C561.343 388.046 555.818 362.984 558.446 344.681C566.761 340.968 575.365 337.965 584.166 335.704C617.642 327.156 639.465 351.33 639.465 351.33C651.009 368.842 653.971 397.979 640.984 417.399C627.996 436.82 603.538 454.151 603.538 454.151L586.584 429.578L592.336 463.473C584.94 473.013 576.99 482.104 568.529 490.696C555.602 503.645 495.513 547.64 494.753 544.168C493.992 540.695 476.563 508.755 476.563 508.755L484.213 548.005C484.213 548.005 450.839 587.384 426.53 607.179Z" fill="#9DCE7A"/>
<g style="mix-blend-mode:multiply" opacity="0.41">
<path d="M384.127 593.34C372.475 595.321 354.75 624.005 347.763 623.736C340.776 623.466 363.264 589.85 374.27 577.962C385.276 566.075 382.204 564.872 386.472 552.447C390.74 540.021 399.942 541.763 408.519 534.836C417.095 527.908 410.297 512.516 416.393 495.714C422.489 478.913 445.814 486.118 459.296 481.01C472.778 475.902 472.139 464.767 476.399 449.861C480.658 434.955 507.102 448.934 518.077 439.495C529.052 430.057 511.263 416.032 516.744 397.998C522.226 379.965 541.929 409.503 555.407 405.008C568.885 400.514 571.302 383.16 578.012 366.992C584.721 350.824 609.268 362.319 622.731 350.402C626.634 346.952 626.66 343.544 624.753 340.441C630.205 343.24 635.177 346.895 639.487 351.27C651.031 368.782 653.993 397.919 641.006 417.339C637.466 422.497 633.496 427.341 629.141 431.82C634.059 414.641 646.116 386.372 642.455 379.88C636.916 370.02 634.539 406.596 613.725 420.452C592.91 434.307 588.572 417.623 570.181 421.526C551.79 425.429 565.342 450.08 540.854 470.784C516.366 491.488 494.279 481.811 480.208 500.547C466.137 519.282 463.713 524.877 447.182 537.437C430.652 549.997 437.415 555.517 421.538 579.218C412.059 593.353 404.744 594.912 397.898 594.301L396.655 588.722L396.476 594.176C392.332 593.694 388.338 592.617 384.127 593.34Z" fill="#70AF68"/>
</g>
<path d="M347.763 623.735C347.763 623.735 355.453 612.709 378.427 582.021C401.402 551.334 581.334 359.298 706.812 326.193C706.812 326.193 717.849 336.292 713.114 339.149C708.38 342.006 575.264 364.249 347.763 623.735Z" fill="#95D07D"/>
<g style="mix-blend-mode:multiply" opacity="0.41">
<path d="M431.609 452.224C433.502 469.557 460.488 472.353 462.294 459.972C464.1 447.59 429.727 434.912 431.609 452.224Z" fill="#70AF68"/>
</g>
<g style="mix-blend-mode:multiply" opacity="0.41">
<path d="M449.059 563.53C455.197 562.841 460.674 548.532 455.743 539.92C450.813 531.307 442.921 564.219 449.059 563.53Z" fill="#70AF68"/>
</g>
<g style="mix-blend-mode:multiply" opacity="0.41">
<path d="M499.85 516.527C509.053 519.517 514.522 500.266 507.156 495.382C499.79 490.497 490.632 513.532 499.85 516.527Z" fill="#70AF68"/>
</g>
<g style="mix-blend-mode:multiply" opacity="0.41">
<path d="M530.54 375.984C531.968 385.97 546.055 398.718 549.906 391.147C553.757 383.577 529.128 366.003 530.54 375.984Z" fill="#70AF68"/>
</g>
<path d="M269.788 104.058C260.265 100.419 250.471 97.5307 240.494 95.4202L243.968 134.546L229.59 93.5316C208.182 90.5349 187.973 92.2861 176.367 102.249C157.45 118.464 180.62 122.468 193.13 150.964C205.64 179.461 218.26 196.429 241.445 217.049C248.282 223.117 253.343 228.115 257.701 232.588C263.577 223.697 271.811 213.758 281.287 209.545L271.12 246.729C277.149 252.889 283.564 258.65 290.327 263.977C312.878 281.902 331.241 284.754 356.748 300.771C382.254 316.789 387.84 309.062 387.84 309.062C387.84 309.062 398.811 283.296 406.946 269.818C415.08 256.34 425.078 257.167 425.078 257.167C416.543 266.785 402.105 318.737 402.105 318.737L437.373 325.372C450.118 328.258 464.326 332.503 480.587 335.494C479.009 321.446 478.945 302.04 487.555 290.544C487.555 290.544 490.019 319.389 498.959 338.06C509.113 339.049 519.339 339.176 529.528 338.442C568.234 335.625 583.577 301.865 583.577 301.865C590.026 278.919 583.528 246.643 563.105 230.492C542.682 214.342 510.692 204.55 510.692 204.55L500.793 236.981L495.646 198.536C484.49 191.008 472.895 184.16 460.922 178.03C442.734 168.794 363.576 143.245 363.951 147.174C364.327 151.102 356.296 191.662 356.296 191.662L351.348 146.822C351.348 146.822 302.459 116.523 269.788 104.058Z" fill="#9DCE7A"/>
<g style="mix-blend-mode:multiply" opacity="0.41">
<path d="M228.948 134.047C215.794 136.095 187.21 111.72 179.826 114.519C172.442 117.318 207.741 145.329 223.538 154.137C239.335 162.946 236.422 165.312 245.146 177.109C253.87 188.907 263.168 183.667 274.651 188.038C286.135 192.408 284.026 211.313 296.172 227.127C308.318 242.941 330.906 226.869 347.06 227.492C363.213 228.114 366.264 240.254 375.809 254.756C385.354 269.258 409.074 244.801 423.954 250.908C438.834 257.015 424.5 278.497 436.405 295.86C448.311 313.223 459.532 274.497 475.485 274.47C491.437 274.442 499.824 292.18 512.409 307.153C524.994 322.126 547.487 300.938 565.902 308.87C571.222 311.171 572.404 314.816 571.386 318.815C576.296 313.865 580.407 308.17 583.569 301.94C590.017 278.994 583.519 246.718 563.097 230.567C557.572 226.293 551.686 222.515 545.504 219.277C556.549 235.923 578.896 261.878 577.134 270.168C574.483 282.677 559.726 244.374 532.786 236.997C505.846 229.62 506.775 249.052 485.726 251.441C464.676 253.83 470.993 222.578 437.825 209.182C404.657 195.785 384.205 214.079 362.883 199.045C341.56 184.011 337.058 178.889 315.141 171.337C293.223 163.786 298.634 155.496 273.672 135.788C258.792 124.041 250.431 124.983 243.308 128.108L243.882 134.573L241.844 128.788C237.726 130.812 233.721 133.359 228.948 134.047Z" fill="#70AF68"/>
</g>
<path d="M179.841 114.582C179.841 114.582 191.732 123.682 226.685 148.257C261.638 172.832 518.607 314.143 664.128 304.631C664.128 304.631 672.586 289.846 666.564 288.483C660.542 287.119 510.388 311.037 179.841 114.582Z" fill="#95D07D"/>
<g style="mix-blend-mode:multiply" opacity="0.41">
<path d="M379.61 260.387C376.259 243.309 401.111 232.034 406.522 243.265C411.934 254.495 382.962 277.464 379.61 260.387Z" fill="#70AF68"/>
</g>
<g style="mix-blend-mode:multiply" opacity="0.41">
<path d="M363.18 148.922C369.18 147.687 378.672 159.48 376.55 169.252C374.429 179.023 357.139 150.227 363.18 148.922Z" fill="#70AF68"/>
</g>
<g style="mix-blend-mode:multiply" opacity="0.41">
<path d="M425.456 177.459C433.329 171.677 444.249 188.261 438.689 195.244C433.128 202.226 417.571 183.271 425.456 177.459Z" fill="#70AF68"/>
</g>
<g style="mix-blend-mode:multiply" opacity="0.41">
<path d="M496.367 301.416C494.758 291.466 504.365 274.798 510.294 280.851C516.223 286.904 497.991 311.372 496.367 301.416Z" fill="#70AF68"/>
</g>
<path d="M333.916 302.374L332.399 301.907L336.858 301.103L336.82 301.209C336.178 301.75 335.409 302.112 334.588 302.26C333.768 302.408 332.925 302.337 332.143 302.054C331.341 301.804 330.573 301.455 329.856 301.016L328.948 300.173C328.541 299.718 328.26 299.162 328.134 298.561C327.95 298.188 327.874 297.77 327.915 297.354C327.831 296.719 327.915 296.071 328.159 295.477L328.757 294.345L329.599 293.421C330.058 293.007 330.611 292.715 331.208 292.571C331.771 292.335 332.384 292.246 332.988 292.313C333.224 292.333 333.456 292.377 333.682 292.446C333.905 292.471 334.124 292.522 334.336 292.598L335.408 292.988C336.189 293.273 336.88 293.76 337.414 294.401C337.947 295.042 338.304 295.814 338.448 296.641L338.41 296.746L335.505 293.28L336.994 293.822C337.566 293.99 338.078 294.319 338.471 294.769C338.912 295.143 339.266 295.61 339.508 296.138C339.75 296.666 339.875 297.242 339.873 297.826C339.96 298.422 339.878 299.032 339.638 299.585L339.077 300.663C338.629 301.302 338.025 301.813 337.323 302.144L336.233 302.499C335.453 302.642 334.651 302.575 333.908 302.303L333.916 302.374Z" fill="#004A20"/>
<path d="M320.581 325.905L320.904 324.228L322.198 327.023C321.785 326.819 321.426 326.519 321.151 326.147L320.605 325.282L320.545 325.123C320.362 324.697 320.218 324.256 320.114 323.804C319.979 323.045 320.047 322.262 320.312 321.535C320.576 320.808 321.027 320.164 321.618 319.669C322.201 319.169 322.905 318.835 323.657 318.702C324.209 318.572 324.784 318.592 325.322 318.761C325.899 318.837 326.444 319.065 326.904 319.422C327.512 319.857 327.995 320.445 328.307 321.129C328.624 321.805 328.758 322.556 328.697 323.304C328.63 324.091 328.355 324.847 327.9 325.492C327.605 325.864 327.276 326.208 326.919 326.52L326.875 326.64C326.607 326.868 326.311 327.059 325.994 327.208C325.581 327.435 325.12 327.555 324.652 327.557L327.07 325.549L326.577 327.181C326.452 327.568 326.232 327.917 325.938 328.196C325.695 328.51 325.374 328.753 325.007 328.9L324.277 329.147C323.884 329.236 323.477 329.223 323.093 329.109C322.826 329.08 322.571 328.987 322.348 328.838C321.981 328.676 321.661 328.424 321.416 328.106L320.887 327.52C320.66 327.05 320.566 326.525 320.613 326.002L320.581 325.905Z" fill="#004A20"/>
<path d="M352.449 312.039C352.557 312.032 352.663 312.007 352.762 311.965L351.57 312.369C351.701 312.321 351.826 312.258 351.942 312.179L350.881 312.87C351.01 312.787 351.127 312.685 351.227 312.569L350.364 313.502C350.493 313.378 350.598 313.231 350.674 313.068L350.06 314.246C350.15 314.068 350.218 313.881 350.263 313.687L349.977 314.984C350.048 314.536 350.142 314.091 350.259 313.652C350.461 313.013 350.827 312.438 351.32 311.987C351.996 311.242 351.571 311.668 351.788 311.491L350.073 314.814L350.077 314.525L350.143 315.78C350.132 315.624 350.103 315.47 350.057 315.321L350.422 316.496L350.272 316.168L350.922 317.208C350.714 316.829 350.53 316.437 350.371 316.034C349.899 314.867 349.847 313.566 350.224 312.357L350.827 311.21C351.166 310.693 351.633 310.273 352.181 309.993C352.493 309.733 352.865 309.557 353.261 309.481C353.824 309.234 354.44 309.14 355.048 309.208L356.3 309.476C357.087 309.77 357.785 310.265 358.324 310.913L358.399 310.94C358.636 311.286 358.854 311.645 359.053 312.016L359.14 312.149L359.195 312.323C359.353 312.742 359.491 313.168 359.607 313.601L359.642 313.922C359.686 314.377 359.706 314.835 359.7 315.293L359.645 315.443L359.223 313.034L358.572 311.994C358.83 312.327 359.056 312.684 359.247 313.06L359.622 314.256C359.76 315.154 359.675 316.074 359.373 316.934C359.349 317.044 359.311 317.151 359.257 317.251C359.05 317.749 358.807 318.232 358.53 318.695C358.472 318.803 358.402 318.903 358.319 318.994L357.804 319.575L357.254 320.161L357.115 320.265C356.745 320.54 356.335 320.784 355.946 321.019C355.851 321.087 355.746 321.141 355.635 321.179C355.209 321.331 354.747 321.488 354.316 321.604L354.119 321.635C353.485 321.789 352.823 321.766 352.203 321.57C351.546 321.485 350.924 321.224 350.403 320.813C349.868 320.466 349.433 319.984 349.141 319.414C348.762 318.902 348.516 318.302 348.427 317.667L348.372 316.383C348.439 315.491 348.751 314.634 349.272 313.908L350.14 312.959C350.793 312.413 351.572 312.043 352.403 311.886L352.449 312.039Z" fill="#004A20"/>
<path d="M308.659 302.753C306.556 308.533 297.618 305.281 299.721 299.501C301.823 293.721 310.768 296.959 308.659 302.753Z" fill="#004A20"/>
<path d="M329.996 346.437C327.893 352.217 318.954 348.964 321.057 343.185C323.16 337.405 332.104 340.642 329.996 346.437Z" fill="#004A20"/>
<path d="M236.453 264.092C236.453 264.092 269.149 271.597 297.519 261.875C325.889 252.153 383.231 216.403 383.231 216.403C383.231 216.403 293.984 200.283 236.453 264.092Z" fill="#004A20"/>
<path d="M406.348 207.487C407.88 209.582 360 212.974 309.526 176.854C309.452 176.827 377.324 168.098 406.348 207.487Z" fill="#004A20"/>
<path d="M392.576 215.804C392.576 215.804 351.675 226.213 341.767 294.106C341.767 294.106 402.814 249.469 392.576 215.804Z" fill="#006D4E"/>
<path d="M385.676 289.987C385.676 289.987 426.587 227.205 417.872 207.527C417.872 207.527 377.769 248.199 385.676 289.987Z" fill="#004A20"/>
<path d="M357.395 143.725C357.395 143.725 393.712 202.667 423.43 201.758C423.489 201.779 399.869 150.601 357.395 143.725Z" fill="#006D4E"/>
<path d="M430.741 203.272C430.741 203.272 398.884 252.481 415.02 291.452C414.99 291.442 444.976 223.216 430.741 203.272Z" fill="#006D4E"/>
<path d="M449.129 199.283C449.129 199.283 418.595 260.251 438.201 302.758C438.201 302.758 474.01 230.26 449.129 199.283Z" fill="#004A20"/>
<path d="M445.05 197.696C419.268 181.838 397.848 159.722 382.717 133.338C382.717 133.338 418.985 140.809 451.184 195.998L445.05 197.696Z" fill="#004A20"/>
<path d="M466.506 197.471C466.506 197.471 452.636 253.208 473.146 298.47C473.146 298.47 505.704 242.373 472.603 194.717L466.506 197.471Z" fill="#004A20"/>
<path d="M466.789 190.807C466.789 190.807 424.446 154.177 419.25 113.563C419.25 113.563 459.469 147.08 474.377 188.869L466.789 190.807Z" fill="#006D4E"/>
<path d="M484.395 190.498C484.395 190.498 489.736 251.02 510.326 289.202C510.326 289.202 521.395 232.259 492.003 188.55L484.395 190.498Z" fill="#006D4E"/>
<path d="M486.132 185.815L496.074 182.324C500.459 167.893 501.199 152.613 498.228 137.88C495.257 123.147 488.67 109.433 479.067 97.9907C479.067 97.9907 473.107 151.974 486.132 185.815Z" fill="#004A20"/>
<path d="M377.364 219.685C377.364 219.685 543.33 166.178 615.072 183.721C615.072 183.721 619.538 184.013 618.352 178.694C617.166 173.375 522.666 162.744 377.364 219.685Z" fill="#004A20"/>
<path d="M220.497 589.75C220.497 589.75 265.362 533.021 276.264 459.663C287.165 386.305 398.045 300.314 481.383 274.997C564.721 249.68 653.917 289.773 643.839 307.689C633.761 325.604 614.064 356.323 584.979 370.005C555.893 383.688 527.224 392.378 506.512 388.055C506.512 388.055 492.144 333.1 486.957 343.738C481.77 354.377 502.875 381.776 488.105 386.484C473.335 391.192 419.961 420.764 407.688 435.95C407.688 435.95 394.529 386.203 390.087 397.762C385.645 409.32 396.276 441.026 391.837 443.119C387.398 445.212 348.521 482.929 348.521 482.929C348.521 482.929 332.812 441.533 330.359 449.851C327.906 458.169 332.258 493.502 332.258 493.502C332.258 493.502 259.804 575.189 220.497 589.75Z" fill="#008A45"/>
<path opacity="0.39" d="M644.119 307.107C652.031 288.933 563.882 250.042 481.422 275.08C398.084 300.397 287.241 386.469 276.302 459.745C265.363 533.022 220.535 589.832 220.535 589.832L221.44 589.478C229.531 582.169 269.852 545.164 300.35 507.525C309.803 495.894 319.828 484.747 330.384 474.126C329.635 464.455 329.266 454.016 330.413 449.939C331.559 445.862 336.359 454.461 340.666 464.043C356.346 449.043 373.053 435.18 390.663 422.561C389.212 413.336 387.935 403.353 390.034 397.862C392.432 391.643 397.36 403.228 401.397 415.223C409.118 410.137 416.74 405.511 424.276 401.537C464.768 379.872 461.239 368.336 490.824 366.54C488.076 358.004 484.426 348.935 486.941 343.784C489.848 337.835 495.629 352.362 500.126 366.336C530.226 366.744 549.044 377.06 597.772 352.975C617.078 343.407 632.479 325.651 644.119 307.107Z" fill="#006F18"/>
<path d="M221.199 589.629L219.945 590.711C220.385 590.378 220.804 590.016 221.199 589.629Z" fill="#68B760"/>
<path d="M449.645 292.123C359.858 332.66 291.146 394.468 276.302 459.745C261.973 522.679 233.112 578.447 221.199 589.629C227.598 584.096 257.172 557.895 270.405 535.761C278.371 522.191 287.084 509.079 296.504 496.487L293.935 459.547L307.139 488.771C307.139 488.771 333.605 452.894 357.046 435.483C358.593 434.337 360.14 433.191 361.612 432.206C359.014 419.504 353.64 385.867 363.957 364.142C363.957 364.142 361.271 403.425 368.729 427.482C386.232 416.471 400.382 411.658 420.797 397.417L445.545 380.123C445.545 380.123 444.454 327.162 449.095 334.251C453.736 341.339 459.495 365.94 459.495 365.94C459.495 365.94 462.741 352.152 487.947 351.634C504.134 351.286 521.228 358.737 540.159 360.259C539.945 347.912 541.973 321.103 561.39 301.63C561.39 301.63 551.457 337.182 556.463 359.868C562.409 359.025 568.22 357.361 573.731 354.924C606.837 340.346 650.757 301.935 643.103 291.306C635.448 280.677 539.463 251.546 449.645 292.123Z" fill="#68B760"/>
<g opacity="0.15">
<path d="M643.07 291.21C635.437 280.52 539.402 251.576 449.645 292.124C359.887 332.672 291.145 394.469 276.301 459.745C270.895 483.161 263.622 506.112 254.554 528.371C259.919 524.428 266.255 521.573 271.027 516.85C281.303 506.644 281.973 490.569 283.591 476.154C285.209 461.739 290.344 445.169 303.926 440.388C307.485 439.137 311.236 438.844 314.91 437.788C326.375 434.373 334.173 423.419 338.465 412.182C342.756 400.944 344.526 388.755 348.916 377.57C352.642 368.023 361.474 357.891 371.122 360.957C379.118 363.507 383.056 374.151 391.391 375.167C394.28 375.364 397.172 374.749 399.748 373.389C427.171 360.52 431.369 316.387 460.374 307.887C463.283 306.903 466.394 306.73 469.379 307.387C473.239 308.416 476.277 311.332 479.325 313.945C486.609 320.167 495.876 325.299 505.359 323.811C517.132 321.96 524.981 311.008 533.271 302.319C541.561 293.63 555.021 286.309 564.767 293.136C573.1 298.936 573.532 311.705 581.015 318.631C586.582 323.733 595.129 324.399 602.379 322.184C609.629 319.969 615.896 315.311 621.892 310.606C629.518 304.807 636.617 298.33 643.104 291.256L643.07 291.21Z" fill="#069456"/>
</g>
<path d="M219.944 590.711C219.944 590.711 254.818 534.414 277.917 451.362C302.628 362.539 426.383 276.91 514.04 267.912C600.795 259.03 690.755 302.306 694.309 310.297C697.862 318.289 685.46 324.046 685.46 324.046C685.46 324.046 605.238 255.349 484.826 284.777C484.826 284.777 318.356 331.18 278.931 470.46C251.724 566.286 219.944 590.711 219.944 590.711Z" fill="#A9D97C"/>
<path opacity="0.15" d="M379.274 380.328C387.447 381.046 390.806 401.954 381.788 407.866C372.771 413.779 371.1 379.61 379.274 380.328Z" fill="#069456"/>
<path opacity="0.15" d="M532.479 316.829C540.687 319.816 539.541 335.855 528.586 342.224C517.631 348.594 524.263 313.908 532.479 316.829Z" fill="#069456"/>
</svg>
