<svg width="856" height="745" viewBox="0 0 856 745" fill="none" xmlns="http://www.w3.org/2000/svg">
<path d="M780.877 512.311C780.877 512.311 762.738 535.987 737.904 545.45C713.113 554.903 653.845 563.188 653.845 563.188C653.845 563.188 705.765 501.539 780.877 512.311Z" fill="#004916"/>
<path d="M633.069 570.208C633.192 572.514 667.795 547.622 682.055 494.36C682.012 494.371 630.794 526.975 633.069 570.208Z" fill="#004916"/>
<path d="M647.14 568.039C647.14 568.039 680.918 551.879 725.778 592.449C725.778 592.449 659.046 596.749 647.14 568.039Z" fill="#006D4B"/>
<path d="M693.455 614.565C693.455 614.565 630.269 595.107 625.192 576.775C625.192 576.775 675.41 581.675 693.455 614.565Z" fill="#004916"/>
<path d="M630.702 499.14C630.702 499.14 638.968 559.788 618.187 576.065C618.144 576.076 605.589 527.873 630.702 499.14Z" fill="#006D4B"/>
<path d="M614.025 581.192C614.025 581.192 663.399 596.568 674.261 632.231C674.261 632.231 615.486 602.818 614.025 581.192Z" fill="#006D4B"/>
<path d="M599.242 588.902C599.242 588.902 654.3 613.019 664.75 653.047C664.75 653.047 599.628 624.087 599.242 588.902Z" fill="#004916"/>
<path d="M601.133 585.493C601.133 585.493 615.262 549.538 607.598 506.38C607.598 506.38 587.028 532.044 595.997 587.84L601.133 585.493Z" fill="#004916"/>
<path d="M586.336 597.513C586.336 597.513 627.072 627.529 638.485 669.926C638.485 669.926 584.771 650.236 580.638 599.086L586.336 597.513Z" fill="#004916"/>
<path d="M582.406 593.188C582.406 593.188 590.821 544.193 571.541 513.675C571.541 513.675 562.872 559.298 576.139 596.141L582.406 593.188Z" fill="#006D4B"/>
<path d="M570.203 602.952C570.203 602.952 600.532 647.136 607.905 684.777C607.905 684.777 568.394 652.345 563.947 605.948L570.203 602.952Z" fill="#006D4B"/>
<path d="M566.394 600.749L557.639 604.009C557.639 604.009 521.682 582.961 521.935 537.03C521.935 537.03 556.307 570.345 566.394 600.749Z" fill="#004916"/>
<path d="M659.706 562.078C659.706 562.078 516.317 619.87 477.151 672.487C477.151 672.487 474.268 675.229 472.083 670.923C469.909 666.659 528.491 605.806 659.706 562.078Z" fill="#004916"/>
<path d="M658.672 550.883C658.672 550.883 594.552 581.926 521.896 576.355C449.197 570.794 342.773 659.461 300.533 734.8C258.293 810.14 277.571 905.588 296.904 899.756C316.238 893.923 350.012 881.567 369.408 856.336C388.848 831.095 403.307 805.183 403.593 784.125C403.593 784.125 353.952 758.048 365.273 755.333C376.595 752.619 398.368 779.21 406.05 765.865C413.742 752.564 453.611 707.284 470.806 698.6C470.806 698.6 425.868 674.82 437.934 673.064C450.001 671.307 478.041 688.575 481.073 684.787C484.105 680.999 528.593 651.51 528.593 651.51C528.593 651.51 492.178 627.188 500.702 626.644C509.225 626.101 542.223 638.134 542.223 638.134C542.223 638.134 636.276 585.85 658.672 550.883Z" fill="#008B3E"/>
<path opacity="0.39" d="M296.29 899.864C277.147 903.541 258.777 809.331 300.533 734.8C342.73 659.471 449.197 570.794 521.896 576.355C594.595 581.915 658.672 550.883 658.672 550.883C658.511 551.152 658.307 551.433 658.146 551.703C649.363 557.947 605.212 588.955 562.509 610.251C549.686 616.642 536.734 623.983 524.011 632.045C514.899 629.162 504.915 626.454 500.766 626.72C496.392 626.997 503.807 633.514 512.127 639.804C494.065 651.96 476.782 665.386 461.568 679.207C453.048 675.763 443.699 672.299 437.999 673.139C431.503 674.088 441.56 681.452 452.229 687.975C445.678 694.345 439.6 700.778 434.159 707.19C404.66 741.792 394.347 735.776 386.325 764.144C378.72 759.599 370.81 754.03 365.316 755.322C359.004 756.821 371.672 765.635 384.143 773.124C378.063 802.47 383.919 822.989 350.338 865.035C336.983 881.687 316.613 892.683 296.29 899.864Z" fill="#007000"/>
<path d="M658.426 551.542C659.276 550.915 659.739 550.569 659.739 550.569C659.352 550.85 658.932 551.185 658.426 551.542Z" fill="#08B859"/>
<path d="M323.72 707.699C381.904 629.443 456.05 576.354 521.896 576.355C585.404 576.35 645.122 560.574 658.426 551.541C651.753 556.521 620.239 579.488 596.211 587.42C569.188 596.38 552.896 604.104 552.896 604.104L517.907 593.443L543.116 612.753C543.116 612.753 502.961 630.52 481.247 649.461C479.816 650.693 478.439 651.956 477.137 653.154C465.532 647.83 434.397 635.19 411.29 640.415C411.29 640.415 449.569 646.49 471.059 659.039C456.719 673.602 449.101 686.289 431.026 702.939C409.088 723.174 409.088 723.173 409.088 723.173C409.088 723.173 358.49 710.396 364.288 716.496C370.086 722.596 392.457 733.549 392.457 733.549C392.457 733.549 378.555 733.66 372.596 758.026C368.787 773.648 372.247 791.93 369.672 810.632C357.845 807.7 331.693 803.749 308.829 818.306C308.829 818.306 345.079 816.506 365.799 826.362C363.825 831.625 361.108 836.846 357.335 842.058C336.221 871.02 289.931 905.178 281.281 895.398C272.664 885.563 265.536 785.956 323.72 707.699Z" fill="#08B859"/>
<g opacity="0.15">
<path d="M281.271 895.355C272.665 885.563 265.536 785.956 323.721 707.699C381.905 629.443 456.051 576.354 521.897 576.355C546.867 576.343 571.229 573.918 592.431 570.41C587.481 574.773 583.375 580.298 577.809 583.853C565.829 591.591 550.251 588.687 536.055 587.085C521.86 585.483 504.867 586.785 497.345 598.944C495.4 602.137 494.296 605.76 492.459 609.018C486.734 619.395 474.511 624.536 462.8 626.249C451.046 627.973 439.06 626.959 427.317 628.726C417.34 630.231 405.745 636.588 406.582 646.642C407.308 654.982 416.695 661.14 415.901 669.45C415.616 672.317 414.154 674.885 412.391 677.162C394.145 700.957 350.877 695.268 336.473 721.579C335.033 724.232 333.95 727.209 334.063 730.204C334.2 734.202 336.383 737.776 338.232 741.297C342.655 749.759 345.572 759.884 342.128 768.771C337.848 779.792 325.636 784.976 315.507 791.147C305.366 797.276 295.515 808.738 299.931 819.723C303.709 829.081 315.936 832.325 320.898 841.11C324.606 847.644 323.392 856.106 319.729 862.665C316.066 869.224 310.234 874.267 304.423 879.03C297.256 884.959 289.518 890.803 281.314 895.344C281.325 895.387 281.271 895.355 281.271 895.355Z" fill="#009551"/>
</g>
<path d="M659.728 550.526C659.728 550.526 598.188 571.984 513.48 576.047C422.941 580.433 314.104 681.712 286.664 764.871C259.459 847.146 281.681 944.097 288.566 949.236C295.451 954.375 303.665 943.692 303.665 943.692C303.665 943.692 254.972 850.613 309.079 740.163C309.079 740.163 389.43 588.736 531.594 581.198C629.448 576.023 659.728 550.526 659.728 550.526Z" fill="#92DA77"/>
<path opacity="0.15" d="M423.534 658.821C422.438 666.841 441.808 674.792 449.413 667.332C457.019 659.871 424.63 650.801 423.534 658.821Z" fill="#009551"/>
<path d="M191.716 519.999C149.379 516.734 98.507 489.409 98.507 489.409C132.808 482.785 179.288 500.861 195.523 509.647C162.476 482.322 125.248 431.307 125.248 431.307C157.242 436.261 188.013 480.197 199.47 498.939C183.323 460.667 187.078 384.986 187.078 384.986C218.325 412.26 212.968 496.134 212.968 496.134L213.758 497.814C212.641 427.713 267.103 377.063 267.103 377.063C276.416 426.587 218.692 503.215 218.692 503.215L222.327 504.911C246.831 443.203 333.538 429.793 333.538 429.793C309.229 474.086 226.42 509.883 226.42 509.883L227.209 511.196C227.209 511.196 255.923 501.856 277.437 497.948C298.952 494.041 338.395 506.558 338.395 506.558C338.395 506.558 312.95 523.965 284.416 531.29C255.881 538.615 223.567 529.48 223.567 529.48C223.567 529.48 267.8 544.64 284.224 556.907C300.702 569.206 308.24 584.398 308.24 584.398C308.24 584.398 284.333 593.903 261.591 586.206C238.849 578.509 211.437 531.894 211.437 531.894C211.437 531.894 219.692 556.3 224.113 588.223C228.535 620.147 213.994 636.639 213.994 636.639C181.178 605.866 203.237 532.814 203.237 532.814C148.761 611.786 154.343 689.789 156.613 700.076C157.949 705.926 146.937 700.589 146.937 700.589C126.037 643.995 200.744 530.922 200.744 530.922C169.835 547.918 103.826 559.459 103.826 559.459C132.948 524.63 191.716 519.999 191.716 519.999Z" fill="#67B058"/>
<path d="M456.773 497.359C456.773 497.359 472.719 507.181 491.705 493.967C510.692 480.753 509.714 482.145 516.922 469.287L526.953 456.175C526.953 456.175 524.915 455.543 506.263 456.621C487.599 457.657 475.282 457.873 467.45 465.527C459.575 473.193 450.074 493.686 449.831 496.359C449.556 499.086 456.773 497.359 456.773 497.359Z" fill="#A2DD7D"/>
<path d="M421.096 512.349C421.096 512.349 429.739 506.277 438.499 493.76C447.26 481.243 449.956 470.3 451.363 461.332C452.769 452.363 453.491 440.13 453.491 440.13C453.491 440.13 427.679 457.354 420.567 469.501C413.443 481.605 414.981 503.717 421.096 512.349Z" fill="#A2DD7D"/>
<path d="M395.92 536.102C395.92 536.102 407.085 524.217 408.131 511.994C409.176 499.771 407.505 481.497 404.494 473.183C401.451 464.923 399.222 459.894 398.651 453.989C398.651 453.989 393.94 458.933 389.588 466.032C385.236 473.131 380.483 478.636 379.122 495.062C377.696 511.596 384.934 533.6 395.92 536.102Z" fill="#A2DD7D"/>
<path d="M380.62 573.589C380.62 573.589 386.06 554.44 383.495 542.256C380.93 530.072 376.791 517.643 368.823 509.478C360.866 501.356 350.764 492.903 350.764 492.903C350.764 492.903 349.948 506.214 351.65 524.251C353.385 542.235 370.557 568.93 380.62 573.589Z" fill="#A2DD7D"/>
<path d="M372.331 614.717C372.331 614.717 375.553 602.77 372.955 590.091C370.346 577.368 361.672 566.036 347.28 557.106C332.888 548.176 325.6 534.341 325.6 534.341C325.6 534.341 320.275 570.14 334.965 588.8C349.686 607.407 368.307 612.568 372.331 614.717Z" fill="#A2DD7D"/>
<path d="M361.478 621.116C355.408 613.389 346.583 608.189 336.038 605.071C325.493 601.954 321.112 604.936 313.925 599.324C306.727 593.668 301.009 590.251 301.009 590.251C301.009 590.251 309.172 611.381 319.189 626.224C329.205 641.067 332.686 647.064 343.686 651.258C354.685 655.452 371.124 657.772 371.124 657.772C371.124 657.772 367.505 628.854 361.478 621.116Z" fill="#A2DD7D"/>
<path d="M377.65 649.118C377.65 649.118 385.214 648.037 396.532 643.674C407.851 639.311 412.755 639.679 421.219 629.987C429.683 620.294 430.834 612.856 434.578 609.53C438.365 606.193 444.723 599.781 444.723 599.781C444.723 599.781 438.356 595.061 420.463 599.156C402.56 603.207 389.1 603.619 383.723 615.925C378.346 628.231 373.542 647.907 373.542 647.907L377.65 649.118Z" fill="#A2DD7D"/>
<path d="M383.536 583.164C383.536 583.164 394.45 587.563 403.512 586.976C412.574 586.388 418.606 584.869 428.219 578.828C437.8 572.84 442.922 568.801 444.753 568.248C446.585 567.695 442.959 564.942 430.064 561.592C417.169 558.242 384.932 556.327 383.536 583.164Z" fill="#A2DD7D"/>
<path d="M395.102 542.311C395.102 542.311 411.904 549.167 421.398 549.021C430.935 548.864 443.558 550.771 450.402 545.198C457.192 539.592 469.736 533.18 469.736 533.18C469.736 533.18 461.215 535.005 452.564 530.861C443.914 526.716 435.738 522.819 424.125 524.92C412.468 527.031 395.102 542.311 395.102 542.311Z" fill="#A2DD7D"/>
<path d="M434.367 509.372C434.367 509.372 462.103 525.434 480.475 524.517C498.848 523.601 513.564 520.719 513.564 520.719C513.564 520.719 503.823 521.706 484.217 513.54C464.696 505.352 443.049 507.277 434.367 509.372Z" fill="#A2DD7D"/>
<path d="M457.25 493.252C457.25 493.252 429.329 512.107 419.034 522.353C408.739 532.598 403.502 533.275 398.25 543.35C392.999 553.425 390.467 559.928 387.735 569.093C384.96 578.269 378.971 598.152 376.829 605.29C374.686 612.428 372.983 618.035 375.489 633.808C377.996 649.58 373.356 670.452 375.818 678.951C378.236 687.46 379.119 704.971 381.48 711.799C383.885 718.616 385.9 724.799 384.39 729.899C382.836 735.01 375.79 741.779 375.869 737.91C375.905 734.052 377.989 717.948 375.873 710.095C373.801 702.232 372.665 681.898 370.939 674.681C369.224 667.507 368.314 664.987 368.016 654.889C367.717 644.792 368.456 623.895 368.964 618.452C369.482 613.052 371.361 603.047 374.286 593.375C377.211 583.703 381.346 569.923 383.375 559.423C385.404 548.923 392.23 539.277 396.606 533.913C400.983 528.549 419.221 512.362 424.011 509.368C428.801 506.375 457.25 493.252 457.25 493.252Z" fill="#8AC65C"/>
<path d="M519.662 458.699C512.704 461.276 505.931 464.219 499.19 467.292C495.82 468.828 492.525 470.483 489.177 472.105C485.882 473.76 482.598 475.458 479.336 477.242C476.074 479.026 472.865 480.842 469.668 482.701L464.899 485.598C464.102 486.074 463.306 486.549 462.52 487.068L460.206 488.613C457.095 490.634 454.071 492.816 451.1 495.031L446.763 498.552C445.386 499.815 444.052 501.067 442.686 502.374C448.616 497.902 454.914 494.162 461.254 490.411C467.606 486.703 474.033 483.114 480.536 479.643C487.028 476.129 493.542 472.701 500.045 469.23C506.623 465.695 513.126 462.224 519.662 458.699Z" fill="#8AC65C"/>
<path d="M501.828 520.514C496.19 519.231 490.531 518.411 484.85 517.689C481.972 517.36 479.266 516.987 476.496 516.356C473.725 515.725 470.997 515.084 468.269 514.259L459.999 511.989C457.207 511.272 454.447 510.501 451.601 509.935C448.798 509.358 445.919 508.846 443.02 508.614C440.132 508.425 437.157 508.441 434.389 509.276C437.255 509.012 440.09 509.352 442.882 509.886C445.664 510.376 448.424 511.147 451.13 511.886C453.858 512.711 456.575 513.493 459.314 514.361C462.042 515.186 464.813 516 467.573 516.771C470.333 517.542 473.158 518.205 476.047 518.76C478.915 519.229 481.89 519.58 484.713 519.693C490.404 520.093 496.095 520.309 501.828 520.514Z" fill="#8AC65C"/>
<path d="M451.149 444.11C451.032 444.918 450.753 445.63 450.442 446.396C450.163 447.108 449.798 447.841 449.476 448.564C448.778 449.977 448.026 451.357 447.231 452.749C445.673 455.478 443.975 458.197 442.266 460.873L437.032 468.835C435.281 471.522 433.572 474.197 431.885 476.959C430.241 479.71 428.716 482.569 427.287 485.449C426.611 486.948 425.924 488.404 425.388 489.914C425.12 490.669 424.755 491.402 424.541 492.189L423.79 494.486C421.861 500.654 421.216 507.369 422.477 513.649C422.337 507.27 423.554 501.006 425.753 495.183C427.984 489.306 430.895 483.761 434.204 478.345C437.417 472.908 440.942 467.621 444.1 461.969C445.69 459.185 447.119 456.306 448.45 453.404C449.083 451.916 449.716 450.428 450.209 448.929C450.627 447.311 451.152 445.759 451.149 444.11Z" fill="#8AC65C"/>
<path d="M395.102 542.311C399.85 539.328 404.986 537.164 410.297 535.872C412.936 535.253 415.629 534.849 418.345 534.715C421.017 534.592 423.766 534.77 426.493 535.045C431.958 535.639 437.38 536.793 442.953 537.635C445.713 538.039 448.548 538.379 451.425 538.342C454.249 538.272 457.222 537.89 459.666 536.495C456.995 537.351 454.204 537.367 451.466 537.048C448.739 536.773 446.022 536.174 443.316 535.619C440.599 535.02 437.883 534.422 435.112 533.791C432.363 533.246 429.582 532.755 426.747 532.415C423.89 532.173 421.045 531.973 418.168 532.194C415.302 532.457 412.447 532.947 409.744 533.857C404.283 535.645 399.223 538.478 395.102 542.311Z" fill="#8AC65C"/>
<path d="M399.776 462.091C398.881 461.996 397.999 462.493 397.375 463.108C397.181 463.249 397.041 463.422 396.901 463.594C396.762 463.767 396.622 463.94 396.482 464.112C396.256 464.49 395.988 464.878 395.816 465.288C394.989 466.917 394.561 468.674 394.176 470.421C393.504 473.935 393.305 477.513 393.322 481.037C393.324 488.139 394.08 495.143 394.685 502.093C395.387 509.064 395.895 515.992 395.768 522.944C395.64 529.895 394.769 536.804 393.197 543.661C395.804 537.093 397.3 530.118 397.805 523.026C398.057 519.48 398.083 515.945 397.969 512.4C397.812 508.866 397.568 505.353 397.239 501.862L396.164 491.41C395.792 487.93 395.516 484.471 395.284 481.002L395.139 478.426L395.08 475.829C395.056 474.094 395.128 472.38 395.33 470.634C395.499 468.942 395.798 467.217 396.355 465.61C396.484 465.211 396.71 464.834 396.838 464.435C397.075 464.1 397.246 463.691 397.537 463.388C398.15 462.73 398.871 462.136 399.776 462.091Z" fill="#8AC65C"/>
<path d="M439.676 567.374C434.674 566.434 429.598 566.109 424.5 566.064C419.414 566.063 414.284 566.438 409.264 567.245C404.211 568.105 399.213 569.364 394.443 571.345C389.704 573.271 385.172 576.017 381.644 579.655C385.885 576.845 390.45 574.779 395.157 573.273C397.527 572.492 399.929 571.841 402.352 571.277C404.776 570.712 407.222 570.234 409.689 569.841C412.145 569.406 414.634 569.1 417.123 568.793C419.612 568.487 422.079 568.278 424.601 568.101C429.557 567.769 434.579 567.512 439.676 567.374Z" fill="#8AC65C"/>
<path d="M381.994 576.68C382.281 574.912 382.375 573.102 382.437 571.345C382.541 569.577 382.506 567.799 382.514 566.01C382.443 562.454 382.264 558.833 381.783 555.289C381.346 551.733 380.628 548.157 379.383 544.667C378.711 542.912 377.932 541.275 377.078 539.703C376.213 538.088 375.316 536.527 374.343 535.031C372.387 531.995 370.195 529.111 368.153 526.281C367.105 524.849 366.143 523.396 365.268 521.921C364.803 521.168 364.435 520.435 364.014 519.671L362.824 517.313C359.623 510.971 356.335 504.651 352.811 498.482C355.355 505.127 358.115 511.718 360.993 518.232L362.065 520.666C362.454 521.484 362.844 522.303 363.319 523.099C364.184 524.714 365.168 526.254 366.183 527.739C368.215 530.71 370.343 533.519 372.191 536.49C373.152 537.943 374.039 539.461 374.882 540.99C375.725 542.518 376.493 544.112 377.154 545.641C378.452 548.796 379.181 552.233 379.866 555.68C380.508 559.138 380.977 562.64 381.318 566.174C381.482 567.92 381.658 569.708 381.78 571.465C381.867 572.359 381.901 573.221 381.946 574.126C381.958 574.902 382.046 575.796 381.994 576.68Z" fill="#8AC65C"/>
<path d="M438.83 600.578C435.498 599.539 431.781 599.879 428.387 600.78C426.664 601.214 425.016 601.95 423.412 602.675C422.594 603.064 421.829 603.486 421.076 603.95L418.826 605.388C415.963 607.3 413.089 609.17 410.107 610.975C407.168 612.769 404.197 614.8 401.453 617.004C396.029 621.486 391.07 626.355 386.294 631.407C383.906 633.933 381.637 636.566 379.433 639.275C378.357 640.646 377.282 642.016 376.272 643.462C375.261 644.908 374.294 646.343 373.542 647.907C374.553 646.461 375.704 645.209 376.844 643.914C377.984 642.619 379.189 641.399 380.383 640.136C382.781 637.653 385.245 635.245 387.762 632.87C390.28 630.494 392.754 628.13 395.337 625.83C397.865 623.498 400.447 621.198 403.116 619.059C405.72 616.845 408.497 614.954 411.414 613.074C414.321 611.15 417.216 609.184 419.982 607.067C422.673 605.014 425.568 603.231 428.745 602.018C431.922 600.806 435.37 600.121 438.83 600.578Z" fill="#8AC65C"/>
<path d="M372.955 657.036C372.631 656.66 372.587 656.121 372.424 655.658L372.012 654.204C371.719 653.224 371.427 652.243 371.145 651.306C370.516 649.357 369.726 647.494 368.807 645.664C366.968 642.003 364.634 638.558 361.741 635.621C361.05 634.879 360.273 634.158 359.506 633.481C359.139 633.115 358.74 632.803 358.373 632.438L357.164 631.459C356.398 630.781 355.524 630.223 354.682 629.61C353.808 629.051 352.967 628.438 352.061 627.933C348.457 625.817 344.586 624.455 340.898 622.91C337.22 621.408 333.629 619.7 330.349 617.594C327.026 615.498 323.993 612.917 320.96 610.336C314.991 605.013 309.334 599.289 303.816 593.394C308.537 599.948 313.764 606.146 319.594 611.826C322.509 614.666 325.606 617.322 328.995 619.676C332.415 621.976 336.168 623.78 339.911 625.358C343.685 626.881 347.449 628.179 350.857 630.069C354.299 631.906 357.396 634.379 360.31 637.036C363.149 639.757 365.623 642.846 367.676 646.269C368.703 647.981 369.612 649.768 370.477 651.566C370.888 652.471 371.31 653.418 371.678 654.334L372.263 655.744C372.457 656.154 372.631 656.66 372.955 657.036Z" fill="#8AC65C"/>
<path d="M327.518 540.685C327.089 541.527 327.209 542.55 327.254 543.456C327.396 544.382 327.591 545.341 327.862 546.235C328.372 548.077 329.087 549.821 329.876 551.501C331.466 554.904 333.304 558.198 335.336 561.352C337.389 564.592 339.905 567.487 342.669 570.09C345.432 572.693 348.519 574.94 351.615 577.046C354.755 579.142 357.938 581.044 360.894 583.14C363.851 585.236 366.592 587.57 367.482 590.92C368.056 592.654 368.501 594.421 368.914 596.241C369.359 598.008 369.685 599.85 370.012 601.692C370.697 605.323 371.21 608.997 371.691 612.725C371.803 608.985 371.646 605.267 371.294 601.507C370.91 597.8 370.429 594.072 369.453 590.378C369.225 589.473 368.921 588.45 368.413 587.524C367.916 586.641 367.333 585.78 366.685 585.027C365.389 583.52 363.889 582.294 362.356 581.122C359.313 578.865 356.12 576.92 353.077 574.845C346.927 570.804 341.25 566.094 337.058 560.185C334.973 557.182 332.866 554.093 331.05 550.885C330.142 549.281 329.277 547.666 328.573 545.964C328.227 545.135 327.913 544.252 327.685 543.347C327.479 542.528 327.24 541.58 327.518 540.685Z" fill="#8AC65C"/>
<path d="M327.239 190.497C327.239 190.497 325.333 227.68 306.62 254.892C287.906 282.104 233.077 332.389 233.077 332.389C233.077 332.389 242.846 232.374 327.239 190.497Z" fill="#004916"/>
<path d="M216.832 354.305C218.55 356.576 236.468 306.561 213.528 241.683C213.528 241.683 184.059 311.332 216.832 354.305Z" fill="#004916"/>
<path d="M229.71 342.126C229.71 342.126 252.927 301.683 327.337 311.853C327.347 311.896 262.089 363.342 229.71 342.126Z" fill="#006D4B"/>
<path d="M309.863 357.448C309.863 357.448 231.527 381.9 213.428 366.618C213.417 366.575 268.238 336.27 309.863 357.448Z" fill="#004916"/>
<path d="M164.351 282.755C164.351 282.755 215.512 339.424 205.686 370.813C205.686 370.813 158.896 330.042 164.351 282.755Z" fill="#006D4B"/>
<path d="M205.097 379.026C205.097 379.026 266.448 360.09 302.634 389.144C302.634 389.144 221.807 400.248 205.097 379.026Z" fill="#006D4B"/>
<path d="M195.377 397.375C195.377 397.375 268.71 383.439 307.566 417.273C307.577 417.316 220.573 433.367 195.377 397.375Z" fill="#004916"/>
<path d="M194.948 392.58C194.948 392.58 184.077 345.602 145.826 306.529C145.826 306.529 142.849 347.464 191.338 398.621L194.948 392.58Z" fill="#004916"/>
<path d="M188.264 415.341C188.264 415.341 251.097 417.568 292.607 453.208C292.607 453.208 223.819 470.81 183.543 420.975L188.264 415.341Z" fill="#004916"/>
<path d="M181.192 413.64C181.192 413.64 155.303 357.249 114.104 339.4C114.104 339.4 137.325 392.477 176.895 421.138L181.192 413.64Z" fill="#006D4B"/>
<path d="M175.578 432.283C175.578 432.283 237.706 456.452 271.723 489.994C271.723 489.994 208.464 484.438 171.237 439.792L175.578 432.283Z" fill="#006D4B"/>
<path d="M170.137 432.692L163.461 442.209C163.461 442.209 111.837 445.911 79.7881 398.357C79.799 398.4 138.389 408.522 170.137 432.692Z" fill="#004916"/>
<path d="M238.348 327.121C238.348 327.121 132.343 487.667 129.352 569.479C129.352 569.479 128.326 574.319 123.062 571.43C117.809 568.583 134.92 464.611 238.348 327.121Z" fill="#004916"/>
<path d="M361.264 439.993C361.188 439.508 361.068 439.034 360.992 438.549C360.764 437.827 360.763 437.095 360.945 436.361C360.997 435.661 361.19 434.971 361.588 434.367C361.932 433.73 362.394 433.201 363.04 432.855C363.6 432.348 364.256 432.045 364.989 431.86C365.474 431.784 365.969 431.751 366.454 431.674C367.424 431.705 368.308 431.941 369.128 432.467C369.474 432.747 369.873 433.059 370.218 433.338C370.898 434.037 371.385 434.877 371.624 435.825C371.786 436.288 371.906 436.762 372.068 437.225C372.296 437.947 372.297 438.68 372.115 439.413C372.062 440.113 371.827 440.814 371.429 441.419C371.085 442.055 370.58 442.595 369.988 442.973C369.428 443.48 368.771 443.783 368.039 443.968C367.554 444.044 367.058 444.077 366.573 444.154C365.603 444.123 364.665 443.855 363.856 443.372C363.468 443.103 363.112 442.78 362.723 442.512C362 441.823 361.513 440.984 361.264 439.993Z" fill="#004916"/>
<path d="M349.736 459.712C348.573 460.005 347.193 459.803 346.168 459.191C345.197 458.61 344.268 457.47 344.018 456.296C343.529 453.807 344.85 451.229 347.435 450.578C348.598 450.285 349.978 450.487 351.003 451.099C351.974 451.68 352.903 452.82 353.153 453.995C353.653 456.526 352.278 459.072 349.736 459.712Z" fill="#004916"/>
<path d="M365.385 453.984C365.643 453.919 365.913 453.897 366.214 453.821C366.343 453.788 366.473 453.756 366.613 453.766C366.656 453.755 366.742 453.733 366.785 453.723C366.828 453.712 366.828 453.712 366.871 453.701C367.518 453.538 368.121 453.569 368.757 453.73C369.059 453.837 369.318 453.955 369.631 454.106C367.822 455.111 366.057 456.106 364.237 457.068C364.204 456.755 364.258 456.421 364.365 456.119C364.472 455.817 364.633 455.548 364.74 455.246C364.955 454.825 365.278 454.469 365.719 454.22C366.096 453.896 366.494 453.658 367.022 453.571C367.496 453.452 367.992 453.419 368.477 453.526C368.94 453.546 369.393 453.707 369.825 453.965C370.245 454.18 370.602 454.503 370.85 454.944C371.174 455.321 371.412 455.719 371.499 456.247C371.532 456.559 371.576 456.915 371.609 457.227C371.588 457.874 371.417 458.467 371.095 459.006C370.879 459.244 370.718 459.514 370.503 459.751C370.019 460.194 369.459 460.518 368.813 460.681C368.5 460.714 368.145 460.757 367.832 460.79C367.326 460.78 366.895 460.706 366.463 460.448C366.01 460.287 365.622 460.018 365.309 459.685C365.071 459.47 364.866 459.201 364.747 458.91C366.816 458.939 368.842 458.978 370.901 458.964C370.728 459.19 370.524 459.471 370.309 459.708C369.986 460.064 369.588 460.302 369.125 460.465C368.964 460.551 368.791 460.595 368.587 460.692C368.5 460.714 368.457 460.725 368.371 460.746C368.242 460.779 368.113 460.811 367.994 460.887C367.736 460.952 367.488 461.06 367.186 461.136C366.712 461.256 366.217 461.289 365.732 461.182C365.268 461.161 364.815 461 364.384 460.743C363.952 460.485 363.607 460.205 363.358 459.764C363.034 459.387 362.786 458.946 362.709 458.461C362.676 458.148 362.633 457.793 362.6 457.48C362.62 456.834 362.792 456.241 363.103 455.658C363.318 455.421 363.479 455.151 363.694 454.914C364.168 454.428 364.738 454.147 365.385 453.984Z" fill="#004916"/>
<path d="M345.252 435.182C344.089 435.475 342.709 435.272 341.684 434.66C340.713 434.08 339.784 432.939 339.534 431.765C339.045 429.276 340.366 426.698 342.951 426.047C344.114 425.754 345.494 425.956 346.519 426.569C347.49 427.149 348.419 428.29 348.669 429.464C349.169 431.995 347.794 434.541 345.252 435.182Z" fill="#004916"/>
<path d="M330.432 464.575C329.268 464.868 327.889 464.666 326.864 464.053C325.893 463.473 324.964 462.333 324.714 461.158C324.225 458.67 325.545 456.092 328.131 455.441C329.294 455.148 330.674 455.35 331.699 455.962C332.67 456.542 333.599 457.683 333.848 458.857C334.349 461.389 332.974 463.935 330.432 464.575Z" fill="#004916"/>
<path d="M345.15 474.981C345.387 474.647 345.58 474.323 345.817 473.989C345.913 473.827 346.064 473.697 346.161 473.535C346.161 473.535 346.161 473.535 346.204 473.525C346.204 473.525 346.247 473.514 346.236 473.471C346.268 473.417 346.311 473.406 346.344 473.352C346.419 473.287 346.494 473.222 346.57 473.158C346.72 473.028 346.871 472.898 347.022 472.769C347.14 472.693 347.291 472.564 347.409 472.488C347.603 472.347 347.861 472.282 348.088 472.271C348.26 472.228 348.4 472.238 348.551 472.292C348.788 472.324 348.982 472.367 349.198 472.495C349.317 472.603 349.435 472.711 349.543 472.775C349.619 472.893 349.749 473.044 349.824 473.163C349.965 473.356 350.03 473.615 350.041 473.841C350.095 474.057 350.063 474.294 349.988 474.542C349.849 475.081 349.764 475.652 349.517 476.127C349.334 476.493 349.141 476.817 348.958 477.184C348.84 477.443 348.614 477.637 348.378 477.788C348.152 477.983 347.904 478.091 347.602 478.167C347.301 478.243 347.031 478.265 346.74 478.201C346.46 478.18 346.212 478.105 345.942 477.944C345.781 477.847 345.651 477.696 345.489 477.599C345.23 477.298 345.014 476.986 344.916 476.598C344.916 476.415 344.862 476.2 344.861 476.016C344.817 475.661 344.914 475.316 345.15 474.981Z" fill="#004916"/>
<path d="M80.531 143.906C80.531 143.906 73.2265 169.298 79.5173 191.907C85.8081 214.516 111.022 260.952 111.022 260.952C111.022 260.952 127.57 191.488 80.531 143.906Z" fill="#004916"/>
<path d="M116.95 279.391C115.26 280.504 114.783 242.775 145.148 204.518C145.148 204.518 148.886 258.104 116.95 279.391Z" fill="#004916"/>
<path d="M111.077 268.269C111.077 268.269 104.812 235.756 52.4511 225.439C52.4942 225.428 84.4601 275.02 111.077 268.269Z" fill="#006D4B"/>
<path d="M53.7412 260.03C53.7412 260.03 100.735 294.518 116.426 288.412C116.383 288.423 86.5805 255.424 53.7412 260.03Z" fill="#004916"/>
<path d="M168.7 243.445C168.7 243.445 121.243 269.695 120.627 293.082C120.627 293.082 161.442 276.478 168.7 243.445Z" fill="#006D4B"/>
<path d="M119.107 298.688C119.107 298.688 82.2785 271.812 51.2399 283.021C51.283 283.01 102.993 309.116 119.107 298.688Z" fill="#006D4B"/>
<path d="M121.406 313.276C121.406 313.276 75.3752 286.976 41.4639 300.788C41.4639 300.788 96.1999 331.63 121.406 313.276Z" fill="#004916"/>
<path d="M122.824 310.169C122.824 310.169 140.985 281.126 175.677 263.681C175.677 263.681 168.248 291.854 123.868 315.038L122.824 310.169Z" fill="#004916"/>
<path d="M122.024 327.004C122.024 327.004 79.2927 313.987 43.1947 328.395C43.1947 328.395 85.3595 356.081 123.897 331.894L122.024 327.004Z" fill="#004916"/>
<path d="M127.176 327.447C127.176 327.447 157.585 295.548 189.361 293.088C189.361 293.088 161.482 323.388 128.34 333.523L127.176 327.447Z" fill="#006D4B"/>
<path d="M126.683 341.318C126.683 341.318 79.3662 343.202 48.7973 357.913C48.7973 357.913 92.5917 368.784 127.88 347.34L126.683 341.318Z" fill="#006D4B"/>
<path d="M130.221 342.81L132.498 350.76C132.498 350.76 166.32 365.151 198.811 340.608C198.811 340.608 157.115 333.882 130.221 342.81Z" fill="#004916"/>
<path d="M108.761 256.16C108.761 256.16 142.911 388.459 126.091 444.107C126.091 444.107 125.644 447.611 129.857 446.87C134.037 446.184 146.514 372.384 108.761 256.16Z" fill="#004916"/>
<path d="M152.774 625.713C163.83 607.211 195.44 608.092 206.286 604.398C217.131 600.704 205.528 578.104 241.506 569.042C277.484 559.979 300.596 569.874 337.079 590.101C373.562 610.329 365.713 614.277 392.537 638.907C419.361 663.538 425.876 697.226 425.876 697.226C406.965 692.183 390.108 703.303 375.6 707.92C361.049 712.547 340.299 715.849 304.307 717.034C268.314 718.219 269.939 716.848 240.15 715.554C210.393 714.206 204.365 705.918 179.197 691.684C154.062 677.396 141.761 644.204 152.774 625.713ZM398.571 662.864C413.094 654.303 361.593 636.85 356.092 646.117C350.58 655.341 384.049 671.425 398.571 662.864ZM355.424 615.998C359.106 607.693 344.932 600.541 328.145 602.295C311.315 604.06 292.018 612.22 304.775 617.209C317.544 622.24 351.785 624.291 355.424 615.998ZM333.127 706.842C364.267 698.036 331.394 641.571 302.802 652.668C274.22 663.808 301.987 715.648 333.127 706.842ZM293.69 583.023C295.43 573.558 271.815 577.857 266.43 585.766C261.055 593.718 291.961 592.531 293.69 583.023ZM249.158 575.408C240.09 573.064 224.924 583.07 231.273 589.902C237.589 596.788 258.225 577.752 249.158 575.408ZM265.7 684.557C282.984 683.136 267.921 642.804 255.733 648.807C243.512 654.864 248.417 685.978 265.7 684.557ZM191.433 681.683C191.433 681.683 195.787 675.683 205.71 656.505C215.591 637.337 239.562 627.358 225.033 620.25C210.504 613.141 185.139 633.231 180.774 651.01C176.42 668.831 173.925 690.034 191.433 681.683Z" fill="#00805B"/>
<path d="M253.876 683.092C231.791 681.644 237.625 635.315 254.112 628.367C262.889 624.644 268.532 640.864 268.517 656.63C264.993 650.645 260.18 646.634 255.744 648.851C245.676 653.815 247.246 675.872 257.841 682.643C256.613 683.044 255.32 683.186 253.876 683.092Z" fill="#007052"/>
<path d="M240.15 715.553C210.393 714.205 204.365 705.918 179.197 691.684C154.019 677.406 141.718 644.214 152.785 625.756C153.204 625.054 153.677 624.385 154.118 623.77C158.766 631.672 162.8 639.683 166.737 642.036C176.555 647.903 175.761 620.014 203.903 616.041C208.417 615.408 211.933 616.63 214.685 619.19C200.712 621.564 184.176 637.048 180.752 651.107C176.387 668.885 173.903 690.131 191.411 681.78C191.411 681.78 195.765 675.78 205.689 656.601C210.124 648.015 217.365 641.288 222.722 635.815C228.245 656.647 229.508 688.221 245.396 702.364C267.308 721.863 271.225 694.483 293.458 682.88C299.606 698.011 315.861 711.787 333.095 706.896C341.259 704.564 345.032 698.986 345.613 692.196C349.691 695.109 354.945 698.139 362.612 700.927C394.694 712.595 381.686 694.06 403.718 690.573C410.591 689.483 418.226 691.958 425.529 695.847C425.757 696.752 425.844 697.279 425.844 697.279C406.932 692.237 390.076 703.357 375.568 707.973C361.017 712.601 340.266 715.903 304.274 717.088C268.325 718.262 269.939 716.847 240.15 715.553Z" fill="#007052"/>
<path d="M425.876 697.225C424.546 695.04 422.905 693.07 421.177 691.123C419.417 689.229 417.549 687.454 415.531 685.809C411.581 682.497 407.158 679.671 402.498 677.362C397.838 675.053 392.932 673.219 387.896 671.784C383.044 670.349 378.225 669.042 373.448 667.359C363.926 664.121 354.565 660.431 345.537 656.061C336.552 651.68 327.739 646.889 319.722 641.073L316.701 638.902L313.787 636.611C312.815 635.848 311.887 635.074 310.948 634.256L308.088 631.815C304.03 628.255 299.66 625.278 295.14 622.613C290.63 619.992 285.971 617.683 281.225 615.579C276.523 613.465 271.691 611.566 266.796 609.958C257.015 606.602 246.989 604.088 236.78 602.673C231.66 601.992 226.519 601.592 221.336 601.752C218.782 601.799 216.185 602.041 213.621 602.412C211.078 602.869 208.579 603.499 206.188 604.376C211.176 603.257 216.263 603.259 221.264 603.649C226.276 604.082 231.245 604.892 236.151 605.993C241.056 607.094 245.919 608.39 250.706 609.933C255.494 611.476 260.217 613.127 264.908 615.016C274.204 618.814 283.329 623.022 291.755 628.277C295.941 630.888 300.03 633.662 303.539 636.856C307.327 640.255 311.386 643.815 315.648 646.728C317.773 648.254 319.996 649.619 322.143 651.048C324.354 652.37 326.588 653.778 328.864 654.991C333.362 657.57 338.011 659.835 342.724 661.993C347.459 664.054 352.226 666.06 357.1 667.765C359.526 668.666 361.974 669.47 364.422 670.274C366.902 671.024 369.339 671.785 371.851 672.481C376.789 673.895 381.813 675.103 386.837 676.129C391.721 677.144 396.476 678.558 401.113 680.414C405.74 682.227 410.216 684.536 414.402 687.331C418.557 690.179 422.55 693.297 425.876 697.225Z" fill="#006A41"/>
<path d="M337.078 590.101C319.892 585.724 301.058 593.721 284.315 589.829C289.13 588.57 293.092 586.289 293.7 583.066C295.194 574.808 277.471 577.027 269.302 582.98C259.775 576.811 259.93 573.06 249.114 575.418C241.125 573.352 228.357 580.876 229.824 587.425C224.893 590.592 219.67 592.595 213.793 590.364C216.538 582.707 222.116 573.925 241.462 569.052C277.483 559.978 300.585 569.83 337.078 590.101Z" fill="#007052"/>
<path d="M401.042 658.668C400.662 656.977 398.978 655.202 396.431 653.46C395.697 652.546 394.994 651.577 394.281 650.565C381.046 631.493 376.278 634.756 363.089 624.056C359.582 621.228 357.496 617.859 355.927 614.359C356.29 612.16 355.445 610.082 353.621 608.296C352.126 603.999 350.696 599.777 347.823 596.376C372.206 611.496 368.746 617.041 392.536 638.908C403.029 648.545 410.387 659.568 415.481 669.419C411.069 667.002 405.933 663.531 401.042 658.668Z" fill="#007052"/>
</svg>
