<?xml version="1.0" encoding="utf-8"?>
<!-- Generator: Adobe Illustrator 27.3.0, SVG Export Plug-In . SVG Version: 6.00 Build 0)  -->
<svg version="1.1" id="Layer_1" xmlns="http://www.w3.org/2000/svg" xmlns:xlink="http://www.w3.org/1999/xlink" x="0px" y="0px"
	 viewBox="0 0 16 16" style="enable-background:new 0 0 16 16;" xml:space="preserve">
<style type="text/css">
	.st0{fill:#0C7B3D;}
</style>
<path class="st0" d="M9,8c0,2.5-2,4.5-4.5,4.5C2,12.5,0,10.5,0,8c0,0,0,0,0,0c0-2.5,2-4.5,4.5-4.5C7,3.5,9,5.5,9,8C9,8,9,8,9,8z
	 M14,8c0,2.3-1,4.2-2.3,4.2S9.5,10.3,9.5,8c0-2.3,1-4.2,2.3-4.2S14,5.7,14,8z M16,8c0,2.1-0.4,3.8-0.8,3.8c-0.4,0-0.8-1.7-0.8-3.8
	c0-2.1,0.4-3.8,0.8-3.8C15.6,4.2,16,5.9,16,8z"/>
</svg>
