<?xml version="1.0" encoding="utf-8"?>
<!-- Generator: Adobe Illustrator 27.3.0, SVG Export Plug-In . SVG Version: 6.00 Build 0)  -->
<svg version="1.1" id="Layer_1" xmlns="http://www.w3.org/2000/svg" xmlns:xlink="http://www.w3.org/1999/xlink" x="0px" y="0px"
	 viewBox="0 0 37.7 31.4" style="enable-background:new 0 0 37.7 31.4;" xml:space="preserve">
<style type="text/css">
	.st0{fill-rule:evenodd;clip-rule:evenodd;fill:#077B3D;}
</style>
<path class="st0" d="M28.9,31.1c0.5,0.4,1.2,0.4,1.7,0.2c0.6-0.2,1-0.7,1.1-1.3c1.4-6.4,4.7-22.7,5.9-28.5c0.1-0.4-0.1-0.9-0.4-1.2
	C36.9,0,36.4-0.1,36,0.1c-6.6,2.4-26.9,10-35.2,13.1c-0.7,0.2-1,1-0.8,1.7c0.1,0.4,0.5,0.7,0.9,0.8c3.7,1.1,8.6,2.7,8.6,2.7
	s2.3,6.9,3.5,10.4c0.1,0.4,0.5,0.8,0.9,0.9c0.5,0.1,0.9,0,1.3-0.3l4.9-4.6C20.1,24.7,25.7,28.8,28.9,31.1L28.9,31.1z M11.6,17.4
	l2.6,8.7l0.6-5.5l16-14.4C31,6,31,5.8,30.9,5.6c-0.1-0.2-0.4-0.2-0.6-0.1L11.6,17.4L11.6,17.4z"/>
</svg>
