<?xml version="1.0" encoding="utf-8"?>
<!-- Generator: Adobe Illustrator 27.3.0, SVG Export Plug-In . SVG Version: 6.00 Build 0)  -->
<svg version="1.1" id="Layer_1" xmlns="http://www.w3.org/2000/svg" xmlns:xlink="http://www.w3.org/1999/xlink" x="0px" y="0px"
	 viewBox="0 0 514.3 381.3" style="enable-background:new 0 0 514.3 381.3;" xml:space="preserve">
<style type="text/css">
	.st0{fill:#FBEECA;}
	.st1{fill:#0A6F37;}
</style>
<g>
	<g id="czhbwh_00000008866018263564031540000009937258966646743213_">
		<g>
			<g>
				<path class="st0" d="M422,242.9c-1.6,0.3-3.1,0.6-4.9,1c0.1,0.9,0.3,1.7,0.4,2.7c1.9-0.4,3.5-0.9,5.2,0.1
					c0.2,1.1,0.4,2.3,0.6,3.9c3.9-2.8,5.7-6.8,8.3-10.1c-0.8-1.1-1.8-1.1-2.8-0.7c-1,0.5-1.8,0.3-2.7-0.2c-2-1.1-3-1.2-5-0.9
					C420.9,240,421.8,241.3,422,242.9z"/>
			</g>
			<g>
				<path class="st0" d="M514.1,380.9c0-71.2,0.2-78.8,0.2-150c-0.4-0.7-0.9-1.4-1.6-2.5c0.1,11.1-0.6,21.6-2.4,32
					c-1-8.6-2-17.2-2-25.8c-1.3,4.8-2,9.7-2.3,14.7c-0.2,5-0.4,10-0.6,15c-3-6-5.9-12.1-10.5-17.5c1.8,5.2,3.6,10.1,5.1,15
					c2.3,7.5,3.1,12.8,2.4,15.2c-1.9-5.5-3.5-10.9-6.4-15.8c-4.8-8.1-7.9-12.7-9.9-13.8c0.5,1.2,0.9,2.3,1.4,3.4
					c2.6,5.8,4.6,11.8,6,18.1c1.2,5.3,1.6,10.6,1.7,16c0,0.7,0.2,1.5-0.6,2.2c-0.2-0.5-0.4-1-0.5-1.4c-0.8-5.5-1.8-10.9-3.4-16.2
					c-1-3.2-2-6.4-3.3-9.6c-0.9-2.4-2.2-4.6-3.4-6.9c-0.7-1.3-1.2-2.7-2.3-3.7c1.1,5.1,3.1,10,3.6,15.2c-0.5-0.4-0.8-0.8-1.1-1.2
					c-1.6-2.7-3.1-5.4-4.7-8.1c-0.3-0.6-0.8-1.1-1.2-1.6c2.4,11.7,5.7,23.1,6.8,34.9c-0.3-0.2-0.5-0.5-0.5-0.8
					c-0.3-1.6-0.6-3.1-0.9-4.7c-1.1-5.5-2.7-10.9-5.1-15.9c-0.2-0.4-0.5-0.8-0.8-1.2c-0.1,0.1-0.3,0.1-0.4,0.2
					c1.1,3.9,2.4,7.7,2.7,11.8c-3.3-7.1-6.6-14.2-11.2-20.6c2.1,6.3,3.9,12.6,5,19.1c-1.6-2.8-3-5.6-4.4-8.4c-1.5-2.9-3-5.7-4.5-8.6
					c-1.5-2.8-2.9-5.6-4.4-8.5c-1.5-2.8-2.8-5.7-4.9-8.1c6,16.4,12.9,32.5,15.4,49.9c-0.4-0.6-0.7-1.3-1-2c-0.7-2.3-1.5-4.6-2.2-6.9
					c-1.7-5.8-4.2-11.4-6.8-16.9c-0.2-0.5-0.6-1-0.9-1.4c0.6,6.2,3.2,11.8,3.7,18c-4.3-11.3-8.9-22.5-14.6-33.3
					c-0.1,0.7,0,1.4,0.2,2c1.1,3.9,2.2,7.8,3.2,11.8c1.2,4.5,2.2,9,3.6,13.4c1.5,4.8,2.6,9.6,3.4,14.5c0.2,1.3,0.4,2.7,0.6,4
					c-1.6-5-2.8-10.1-4.3-15.2c-1.6-5.1-3.5-10-5.2-15c-0.1,2,0,3.9,0.3,5.8c1.1,7.4,2.2,14.7,3.3,22.1c0.1,1,0.2,1.9,0.2,2.9
					c0,0.9,0,1.7,0,2.6c-0.1,0-0.3,0-0.4,0c-1.4-12.5-4.7-24.6-9.4-36.3c-0.5,6.8,1.9,13.2,2.7,19.8c-2-3-3.8-6.2-6.4-8.7
					c2.8,6.8,5.8,13.5,6.8,20.9c-1.2-2.3-2.2-4.7-3.4-7c-1.3-2.4-2.7-4.6-4.3-6.8c-2.4-3.3-4.1-4.9-5.5-5.4
					c3.3,4.9,6.4,9.8,7.8,15.5c-4.4-5.6-9.1-10.9-15.1-14.9c5.5,5.5,9.3,12,12.7,18.9c-4.2-4.7-9-8.5-14.3-11.9
					c0.2,0.5,0.5,0.8,0.8,1.1c1.5,1.6,3,3.1,4.4,4.7c2,2.4,4.1,4.9,5.1,8c0.4,0.5,0.7,1,1.1,1.5c-0.1,0.1-0.2,0.1-0.3,0.2
					c-0.3-0.6-0.5-1.1-0.8-1.7c-0.7-0.7-1.4-1.4-2.2-2.2c-0.1,0.1-0.2,0.1-0.2,0.2c0.2,0.6,0.4,1.2,0.6,1.8
					c-0.1,0.1-0.2,0.1-0.3,0.2c-1.7-1.8-3.3-3.7-5-5.5c1,3,2.5,5.7,3.1,8.7c-1.8-3.5-4.2-6.4-7-9.1c1.8,3.6,3.2,7.4,4.1,11.3
					c-1.7-2.2-3.3-4.4-4.9-6.6c-1.7-2.2-3.7-4-6-5.6c1.9,3.3,4,6.5,4.9,10.3c-1-1-1.9-2.2-2.8-3.3c-0.9-1.1-1.8-2.2-3.2-2.8
					c0.5,2.2,2.3,3.9,2.7,6.2c-2.5-2.2-4.8-4.2-7.1-6.3c-0.1,0.1-0.2,0.2-0.3,0.3c1.1,2.1,2.1,4.2,3.2,6.3c-1-0.7-1.7-1.5-2.4-2.4
					c-0.7-0.8-1.4-1.7-2.6-1.9c0.6,1.1,1.2,2.2,2,3.7c-2.5-1.4-4.1-3.2-6.6-3.9c0.7,1.7,2,2.8,2.4,4.6c-2.4-1.2-4-3.2-6.8-3.4
					c0.9,1.7,1.6,3.1,2.3,4.5c-1.6-0.9-2.3-2.8-4.3-3.3c0,0.7,0,1.3,0,2.1c-0.8-0.4-1.4-0.7-1.9-1c2.3-8.6,4.5-17,6.8-25.6
					c0.5,1.4,1,2.8,1.6,4.2c0.6,1.5,1.3,2.9,2,4.3c0.6,1.3,1.2,2.6,2.3,3.6c0-0.6-0.2-1.1-0.4-1.6c-2-5.2-3.6-10.6-4.3-16.2
					c-0.6-4.3-2-8.4-4.2-12.1c-4.5-7.7-11.4-12-20-13.8c-6-1.3-12.1-0.9-18.2-0.2c-3.3,0.4-6.4-0.1-9.6-0.9c-1.9-0.5-3.9-1-5.9-0.9
					c-3.2,0.2-6.3,0.6-9.4,1.4c-2.8,0.8-5.6,0.8-8.4,0.4c-1.1-0.2-2.3-0.1-3.5,0c-1.6,0.1-3.3,0.4-4.9,0.7c-1,0.1-2.1,0.3-3.1,0.4
					c-1.6,0.3-2.7,1.2-3.1,2.7c-0.5,1.5-0.8,3.1-0.9,4.6c-0.1,1.6-0.4,3-1.2,4.3c-0.7,1.3-1.3,2.6-1.7,4c-1,3.6-1.8,7.2-2.6,10.9
					c-0.5,2.2-0.6,2.4-2.8,2.5c-1.8,0.1-3.7-0.1-5.8-0.2c0.5,0.6,0.8,1.1,1.3,1.6c1.4,1.3,3.2,1.9,5,2.4c0.5,0.1,0.9,0.5,1.3,0.8
					c-0.3,0.5-0.5,1.1-1,1.4c-0.7,0.5-1.5,0.8-2.2,1.1c-0.6,0.3-1.2,0.5-2.1,0.8c1.6,1.3,3.4,1.5,5.2,1.8c0.1,1,0.1,1.9,0.2,2.8
					c0.4,3.9,0.7,7.9,1.3,11.7c0.6,3.8,1.8,7.4,5.8,9.2c0.9,0.4,1.6,1.4,1.4,2.8c-2-0.5-2.8-2.6-4.8-3.1c0.3,1,0.6,1.8,0.8,2.6
					c-0.1,0-0.1,0-0.2,0.1c-0.9-1.2-1.8-2.4-2.7-3.6c-0.1,0-0.2,0.1-0.2,0.1c0.1,1,0.2,2,0.4,3c-0.1,0-0.2,0.1-0.3,0.1
					c-0.9-1-1.9-2.1-3.1-3.4c-0.1,1-0.1,1.7-0.1,2.7c-0.9-1.3-1.5-2.3-2.2-3.3c-0.1,0.1-0.2,0.1-0.4,0.2c0.2,0.8,0.3,1.6,0.6,2.9
					c-1.3-1.4-2.4-2.5-3.4-3.6c-0.1,0.1-0.2,0.1-0.4,0.2c0.4,1.3,0.8,2.6,1.2,3.9c-1.1-0.9-1.7-1.9-2.5-2.8c-0.8-0.9-1.6-2-3.1-2.5
					c0.5,1.6,1.4,2.7,1.3,4.3c-1.5-1.7-2.7-3.3-4-4.8c-0.1,0.1-0.2,0.1-0.3,0.2c0.3,1,0.5,1.9,0.9,3.2c-1-0.9-1.7-1.5-2.7-2.4
					c0.3,1.3,0.5,2.1,0.8,3c-0.2,0.1-0.3,0.2-0.5,0.3c-0.2-0.4-0.4-0.9-0.7-1.5c-0.4,1.1-0.6,1.8-0.8,2.5c-1.8-1.7-1.5-3.4-0.8-5.3
					c0.1-0.4,0.4-0.7,0.5-1.1c0.5-1.4,1.1-2.7,1.4-4.1c0.3-1.6,0.4-3.3,0.7-4.9c0.1-0.5,0.3-1,0.7-1.9c0.6,2.3,0.5,4.4,2,5.9
					c-0.7-2.7-0.6-5.3,0-8c0.9-3.7,0.2-7.1-1.2-10.5c-1.7-4.2-4.9-6.5-9.2-7.2c-2.8-0.4-5.6-0.2-8.5-0.2c-1.2,0-2.4,0.2-3.5,0.1
					c-2.9-0.4-5.7-0.9-8.6-1.4c-3.4-0.5-6.8-1-10.3-0.4c-2.9,0.5-5.7,1-8.6,1.1c-3.5,0.1-5.9,1.8-7.3,4.8c-0.6,1.4-1,2.9-1.4,4.3
					c-0.7,2.5-1.3,4.9-2,7.4c-0.5,1.6-1,3.2-1.5,4.7c-0.7,2.2-0.9,4.4-0.4,6.7c0.3,1.2,0.4,2.4,0.6,3.7c0.2,1.1,0.1,2.2-0.8,3.1
					c-0.9,0.8-0.5,1.5,0.2,2.3c1.3-0.6,2.3-1.3,2.7-2.6c0.5-1.3,0.9-2.6,1.2-3.9c0.3-1.7,0.4-3.4,0.8-5.1c0.3-1.5,1.1-2.4,2.7-2.7
					c0.7-0.1,1.4-0.5,2-0.9c1.1-0.8,2.2-1.2,3.5-1.1c1.9,0.1,3.7,0.3,5.6,0.5c0.4,0.1,1,0.3,1.2,0.7c1.4,2.6,2.7,5.3,2.2,8.4
					c-0.3,2.2-0.9,4.4-0.5,6.8c-0.5-1.1-1-2.1-1.5-3.2c-0.1,0-0.3,0.1-0.4,0.1c0.1,2,0.3,3.9,0.4,5.9c-0.1,0-0.2,0-0.2,0.1
					c-0.7-1.6-1.4-3.1-2.1-4.7c-0.5,1.1-0.6,2.2-0.9,3.2c-0.3,0.9,0.2,2.1-1.1,2.7c-1-2.4,0.3-4.7-0.1-7.2c-1.4,1.1-1.7,2.4-2.2,3.7
					c-0.5,1.3-0.7,2.7-1.7,4.4c-0.3-2.1-0.4-3.7-0.7-5.3c-0.3-1.6-0.2-3.3-1.4-5c-0.3,2.8-0.3,5.3-1.5,7.7c-0.2-1.2-0.4-2.3-0.6-3.5
					c-0.2,0-0.3,0-0.5,0c-0.6,2.7-1.3,5.5-1.9,8.2c-0.1,0-0.2,0-0.2,0c-0.2-2.1-0.3-4.2-0.5-6.7c-1.3,1.9-1.4,3.9-2.4,5.6
					c-1.8-3.9-2.3-4.7-3.6-5.4c0.6,3.8,0.6,3.8-0.7,4.1c-0.3-0.8-0.5-1.7-0.8-2.6c-0.3-0.9-0.6-1.8-0.9-2.7c-0.3-0.7-0.6-1.5-1-2.2
					c0,2.7,0.1,5.2-0.3,7.8c-1.5-3.3-2.1-6.9-4-10c0.1,1.6,0.4,3.2,0.5,4.7c0.1,1.5,0.7,3,0,4.8c-1.4-2.6-2-5.3-4-7.6
					c0.3,2,0.6,3.6,0.9,5.3c-1.4-1.2-1.7-3-3.4-4.4c0.5,1.5,0.8,2.7,1.2,3.8c-0.1,0-0.2,0.1-0.3,0.1c-0.6-0.9-1.3-1.7-2.1-2.7
					c-0.5,1.5,1.4,3.3-1.1,4.3c-0.4-1-0.7-1.9-1.1-2.8c-11.8,0-23.5-1.1-35.1-0.8c-0.4,0.7-0.6,1.6-1,1.6c-1.1,0.1-1.6,0.8-2.3,1.7
					c-1.3-2.4-0.2-4.9-1.3-7.2c-0.6,1.7-1.2,3.4-1.8,5.1c-0.1,0-0.3,0-0.4-0.1c0.1-2.7,0.3-5.5,0.4-8.2c-1.7,3.1-2.2,6.6-3.1,10
					c-0.1,0-0.3,0-0.4,0c-0.1-3.1-0.3-6.2-0.4-9.3c-0.2,0-0.3,0-0.5,0c-0.4,2.6-0.9,5.2-1.3,7.8c-0.1,0-0.3,0-0.4,0
					c0-0.6,0-1.3,0-1.9c0-0.9,0.3-1.9,0-2.7c-0.5-1.3-0.4-2.6-0.4-3.9c0-4.1,0.1-8.3,0.1-12.4c0-0.8-0.1-1.6-0.1-2.5
					c-2.1-0.2-4.1-0.4-6.2-0.6c-0.2,2.5-0.4,4.7-0.6,7.2c-12.1-3.1-23.7-6.7-35.2-10.2c-0.6-2.3,0.6-4.4-0.3-6.6
					c-2.7-0.6-5.3-1.2-8.1-1.8c-0.2,1.8-0.4,3.4-0.6,5.2c-5.2-1.6-10.2-3.2-15.1-4.7c-0.4-2.6-0.7-5.1-1.1-7.5
					c-0.6-3.3-2.5-5.6-5.3-7.3c-0.7-0.4-1.5-0.8-2.2-1.1c-8-3.7-11.9-11.2-10.2-19.7c0.5-2.5,0.8-5,1.2-7.7c0.9-0.8,2.9-0.7,3.3-2.8
					c-1.1-0.1-2.2-0.1-3.2-0.4c-0.9-0.3-2.3,0.5-2.9-1.1c1.5-0.6,2.6-1.4,3.1-3c-0.3-0.1-0.6-0.3-0.8-0.3c-2.9,0-5.4,1.2-8.1,2.1
					c-0.1,0-0.1,0.1-0.2,0.1c-1.3,0.5-2.6,1.3-4,1.5c-2,0.3-2.9,1.5-3.9,3.3c0.8,0.4,1.5,0.8,2.3,1.1c1.5,0.4,3,0.7,4.4,1.1
					c3.4,0.9,3.4,0.9,1.9,4c-1.7,3.5-2.8,7.2-2.7,11.2c0.1,2.6,0.9,4.9,1.8,7.2c0.7,1.7,0.7,3.2,0.1,4.8c-0.6,1.7-1,3.4-1.5,5.2
					c-0.8-0.2-1.7-0.4-2.6-0.7c-0.9-0.3-1.8-0.6-2.8-0.9c-2.9-0.8-2.9-0.8-2.8-3.7c0-0.2-0.1-0.4-0.1-0.7c-3-0.8-6-1.5-9.1-2.3
					c-0.2,1-0.3,1.8-0.5,2.9c-0.9-0.3-1.8-0.5-2.9-0.8c0.4-1.9,0.8-3.6,1.2-5.4c0.9-3.8,2.1-7.6,2.8-11.5c1.3-7.1,0.9-14.3,0.2-21.5
					c-0.4-4.5-0.7-8.9-0.6-13.4c0.2-6.6,1.2-13.1,2.2-19.5c0.4-2.9,1.1-5.7,1.9-8.5c0.6-2.2,1.6-4.2,3.4-5.7c1.7,0.8,3.3,0.8,5,0.5
					c1.3-0.2,2.7-0.4,3.9-0.1c2.2,0.6,4,0.1,5.9-1c1.5-0.9,1.8-1.6,0.5-2.9c-1.2-1.1-2.6-1.9-4-2.9c-0.9-0.6-1.9-1.1-2.7-1.8
					c-0.9-0.8-1.7-1.8-2.4-2.8c-1-1.4-2.2-2.3-3.9-2.4c-1.1-0.1-1.8-0.6-2.3-1.5c-0.4-0.7-0.9-1.4-1.5-2c-0.3-0.3-1.1-0.5-1.2-0.4
					c-0.4,0.6-0.8,0.7-1.5,0.5c-0.2,0-0.8,0.7-0.7,1c0.1,0.6,0.4,1.1,0.7,1.7c0.4,0.8,1,1.5,1.3,2c-1,1.7-1.9,3.1-2.5,4.6
					c-0.9,2-1.6,4-2.2,6c-2.1,6.8-4.6,13.5-7.3,20.1c-0.8,1.9-1.8,3.7-3.3,5.2c-2.1,2.1-3.7,4.6-4.9,7.4c-0.3,0.7-0.7,1.4-1,2
					c-1.4,2.6-3.2,4.8-5.9,6.2c-1.4,0.7-2.8,1.6-4.1,2.4c-2.1,1.3-3.7,3.1-4.7,5.4c-2.3,5.3-3.7,10.9-3.3,16.7
					c0.2,3.2,0.7,6.3,1.1,9.5c0.1,1,0.2,2.1,0.3,3.4c-3.2-1.1-6.2-2.1-9-3.1c-0.1-1.3-0.1-2.4-0.2-3.5c-2.8-0.6-5.4-1.5-8.1-1.5
					c-0.1,1.1-0.2,2-0.3,2.9c-1.1-0.2-1.9-0.4-2.8-0.6c0,0.6,0,1.1,0,1.7c0.9,0.4,1.9,0.8,2.8,1.2c0.1,5.3-0.1,10.6-0.6,15.9
					c-0.9-0.2-1.6-0.3-2.2-0.5c0,1.5,0,3,0,4.6c0.7,0.3,1.3,0.6,2.2,0.9c-0.1,1-0.3,1.9-0.4,3.1C1,268.2,0.5,268,0,267.8
					c0,1.2,0,2.5,0,3.7c0.6,0.2,1.1,0.3,1.8,0.5c-0.1,2.2,0.1,4.3-0.4,6.9c-0.7-1-1-1.5-1.4-2.1c0,55.8-0.2,48.1-0.2,103.9H514.1z
					 M34.3,291c0.1-0.1,0.2-0.2,0.2-0.4c0.4,0.2,0.7,0.4,1.1,0.7c-0.1,0.1-0.2,0.3-0.3,0.4C35,291.5,34.6,291.3,34.3,291z
					 M32.9,287.3c0-0.2,0.1-0.5,0.3-1c0.4,0.7,0.5,0.9,0.5,1c-0.1,0.2-0.3,0.3-0.5,0.4C33.1,287.7,32.9,287.4,32.9,287.3z
					 M31.8,281.5c0.9,0.3,1.8,0.6,2.7,0.9c-0.2,0.8-0.3,1.3-0.4,2.1c-0.8-0.1-1.4-0.2-2-0.3C32.2,283.2,32.7,282.3,31.8,281.5z
					 M29.6,274.8c0-0.1,0.1-0.2,0.2-0.6c2,0.6,3.9,1.3,6,2c-0.1,1-0.2,1.9-0.4,3c-1.2-0.3-1.9-0.5-2.7-0.8
					C30,277.6,30,277.6,29.6,274.8z M23,287.1c0.1-0.1,0.1-0.2,0.2-0.3c0.4,0.2,1.1,0.4,1.3,0.7c0.9,1.4,1.5,3,1.6,5
					C25,290.6,24,288.8,23,287.1z M21.8,288.2c0.3,1.2,0.8,2.1,0.5,3.1C22,290.4,20.7,289.7,21.8,288.2z M12.7,284.1
					c2.2,0,3.3,0.7,3.9,2.5c0.3,0.8,0.7,1.5,1,2.2c0.1,0.4,0.1,0.8,0.2,1.6C15.4,288.6,14.5,286.3,12.7,284.1z M10.1,282.8
					c1.5,1.4,1.9,2.8,2.3,4.3C11.1,286.1,9.7,285,10.1,282.8z M10.2,274.9c3.7,1.1,7.1,2.2,10.8,3.3c-0.5,1.9-0.9,3.4-1.3,5.1
					c-2.1-0.4-3.8-0.9-5.1-2.5c-0.6-0.7-1.2-1.6-2.6-1.4c0.5,0.8,0.8,1.3,1.2,1.9c-0.1,0.1-0.1,0.2-0.2,0.3c-1-0.4-2.1-0.9-3.1-1.3
					C10,278.4,10.1,276.7,10.2,274.9z M10.4,267.9c3.9,1.3,7.5,2.5,11.1,3.6c0,0.8,0,1.4,0,2c0,0.3-0.2,0.6-0.3,1.1
					c-3.7-1.2-7.4-2-11-3.3C10.3,270.2,10.3,269.3,10.4,267.9z M22.3,266.8c-3.9-1.2-7.7-2.4-11.6-3.6c0.2-5.3,0.3-10.5,0.5-15.9
					c3.3,0.9,6.3,1.7,9.5,2.5c0.1,2.7,0.6,5.2-0.6,7.6c-0.6,1.3-0.9,2.6,0.2,3.8c1.2-0.9,1.3-1.3,1.3-3c0-1.8,0.1-3.6,0.2-5.4
					C22.9,257.4,23.5,262,22.3,266.8z M26.4,276.3c-0.9-0.3-1.5-0.4-2.2-0.6c0.3-1.1,0.3-2.1,1.1-3
					C26.3,273.7,26.1,274.9,26.4,276.3z M28.1,286c-4.9-1-6.2-2.9-4.6-7c1,0.3,1.9,0.5,2.7,0.8c0.4,0.1,0.9,0.3,1,0.6
					C27.7,282.2,28.2,284,28.1,286z M32.2,253c1.5,0.5,2.8,0.9,4.2,1.4c0.5,4.2,0.1,15.3-0.5,17c-2.3-0.7-4.5-1.5-6.9-2.3
					c-0.1-2-0.2-3.9-0.2-5.7c0-0.7,0.1-1.4,0.3-2c0.8-2.4,1.7-4.8,2.5-7.2C31.8,253.8,32,253.5,32.2,253z M36.9,247
					c-0.1,1.7,0.2,3.4-0.4,5.2c-1.3-0.4-2.6-0.7-3.9-1c1-3.5,2.4-6.5,3.9-9.5c0.2,0,0.3,0.1,0.5,0.1C36.9,243.6,36.9,245.3,36.9,247
					z M50.6,280.7c0.5,0,0.9,0,1,0.1c0.4,1,0.3,2-0.4,2.9C51,282.8,50.8,281.9,50.6,280.7z M38.3,291.3c0.1-0.1,0.1-0.3,0.2-0.4
					c0.4,0.2,0.8,0.4,1.3,0.6c-0.1,0.1-0.1,0.3-0.2,0.4C39.1,291.8,38.7,291.6,38.3,291.3z M37.5,283.3c1,0.3,1.7,0.6,2.4,0.8
					c0.8,2.1,2.2,3.9,2.2,6.5c-1.5-1.3-2.1-3.1-4-4c0.3,1.1,0.6,1.9,0.8,2.7c-0.1,0.1-0.2,0.2-0.4,0.3c-0.4-0.3-1.2-0.6-1.2-1
					C37.3,286.9,37.4,285.2,37.5,283.3z M41.8,285.1c0.1-0.1,0.1-0.2,0.2-0.4c0.9,0.4,1.9,0.7,2.8,1.2c0.9,0.6,2.3,5,2.3,6.5
					C45.2,289.9,43.5,287.5,41.8,285.1z M45.8,266c0.1,2.9,0.8,5.8,0.7,8.9c-2.5-0.8-4.6-1.6-6.8-2.3c1-5.6,1.9-11,2.9-16.5
					c1.1,0.4,2.1,0.7,3.2,1C45.7,260.2,45.7,263.1,45.8,266z M46.1,255.2c-1.3-0.5-2.4-0.8-3.6-1.2c0.2-5,0.9-9.6,3.1-14.4
					C47.1,245,46.6,250,46.1,255.2z M47.4,283.1c-3.3-1-6.2-2-9.4-3c0.3-1,0.5-1.8,0.8-3c2.7,0.8,5.1,1.5,7.5,2.3
					c0.4,0.1,0.8,0.7,0.9,1.2C47.3,281.3,47.3,282.1,47.4,283.1z M52.6,259c-0.1,6-0.3,11.6-0.4,17.5c-1.3-0.2-2.2-0.3-2.3-1.6
					c-0.2-3.4-0.5-6.9-0.6-10.3c0-2.1,0.3-4.2,0.5-6.5C50.9,258.5,51.7,258.8,52.6,259z M69.3,292.6c0.9,0.5,1.6,0.9,2.2,1.3
					c0.2,0.1-0.1,0.7-0.1,1.2C70.6,294.2,68.9,294.7,69.3,292.6z M63.4,291.2c1.3,0.3,2.1,0.5,2.9,0.7c1.8,0.5,1.8,0.6,1.7,2.6
					c-0.4-0.5-0.7-1.1-1.2-1.7c-0.1,0.5-0.1,0.8-0.1,0.9C65.7,292.9,64.8,292.2,63.4,291.2z M65.1,286c0.6-1.2,1.1-0.7,1.6,0
					C66.2,286,65.8,286,65.1,286z M65.6,286.5c0.3,1,0.5,1.6,0.7,2.2c-0.1,0.1-0.2,0.3-0.2,0.4c-0.4-0.3-1.2-0.5-1.3-0.8
					C64.7,287.8,65.2,287.3,65.6,286.5z M63.8,285.9c-0.5-0.6-0.9-1.2-1.4-1.8C64.5,284.5,64.5,284.5,63.8,285.9z M61.3,293.4
					c0.2,0,0.4,0,0.6,0c0,0.5-0.1,0.9-0.1,1.4c-0.1,0-0.3,0-0.4,0C61.3,294.3,61.3,293.8,61.3,293.4z M61.1,290.2
					c0.8,0.3,1.2,0.4,1.5,0.6c0,0.1,0,0.3-0.1,0.4c-0.2,0-0.5,0.1-0.7,0C61.6,291.1,61.5,290.8,61.1,290.2z M61.1,286.7
					c0.9,0,1.6,0,2.3,0.1c0.2,0,0.4,0.6,0.3,0.8c-0.1,0.2-0.5,0.5-0.7,0.4C62.4,288,61.6,288,61.1,286.7z M76.6,284.8
					c-3.4-1.2-6.7-2.3-10-3.5c0.8-2.1,0.8-4-0.6-6c-1.1,1.8-2.8,3-1.5,5.5c-1.2-0.5-2-0.8-2.9-1.1c0.2-5.9,0.4-11.7,0.6-17.9
					c2.9,1,5.4,2,7.9,2.8c1,0.3,1.4,0.9,1.7,1.8c0.5,1.6,1.1,3.3,1.7,4.9c1.5,3.7,2.5,7.4,3,11.4C76.7,283.3,76.6,284,76.6,284.8z
					 M76.9,292.3c-1.3-0.6-2.6-0.5-3.5-1.5c-0.2-0.2-0.5-0.3-0.7-0.3c-1,0.5-1.7-0.2-2.5-0.4c-0.1,0-0.1-0.2-0.2-0.3
					c0.2-0.2,0.4-0.4,0.7-0.7c-0.5-0.9-0.9-1.7-1.6-2.9c2.9,0.9,5.4,1.8,7.8,2.5C76.9,290.1,76.9,291,76.9,292.3z M76.9,295.3
					c-0.7,0.3-1.4,0.5-1.8-0.7C75.9,295,76.4,295.2,76.9,295.3z M79.3,296.7c0-0.1,0.1-0.2,0.3-0.6c0.6,0.9,0.4,1.7,0.3,2.5
					C79.6,298,79.4,297.4,79.3,296.7z M87.5,292.2c2.2,0.7,2.9,1.7,2.7,4.7c-1-1.2-1.8-2.3-3-3.7c0.1,1.1,0.2,1.7,0.2,2.3
					c-1.4-0.9-3.1-1.1-3.6-3c-0.1,0.1-0.3,0.1-0.4,0.2c0,0.3,0.1,0.5,0.1,0.8c0,0.2,0,0.5,0,0.8c-2.6-0.6-2.6-0.6-3.4-1.9
					c-0.4,0.2-0.8,0.5-1.6,0.9c0.2-1.5,0.3-2.6,0.5-3.8C82.1,290.5,84.8,291.3,87.5,292.2z M92,289.9c-4.2-1.4-8.2-2.7-12.2-4
					c0-4.8,0-9.5,0-14.2c0.1-0.1,0.3-0.2,0.4-0.3c2.9,2.6,6.5,3.3,10.1,3.8c0.1,0.4,0.2,0.6,0.2,0.8c0.3,3.6,0.3,7.3,1.4,10.8
					C92.2,287.7,92,288.7,92,289.9z M94.3,296.9c0.2,0.2,0.3,0.4,0.5,0.7c-0.2,0.1-0.5,0.3-0.5,0.3c-0.2-0.2-0.3-0.4-0.4-0.6
					C93.9,297.1,94.1,297,94.3,296.9z M94.8,295.1c1.9,0.2,1.7,1.5,1.9,2.6C96.1,297,95.5,296.2,94.8,295.1z M96.8,291.6
					c-0.7-0.3-1.3-0.5-2-0.8c0.4-0.9,0.7-1.7,1.1-3C96.5,289.3,96.9,290.3,96.8,291.6z M111.3,300.8c0.9,0.6,0.9,0.6,0.6,1.7
					C111.6,301.8,111.4,301.3,111.3,300.8z M101.2,297.2c1.4,0.3,1.2,1,0.8,1.8C101.8,298.4,101.6,297.9,101.2,297.2z M113.6,279.8
					c-0.1,2.8-0.2,5.5-0.4,8.3c-0.2,2.5-0.5,5.1-0.7,7.6c0,0.1-0.2,0.2-0.3,0.3c-0.3-0.2-0.6-0.5-0.8-0.7c-0.3,0.2-0.6,0.6-0.8,0.6
					c-0.9-0.1-1.7-0.3-2.2-1.2c-0.5-1.1-1.3-2-2.6-2.5c0.3,0.8,0.7,1.6,1.1,2.8c-2.1-0.7-3.8-1.3-5.6-1.7c-1.1-0.3-1.6-0.9-1.7-2
					c-0.1-3.2-0.3-6.5-0.5-9.7c0-0.9-0.2-1.8-0.3-2.6c-0.2-1.7-0.3-3.4-0.5-5.1c0.5-0.1,0.7-0.1,0.9-0.1c4.3,1.4,8.7,2.8,13,4.1
					C113.2,278.1,113.7,278.7,113.6,279.8z M149.4,308.3c1.4,0.6,0.9,1.7,1.1,2.9C149.6,310.2,149.1,309.4,149.4,308.3z
					 M121.7,295.7c0-0.9,0-1.9,0-2.8c1.5,1.9,2.3,4,2.3,6.3C123.3,298,122.5,296.8,121.7,295.7c0.3,0.9,0.6,1.8,0.9,2.8
					C121.3,297.8,121.8,296.7,121.7,295.7z M157.9,294c-0.1,2.7-0.1,5.4-0.2,8.1c0,0.4-0.1,0.9-0.1,1.3c-1.2-1.5-1.7-3.3-3.4-4.8
					c0.5,2.7,1.2,4.9,1.2,7.2c-1.1-1.2-0.9-3.1-2.5-4.2c0.2,1.7,0.4,3.1,0.5,4.6c-1.8,0.1-2.6-0.7-3-2c-0.2-0.6-0.5-1.1-0.8-1.6
					c-0.1,0.1-0.2,0.1-0.3,0.2c0.1,0.9,0.2,1.7,0.3,2.6c-2.3,0.4-2.5-1.6-3.6-3c0,0.9,0,1.6,0,2.3c-1.8-0.2-1.1-2.2-2.3-2.8
					c-0.1,0.7-0.1,1.4-0.2,2.1c-0.1,0-0.3,0-0.4,0.1c-0.4-0.6-0.8-1.1-1.1-1.7c-0.2,0.4-0.4,0.8-0.6,1.2c-1-1-0.8-2.6-2-3.5
					c-0.1,1.1-0.1,2-0.2,2.8c-1.9,0.4-2.1-1.1-2.7-2.5c-0.3,0.8-0.5,1.2-0.7,1.8c-1.8-0.2-1.2-2.4-2.6-3.1c-0.1,0.8-0.2,1.6-0.2,2.3
					c-1.4,0.1-1.3-0.9-1.6-1.7c-0.2-0.8-0.5-1.5-0.8-2.2c-0.1,0-0.3,0-0.4,0.1c-0.1,0.7-0.2,1.5-0.3,2.6c-1.3-2.4-1.8-4.7-3.2-6.6
					c0.2,2.2,1.1,4.2,0.8,6.5c-0.5-0.4-0.9-0.8-1.1-1.3c-0.7-1.3-1.2-2.9-2.2-4c-2.2-2.5-3-5.2-2.3-8.5c0.3-1.4,0.3-2.8,0.4-4.3
					c1.6,0.5,3,0.9,4.4,1.3c9.6,2.7,19.3,5.3,28.9,8C158.1,291.8,158,291.7,157.9,294z M259.6,304.2c-1.6-1.3-1.5-2.6,0-4.8
					C259.6,301.1,259.6,302.5,259.6,304.2z M278.6,299.9c-0.1,1.8-0.2,3.5-0.3,5.2c-1-0.4-1.2-1.8-2.5-2c0.4,1.4,0.8,2.7,1.2,3.9
					c-1.9-1.2-3.2-3-5.3-4.2c0.4,0.9,0.7,1.5,1.1,2.5c-1.1-0.8-1.9-1.4-2.8-2c0,1.9,1.6,3.4,1,5.5c-0.5-0.6-0.9-1.1-1.2-1.4
					c-0.4-0.4-0.8-0.8-1.4-1.5c0.3,1.5,0.5,2.7,0.7,3.8c-0.1,0-0.3,0.1-0.4,0.1c-0.3-0.6-0.6-1.2-1-1.7c-0.7-1-1.4-2.1-2.2-3
					c-0.2-0.2-0.8-0.1-1.4-0.2c0.5-2,1-4.1,1.6-6.4C270,300.1,274.2,300.3,278.6,299.9z M340.1,306.5c-0.1,0.3-0.2,0.7-0.3,1
					c-0.2,0-0.3,0-0.5,0c-0.1-2.6-0.3-5.1-0.4-7.7c-0.1,0-0.2,0-0.3,0c-0.8,3-1.6,5.9-2.4,8.9c-0.1,0-0.2,0-0.4-0.1
					c0-2.4,0-4.9,0-7.3c-1.5,2-2,4.4-2.7,6.8c-0.9-2.4-2.1-4.7-4.2-6.8c0.1,2.5,1.2,4.5,1,6.6c-1-1.2-1.8-2.5-2.7-3.7
					c-0.9-1.2-2-2.2-3-3.3c-0.1,0.1-0.3,0.2-0.4,0.3c0.2,0.7,0.5,1.4,0.7,2.1c0.4,1.6,0.8,3.2,1.2,4.8c0.1,0.3-0.1,0.7-0.2,1.3
					c-0.6-1.3-1.1-2.3-1.6-3.3c-0.5-0.9-0.8-2-2-2.6c0.5,1.9,0.9,3.5,1.4,5.5c-1.6-0.9-2.4-2.4-4.1-2.7c0,0.7,0,1.3,0,2.2
					c-0.7-0.8-1.2-1.3-1.7-1.9c2.5-1.7,3.3-3.2,2.6-5.1c-1-2.7-3.5-2.8-6-2.7c-0.2-0.7-0.4-1.3-0.5-2c-0.2-2.5-0.4-5.1-0.6-7.6
					c-0.2-3.8,0.4-7.6,1.7-11.2c0.6-1.6,1.4-2.9,3.1-3.6c0.9-0.4,1.6-1,2.5-1.5c0.2-0.1,0.4-0.1,0.6-0.1c0.1,0.6,0.3,1.1,0.5,1.9
					c1.7-1.3,3.3-2.4,4.8-3.5c0.5-0.4,1.2-0.8,1.8-0.8c1.5-0.1,3,0,4.5,0c1.5,1.7,2.9,3.4,4.4,5.1c1.5,1.7,2.3,3.6,2.5,5.8
					c0.2,2.7,0.3,5.5,0.5,8.3c0.1,1.9,0.1,3.7,0.3,5.6C340.7,298.8,341,302.6,340.1,306.5z M373.4,304.6c-0.1-0.6-0.2-1.1-0.3-1.6
					c-0.1,0-0.2,0-0.4,0c-1,1.8-2,3.6-3.1,5.7c-0.7-2.1,0.3-3.7,0-5.6c-1,1.2-1.9,2.4-3,3.8c-0.2-1.1-0.4-2.1-0.5-3
					c-0.1-0.9-0.2-1.8-0.3-2.7c-0.1-0.9,0.1-1.8-0.9-2.9c-0.2,2.2-0.4,4.1-0.6,6.2c-1.5-1.4-1.7-3.6-3.5-4.8c0.4,2.3,1.1,4.3,1,6.6
					c-1.5-1.3-2.7-2.4-4-3.6c-0.1,0.1-0.2,0.2-0.3,0.2c0.2,0.7,0.4,1.3,0.7,2.3c-1.5-1.3-1.5-1.3-2.5-1.6c0.4,0.9,0.8,1.8,1.3,2.7
					c-1.2,0.5-1.5-0.1-1.7-0.9c-0.9-3-1.4-6-1.4-9.1c0-4.3,2.4-7.6,4-11.5c1.9,1.1,3.6,2,5.2,3c3.8,2.3,7.7,4,12.3,3.5
					c0.3,0,0.6,0.1,0.9,0.1C376.7,294.6,374.7,303.1,373.4,304.6z M388,297.5c-0.4,2.3-0.5,4.8-2.3,6.7c0.2-1.2,0.4-2.4,0.6-4
					c-2,1.5-2.1,3.6-3.2,5.4c-0.1-2.4-0.7-4.4,0.1-6.5c0.7-2,0.7-4.3,2.2-6c0.7,1.1,1.4,2,2,2.9C387.7,296.5,388.1,297.1,388,297.5z
					"/>
			</g>
		</g>
	</g>
</g>
</svg>
