<?xml version="1.0" encoding="utf-8"?>
<!-- Generator: Adobe Illustrator 27.3.0, SVG Export Plug-In . SVG Version: 6.00 Build 0)  -->
<svg version="1.1" id="Layer_1" xmlns="http://www.w3.org/2000/svg" xmlns:xlink="http://www.w3.org/1999/xlink" x="0px" y="0px"
	 viewBox="0 0 514.3 381.3" style="enable-background:new 0 0 514.3 381.3;" xml:space="preserve">
<style type="text/css">
	.st0{fill:#FBEECA;}
	.st1{fill:#0A6F37;}
</style>
<g>
	<g id="adYcR1_00000145761858034097551690000012917271492663284131_">
		<g>
			<path class="st0" d="M515,379.7c0-87-0.7-46.2-0.7-133.2c-6.8,1.7-13.7,3.3-20.5,5c-4.4,1.1-8.8,2.3-13.2,3.4
				c-0.7,0.2-1.4,0.4-1.8,1.3c-0.7,1.6-2,2.4-3.6,2.8c-5.4,1.4-10.8,2.8-16.2,4.2c-1.3,0.3-2.6,0.6-3.5,1.9c1.7,4,0.2,7.8-1.1,11.7
				c-1.3,0.2-2.7,0.4-4.2,0.7c-0.9-8.1-0.4-15.8,3.3-23.1c0.5,0.6,0.8,1,1.2,1.5c0.7-1.4,1.2-2.6,1.8-3.8c0.4,0.1,0.7,0.1,1,0.2
				c0.2-0.9,0.3-1.6,0.4-2.3c0.3,0.1,0.7,0.2,0.7,0.2c0.4-1.2,0.7-2.4,1.1-3.7c0.4,0.2,0.7,0.3,1.1,0.5c0.2-0.9,0.4-1.7,0.5-2.5
				c0.4,0.1,0.6,0.2,0.8,0.3c0.5-1.7,0.9-3.4,1.6-4.9c1.2-2.5,1.2-4.9-0.2-7.3c0-0.1,0.1-0.2,0.1-0.4c2.8,0.3,5.6,0.6,8.4,0.9
				c0.8,0.1,1.6,0.2,2.1-0.6c0.4-0.6,0.8-1.3,1.1-2c0.4-0.8,0.2-1.5-0.5-2c-0.5-0.4-1-0.7-1.6-0.9c-1.9-0.9-3.3-2.3-3.9-4.3
				c-0.4-1.3-0.8-2.3-2.3-2.9c-1.5-0.6-1.5-2.4-0.2-3.3c1.2-0.8,2.4-1.5,3.8-2.1c1.6-0.7,3.3-1,4.9-1.6c0.8-0.3,1.6-0.8,2.4-1.3
				c0.2-0.1,0.2-0.6,0.3-1.2c-3.1,1.5-5.9,2.7-9.1,2.7c0.2-0.7,0.3-1.3,0.5-2.2c-2.2,0.8-2.1,3.2-4,4.3c0.1-1.1,0.3-1.9,0.2-2.7
				c-0.2-1.9,0.7-2.7,2.3-3.4c1-0.4,2-0.9,2.5-2.1c-1.9-0.5-2.9,1.4-4.7,1.4c0-1.9,0-3.8,0-5.8c0-1.4,0.5-2.5,1.5-3.5
				c0.6-0.5,1.1-1.1,1.9-1.9c-2.4-0.4-2.9,1.6-4.2,2.3c-1.6-1-3.1-2.1-5.1-1.7c0.4,0.4,0.9,0.7,1.3,0.9c2.5,1.3,3,2.1,2.8,4.9
				c-0.1,1.9-0.1,3.9-0.2,5.8c-0.1,1.7-0.2,3.3-0.3,5c-0.1,1.1-0.6,2.1-1.8,2.5c-0.9-1.2,0-3.1-1.9-4.1c-0.1,1.5-0.2,2.7-0.2,4
				c-2.5-0.1-2.9-0.4-3.7-2.4c-0.2-0.6-0.5-1.2-1.4-1.1c-0.1,0.5-0.2,0.9-0.4,1.5c-2.1-1.3-4.3-2.2-5.8-4.2c0.4-0.5,0.8-1,1.1-1.5
				c0.8-1.1,1-2.4,0.8-3.7c0-0.3-0.5-0.6-1-1.1c-0.3,1.2-0.4,2-0.7,2.7c-0.8,2.2-2.3,2.8-4.3,1.7c-1.7-0.9-3.3-2-4.8-3.2
				c-0.8-0.6-1.3-1.6-1.8-2.5c-0.3-0.7-0.3-1.6-0.4-2.4c-0.1-0.8-0.3-1.5-1.5-1.3c0,1.5,0,3,0,4.6c-1.6-0.2-2.9-0.8-4.1-1.6
				c-0.3-0.2-1-0.3-1.2-0.2c-0.6,0.5-0.1,1,0.4,1.3c0.9,0.6,1.8,1.2,2.8,1.7c1.4,0.6,2.9,1.1,4.2,1.6c1,0.4,1.9,0.9,2.7,2
				c-1,0.2-1.8,0.3-3.1,0.6c0.6,0.5,0.9,0.9,1.2,1c0.7,0.1,1.6,0.1,2.3-0.1c1.1-0.3,2,0,2.9,0.5c3.3,2,6.6,4,9.8,6.1
				c1,0.6,1.8,1.4,2.8,2.1c-1.7,0.1-3.2-0.9-5.2-0.4c0.9,1.8,1.7,3.5,2.5,5.3c-2.1,3.4-5.4,5.6-9,7.4c-1.1,0.6-2.3,0.9-3.6,1
				c-2.2,0.2-4.2,0.9-5.8,2.5c-0.9,0.9-2,1.4-3.2,1.8c-2.4,0.9-4.8,1.8-7.1,3c-4.8,2.5-7.4,6.5-7.3,12.1c0.1,3.1,0.6,6.2,1.8,9.1
				c1.1,2.6,2.5,5.1,3.9,7.5c0.9,1.6,1.4,3.1,1.2,4.9c-0.2,2-0.3,4-0.5,6.1c-1.7,0.2-3.4,0.3-5.2,0.5c0-1.3,0-2.3,0-3.3
				c0-1.3-0.3-1.9-1.6-2.3c-1.8-0.6-3.7-0.5-5.5,0.3c-0.9,0.4-1.2,1.1-1.3,2c0,0.7-0.1,1.4-0.1,2.2c-1.5,0.1-2.9,0.2-4.4,0.3
				c0-0.4,0-0.6,0.1-0.8c0.3-0.5,0.6-1,0.9-1.4c2.5-3.1,1.7-3.4,0.1-5.2c-1.5-1.7-1.4-4-0.1-5.8c0.5-0.8,1.1-1.6,1.5-2.5
				c2.2-4.5,0.4-9.1-4.3-10.8c-1-0.4-2.1-0.7-3.2-0.7c-2.6,0-5.2,0.1-7.9,0.3c-3.7,0.3-7.4,0.8-11.1,1.1c-4.9,0.4-5.5-1.1-6.3-4.7
				c-0.6-2.3-0.9-4.7-2.9-6.7c3-0.9,4.2-3,4.5-5.7c-1.6-0.5-2.4,0.7-3.6,1.4c0.1-0.9,0.2-1.7,0.3-2.8c-2.5,1.7-5,2.9-5.7,5.7
				c-0.9,0.4-1.9,0.6-2.6,1.1c-1.7,1.4-3.6,2.2-5.8,2.4c-1,0.1-1.8,1.1-1.8,2c0.1,0.9,0.9,1.8,2,1.7c2-0.2,3.7,0.8,5.6,1.1
				c2,0.3,2.3,1.4,2.5,2.9c0,0.3,0.1,0.7,0.1,1c0.8,5.2,3.1,9.6,6.9,13.1c1.3,1.2,2.3,2.3,2.2,4.2c0,0.3,0.1,0.7,0.2,1
				c0.5,2.9-0.1,5.8-0.9,8.6c-0.4,1.3-1,2.5-0.7,3.9c-1.7,0.3-3.2,0.6-4.7,0.8c-0.7-2.1-1.5-2.9-3.7-2.8c-0.9,0-2.1,0.2-2.7,0.7
				c-0.8,0.6-1.1,1.7-1.6,2.4c-1.4,0-2.9-0.2-4.3-0.1c-1.5,0.1-3,0.5-4.4,0.8c-1-2.1-1.3-2.3-3.7-2.1c-1.2,0.1-2.3,0.3-3.5,0.6
				c-1.8,0.5-3.5,1.3-3,3.7c-3.3,0.1-6.2,0.7-8.9,2.6c-0.2-1.1-0.3-1.9-0.5-2.7c-0.1-0.4-0.5-1.1-0.8-1.1c-2-0.1-4.1-1.1-5.8,0.8
				c-0.2,0.2-0.7,0.3-1.1,0.3c-0.7,0.1-1.4,0-2.1,0.1c-2.5,0.3-3,0.7-3.3,3.3c0,0.1-0.2,0.2-0.1,0.1c-3.5,0.3-6.8,0.7-10.2,1
				c0-0.2-0.1-0.6-0.2-0.9c-0.4-2.2-1-2.7-3.2-2.6c-1.2,0-2.4,0.2-3.5,0.4c-2,0.5-2.8,1.6-2.6,3.6c0.2,2.7,0.4,5.4,0.6,8.1
				c0.1,0.7,0,1.5,0,1.9c-3.4,1-6.7,2-9.9,2.9c-1.5,0.5-3,1-4.5,1.4c-2.4,0.6-4.8,1.1-7.5,1.7c0.4-1.3,0.7-2.3,1-3.3
				c-0.1-0.1-0.2-0.1-0.3-0.2c-1,1.4-2,2.8-3.1,4.2c-0.1-0.1-0.3-0.1-0.4-0.2c0.5-1.8,0.9-3.7,1.4-5.5c-0.1-0.1-0.2-0.1-0.3-0.2
				c-1.2,1.8-2.5,3.6-3.9,5.7c0.2-2.4,0.4-4.4,0.5-6.4c-0.2,0-0.3-0.1-0.5-0.1c-0.6,1.5-1.3,3.1-1.9,4.6c-0.1,0-0.2,0-0.4,0
				c-0.5-2.9-1-5.8-1.4-8.7c-0.1,0-0.2,0-0.3,0.1c-0.4,3.1-0.8,6.3-1.2,9.4c-0.8-3.4-1.2-6.8-1.4-10.3c-1.2,2.6-1.9,5.3-2.2,8.2
				c-1.6-2.8-3.1-5.6-5.5-7.7c1.5,3.1,3.1,6.1,3.4,10c-1.3-1.9-2.3-3.4-3.4-4.9c-0.1,0.1-0.2,0.1-0.3,0.2c0.3,1,0.6,2.1,0.9,3.1
				c-1-1.3-2.3-2.3-3.5-3.3c-1.2-1-2.4-2.2-4-2.6c2.5,3.6,5.1,7.2,6.2,11.5c-1.4-1.5-2.6-3.2-4.7-4.5c0.8,1.7,1.4,3,2.1,4.3
				c-1.5-0.7-2.4-2.2-4.3-2.9c0.7,1.3,1.1,2.2,1.8,3.5c-1.7-0.8-3-1.4-4.6-2.1c0.4,1.2,0.6,1.9,0.8,2.6c-1.4-0.9-2.3-2.3-4.2-2.5
				c0.2,0.6,0.3,1.1,0.6,1.9c-0.8-0.4-1.4-0.7-2-1c0-1.3,0-2.6,0-4c-2.1,0.1-4,0.3-5.9,0.4c0-0.1,0-0.2-0.1-0.3c2-0.5,3.9-0.9,6-1.4
				c-0.1-0.6-0.1-1-0.1-1.3c0-0.2-0.2-0.3-0.3-0.5c-1.8,0.2-3.5,0.9-5.4,0.5c1.7-0.8,3.5-1.5,5.3-2.3c-0.6-1.2-0.4-2.6-1.9-3
				c-0.1,0-0.1-0.5-0.1-0.7c-0.1-0.3-0.3-0.7-0.6-1.1c-1.5,1.1-2.8,2.2-4.1,3.2c-0.1-0.1-0.2-0.1-0.2-0.2c0.9-1.7,1.8-3.3,2.7-5.1
				c-1.1-0.8-2.1-1.5-3.2-2.3c-0.8,1.3-1.5,2.4-2.2,3.6c-0.1-0.1-0.2-0.1-0.3-0.2c0.4-1.3,0.8-2.6,1.3-4c-0.9-0.3-1.7-0.6-2.5-0.8
				c-0.5,1.4-0.9,2.5-1.4,3.6c-0.1,0-0.2,0-0.3-0.1c0-1.3,0-2.5,0-3.7c-0.8-0.4-1.4-0.4-1.6,0.4c-0.2,0.6-0.3,1.2-0.4,1.8
				c-0.2,1.4-0.4,2.9-0.6,4.3c-1-2.3-0.9-4.7-2.1-6.9c-1.9,0.3-3.7,0.6-5.2,1.8c-1.4,1.1-2.7,0.9-4.1-0.1c-2.5-1.8-3.9-4.3-4.9-7
				c-0.8-2.3-1.4-2.6,1.2-4.2c0.1,0,0.1-0.2,0.1-0.4c-0.2-0.1-0.3-0.3-0.5-0.4c-1.6-0.4-3.5,0-4.9-1.4c-0.2-0.2-0.8,0-1.2,0
				c-0.5,0-0.9,0.1-1.7,0.1c-0.3-2.4-0.5-4.6-0.8-6.9c0-0.3,0.1-0.9,0.3-0.9c1.5-0.1,0.3-1.4,0.9-1.9c0.3,0.3,0.6,0.6,1.1,1
				c0.2-1.1,0.4-2.1,0.7-3.5c0.3,0.8,0.4,1.2,0.5,1.6c1.8-3.1,3.8-6,4.1-9.7c1.1,0.3,2.3,0.6,3-0.5c0.7-1,1-2.2,1.4-3.4
				c0.1-0.3-0.2-0.9-0.5-1c-2.1-1.4-3-3.7-4.4-5.7c-0.1-0.1,0-0.3,0-0.5c0.4-0.2,0.9-0.4,1.5-0.7c-0.5-0.3-1-0.6-1-0.6
				c0.4-1.1-0.5-1.1-1.1-1.6c-1.6-1.2-3.4-0.7-5.1-0.8c-1.1-0.1-2.3,0-3.3,0.5c-1.5,0.7-2.8,1.7-4,2.8c-2.4,2.2-3.7,5-4.5,8
				c-0.4,1.6-1.3,2.4-2.9,2.4c-2.4,0.1-4.8,0.1-7.2,0.2c-1.2,0-2.5,0.1-3.7,0.2c-3.1,0.4-5,2.2-5.8,5.2c-0.4,1.7-0.7,3.4-1.2,5
				c-0.4,1.2-0.8,2.5-1.5,3.6c-0.8,1.4-3,2-4.4,1.5c-1.3-0.5-1.8-1.3-1.8-3c1.4-0.7,1.4-0.7,1.9-2.5c-1.8-0.5-3.1,0.1-3.2,1.6
				c-0.1,1.9,0.4,3.6,2.1,4.7c1.4,1,3,0.9,4.5,0.2c2-0.9,3.1-2.5,3.8-4.4c0.2-0.5,0.4-1,0.6-1.5c0.7,1.5,1.1,3,1.2,4.5
				c0.2,1.7,0.1,3.4-1,4.9c-0.4,0.6-0.3,1.6-0.3,2.4c0,1.1,0.1,2.2,0.2,3.3c-2.4,0.3-4.6,0.5-6.7,1c-2.3,0.5-4.7,1.1-6.9,2.1
				c-1.6,0.7-2.8,2.1-4.3,3.3c-0.6-0.2-1.5-0.6-2.7-1c1.5-1.8,1-3.6,0.6-5.5c1-0.8,1.9-1.6,1.2-3.1c-0.7-0.1-1.4-0.3-2.2-0.5
				c-0.1-1-0.2-2-0.2-2.9c-0.1-3.9-2.2-6.8-5.8-8.3c-2.7-1.1-5.6-2.1-7.9-4.1c-0.4-0.4-1.1-0.6-1.7-0.8c-2.2-0.7-4.4-0.6-6.6-0.3
				c-3.4,0.6-5.7,2.6-6.9,5.9c-0.5,1.5-0.9,3-1.3,4.6c-0.2,0.6-0.3,1.2-0.7,1.7c-0.3,0.4-0.9,0.7-1.3,0.8c-0.3,0-0.8-0.6-0.9-1
				c-0.4-1.3-0.5-2.5,0.4-3.7c0.8-1,1.2-2.1,1.2-3.4c-2.3-0.3-2.8-0.1-2.9,1.2c0,2.3,0.1,4.5,0.3,6.8c0.1,0.9,0.8,1.4,1.6,1.7
				c1.4,0.4,2.6-0.2,3.2-1.8c0.4-1,0.7-2.1,1.1-3.1c0.9,1.9,1.4,3.8,1.8,5.7c0.2,0.8,0.3,1.9-0.1,2.6c-0.8,1.5-0.6,2.9-0.2,4.4
				c0.2,0.6,0.2,1.2,0.3,1.8c-2.1,0.8-4,1.4-6.2,1.1c0.2-0.7,0.4-1.3,0.6-2.3c-1.3,1-2.2,1.6-3.4,2.5c0.5-1.4,0.8-2.4,1.2-3.4
				c-0.1,0-0.2-0.1-0.2-0.1c-0.9,0.9-1.9,1.7-3,2.8c0-1.9,0-3.4,0-5.2c-1,1.1-1.5,2-1.7,3.1c-0.2,1-0.4,2.1-0.7,3.5
				c-0.9-1.4-1.5-2.4-2.2-3.4c-0.7-1-1.3-2-3.1-2.3c0.7,1.3,1.3,2.2,1.8,3.2c-0.1,0.1-0.2,0.1-0.3,0.2c-1-0.5-1.9-1.1-2.9-1.6
				c0.5,1.3,1.7,2.1,2.2,3.7c-1.8-1.1-3.2-2.1-4.7-3c-0.1,0.1-0.2,0.2-0.2,0.3c0.5,0.6,0.9,1.2,1.4,1.8c-2.8-0.7-5.3-1.8-6.8-4.4
				c-0.4-0.8-0.6-1.5-0.2-2.3c0.9-1.9,0.8-2.4-1-3.4c-2.7-1.5-5.5-2.5-8.6-2.8c-0.9-0.1-1.7-0.2-2.7-0.4c0.6-1.3,1.1-2.2,1.5-3.2
				c-0.1-0.1-0.2-0.2-0.3-0.3c-1.3,0.9-2.6,1.8-4.3,2.8c0.7-2,1.3-3.6,2.1-5.7c-2.3,1.4-3.4,3.3-5,4.8c0.7-1.7,1.4-3.3,2.1-5
				c-0.1-0.1-0.2-0.1-0.3-0.2c-0.9,0.8-1.8,1.6-3.2,2.8c0.8-2.5,1.5-4.6,2.2-6.7c-2.9,2.8-3.8,6.5-5.7,10.3
				c-0.2-3.7,0.3-6.9,0.9-10.1c-2,2.9-2.6,6.4-3.3,9.8c-0.1,0-0.3,0-0.4,0c-0.4-2.4-0.7-4.9-1.1-7.3c-0.1,0-0.2,0-0.3,0
				c-0.3,1.4-0.6,2.9-0.9,4.3c-0.1,0-0.2,0.1-0.4,0.1c-0.6-1.7-1.3-3.4-1.9-5.2c-0.1,0-0.3,0.1-0.4,0.1c-0.2,3.2,0.5,6.3,0.8,9.9
				c-2.5-2.5-3.5-5.5-5.5-7.9c0.4,2.4,0.9,4.8,1.3,7.2c-2.5-2.2-4.7-4.6-7.7-6c0.7,1.4,2,2.3,2.2,3.9c-1.8-1.7-3.5-3.4-6-4.9
				c0.7,1.9,2.2,2.9,3,4.8c-1.7-1-3-1.8-4.2-2.6c0.8,2.3,2.9,3.8,3.5,6.6c-2.1-1.8-3.8-3.5-6.2-4.2c0.9,1.2,2.2,2,2.7,3.6
				c-1.8-0.1-3.4-0.2-5.1-0.2c-6.4,0.1-12.7,0.2-19.1,0.3c-1.1,0-2,0.3-2.9,1c-0.5,0.4-1.2,0.6-1.8,0.6c-8.4-0.2-16.7-0.6-25.1,0.1
				c0,75.9,0.7,24.1,0.7,100H515z M139,287.4c-2.3,0.4-4.4,0.8-6.7,1.2c-0.5-4,1.3-7.2,2.2-10.6c1.7,0.5,2.7,1.4,3.1,2.9
				c0.1,0.4,0.2,0.9,0,1.2c-1,1.3-0.3,2.3,0.3,3.4C138.1,286,138.5,286.5,139,287.4z M145.3,287.2c-0.9,0-1.5,0-2.4,0
				c-0.2-0.9-0.5-1.7-0.8-2.7C144,285,144,285,145.3,287.2z M181.5,284c-0.8-0.1-1.5-0.2-2.1-0.2c-0.9-1.9-0.1-3.2,1-4.4
				C180.7,280.9,181.1,282.4,181.5,284z M201,281.6c-0.5,0.1-1,0.2-1.5,0.2c-3.3,0.4-6.7,0.8-10,1.2c-1.1,0.1-2.1,0.5-3.1-0.3
				c-0.2-0.2-0.7-0.1-1-0.1c-0.7,0.1-1.4,0.6-1.8-0.3c-0.3-0.6-0.6-1.3-0.5-1.9c0.1-1.7,0.4-3.4,0.5-5.1c0.2-2.1,1.1-3.6,3.2-4.6
				c4.1,2.3,8.4,1,12.9,0.2C200.1,274.6,200.5,278,201,281.6z M204.9,280.5c-1.6-0.4-1.7-0.8-1-3.3
				C204.3,278.5,204.6,279.5,204.9,280.5z M381.5,278.5c-0.9,0.1-1.6,0.2-2.6,0.4c0.8-2.9,1.6-5.5,2.4-8.6
				C382.1,273.3,382.1,275.9,381.5,278.5z M398.5,276.4c-0.2,1.8-0.3,3.7-0.5,5.7c-2.8-1.4-5.6-0.5-8.4-0.4
				c-0.1-0.4-0.2-0.6-0.2-0.9c-0.1-1.7-1.2-2.4-2.7-2.5c-1-0.1-2-0.2-3.2-0.3c0.6-3.1,1.2-6,1.9-9.1c3,0.9,5.9,1,8.7,0
				c1,1.2,2,2.2,2.9,3.3C398,273.4,398.7,274.7,398.5,276.4z M403.1,275.4c-0.1,1.7-0.4,3.4-0.7,5.1c-0.1,0.8-0.2,1.6-0.4,2.6
				c-0.8-0.2-1.3-0.3-2-0.5c0.5-3.6,1-7,1.5-10.7C403,272.8,403.3,274.1,403.1,275.4z M406.6,263.7c0.3-1.4,0.3-2.8,1.5-4.1
				C408,261.4,407.8,262.8,406.6,263.7z M433.3,278.6c-1.2-1.2-2.3-2.5-1.8-4.2c0.7-2.8,1.4-5.6,3.2-8c0.2-0.3,0.6-0.4,1.1-0.6
				C436.5,270.6,434,274.4,433.3,278.6z M446.4,277.8c-3.1,0.3-6.3,0.7-9.5,1c0-0.5-0.1-0.8,0-0.9c1.3-3.3,2.6-6.7,4.1-10
				c0.7-1.4,1.8-2.7,3.2-3.6C446.1,268.7,446.4,273.1,446.4,277.8z"/>
		</g>
	</g>
</g>
</svg>
