<svg width="673" height="983" viewBox="0 0 673 983" fill="none" xmlns="http://www.w3.org/2000/svg">
<g clip-path="url(#clip0_379_1429)">
<path d="M580.94 700.297C587.345 721.345 592.512 727.158 588.589 749.492C584.666 771.826 585.957 770.835 579.107 797.333C572.256 823.83 566.387 838.707 560.554 848.712C554.72 858.717 543.698 869.376 544.296 884.274C544.296 884.274 520.368 873.849 506.528 849.909C492.668 825.92 488.434 831.108 479.467 800.688C470.464 770.253 466.981 751.472 479.659 726.288C492.337 701.103 507.208 713.403 511.729 705.967C516.285 698.546 520.847 674.921 536.419 669.787C551.921 664.626 574.536 679.249 580.94 700.297ZM517.893 824.037C510.115 826.586 514.561 867.699 523.316 858.333C532.07 848.967 525.651 821.438 517.893 824.037ZM504.951 781.154C503.329 770.855 494.097 783.858 490.005 796.025C485.899 808.228 488.855 819.875 495.651 818.562C502.412 817.234 506.56 791.489 504.951 781.154ZM531.568 785.569C518.573 804.926 555.035 838.687 566.751 817.027C578.454 795.402 544.576 766.176 531.568 785.569ZM487.945 747.518C481.163 750.222 474.08 767.016 481.382 767.289C488.718 767.577 494.727 744.815 487.945 747.518ZM496.818 722.074C492.766 716.219 482.846 725.852 483.1 732.957C483.318 740.048 500.869 727.929 496.818 722.074ZM536.508 750.001C530.021 758.075 557.488 775.941 561.391 763.332C565.294 750.722 542.995 741.926 536.508 750.001ZM550.561 694.704C536.638 694.999 517.536 710.488 520.401 722.466C523.266 734.443 534.646 718.309 550.485 714.137C566.358 709.98 571.533 707.733 571.533 707.733C580.638 696.064 564.448 694.394 550.561 694.704Z" fill="#00805B"/>
<path d="M562.233 754.303C564.816 737.663 529.451 734.352 521.568 745.41C517.377 751.308 528.47 758.187 540.139 760.777C536.277 757.197 534.107 752.95 536.473 749.987C541.823 743.331 557.936 748.146 561.194 757.104C561.721 756.297 562.1 755.349 562.233 754.303Z" fill="#007052"/>
<path d="M588.603 749.457C592.526 727.123 587.358 721.31 580.954 700.262C574.55 679.214 551.921 664.626 536.398 669.738C535.787 669.942 535.246 670.174 534.706 670.405C539.803 675.172 545.083 679.483 546.172 682.768C548.896 691.025 528.339 685.817 520.743 706.03C519.522 709.288 519.838 712.061 521.32 714.567C525.391 704.59 539.615 694.887 550.624 694.647C564.546 694.352 580.701 696.008 571.61 707.642C571.61 707.642 566.435 709.889 550.562 714.046C543.457 715.928 537.229 720.197 532.294 723.272C546.834 730.798 570.053 736.989 577.917 751.128C588.772 770.618 567.801 768.99 555.53 783.587C565.738 790.643 573.28 804.979 566.8 817.006C563.711 822.693 558.944 824.533 553.798 823.859C555.293 827.348 556.663 831.764 557.464 837.907C560.849 863.653 549.201 850.932 542.981 866.687C541.051 871.616 541.592 877.696 543.284 883.747C543.937 884.049 544.274 884.225 544.274 884.225C543.663 869.362 554.685 858.703 560.532 848.663C566.366 838.658 572.235 823.781 579.085 797.283C585.957 770.835 584.644 771.776 588.603 749.457Z" fill="#007052"/>
<path d="M544.261 884.26C542.842 882.919 541.677 881.353 540.511 879.788C539.409 878.166 538.405 876.502 537.527 874.726C535.708 871.23 534.395 867.488 533.398 863.668C532.45 859.828 531.902 855.903 531.67 851.901C531.417 848.054 531.234 844.235 530.799 840.436C529.977 832.819 528.755 825.286 527.048 817.844C525.293 810.423 523.172 803.1 520.188 796.206L519.071 793.601L517.842 791.074C517.449 790.224 517.007 789.396 516.564 788.567L515.202 786.068C513.222 782.466 511.741 778.738 510.54 774.919C509.325 771.135 508.377 767.295 507.597 763.44C506.818 759.586 506.221 755.682 505.778 751.8C504.907 744 504.71 736.143 505.313 728.322C505.65 724.425 506.226 720.543 507.18 716.731C507.651 714.842 508.275 712.974 508.935 711.121C509.7 709.309 510.571 707.54 511.624 705.925C509.967 709.457 509.111 713.227 508.577 717.004C508.079 720.796 507.82 724.601 507.869 728.448C507.848 732.268 508.031 736.087 508.382 739.892C508.733 743.698 509.169 747.496 509.787 751.245C511.058 758.757 512.667 766.241 515.194 773.36C516.423 776.906 517.835 780.402 519.625 783.561C521.535 786.931 523.466 790.554 524.941 794.197C525.72 796.016 526.387 797.911 527.082 799.737C527.714 801.618 528.36 803.465 528.894 805.388C530.039 809.145 530.987 812.985 531.801 816.853C532.546 820.694 533.227 824.59 533.719 828.452C534 830.396 534.196 832.348 534.393 834.3C534.541 836.273 534.702 838.211 534.78 840.155C535.005 844.073 535.061 848.005 535.012 851.894C534.97 855.664 535.216 859.428 535.834 863.177C536.417 866.912 537.421 870.612 538.77 874.164C540.251 877.689 541.951 881.178 544.261 884.26Z" fill="#006A41"/>
<path d="M479.446 800.639C479.017 787.151 488.073 774.485 487.988 761.462C486.247 764.797 483.902 767.402 481.417 767.303C475.035 767.072 479.597 754.238 485.403 749.189C482.37 741.095 479.597 740.596 483.135 732.971C482.917 726.695 490.646 718.466 495.224 720.663C498.39 717.532 500.742 713.993 500.06 709.282C493.931 710.048 486.468 712.723 479.659 726.288C466.946 751.458 470.478 770.218 479.446 800.639Z" fill="#007052"/>
<path d="M494.627 724.7C486.757 730.633 478.03 736.264 469.079 741.032L461.831 703.155L459.166 745.863C439.607 754.654 419.934 758.636 406.187 752.487C383.783 742.427 404.803 732.225 409.056 701.838C413.308 671.452 420.756 651.912 437.275 625.983C442.119 618.351 445.629 612.222 448.549 606.753C456.511 613.52 467.029 620.618 477.181 621.909L457.507 589.649C460.918 583.358 464.927 576.695 471.126 568.017C487.736 544.812 504.473 536.969 524.439 514.74C544.405 492.511 551.77 498.225 551.77 498.225C551.77 498.225 569.12 519.497 580.55 530.014C591.981 540.53 601.143 536.865 601.143 536.865C590.422 530.175 562.743 485.145 562.743 485.145L594.483 469.009C605.821 462.752 618.22 454.762 632.893 447.396C635.175 461.136 640.316 479.439 651.592 487.898C651.592 487.898 646.191 459.963 649.672 439.855C658.49 436.337 668.038 433.233 678.64 430.958C716.222 422.818 739.87 450.437 739.87 450.437C752.214 470.277 754.652 502.566 739.551 523.524C724.5 544.461 696.663 562.647 696.663 562.647L678.477 534.81L683.879 572.519C683.879 572.519 671.312 587.853 656.499 601.678C641.7 615.468 573.257 661.676 572.547 657.85C571.838 654.023 553.343 618.001 553.343 618.001L560.633 661.677C560.725 661.55 522.372 703.79 494.627 724.7Z" fill="#84CF75"/>
<path opacity="0.41" d="M447.741 707.741C434.668 709.476 414.043 740.481 406.256 739.892C398.47 739.302 424.565 703.073 437.215 690.379C449.866 677.684 446.454 676.238 451.599 662.66C456.745 649.081 466.932 651.404 476.726 644.123C486.484 636.828 479.392 619.536 486.721 601.211C494.036 582.921 519.817 591.766 535.016 586.647C550.216 581.528 549.85 569.206 555.024 552.91C560.197 536.615 589.279 553.091 601.852 543.134C614.426 533.178 594.984 516.933 601.639 497.239C608.293 477.545 629.386 510.942 644.544 506.539C659.702 502.136 662.944 483.032 670.926 465.416C678.907 447.801 705.959 461.511 721.327 448.844C725.771 445.165 725.918 441.437 723.861 437.927C734.189 443.767 739.975 450.479 739.975 450.479C752.319 470.319 754.757 502.608 739.656 523.566C735.718 529.035 730.916 534.322 725.938 539.132C731.94 520.358 746.24 489.592 742.371 482.262C736.473 471.148 732.726 511.469 709.095 525.962C685.428 540.44 681.095 521.849 660.475 525.452C639.82 529.041 654.215 556.787 626.266 578.715C598.331 600.607 573.954 589.066 557.716 609.203C541.478 629.34 538.558 635.42 519.743 648.663C500.928 661.905 508.293 668.231 489.844 693.795C478.864 709.031 470.636 710.463 463.039 709.502L461.838 703.239L461.459 709.277C456.875 708.421 452.473 707.108 447.741 707.741Z" fill="#42B164"/>
<path d="M406.271 739.856C406.271 739.856 415.137 727.97 441.808 694.984C468.464 662.033 674.913 456.872 815.89 425.297C815.89 425.297 827.903 436.902 822.533 439.844C817.148 442.821 667.921 462.138 406.271 739.856Z" fill="#74D179"/>
<path opacity="0.41" d="M505 553.672C506.567 572.866 536.61 577.063 539.017 563.407C541.375 549.773 503.413 534.427 505 553.672Z" fill="#42B164"/>
<path opacity="0.41" d="M521.1 677.343C527.945 676.823 534.502 661.243 529.278 651.499C524.026 641.824 514.255 677.863 521.1 677.343Z" fill="#42B164"/>
<path opacity="0.41" d="M579.173 627.435C589.354 631.099 596.065 610.043 587.955 604.357C579.916 598.699 569.007 623.736 579.173 627.435Z" fill="#42B164"/>
<path opacity="0.41" d="M617.68 473.318C618.945 484.411 634.272 499.133 638.842 490.862C643.412 482.591 616.416 462.225 617.68 473.318Z" fill="#42B164"/>
<path d="M400.444 176.406C391.338 172.601 381.53 169.33 371.658 166.929L373.984 205.403L360.846 164.641C339.72 160.956 319.647 161.969 307.888 171.314C288.701 186.607 311.54 191.302 323.189 219.701C334.839 248.099 346.852 265.201 369.257 286.256C375.864 292.441 380.751 297.53 384.95 302.101C390.994 293.605 399.433 284.112 408.96 280.349L397.89 316.479C402.756 321.723 408.303 327.199 416.461 334.086C438.304 352.472 456.439 355.897 481.294 372.556C506.128 389.166 511.892 381.78 511.892 381.78C511.892 381.78 523.439 356.876 531.906 343.852C540.372 330.828 550.201 332.112 550.201 332.112C541.496 341.253 525.801 391.699 525.801 391.699L560.554 399.49C573.094 402.754 587.058 407.443 603.094 410.925C601.921 397.058 602.355 378.053 611.194 367.051C611.194 367.051 612.866 395.45 621.208 414.097C630.609 415.332 640.656 415.97 651.482 415.576C689.914 414.17 705.997 381.592 705.997 381.592C713.066 359.336 707.419 327.433 687.626 310.844C667.833 294.255 636.379 283.508 636.379 283.508L625.632 314.962L621.544 277.127C621.544 277.127 605.564 265.361 587.821 255.659C570.044 245.944 492.322 218.118 492.575 221.965C492.813 225.848 483.822 265.334 483.822 265.334L480.077 221.243C480.077 221.243 432.46 189.82 400.444 176.406Z" fill="#84CF75"/>
<path opacity="0.41" d="M359.177 204.449C346.091 206.016 318.441 181.072 311.048 183.572C303.655 186.072 337.877 214.743 353.267 223.912C368.657 233.08 365.723 235.327 374.078 247.22C382.399 259.098 391.757 254.331 403.005 258.992C414.253 263.653 411.656 282.16 423.283 298.09C434.911 314.019 457.707 299.07 473.686 300.249C489.666 301.427 492.349 313.454 501.434 328.001C510.499 342.498 534.565 319.384 549.225 325.899C563.871 332.448 549.023 352.978 560.37 370.424C571.682 387.856 583.854 350.294 599.643 350.826C615.433 351.359 623.291 369.079 635.339 384.159C647.423 399.253 670.261 379.313 688.27 387.737C693.48 390.187 694.561 393.795 693.445 397.706C702.024 389.491 705.962 381.578 705.962 381.578C713.031 359.322 707.384 327.419 687.591 310.83C682.445 306.492 676.47 302.596 670.481 299.142C680.936 315.865 702.4 342.121 700.442 350.174C697.473 362.384 683.892 324.254 657.402 316.063C630.912 307.871 631.299 326.961 610.412 328.584C589.525 330.207 596.607 299.771 564.107 285.429C531.607 271.088 510.868 288.325 490.149 272.832C469.429 257.338 465.111 252.15 443.591 243.951C422.093 235.801 427.653 227.804 403.486 207.592C389.079 195.559 380.766 196.185 373.619 198.986L373.998 205.368L372.145 199.618C367.89 201.5 363.93 203.866 359.177 204.449Z" fill="#42B164"/>
<path d="M311.062 183.537C311.062 183.537 322.598 192.874 356.559 218.224C390.556 243.589 641.265 391.334 785.691 387.078C785.691 387.078 794.466 372.874 788.533 371.316C782.622 369.807 633.282 387.979 311.062 183.537Z" fill="#74D179"/>
<path opacity="0.41" d="M452.752 339.56C449.522 320.555 477.611 309.067 483.299 321.725C489.001 334.348 455.983 358.565 452.752 339.56Z" fill="#42B164"/>
<path opacity="0.41" d="M437.776 215.727C444.565 214.533 454.767 228.02 452.079 238.712C449.412 249.455 431.022 216.935 437.776 215.727Z" fill="#42B164"/>
<path opacity="0.41" d="M506.414 249.774C515.359 243.7 527.071 262.473 520.619 269.951C514.202 277.443 497.47 255.848 506.414 249.774Z" fill="#42B164"/>
<path opacity="0.41" d="M581.785 389.576C580.267 378.504 591.472 360.467 597.952 367.375C604.447 374.248 583.316 400.612 581.785 389.576Z" fill="#42B164"/>
<path d="M400.499 384.181C399.958 384.005 399.397 383.78 398.856 383.605C400.534 383.38 402.177 383.141 403.855 382.917C403.806 382.938 403.792 382.973 403.742 382.994C402.296 384.166 400.197 384.426 398.512 383.752C397.634 383.401 396.792 383.065 395.984 382.538C395.668 382.208 395.338 381.913 395.022 381.583C394.587 381.043 394.299 380.439 394.159 379.772C393.969 379.33 393.899 378.894 393.962 378.431C393.885 377.708 393.997 377.02 394.299 376.367C394.538 375.974 394.755 375.531 394.994 375.138C395.324 374.822 395.619 374.492 395.949 374.176C396.489 373.741 397.093 373.453 397.76 373.313C398.42 373.088 399.073 372.982 399.796 373.109C400.07 373.137 400.33 373.2 400.575 373.298C400.814 373.312 401.074 373.375 401.32 373.474C401.39 373.502 401.425 373.516 401.495 373.544C401.601 373.586 401.706 373.628 401.846 373.684C402.057 373.769 402.303 373.867 402.513 373.951C404.233 374.639 405.574 376.275 405.778 378.107C405.799 378.156 405.785 378.191 405.806 378.241C404.746 376.921 403.721 375.615 402.661 374.295C403.173 374.541 403.735 374.765 404.247 375.011C404.893 375.229 405.434 375.608 405.883 376.113C406.375 376.513 406.74 377.026 406.979 377.651C407.267 378.255 407.386 378.872 407.337 379.504C407.393 380.178 407.295 380.831 407.007 381.449C406.768 381.842 406.579 382.214 406.34 382.608C405.821 383.296 405.119 383.829 404.332 384.166C403.918 384.286 403.504 384.405 403.09 384.524C402.198 384.616 401.341 384.518 400.499 384.181Z" fill="#004916"/>
<path d="M384.907 409.625C385.027 409.021 385.195 408.396 385.314 407.793C385.757 408.825 386.22 409.906 386.662 410.938C386.234 410.685 385.834 410.362 385.525 409.913C385.328 409.59 385.132 409.267 384.935 408.944C384.914 408.895 384.907 408.811 384.851 408.747C384.675 408.27 384.5 407.793 384.423 407.273C384.114 405.602 384.914 403.805 386.22 402.78C386.873 402.267 387.645 401.965 388.48 401.811C389.133 401.705 389.73 401.74 390.341 401.944C390.994 402.042 391.577 402.316 392.103 402.73C392.791 403.25 393.269 403.889 393.606 404.675C393.943 405.461 394.062 406.283 393.978 407.104C393.866 407.996 393.557 408.768 393.023 409.491C392.665 409.877 392.307 410.264 391.893 410.587C391.844 410.608 391.781 410.664 391.767 410.699C391.465 410.945 391.142 411.141 390.763 411.275C390.271 411.485 389.773 411.612 389.246 411.605C390.138 410.903 391.043 410.165 391.935 409.463C391.731 410.074 391.542 410.65 391.338 411.261C391.17 411.682 390.931 412.075 390.58 412.342C390.285 412.672 389.934 412.939 389.541 413.107C389.26 413.198 388.994 413.255 388.713 413.346C388.263 413.451 387.835 413.402 387.4 413.269C387.091 413.227 386.81 413.114 386.557 412.932C386.15 412.728 385.806 412.468 385.553 412.082C385.413 411.823 385.258 411.598 385.118 411.338C384.935 410.777 384.872 410.222 384.907 409.625Z" fill="#004916"/>
<path d="M420.881 395.63C421 395.637 421.134 395.609 421.232 395.567C420.783 395.672 420.354 395.827 419.905 395.932C420.053 395.869 420.186 395.841 420.347 395.743C419.961 395.995 419.554 396.199 419.168 396.452C419.329 396.354 419.456 396.241 419.582 396.129C419.252 396.445 418.908 396.796 418.613 397.126C418.754 396.978 418.859 396.817 418.964 396.655C418.712 397.084 418.508 397.491 418.255 397.919C418.375 397.723 418.445 397.547 418.494 397.322C418.382 397.807 418.248 398.242 418.136 398.727C418.417 397.617 418.459 396.901 419.231 395.988C419.245 395.953 419.294 395.932 419.322 395.862C418.971 396.74 418.62 397.617 418.269 398.495C418.276 398.376 418.269 398.291 418.276 398.172C418.298 398.628 418.283 399.071 418.291 399.562C418.276 399.394 418.262 399.225 418.213 399.043C418.333 399.457 418.473 399.92 418.592 400.334C418.564 400.201 418.487 400.089 418.445 399.99C418.663 400.363 418.901 400.784 419.119 401.156C418.88 400.735 418.557 400.32 418.368 399.878C418.059 399.225 417.953 398.572 417.982 397.891C417.904 397.168 418.017 396.48 418.318 395.827C418.557 395.434 418.775 394.992 419.013 394.598C419.407 394.023 419.947 393.587 420.565 393.264C420.93 392.962 421.358 392.808 421.794 392.738C422.453 392.513 423.106 392.408 423.83 392.534C424.279 392.632 424.749 392.78 425.199 392.878C426.076 393.229 426.835 393.776 427.424 394.542C427.459 394.556 427.445 394.591 427.481 394.605C427.656 394.879 428.049 395.525 428.176 395.819C428.197 395.869 428.218 395.918 428.239 395.967C428.26 396.016 428.267 396.1 428.288 396.149C428.428 396.613 428.59 397.125 428.695 397.575C428.723 397.708 428.73 397.792 428.723 397.912C428.73 398.403 428.759 398.944 428.766 399.435C428.773 399.519 428.759 399.554 428.766 399.639C428.639 398.733 428.499 397.862 428.372 396.957C428.358 396.992 428.393 397.006 428.379 397.041L428.4 397.09C428.506 397.54 428.66 397.968 428.766 398.417C428.787 398.873 428.794 399.365 428.78 399.807C428.78 399.807 428.766 399.842 428.752 399.877L428.738 399.913C428.625 400.397 428.513 400.881 428.366 401.352C428.323 401.457 428.302 401.612 428.26 401.717C428.036 402.279 427.706 402.798 427.39 403.283C427.313 403.374 427.256 403.514 427.144 403.592C426.976 403.809 426.723 404.034 426.533 404.202C426.33 404.406 426.112 404.645 425.923 404.813C425.859 404.869 425.81 404.891 425.761 404.912C425.361 405.199 424.891 405.459 424.434 405.684C424.322 405.761 424.188 405.789 424.09 405.831C423.627 405.972 423.114 406.133 422.616 406.26C422.532 406.267 422.482 406.288 422.398 406.295C421.647 406.442 420.98 406.379 420.264 406.134C419.541 406.007 418.888 405.705 418.305 405.228C417.694 404.821 417.259 404.28 416.95 403.627C416.529 403.052 416.304 402.392 416.213 401.704C416.191 401.247 416.184 400.756 416.163 400.299C416.283 399.288 416.634 398.411 417.244 397.596C417.574 397.28 417.918 396.929 418.248 396.613C419.126 396.15 419.975 395.757 420.881 395.63Z" fill="#004916"/>
<path d="M372.317 383.579C371.812 384.842 370.73 385.917 369.488 386.478C368.308 386.984 366.651 387.054 365.437 386.528C364.201 385.952 363.021 385.032 362.537 383.698C362.038 382.4 361.954 380.981 362.488 379.647C362.993 378.384 364.074 377.309 365.317 376.748C366.496 376.242 368.153 376.172 369.368 376.698C370.603 377.274 371.783 378.194 372.268 379.527C372.752 380.861 372.85 382.245 372.317 383.579Z" fill="#004916"/>
<path d="M394.822 432.688C394.316 433.952 393.235 435.026 391.993 435.588C390.813 436.093 389.156 436.164 387.942 435.637C386.706 435.062 385.526 434.142 385.042 432.808C384.543 431.509 384.459 430.091 384.992 428.757C385.498 427.493 386.579 426.419 387.822 425.857C389.001 425.352 390.658 425.281 391.873 425.808C393.108 426.383 394.288 427.303 394.772 428.637C395.257 429.971 395.341 431.389 394.822 432.688Z" fill="#004916"/>
<path d="M292.909 337.976C292.909 337.976 329.186 347.557 361.095 337.923C393.004 328.288 458.128 291.095 458.128 291.095C458.128 291.095 359.041 269.75 292.909 337.976Z" fill="#004916"/>
<path d="M484.209 282.184C485.867 284.557 432.319 286.392 377.02 244.446C376.985 244.432 453.013 237.498 484.209 282.184Z" fill="#004916"/>
<path d="M468.574 290.834C468.574 290.834 422.567 300.694 409.52 375.369C409.499 375.32 478.989 328.43 468.574 290.834Z" fill="#006D4B"/>
<path d="M458.659 372.543C458.659 372.543 506.2 304.782 497.078 282.688C497.043 282.674 451.081 326.024 458.659 372.543Z" fill="#004916"/>
<path d="M431.562 209.781C431.562 209.781 470.301 276.336 503.488 276.538C503.488 276.538 478.673 219.052 431.562 209.781Z" fill="#006D4B"/>
<path d="M511.541 278.496C511.541 278.496 474.503 331.604 491.348 375.315C491.348 375.315 526.813 301.095 511.541 278.496Z" fill="#006D4B"/>
<path d="M532.189 274.823C532.189 274.823 496.274 341.003 516.884 388.744C516.848 388.73 558.997 310.017 532.189 274.823Z" fill="#004916"/>
<path d="M527.668 272.892C527.668 272.892 485.857 248.027 460.06 199.311C460.06 199.311 500.283 209.004 534.576 271.298L527.668 272.892Z" fill="#004916"/>
<path d="M551.609 273.509C551.609 273.509 534.439 334.563 555.968 385.4C555.968 385.4 593.969 324.695 558.468 270.714L551.609 273.509Z" fill="#004916"/>
<path d="M552.149 266.151C552.149 266.151 505.907 223.958 501.453 178.892C501.453 178.892 545.329 217.532 560.714 264.283L552.149 266.151Z" fill="#006D4B"/>
<path d="M571.808 266.48C571.808 266.48 575.961 333.578 597.77 376.586C597.77 376.586 611.85 314.093 580.373 264.612L571.808 266.48Z" fill="#006D4B"/>
<path d="M573.878 261.403L585.076 257.941C585.076 257.941 604.451 209.496 568.614 164.095C568.628 164.06 560.382 223.471 573.878 261.403Z" fill="#004916"/>
<path d="M451.507 294.514C451.507 294.514 638.329 241.98 717.841 264.21C717.841 264.21 722.819 264.694 721.681 258.783C720.473 252.843 615.342 237.347 451.507 294.514Z" fill="#004916"/>
<path d="M265.268 697.27C265.268 697.27 317.043 636.332 331.452 555.809C345.875 475.251 472.146 384.534 565.922 359.899C659.663 335.251 757.965 382.993 746.178 402.386C734.391 421.778 711.47 454.96 678.586 468.968C645.701 482.977 613.469 491.383 590.503 485.782C590.503 485.782 576.128 424.491 569.999 436.047C563.871 447.604 586.606 478.726 569.988 483.319C553.356 487.946 492.922 518.505 478.685 534.759C478.685 534.759 465.489 479.274 460.211 491.863C454.918 504.487 465.788 539.822 460.782 542.055C455.777 544.288 411.253 584.344 411.253 584.344C411.253 584.344 395.081 537.931 392.091 547.037C389.1 556.143 392.88 595.361 392.88 595.361C392.88 595.361 309.562 682.734 265.268 697.27Z" fill="#008B3E"/>
<path opacity="0.39" d="M746.481 401.733C755.845 381.982 658.681 335.468 565.888 359.885C472.147 384.534 345.826 475.272 331.417 555.795C316.995 636.353 265.234 697.256 265.234 697.256C265.564 697.143 265.908 696.996 266.273 696.897C275.533 689.118 321.615 649.847 356.78 609.468C367.325 597.357 378.979 585.322 391.299 573.758C390.744 563.03 390.61 551.453 392.056 547.023C393.586 542.382 398.551 552.267 403.08 563.037C421.41 546.831 440.843 531.841 460.114 519.188C458.766 508.916 457.656 497.845 460.162 491.884C463.005 485.08 468.18 498.104 472.302 511.52C481.071 506.191 489.783 501.409 498.264 497.309C544.165 474.986 540.514 462.125 573.638 461.364C570.808 451.844 567.023 441.657 569.986 436.082C573.418 429.637 579.373 445.904 584.036 461.532C617.617 463.194 638.294 475.332 693.434 450.678C715.296 440.813 732.946 421.729 746.481 401.733Z" fill="#007000"/>
<path d="M266.055 697.136C265.149 697.873 264.623 698.274 264.623 698.274C265.058 698 265.549 697.586 266.055 697.136Z" fill="#08B859"/>
<path d="M529.956 377.44C428.535 418.644 350.018 484.238 331.452 555.809C313.588 624.811 279.639 685.263 266.041 697.171C273.356 691.301 307.146 663.525 322.562 639.639C339.902 612.776 352.897 597.287 352.897 597.287L351.139 556.272L365.007 589.1C365.007 589.1 395.637 550.491 422.308 532.165C424.091 530.964 425.811 529.82 427.503 528.745C425.003 514.634 420.016 477.213 432.181 453.615C432.181 453.615 427.985 496.892 435.591 523.795C455.438 512.35 471.347 507.596 494.585 492.661C522.73 474.517 522.73 474.517 522.73 474.517C522.73 474.517 523.106 415.949 528.084 423.967C533.062 431.984 538.674 459.394 538.674 459.394C538.674 459.394 542.71 444.313 570.856 444.697C588.914 444.956 607.78 453.885 628.835 456.32C628.968 442.65 632.034 413.092 654.296 392.351C654.296 392.351 642.152 431.269 647.04 456.515C653.296 455.841 659.741 454.387 666.46 451.74C703.859 436.931 754.013 396.235 745.826 384.124C737.604 372 631.391 336.2 529.956 377.44Z" fill="#08B859"/>
<g opacity="0.15">
<path d="M745.791 384.11C737.604 372 631.341 336.221 529.956 377.44C428.535 418.644 350.018 484.238 331.452 555.81C324.433 582.931 314.893 608.72 305.129 630.794C311.229 626.637 318.405 623.765 323.852 618.696C335.605 607.841 336.874 590.106 339.113 574.225C341.338 558.379 347.578 540.229 362.897 535.524C366.899 534.274 371.147 534.141 375.233 533.087C388.123 529.773 397.165 517.956 402.318 505.683C407.47 493.411 409.751 480.071 415.009 467.84C419.453 457.442 429.611 446.601 440.311 450.392C449.157 453.523 453.223 465.451 462.491 466.918C465.671 467.416 468.908 466.552 471.857 465.288C502.846 452.15 508.839 403.566 541.492 395.328C544.799 394.492 548.302 394.183 551.539 395.152C555.836 396.423 559.136 399.778 562.457 402.776C570.419 409.951 580.592 415.974 591.229 414.731C604.435 413.171 613.512 401.369 623.004 392.094C632.496 382.818 647.766 375.284 658.438 383.217C667.551 389.957 667.65 404.167 675.788 412.023C681.875 417.878 691.368 418.986 699.533 416.795C707.684 414.639 714.824 409.717 721.655 404.753C730.086 398.637 738.63 391.834 745.903 384.237C745.812 384.16 745.826 384.124 745.791 384.11Z" fill="#009551"/>
</g>
<path d="M264.608 698.309C264.608 698.309 305.227 637.471 333.502 546.612C363.728 449.449 504.434 359.699 602.529 353.283C699.592 346.903 798.673 398.296 802.303 407.241C805.969 416.199 792.005 422.097 792.005 422.097C792.005 422.097 704.576 342.992 569.335 370.711C569.335 370.711 382.197 415.382 333.974 567.731C300.806 672.554 264.608 698.309 264.608 698.309Z" fill="#92DA77"/>
<path opacity="0.15" d="M448.759 472.135C457.773 473.216 460.969 496.482 450.726 502.647C440.448 508.798 439.709 471.04 448.759 472.135Z" fill="#009551"/>
<path opacity="0.15" d="M621.636 408.038C630.721 411.59 628.911 429.353 616.498 435.953C604.086 442.554 612.551 404.486 621.636 408.038Z" fill="#009551"/>
</g>
<defs>
<clipPath id="clip0_379_1429">
<rect width="756.169" height="756.169" fill="white" transform="matrix(-0.371334 0.928499 0.928499 0.371334 280.791 0)"/>
</clipPath>
</defs>
</svg>
