<?xml version="1.0" encoding="utf-8"?>
<!-- Generator: Adobe Illustrator 27.3.0, SVG Export Plug-In . SVG Version: 6.00 Build 0)  -->
<svg version="1.1" id="Layer_1" xmlns="http://www.w3.org/2000/svg" xmlns:xlink="http://www.w3.org/1999/xlink" x="0px" y="0px"
	 viewBox="0 0 16 16" style="enable-background:new 0 0 16 16;" xml:space="preserve">
<style type="text/css">
	.st0{fill:#0A7A3E;}
</style>
<g>
	<path class="st0" d="M3.1,10.7c0.3,0.4,0.7,0.7,1.1,0.9c0.3,0.2,0.6,0.3,0.9,0.4c0.1,0,0.1,0.1,0.1,0.2c-0.2,0.3-0.5,0.6-0.7,0.8
		C4.4,13,4.4,13.1,4.3,13c-1.1-0.1-2.1-0.3-3-1c-0.6-0.5-0.8-1.1-0.8-1.9c0.1-1.6,0.5-3.1,1.1-4.5c0.7-1.7,2-2.7,3.9-3
		c0.1,0,0.3,0,0.4,0c0,0,0.1,0,0.1,0c0.1,0,0.2,0.1,0.2,0.1C6.1,2.8,6,2.8,6,2.8C5.2,3,4.5,3.3,3.9,3.6C3.6,3.8,3.3,4,3,4.2
		C6.3,2.8,9.6,2.8,13,4.2c0-0.1-0.1-0.1-0.1-0.1c-0.8-0.6-1.7-0.9-2.6-1.2c0,0-0.1,0-0.1,0c-0.1,0-0.2,0-0.2-0.1
		c0-0.1,0.1-0.2,0.2-0.2c0.2,0,0.4,0,0.6,0C12.7,3,14,4.1,14.7,5.8c0.5,1.3,0.8,2.6,1,4c0.1,1-0.3,1.8-1.2,2.4
		c-0.8,0.5-1.7,0.8-2.7,0.8c-0.1,0-0.2,0-0.2-0.1c-0.2-0.3-0.4-0.5-0.6-0.8c-0.1-0.2-0.1-0.2,0.1-0.2c0.7-0.2,1.3-0.6,1.9-1.1
		c0,0,0.1-0.1,0.1-0.2c-0.1,0-0.1,0.1-0.2,0.1c-1.1,0.7-2.3,1.1-3.7,1.2c-1.2,0.1-2.3-0.1-3.4-0.4C4.8,11.4,4,11.1,3.1,10.7
		C3.2,10.7,3.2,10.7,3.1,10.7z M10.4,7.2c-0.7,0-1.3,0.6-1.3,1.3c0,0.8,0.6,1.4,1.3,1.4c0.7,0,1.3-0.6,1.3-1.3
		C11.8,7.8,11.2,7.2,10.4,7.2z M7,8.6c0-0.7-0.6-1.4-1.3-1.4C5,7.2,4.4,7.8,4.4,8.5c0,0.7,0.6,1.4,1.3,1.4C6.4,9.9,7,9.3,7,8.6z"/>
</g>
</svg>
