<svg width="879" height="522" viewBox="0 0 879 522" fill="none" xmlns="http://www.w3.org/2000/svg">
<path d="M456.596 147.746C438.251 185.955 406.995 216.043 369.136 234.564C348.338 244.729 326.779 253.025 307.617 266.171C290.44 277.972 275.192 292.344 260.527 307.067C245.571 322.023 231.14 337.506 215.541 351.761C200.293 365.666 183.876 378.227 166.174 388.86C131.47 409.775 92.5601 423.855 52.5401 430.282C12.4032 436.767 -28.7852 435.832 -68.4547 426.66C-73.3622 425.55 -78.2114 424.264 -83.0605 422.862C-89.4286 421.051 -86.7412 411.119 -80.3146 412.93C-41.9889 423.855 -1.67679 426.66 37.8759 421.986C76.9026 417.37 115.228 405.218 149.698 386.406C166.992 377 183.35 365.899 198.365 353.163C214.373 339.609 228.979 324.419 243.643 309.462C258.249 294.564 273.03 279.725 289.505 266.813C297.743 260.328 306.331 254.311 315.387 249.053C325.436 243.269 336.069 238.478 346.585 233.687C366.274 224.807 385.436 215.342 402.087 201.321C417.452 188.409 430.656 172.927 440.822 155.575C443.334 151.31 445.613 146.929 447.774 142.43C449.001 139.918 452.565 139.275 454.785 140.56C457.297 142.196 457.765 145.234 456.596 147.746Z" fill="#005530"/>
<path d="M312.635 255.765C308.625 207.308 330.246 144.715 330.246 144.715C344.016 182.294 331.973 238.205 325 258.177C349.916 215.797 400.85 164.363 400.85 164.363C401.071 201.474 356.95 244.298 337.865 260.642C378.214 235.379 464.534 225.825 464.534 225.825C439.412 266.175 343.448 275.403 343.448 275.403L341.703 276.59C420.836 262.506 488.067 314.921 488.067 314.921C433.696 334.481 336.487 283.158 336.487 283.158L335.218 287.564C409.534 304.043 440.54 399.721 440.54 399.721C385.958 380.286 330.37 293.119 330.37 293.119L329.016 294.286C329.016 294.286 344.851 325.065 353.156 348.688C361.513 372.283 354.538 419.227 354.538 419.227C354.538 419.227 330.199 393.585 316.713 362.688C303.227 331.792 307.629 293.48 307.629 293.48C307.629 293.48 298.566 346.232 287.638 367.161C276.733 388.012 260.848 399.328 260.848 399.328C260.848 399.328 245.732 373.981 250.278 346.859C254.824 319.737 302.538 280.185 302.538 280.185C302.538 280.185 276.444 293.978 241.097 304.81C205.801 315.613 184.485 302.22 184.485 302.22C213.308 259.513 300.041 271.128 300.041 271.128C200.789 223.91 113.477 244.423 102.243 248.887C95.8824 251.405 99.8935 238.07 99.8935 238.07C160.129 204.062 301.688 267.984 301.688 267.984C276.852 236.116 251.69 163.505 251.69 163.505C296.612 190.071 312.635 255.765 312.635 255.765Z" fill="#67B058"/>
<path d="M801.772 45.7366C764.173 75.8615 714.374 95.0718 663.776 107.775C606.889 122.03 548.467 127.691 490.585 135.762C459.413 139.8 428.398 145.42 397.771 152.582C368.189 159.792 339.864 169.89 311.411 179.766C282.959 189.643 254.214 199.329 224.326 205.065C195.473 210.448 166.155 211.815 137.96 209.089C109.727 206.283 82.17 201.673 55.5882 195.307C28.8487 189.105 2.89081 181.595 -22.1268 172.825C-28.2243 170.707 -34.2411 168.512 -40.1775 166.24C-47.6952 163.389 -39.2365 154.605 -31.7813 157.428C15.9299 175.811 67.624 189.034 121.899 196.738C148.83 200.403 177.126 201.789 205.413 197.989C234.561 194.068 262.747 185.65 290.252 176.341C318.564 166.776 346.324 156.397 375.34 148.151C405.05 139.972 435.363 133.636 465.932 129.217C524.082 120.298 582.7 115.377 640.301 102.947C689.859 92.2788 739.678 76.0466 779.108 48.9873C784.007 45.6539 788.704 42.1544 793.206 38.5282C794.66 37.5767 796.501 37.0429 798.326 37.0432C800.151 37.0435 801.813 37.5778 802.95 38.5297C804.05 39.496 804.541 40.786 804.322 42.1295C804.102 43.4729 803.189 44.7656 801.772 45.7366Z" fill="#005635"/>
<path d="M283.663 183.794C291.667 175.614 299.437 166.442 306.273 156.86L263.799 142.839L313.342 146.227C326.429 125.078 333.965 102.994 328.941 86.285C320.703 59.0012 305.864 81.6695 270.226 81.9616C234.646 82.2538 211.043 87.8624 178.735 102.994C169.212 107.434 161.675 110.531 154.898 113.043C161.441 123.209 168.043 136.354 168.043 148.272L133.924 120.813C126.154 123.793 117.916 127.415 106.991 133.257C77.779 148.915 66.2696 166.909 37.7006 186.539C9.13156 206.17 14.6234 215.517 14.6234 215.517C14.6234 215.517 36.4737 238.653 46.8731 253.376C57.2724 268.098 51.6638 278.089 51.6638 278.089C45.5877 264.768 -2.02728 226.151 -2.02728 226.151L-25.3382 260.211C-34.277 272.305 -45.319 285.333 -55.952 301.108C-40.5283 305.84 -20.2554 314.487 -12.193 328.684C-12.193 328.684 -43.5079 318.284 -67.1693 319.277C-72.5443 328.859 -77.5103 339.433 -81.7752 351.235C-96.79 393.241 -68.6299 424.615 -68.6299 424.615C-47.7144 441.791 -10.9076 449.445 15.4413 435.248C41.7903 421.051 66.9123 391.781 66.9123 391.781L37.6422 366.717L80.1744 378.577C80.1744 378.577 99.6877 366.425 117.799 351.469C135.91 336.512 199.358 264.768 195.035 263.366C190.77 261.964 152.094 235.265 152.094 235.265L201.228 250.221C201.111 250.338 255.444 212.538 283.663 183.794Z" fill="#84CF75"/>
<path opacity="0.41" d="M271.219 127.298C275.192 112.517 313.926 93.4711 314.452 84.4155C314.978 75.3598 269.349 99.8976 252.815 112.576C236.282 125.195 235.171 121.105 218.755 124.961C202.396 128.817 203.506 140.911 193.632 151.077C183.759 161.242 164.947 150.434 142.804 156.101C120.662 161.768 126.971 192.732 118.792 209.441C110.613 226.151 96.5329 223.872 76.961 227.377C57.4476 230.883 71.995 266.813 58.6745 279.725C45.354 292.695 29.5797 267.865 5.91818 272.539C-17.7433 277.213 17.4861 306.483 10.1247 323.309C2.76337 340.076 -19.6713 340.894 -41.1126 347.437C-62.554 353.981 -50.8693 387.107 -67.7537 402.94C-72.6028 407.497 -76.9846 407.088 -80.7236 404.225C-75.5824 417.02 -68.7469 424.673 -68.7469 424.673C-47.8313 441.85 -11.0245 449.503 15.3244 435.306C22.2184 431.626 28.9954 426.893 35.3051 421.869C12.8121 425.958 -24.754 437.76 -32.5828 432.21C-44.4427 423.738 2.47122 425.549 22.6857 400.486C42.9002 375.481 22.1599 367.71 29.4044 344.516C36.6489 321.322 66.3864 342.062 95.8317 313.201C125.219 284.34 115.579 254.603 141.227 238.945C166.816 223.288 174.294 220.892 192.347 201.204C210.4 181.574 216.593 190.98 248.784 173.628C267.947 163.287 270.868 154.056 270.927 145.176L263.916 142.839L270.927 143.306C270.693 137.931 269.758 132.673 271.219 127.298Z" fill="#42B164"/>
<path d="M314.452 84.4739C314.452 84.4739 299.437 92.8869 257.489 118.593C215.6 144.299 -51.4534 350.826 -109 508.219C-109 508.219 -97.491 523.759 -93.2261 518.034C-89.0196 512.25 -44.3842 343.581 314.452 84.4739Z" fill="#74D179"/>
<path opacity="0.41" d="M85.4326 169.947C107.283 174.68 107.575 209.85 91.5086 210.551C75.5006 211.253 63.5823 165.273 85.4326 169.947Z" fill="#42B164"/>
<path opacity="0.41" d="M225.24 207.104C223.604 214.933 204.675 220.133 194.334 212.596C183.935 205.118 226.876 199.276 225.24 207.104Z" fill="#42B164"/>
<path opacity="0.41" d="M159.105 266.404C161.793 278.673 136.554 283.172 131.237 273.064C125.921 262.957 156.418 254.135 159.105 266.404Z" fill="#42B164"/>
<path opacity="0.41" d="M-23.9362 287.495C-11.3752 290.65 3.23068 310.455 -6.99341 314.487C-17.1591 318.459 -36.4972 284.34 -23.9362 287.495Z" fill="#42B164"/>
<path d="M185.804 323.075C185.863 322.841 185.863 322.607 185.921 322.374C185.863 321.497 186.096 320.679 186.447 319.92C186.68 319.16 187.148 318.459 187.732 317.875C188.316 317.232 188.959 316.823 189.777 316.59C190.536 316.181 191.354 316.006 192.231 316.064C192.815 316.122 193.341 316.239 193.925 316.298C194.977 316.59 195.911 317.116 196.729 317.933C197.08 318.342 197.372 318.81 197.722 319.219C198.307 320.212 198.599 321.264 198.599 322.432C198.657 322.666 198.657 322.899 198.716 323.133C198.774 324.009 198.54 324.827 198.19 325.587C197.956 326.405 197.489 327.047 196.846 327.632C196.262 328.274 195.561 328.683 194.801 328.975C194.042 329.384 193.224 329.56 192.348 329.501C191.763 329.443 191.238 329.326 190.653 329.268C189.543 328.975 188.608 328.391 187.849 327.632C187.498 327.223 187.206 326.755 186.856 326.346C186.096 325.295 185.804 324.243 185.804 323.075Z" fill="#004916"/>
<path d="M206.077 297.368C206.077 297.31 206.019 297.252 206.019 297.193C206.135 297.427 206.252 297.719 206.311 297.953C206.311 297.894 206.252 297.836 206.194 297.777C206.369 298.011 206.544 298.186 206.661 298.42C206.603 298.362 206.603 298.362 206.544 298.303C206.778 298.479 206.953 298.654 207.187 298.771C207.129 298.771 207.129 298.712 207.07 298.712C207.304 298.829 207.596 298.946 207.83 299.004C207.771 299.004 207.771 299.004 207.713 298.946C208.005 299.004 208.297 299.004 208.531 299.063C208.472 299.063 208.472 299.063 208.414 299.063C209.466 297.719 210.459 296.375 211.51 295.032C211.627 295.265 211.627 295.44 211.627 295.674C211.744 296.2 211.744 296.784 211.569 297.31C211.452 297.661 211.277 297.953 211.16 298.303C210.926 298.595 210.751 298.887 210.517 299.121C210.751 298.829 210.926 298.595 211.16 298.303C211.101 298.42 211.043 298.537 210.985 298.654C211.101 298.303 211.277 297.953 211.394 297.661C211.335 297.777 211.277 297.953 211.277 298.128C211.335 297.719 211.394 297.368 211.452 296.959C211.452 297.076 211.452 297.135 211.452 297.252C211.394 296.843 211.335 296.434 211.277 296.083C211.335 296.258 211.335 296.492 211.335 296.667C211.452 297.252 211.452 297.836 211.277 298.479V298.537C211.277 298.595 211.277 298.595 211.277 298.654C211.335 298.245 211.394 297.894 211.452 297.485C211.452 297.544 211.452 297.602 211.452 297.602C211.394 297.193 211.335 296.843 211.277 296.434C211.277 296.492 211.277 296.551 211.335 296.551C211.16 296.2 211.043 295.849 210.868 295.499C210.868 295.557 210.926 295.557 210.926 295.616C210.692 295.324 210.459 295.032 210.225 294.739C210.284 294.798 210.283 294.798 210.342 294.856C210.05 294.623 209.758 294.389 209.466 294.155C209.524 294.214 209.582 294.272 209.699 294.272C209.991 294.506 210.283 294.739 210.576 294.915C210.985 295.324 211.277 295.791 211.452 296.317C211.627 296.667 211.744 297.018 211.744 297.427C211.861 298.011 211.861 298.595 211.686 299.121C211.569 299.472 211.394 299.822 211.277 300.173C211.043 300.465 210.809 300.757 210.634 301.049C210.225 301.458 209.758 301.75 209.232 301.925C208.706 302.218 208.18 302.334 207.596 302.276C207.187 302.276 206.72 302.159 206.311 302.101C206.252 302.101 206.252 302.101 206.194 302.101C205.785 301.984 205.434 301.809 205.084 301.633C205.025 301.633 205.025 301.575 204.967 301.575C204.616 301.341 204.324 301.108 204.032 300.815C204.032 300.815 204.032 300.815 204.032 300.757C203.915 300.64 203.565 300.173 203.682 300.29C203.682 300.29 203.448 299.997 203.331 299.822L203.273 299.764C203.097 299.413 202.922 299.004 202.805 298.595C202.688 298.128 202.63 297.661 202.63 297.252C202.63 296.375 202.747 296.2 203.039 295.499C203.214 295.148 203.156 295.148 203.273 294.973C203.273 294.973 203.273 294.973 203.273 294.915C203.506 294.564 203.74 294.272 204.032 293.921C204.091 293.863 204.149 293.805 204.207 293.746C204.558 293.454 204.909 293.162 205.259 292.928C205.318 292.87 205.434 292.811 205.493 292.811C205.902 292.578 206.311 292.461 206.72 292.286C206.369 292.402 206.077 292.578 205.726 292.695C206.194 292.402 206.72 292.227 207.246 292.227C207.771 292.11 208.356 292.11 208.881 292.286C209.232 292.402 209.524 292.578 209.875 292.695C210.517 293.045 210.985 293.571 211.335 294.155C211.335 294.214 211.394 294.214 211.394 294.272C210.459 293.746 209.582 293.22 208.648 292.695C208.823 292.695 208.998 292.753 209.115 292.753C209.232 292.753 209.466 292.811 209.582 292.811C209.875 292.87 210.459 293.162 210.459 293.162C210.517 293.162 210.517 293.22 210.576 293.22C210.809 293.396 211.101 293.571 211.277 293.805C211.802 294.389 211.919 294.681 212.211 295.382C212.211 295.44 212.27 295.44 212.27 295.499C212.328 295.791 212.387 296.2 212.387 296.492C212.387 296.901 212.328 297.31 212.095 297.719C211.978 298.128 211.744 298.42 211.452 298.712C211.218 298.887 211.043 299.063 210.809 299.18C210.459 299.413 210.05 299.53 209.641 299.53C209.349 299.589 209.057 299.589 208.823 299.53C208.414 299.53 208.005 299.413 207.654 299.18C207.421 299.004 207.245 298.829 207.012 298.712C206.486 298.362 206.194 297.894 206.077 297.368Z" fill="#004916"/>
<path d="M168.452 322.549C168.978 322.491 169.504 322.491 170.088 322.432C168.744 323.484 167.342 324.535 165.998 325.529C166.174 325.12 166.349 324.652 166.524 324.243C166.758 323.893 167.05 323.601 167.284 323.25C167.693 322.783 168.219 322.432 168.803 322.257C169.387 321.965 169.971 321.848 170.614 321.848C171.257 321.848 171.899 321.965 172.425 322.257C173.009 322.432 173.535 322.783 173.944 323.25C174.411 323.659 174.762 324.185 174.937 324.769C175.229 325.353 175.346 325.938 175.346 326.58C175.288 326.989 175.229 327.398 175.171 327.865C174.937 328.683 174.528 329.384 173.944 329.969C173.594 330.202 173.301 330.495 172.951 330.728C172.191 331.137 171.432 331.371 170.556 331.371C170.147 331.312 169.738 331.254 169.27 331.196C168.628 331.02 168.102 330.787 167.634 330.319C167.109 329.969 166.7 329.56 166.407 328.976C166.232 328.567 166.057 328.158 165.882 327.69C167.225 328.742 168.628 329.793 169.971 330.787C169.445 330.728 168.92 330.728 168.335 330.67C167.751 330.67 167.225 330.553 166.758 330.319C166.232 330.144 165.823 329.852 165.414 329.443C165.005 329.092 164.713 328.625 164.538 328.099C164.304 327.632 164.187 327.048 164.187 326.522C164.246 326.171 164.304 325.762 164.363 325.412C164.538 324.711 164.888 324.126 165.414 323.601C165.706 323.367 165.998 323.192 166.232 322.958C166.992 322.724 167.693 322.549 168.452 322.549Z" fill="#004916"/>
<path d="M233.303 358.713C231.725 358.713 230.089 358.012 228.979 356.902C227.928 355.851 227.11 354.098 227.168 352.579C227.343 349.249 229.856 346.444 233.303 346.444C234.88 346.444 236.516 347.145 237.626 348.255C238.678 349.307 239.495 351.06 239.437 352.579C239.262 355.909 236.691 358.713 233.303 358.713Z" fill="#004916"/>
<path d="M872.863 222.587C871.285 222.587 869.649 221.886 868.539 220.776C867.488 219.724 866.67 217.971 866.728 216.452C866.903 213.122 869.416 210.318 872.863 210.318C874.44 210.318 876.076 211.019 877.186 212.129C878.238 213.181 879.055 214.933 878.997 216.452C878.822 219.782 876.251 222.587 872.863 222.587Z" fill="#004916"/>
<path d="M841.84 220.834C841.898 220.542 841.898 220.25 841.956 219.958C841.956 219.841 842.015 219.666 842.015 219.549C842.015 219.49 842.015 219.432 842.015 219.315V219.257C842.073 218.848 842.132 218.38 842.19 217.971C842.365 217.562 842.541 217.212 842.657 216.803C842.891 216.452 843.183 216.102 843.417 215.81C843.884 215.342 844.352 214.992 844.994 214.816C845.579 214.524 846.221 214.349 846.864 214.407C847.273 214.466 847.74 214.524 848.149 214.583C848.967 214.816 849.668 215.225 850.311 215.81C850.428 215.985 850.603 216.16 850.72 216.335C851.012 216.628 851.246 216.978 851.363 217.387C851.655 217.971 851.83 218.614 851.772 219.257C851.772 219.257 851.772 219.257 851.772 219.315C851.772 219.373 851.772 219.432 851.772 219.549C851.772 219.724 851.83 219.841 851.83 220.016C851.888 220.308 851.888 220.6 851.947 220.892C851.947 221.593 851.83 222.236 851.538 222.82C851.363 223.463 851.012 223.989 850.486 224.456C850.019 224.924 849.493 225.274 848.85 225.508C848.266 225.8 847.623 225.975 846.922 225.917C846.455 225.858 846.046 225.8 845.579 225.742C844.702 225.508 844.001 225.04 843.359 224.456C843.066 224.106 842.833 223.755 842.541 223.405C842.073 222.587 841.84 221.71 841.84 220.834Z" fill="#004916"/>
<path d="M759.713 233.535C759.713 233.535 729.134 240.424 702.796 231.364C676.407 222.332 623.049 189.172 623.049 189.172C623.049 189.172 706.326 174.402 759.713 233.535Z" fill="#004916"/>
<path d="M601.531 180.907C600.095 182.835 644.719 186.042 691.986 152.682C692.038 152.656 628.791 144.486 601.531 180.907Z" fill="#004916"/>
<path d="M614.392 188.589C614.392 188.589 652.497 198.265 661.438 261.139C661.438 261.139 604.67 219.744 614.392 188.589Z" fill="#006D4B"/>
<path d="M620.488 257.278C620.488 257.278 582.61 199.127 590.818 180.929C590.818 180.929 628.04 218.629 620.488 257.278Z" fill="#004916"/>
<path d="M647.389 121.959C647.389 121.959 613.305 176.455 585.62 175.593C585.62 175.593 607.839 128.296 647.389 121.959Z" fill="#006D4B"/>
<path d="M578.846 176.996C578.846 176.996 608.315 222.593 593.148 258.607C593.148 258.607 565.494 195.424 578.846 176.996Z" fill="#006D4B"/>
<path d="M561.704 173.241C561.704 173.241 589.89 229.701 571.452 269.053C571.504 269.027 538.384 201.898 561.704 173.241Z" fill="#004916"/>
<path d="M565.499 171.803C565.499 171.803 601.046 152.275 623.891 112.285C623.891 112.285 590.071 119.141 559.806 170.211L565.499 171.803Z" fill="#004916"/>
<path d="M545.505 171.564C545.505 171.564 558.205 223.148 538.915 265.047C538.915 265.047 508.78 213.084 539.851 169.031L545.505 171.564Z" fill="#004916"/>
<path d="M545.261 165.374C545.261 165.374 584.969 131.521 589.923 93.9531C589.923 93.9531 552.264 124.903 538.206 163.567L545.261 165.374Z" fill="#006D4B"/>
<path d="M528.846 165.059C528.846 165.059 523.631 221.052 504.273 256.341C504.273 256.341 494.144 203.623 521.765 163.199L528.846 165.059Z" fill="#006D4B"/>
<path d="M527.27 160.743L518.026 157.503C518.026 157.503 503.175 116.376 534.218 79.5096C534.27 79.4827 539.552 129.447 527.27 160.743Z" fill="#004916"/>
<path d="M628.528 192.256C628.528 192.256 474.019 142.528 407.092 158.634C407.092 158.634 402.941 158.876 404.021 153.974C405.153 149.046 493.284 139.328 628.528 192.256Z" fill="#004916"/>
<path d="M577.649 169.597C593.014 196.53 602.245 196.355 597.338 235.79C592.43 275.226 574.67 273.824 581.68 294.272C581.68 294.272 576.89 278.79 549.723 280.017C522.614 281.244 485.808 279.549 460.569 266.17C435.33 252.792 426.975 261.555 403.372 226.968C379.769 192.323 353.187 195.361 375.913 168.954C398.64 142.547 420.899 153.939 424.697 138.866C428.494 123.793 432.175 97.0933 456.07 85.9928C479.965 74.8924 496.441 90.2577 521.446 108.486C546.393 126.714 562.284 142.664 577.649 169.597ZM485.749 96.6259C494.513 85.7591 469.683 87.6871 463.49 99.1965C457.297 110.706 485.749 96.6259 485.749 96.6259ZM524.016 127.532C522.965 116.724 482.945 124.611 486.976 136.587C491.066 148.506 525.068 138.34 524.016 127.532ZM416.109 176.199C429.02 158.671 409.799 155.575 390.636 178.769C371.531 201.905 403.139 193.784 416.109 176.199ZM461.679 171.233C448.183 151.193 427.384 199.334 426.858 222.295C426.333 245.255 439.653 246.891 439.653 246.891C452.565 245.956 475.175 191.272 461.679 171.233ZM491.942 196.647C482.77 194.193 484.055 210.61 484.113 220.308C484.172 230.006 479.381 233.395 476.226 246.014C473.071 258.634 480.608 262.548 480.608 262.548C501.582 255.362 501.114 199.1 491.942 196.647ZM528.398 222.295C521.796 220.483 523.724 234.33 518.934 248.468C514.143 262.548 517.707 264.242 517.707 264.242C528.924 265.82 535 224.164 528.398 222.295ZM444.385 110.589C434.512 112.692 433.051 143.306 443.1 138.165C453.149 132.965 454.259 108.486 444.385 110.589ZM554.806 218.906C555.331 230.182 578.876 244.028 578.876 244.028C586.938 247.475 590.619 223.58 584.076 210.026C577.532 196.413 554.28 207.63 554.806 218.906ZM554.689 154.523C542.069 148.331 516.071 165.04 518.7 175.381C521.329 185.721 563.627 173.862 563.627 173.862C569.996 170.006 567.308 160.716 554.689 154.523Z" fill="#00805C"/>
<path d="M554.572 257.874C546.626 256.122 536.811 255.829 526.236 256.063C523.958 261.204 521.037 264.71 517.648 264.242C517.648 264.242 515.545 263.249 516.772 256.355C507.074 256.764 497.142 257.29 487.911 257.29C485.866 259.744 483.412 261.613 480.608 262.548C480.608 262.548 477.745 261.029 476.284 256.881C461.562 255.829 450.052 252.266 446.489 242.509C444.093 245.138 441.698 246.715 439.595 246.832C439.595 246.832 426.274 245.196 426.8 222.236C426.975 215.05 429.137 205.41 432.409 196.179C428.319 192.615 422.243 190.571 413.012 190.278C408.63 190.162 404.015 190.045 399.341 189.87C390.986 194.018 383.683 194.427 384.735 188.759C378.484 188.058 372.525 186.948 367.208 185.137C367.266 196.413 386.079 201.554 403.314 226.91C426.917 261.555 435.33 252.791 460.51 266.112C485.749 279.491 522.556 281.127 549.664 279.958C559.538 279.549 566.432 281.302 571.222 283.697C572.975 272.714 570.346 261.321 554.572 257.874Z" fill="#007957"/>
<path d="M531.144 115.847C505.671 121.982 477.687 128.116 466.002 121.047C455.194 114.562 451.396 102.585 449.234 89.9072C451.279 88.4466 453.558 87.1029 456.012 85.9928C479.907 74.8924 496.382 90.2577 521.387 108.486C524.834 110.998 528.048 113.452 531.144 115.847ZM463.49 99.1965C457.297 110.647 485.749 96.6259 485.749 96.6259C494.513 85.8176 469.683 87.7455 463.49 99.1965Z" fill="#007957"/>
<path d="M568.827 204.475C536.694 201.087 500.18 197.698 496.557 171.174C492.059 138.282 523.724 138.165 550.073 132.556C560.414 143.014 569.119 154.64 577.649 169.597C588.282 188.234 595.994 193.901 598.097 208.682C592.897 207.455 586.938 206.52 580.629 205.761C577.298 203.541 572.975 203.365 568.827 204.475ZM563.627 173.803C569.996 170.006 567.308 160.658 554.747 154.465C542.186 148.272 516.129 164.981 518.758 175.322C521.329 185.663 563.627 173.803 563.627 173.803Z" fill="#007957"/>
<path d="M461.678 171.232C466.995 179.178 466.703 192.498 463.548 205.761C472.312 193.492 477.628 169.947 469.741 157.678C463.022 147.279 452.506 156.86 446.196 171.057C451.454 165.507 457.005 164.28 461.678 171.232Z" fill="#006A41"/>
<path d="M549.138 267.397C532.663 251.74 518.817 272.363 504.269 273.24C489.663 274.174 474.999 269.267 465.71 261.964C456.362 254.603 448.65 257.582 439.711 255.245C430.773 252.908 419.906 225.566 414.998 211.019C410.091 196.471 403.606 202.022 383.976 203.365C383.274 203.424 382.573 203.424 381.931 203.424C388.299 208.916 396.011 216.102 403.431 226.968C427.034 261.613 435.447 252.85 460.627 266.17C485.866 279.549 522.673 281.185 549.781 280.017C552.41 279.9 554.864 279.958 557.084 280.134C555.507 275.46 552.994 271.078 549.138 267.397Z" fill="#006A41"/>
<path d="M577.649 169.597C562.284 142.664 546.451 126.655 521.446 108.486C496.441 90.2577 479.966 74.8924 456.07 85.9928C455.077 86.4602 454.142 86.9276 453.208 87.4534C458.758 85.5254 463.432 84.8244 465.535 86.6355C467.814 88.6219 468.223 91.1925 468.339 93.9968C477.512 87.4534 493.052 87.6871 485.808 96.6259C485.808 96.6259 475.876 101.533 469.04 103.169C469.858 105.798 471.67 108.311 475.467 110.531C487.97 117.717 525.536 107.434 529.625 123.033C533.715 138.632 512.098 134.367 529.392 151.661C531.32 153.589 533.189 155.225 535 156.627C541.894 153.355 549.489 151.894 554.806 154.523C566.374 160.191 569.529 168.487 565.088 172.752C568.068 174.913 571.048 177.659 574.086 181.457C581.155 190.337 581.33 199.334 582.382 207.338C583.083 208.098 583.667 208.974 584.193 210.026C585.712 213.122 586.647 216.803 587.172 220.6C589.276 223.171 592.314 225.391 596.929 227.261C597.397 227.436 597.806 227.611 598.273 227.728C600.785 196.296 591.846 194.543 577.649 169.597Z" fill="#006A41"/>
<path d="M420.724 145.526C429.429 141.144 439.536 139.509 449.468 140.443C454.434 140.969 459.283 142.254 463.957 144.066C465.126 144.533 466.294 145 467.404 145.526L470.676 147.279C471.786 147.805 472.838 148.506 473.889 149.148C474.941 149.791 475.993 150.434 477.044 151.076C493.578 161.943 507.541 175.789 520.57 190.278C526.996 197.64 533.189 205.118 538.915 213.122C544.465 221.184 549.606 229.422 554.514 237.777C559.421 246.131 564.095 254.661 568.535 263.249C570.697 267.573 572.858 271.896 574.903 276.336C575.897 278.556 576.89 280.776 577.766 282.996C578.233 284.106 578.642 285.275 579.051 286.385C579.402 287.553 579.811 288.722 579.928 289.89C579.694 288.722 579.168 287.612 578.701 286.502C578.175 285.392 577.649 284.34 577.123 283.288C576.013 281.127 574.845 279.024 573.676 276.92C571.281 272.714 568.886 268.566 566.374 264.418C561.408 256.122 556.325 247.942 551.183 239.763C545.925 231.642 540.726 223.521 535.059 215.809C529.392 208.156 523.199 200.678 516.83 193.55C510.462 186.306 503.86 179.353 496.908 172.693C490.014 166.033 482.653 159.782 474.941 154.231C473.948 153.53 472.955 152.888 471.961 152.245C470.968 151.602 469.975 150.901 468.923 150.375L465.827 148.564L462.672 146.987C458.407 145 453.85 143.54 449.176 142.78C439.77 141.32 429.838 142.196 420.724 145.526Z" fill="#006A41"/>
<path d="M-18.6779 306.482C1.0692 297.135 27.3013 315.713 38.5186 318.751C49.7359 321.731 52.7739 296.142 88.2369 308.819C123.7 321.497 137.605 342.939 157.001 380.622C176.339 418.363 167.517 417.253 176.222 453.184C184.928 489.114 171.373 521.247 171.373 521.247C158.228 506.29 137.78 506.115 122.882 501.85C107.984 497.527 88.6458 488.588 57.5646 469.25C26.4834 449.912 28.6451 449.678 4.28252 431.684C-20.08 413.748 -20.489 403.348 -33.6343 377.058C-46.8964 350.826 -38.4834 315.889 -18.6779 306.482ZM167.693 476.903C184.811 477.897 151.217 434.079 141.344 438.753C131.47 443.368 150.633 475.91 167.693 476.903ZM157.819 412.93C165.589 407.964 157.702 393.942 142.512 385.938C127.322 377.934 106.407 373.903 114.352 385.296C122.298 396.747 150.049 417.896 157.819 412.93ZM87.5942 476.962C118.851 487.128 123.057 420.875 92.6186 414.098C62.2385 407.321 56.3377 466.796 87.5942 476.962ZM124.343 350.183C131.178 343.172 108.802 333.474 99.8047 337.096C90.7491 340.719 117.507 357.194 124.343 350.183ZM91.0412 318.518C84.7315 311.448 66.2697 311.273 67.7303 320.621C69.2493 330.027 97.4094 325.645 91.0412 318.518ZM43.3093 420.057C58.733 428.646 68.8403 386.055 55.1108 384.244C41.3813 382.433 27.8855 411.469 43.3093 420.057ZM-17.7431 375.597C-17.7431 375.597 -10.6739 373.027 8.54738 362.394C27.7102 351.819 53.5918 356.96 45.3541 342.705C37.1164 328.45 4.34093 331.137 -9.38857 343.64C-23.1765 356.259 -37.2565 372.735 -17.7431 375.597Z" fill="#00805B"/>
<path d="M34.1367 412.112C16.3176 398.383 47.4573 362.628 65.2764 366.075C74.7994 367.886 70.3593 384.77 61.4789 398.032C61.8879 390.963 60.0767 384.887 55.1107 384.244C43.7766 382.725 32.6761 402.239 37.759 413.923C36.5321 413.573 35.3052 412.989 34.1367 412.112Z" fill="#007052"/>
<path d="M4.22433 431.742C-20.1382 413.806 -20.5472 403.407 -33.6924 377.116C-46.8961 350.826 -38.4832 315.889 -18.6777 306.541C-17.9182 306.19 -17.1586 305.898 -16.3991 305.606C-16.9249 314.896 -18.0934 323.951 -16.107 328.158C-11.141 338.615 3.99065 314.662 29.9306 327.223C34.1371 329.268 36.3572 332.247 37.2336 335.986C24.0883 330.086 1.42001 333.825 -9.44675 343.757C-23.1762 356.318 -37.3147 372.793 -17.8013 375.656C-17.8013 375.656 -10.7321 373.085 8.48921 362.452C17.0774 357.72 27.0094 356.142 34.6629 354.565C27.5352 375.247 10.7678 402.647 16.2011 423.563C23.6209 452.424 42.4916 431.509 67.7889 434.313C64.4004 450.555 70.3596 471.353 87.6529 477.02C95.8906 479.708 102.2 477.079 106.524 471.645C108.335 476.436 111.022 481.928 115.93 488.647C136.378 516.631 135.911 493.613 156.476 503.136C162.902 506.115 167.927 512.542 171.899 519.962C171.549 520.838 171.374 521.364 171.374 521.364C158.228 506.407 137.78 506.232 122.882 501.967C107.984 497.644 88.6461 488.705 57.5648 469.367C26.4836 449.97 28.5869 449.678 4.22433 431.742Z" fill="#007052"/>
<path d="M171.315 521.305C171.432 518.735 171.139 516.106 170.789 513.535C170.38 510.964 169.796 508.394 169.036 505.881C167.576 500.857 165.414 496.008 162.843 491.392C160.214 486.835 157.118 482.454 153.671 478.422C150.341 474.45 147.069 470.594 143.972 466.504C137.78 458.383 131.996 449.97 126.796 441.207C121.655 432.443 116.981 423.388 113.476 413.923L112.132 410.418L110.963 406.854C110.554 405.685 110.204 404.458 109.912 403.232L108.918 399.551C107.516 394.234 105.53 389.268 103.193 384.478C100.856 379.687 98.227 375.13 95.4227 370.69C92.6184 366.25 89.6388 361.926 86.4255 357.778C80.0573 349.424 73.0465 341.653 65.2178 334.643C61.3034 331.196 57.1554 327.924 52.7152 325.12C50.4951 323.717 48.2166 322.491 45.8212 321.322C43.4259 320.27 40.9721 319.394 38.4599 318.81C43.309 320.679 47.5739 323.542 51.6052 326.697C55.5779 329.91 59.317 333.357 62.8224 337.096C66.3278 340.777 69.7164 344.633 72.8713 348.664C76.0261 352.695 79.1226 356.727 81.9853 360.933C87.6524 369.404 93.0273 378.11 97.117 387.282C99.2202 391.839 101.031 396.513 102.2 401.187C103.485 406.211 104.887 411.469 106.874 416.377C107.808 418.889 108.918 421.284 109.912 423.738C111.022 426.134 112.132 428.529 113.359 430.866C115.696 435.598 118.325 440.155 121.071 444.595C123.933 449.036 126.796 453.417 129.951 457.565C131.47 459.727 133.106 461.772 134.683 463.817C136.377 465.861 137.955 467.906 139.708 469.834C143.096 473.807 146.66 477.663 150.282 481.402C153.788 484.966 157.059 488.88 159.922 493.087C162.843 497.235 165.239 501.733 167.225 506.407C169.153 511.198 170.73 516.164 171.315 521.305Z" fill="#006A41"/>
<path d="M157.001 380.68C144.966 367.243 124.576 363.328 112.6 350.651C117.39 352.286 122.006 352.637 124.343 350.242C130.302 344.107 114.06 335.928 103.836 336.395C99.2792 325.762 101.558 322.724 91.0999 318.635C85.4912 312.383 70.4764 311.507 68.0227 317.875C62.0635 317.758 56.5133 316.473 52.8326 311.332C59.4344 306.424 69.1327 302.159 88.2371 308.995C123.7 321.556 137.605 342.939 157.001 380.68Z" fill="#007052"/>
<path d="M172.191 474.742C172.834 473.106 172.367 470.652 171.256 467.731C171.14 466.504 171.081 465.336 171.081 464.05C170.731 440.447 164.83 440.564 159.747 424.03C158.403 419.649 158.52 415.617 159.221 411.761C160.799 410.126 161.208 407.847 160.74 405.335C161.909 400.836 163.077 396.513 162.61 392.014C174.645 418.539 168.569 421.284 176.281 453.184C179.67 467.264 179.669 480.701 178.384 491.918C175.93 487.42 173.535 481.577 172.191 474.742Z" fill="#007052"/>
</svg>
