<svg width="956" height="1021" viewBox="0 0 956 1021" fill="none" xmlns="http://www.w3.org/2000/svg">
<path d="M578.268 726.753C587.128 746.891 586.998 754.668 604.529 769.049C622.06 783.431 620.435 783.522 642.901 799.153C665.366 814.785 679.513 822.244 690.458 826.03C701.404 829.816 716.71 830.716 725.966 842.405C725.966 842.405 737.32 818.904 732.213 791.727C727.091 764.499 733.683 765.675 720.658 736.758C707.65 707.808 698.052 691.294 672.022 680.456C645.993 669.618 642.73 688.638 634.455 685.945C626.163 683.286 607.305 668.341 592.149 674.597C577.029 680.785 569.407 706.615 578.268 726.753ZM706.731 779.511C714.292 776.375 737.715 810.455 724.971 809.057C712.227 807.659 699.154 782.597 706.731 779.511ZM688.598 738.553C683.116 729.684 698.593 733.529 709.626 740.09C720.694 746.669 726.043 757.429 720.032 760.863C714.039 764.262 694.114 747.439 688.598 738.553ZM671.289 759.248C693.76 765.46 688.11 814.829 665.107 806.038C642.137 797.263 648.784 753.018 671.289 759.248ZM679.575 701.958C686.48 699.588 702.798 707.709 697.438 712.676C692.061 717.675 672.669 704.328 679.575 701.958ZM656.262 688.443C655.519 681.362 669.321 682.203 673.76 687.756C678.216 693.277 657.006 695.524 656.262 688.443ZM644.36 735.492C654.543 737.388 645.355 768.84 634.177 761.82C622.998 754.8 634.178 733.595 644.36 735.492ZM597.663 702.711C608.415 693.861 632.998 693.159 638.631 704.11C644.264 715.062 625.118 710.241 610.386 717.401C595.638 724.593 590.249 726.261 590.249 726.261C575.738 723.345 586.928 711.527 597.663 702.711Z" fill="#00805B"/>
<path d="M627.654 755.521C614.85 744.584 639.513 719.024 652.7 722.272C659.723 724.014 655.793 736.462 648.631 746.031C649.226 740.799 648.103 736.163 644.378 735.458C635.983 733.896 626.9 748.05 630.268 756.968C629.342 756.699 628.437 756.227 627.654 755.521Z" fill="#007052"/>
<path d="M604.495 769.031C586.964 754.65 587.095 746.873 578.234 726.735C569.373 706.598 577.029 680.785 592.133 674.545C592.729 674.302 593.29 674.125 593.851 673.949C593.092 680.886 591.897 687.597 593.213 690.798C596.527 698.836 608.725 681.487 627.659 691.868C630.709 693.543 632.276 695.852 632.786 698.719C623.196 693.805 606.084 695.716 597.578 702.709C586.827 711.559 575.653 723.344 590.131 726.242C590.131 726.242 595.52 724.574 610.268 717.381C616.884 714.178 624.389 713.357 630.137 712.473C624.013 727.658 610.438 747.485 613.689 763.335C618.158 785.191 633.003 770.289 651.824 773.362C648.679 785.366 652.303 801.154 665.056 806.053C671.105 808.353 675.92 806.642 679.384 802.777C680.524 806.398 682.363 810.64 685.76 815.821C699.971 837.554 700.515 820.314 715.5 828.21C720.177 830.69 723.729 835.653 726.39 841.346C726.091 842.001 725.95 842.354 725.95 842.354C716.727 830.682 701.421 829.782 690.442 825.979C679.497 822.192 665.35 814.733 642.885 799.102C620.435 783.522 622.044 783.379 604.495 769.031Z" fill="#007052"/>
<path d="M725.984 842.371C726.185 840.43 726.049 838.483 725.913 836.536C725.692 834.587 725.369 832.671 724.877 830.752C723.977 826.915 722.535 823.221 720.802 819.674C719.018 816.144 716.875 812.81 714.443 809.624C712.127 806.541 709.777 803.525 707.632 800.361C703.29 794.047 699.307 787.537 695.751 780.781C692.246 774.008 689.082 767.072 686.853 759.898L686.002 757.195L685.286 754.478C685.031 753.577 684.827 752.66 684.622 751.744L684.026 748.96C683.181 744.938 681.875 741.145 680.296 737.466C678.752 733.804 676.968 730.274 675.047 726.842C673.126 723.411 671.035 720.061 668.84 716.828C664.417 710.344 659.446 704.257 653.891 698.719C651.096 695.983 648.129 693.413 644.92 691.144C643.333 690.018 641.642 689.009 639.933 688.033C638.172 687.158 636.359 686.383 634.508 685.845C638.066 687.443 641.173 689.745 644.039 692.262C646.888 694.813 649.565 697.53 652.035 700.48C654.54 703.363 656.891 706.379 659.104 709.494C661.318 712.609 663.463 715.774 665.438 719.02C669.37 725.546 673.028 732.27 675.75 739.317C677.129 742.807 678.337 746.379 679.038 749.942C679.786 753.742 680.682 757.748 681.939 761.473C682.533 763.36 683.262 765.233 683.925 767.07C684.672 768.909 685.385 770.731 686.234 772.537C687.814 776.132 689.598 779.663 691.501 783.128C693.44 786.525 695.462 789.925 697.606 793.174C698.66 794.832 699.783 796.44 700.906 798.049C702.08 799.641 703.221 801.216 704.429 802.742C706.812 805.86 709.332 808.878 711.904 811.796C714.393 814.629 716.659 817.643 718.634 820.889C720.626 824.102 722.276 827.563 723.568 831.136C724.742 834.774 725.727 838.528 725.984 842.371Z" fill="#006A41"/>
<path d="M720.642 736.707C712.177 726.198 697.053 722.494 688.63 712.561C692.124 713.956 695.6 714.403 697.421 712.709C702.111 708.374 690.285 701.614 682.592 701.569C679.616 693.452 681.395 691.267 673.742 687.79C669.817 682.887 658.591 681.684 656.551 686.334C652.109 686.022 648.019 684.871 645.466 680.854C650.613 677.44 658.017 674.605 672.022 680.455C698.069 691.26 707.616 707.79 720.642 736.707Z" fill="#007052"/>
<path d="M659.635 689.007C669.471 688.378 679.759 686.961 689.656 684.743L670.467 651.292L700.323 681.946C720.887 675.866 738.403 666.065 744.821 652.441C755.257 630.21 732.665 636.172 709.636 615.897C686.606 595.622 668.222 585.657 638.795 576.757C630.147 574.126 623.49 571.765 617.711 569.52C616.083 579.842 612.731 592.08 605.873 599.676L599.77 562.386C593.082 559.839 585.699 557.398 575.342 554.856C547.621 548.082 529.815 553.042 500.184 549.195C470.553 545.348 468.692 554.482 468.692 554.482C468.692 554.482 469.397 581.923 467.582 597.349C465.766 612.775 456.428 615.967 456.428 615.967C460.2 603.905 451.844 551.713 451.844 551.713L417.255 560.161C404.578 562.806 389.967 564.826 374.038 568.803C381.261 580.711 389.291 597.943 386.253 611.708C386.253 611.708 372.142 587.001 356.396 574.019C347.416 577.098 338.151 580.967 328.628 586.151C294.819 604.471 294.884 640.831 294.884 640.831C298.452 663.923 317.647 690.001 342.759 696.055C367.821 702.125 400.785 697.775 400.785 697.775L396.436 664.811L416.916 696.931C416.916 696.931 436.441 700.371 456.686 701.202C476.897 702.015 558.924 692.454 556.968 689.089C555.012 685.725 545.562 646.35 545.562 646.35L568.498 684.227C568.347 684.191 624.964 691.231 659.635 689.007Z" fill="#84CF75"/>
<path opacity="0.41" d="M684.142 645.586C695.188 638.382 731.038 648.455 736.56 642.933C742.081 637.412 698.678 626.941 680.809 625.558C662.941 624.175 664.586 620.855 651.834 613.91C639.082 606.965 632.869 615.366 620.696 616.227C608.54 617.054 602.649 599.317 585.148 590.195C567.68 581.091 553.891 604.601 539.026 610.625C524.162 616.649 516.409 607.066 501.865 598.078C487.32 589.09 476.002 620.54 459.977 621.184C443.951 621.827 448.109 596.836 430.226 586.236C412.344 575.636 418.113 614.713 403.747 621.253C389.381 627.792 374.471 615.416 356.936 607.258C339.402 599.099 327.82 627.129 307.909 627.538C302.141 627.644 299.599 624.912 298.872 620.909C294.845 632.07 294.831 640.931 294.831 640.931C298.4 664.024 317.595 690.102 342.707 696.155C349.259 697.737 356.347 698.617 363.256 699.021C346.468 688.693 315.571 674.679 313.729 666.598C310.959 654.325 340.079 682.464 367.448 678.054C394.834 673.611 386.003 656.687 403.99 645.98C421.995 635.24 429.161 665.665 464.65 664.081C500.105 662.479 511.072 637.838 536.511 642.528C561.951 647.217 568.128 649.925 591.029 647.706C613.93 645.487 612.466 655.085 643.12 662.449C661.377 666.849 668.552 662.573 673.687 656.893L670.516 651.36L674.739 655.693C677.658 652.055 680.141 648.191 684.142 645.586Z" fill="#42B164"/>
<path d="M736.526 642.916C736.526 642.916 722.054 639.679 680.328 632.044C638.636 624.426 348.343 603.376 220.843 671.31C220.843 671.31 219.295 687.941 225.286 686.672C231.31 685.42 357.079 602.813 736.526 642.916Z" fill="#74D179"/>
<path opacity="0.41" d="M540.3 566.053C551.622 581.633 531.572 604.395 520.846 595.607C510.171 586.803 528.962 550.423 540.3 566.053Z" fill="#42B164"/>
<path opacity="0.41" d="M608.692 670.343C603.162 674.41 588.035 666.867 585.646 656.071C583.324 645.311 614.223 666.275 608.692 670.343Z" fill="#42B164"/>
<path opacity="0.41" d="M532.12 670.34C526.787 679.754 507.974 668.158 510.419 658.56C512.828 649.029 537.42 660.908 532.12 670.34Z" fill="#42B164"/>
<path opacity="0.41" d="M402.47 578.548C408.741 587.786 406.71 608.941 397.854 605.646C388.997 602.352 396.199 569.311 402.47 578.548Z" fill="#42B164"/>
<path opacity="0.41" d="M375.116 491.64C369.05 482.254 348.797 475.876 348.384 485.339C347.938 494.785 381.147 501.009 375.116 491.64Z" fill="#42B164"/>
<path d="M509.094 369.396C509.389 368.911 509.669 368.374 509.964 367.889C508.545 368.812 507.144 369.701 505.725 370.625C505.776 370.609 505.809 370.626 505.86 370.61C507.721 370.557 509.483 369.386 510.321 367.776C510.758 366.938 511.178 366.134 511.447 365.208C511.472 364.752 511.53 364.313 511.554 363.857C511.532 363.163 511.357 362.518 511.029 361.92C510.884 361.461 510.654 361.085 510.304 360.775C509.891 360.176 509.358 359.728 508.703 359.429C508.266 359.286 507.813 359.093 507.375 358.95C506.919 358.926 506.48 358.867 506.024 358.843C505.33 358.865 504.685 359.04 504.088 359.368C503.441 359.628 502.877 359.974 502.411 360.541C502.221 360.741 502.065 360.958 501.943 361.192C501.771 361.359 501.615 361.576 501.493 361.811C501.458 361.878 501.44 361.911 501.406 361.978C501.353 362.079 501.301 362.179 501.231 362.313C501.126 362.515 501.004 362.749 500.899 362.95C500.042 364.593 500.091 366.708 501.131 368.231C501.147 368.282 501.181 368.299 501.197 368.35C501.141 366.658 501.067 365 501.011 363.308C500.783 363.828 500.503 364.364 500.274 364.885C499.926 365.471 499.763 366.111 499.752 366.787C499.64 367.411 499.697 368.037 499.923 368.667C500.098 369.312 500.411 369.859 500.86 370.306C501.256 370.854 501.756 371.285 502.377 371.566C502.815 371.709 503.201 371.867 503.638 372.01C504.481 372.193 505.361 372.14 506.177 371.884C506.569 371.704 506.961 371.525 507.353 371.345C508.089 370.834 508.674 370.201 509.094 369.396Z" fill="#004916"/>
<path d="M537.502 378.532C537.018 378.152 536.483 377.788 535.999 377.408C536.336 378.479 536.689 379.601 537.027 380.672C537.187 380.201 537.28 379.696 537.221 379.153C537.16 378.78 537.098 378.407 537.037 378.034C537.021 377.983 536.971 377.915 536.973 377.83C536.795 377.354 536.617 376.877 536.337 376.433C535.482 374.964 533.704 374.122 532.045 374.196C531.216 374.233 530.434 374.507 529.699 374.934C529.135 375.28 528.706 375.696 528.375 376.248C527.944 376.748 527.68 377.336 527.551 377.993C527.368 378.835 527.422 379.631 527.679 380.447C527.936 381.263 528.38 381.964 528.98 382.532C529.646 383.135 530.383 383.52 531.259 383.721C531.783 383.78 532.306 383.84 532.831 383.815C532.882 383.799 532.966 383.8 533 383.817C533.389 383.807 533.762 383.746 534.136 383.6C534.646 383.439 535.107 383.21 535.502 382.862C534.368 382.91 533.2 382.941 532.067 382.99C532.619 383.321 533.138 383.634 533.69 383.964C534.093 384.174 534.53 384.317 534.97 384.29C535.409 384.348 535.849 384.322 536.257 384.194C536.53 384.08 536.769 383.948 537.041 383.835C537.45 383.622 537.743 383.305 537.986 382.92C538.193 382.687 538.333 382.419 538.406 382.116C538.582 381.696 538.674 381.275 538.614 380.817C538.551 380.529 538.522 380.258 538.459 379.969C538.231 379.424 537.918 378.962 537.502 378.532Z" fill="#004916"/>
<path d="M501.097 391.364C501.011 391.447 500.892 391.513 500.79 391.545C501.199 391.332 501.625 391.17 502.034 390.957C501.881 391.005 501.762 391.071 501.575 391.102C502.033 391.042 502.474 390.931 502.932 390.871C502.745 390.901 502.576 390.899 502.407 390.896C502.863 390.92 503.353 390.962 503.792 391.021C503.589 391 503.404 390.946 503.219 390.893C503.69 391.053 504.11 391.229 504.58 391.389C504.362 391.318 504.194 391.23 504.01 391.092C504.411 391.386 504.796 391.629 505.197 391.924C504.261 391.265 503.763 390.749 502.582 390.561C502.548 390.543 502.497 390.559 502.43 390.524C503.269 390.961 504.107 391.398 504.945 391.835C504.862 391.749 504.812 391.68 504.729 391.594C505.011 391.954 505.309 392.281 505.624 392.658C505.525 392.521 505.426 392.384 505.344 392.213C505.524 392.605 505.719 393.048 505.899 393.44C505.833 393.321 505.818 393.185 505.786 393.083C505.864 393.507 505.957 393.983 506.035 394.407C505.941 393.932 505.916 393.407 505.772 392.948C505.581 392.251 505.235 391.687 504.77 391.189C504.357 390.59 503.823 390.142 503.169 389.843C502.732 389.701 502.278 389.507 501.841 389.364C501.168 389.184 500.474 389.206 499.795 389.364C499.321 389.373 498.896 389.535 498.52 389.765C497.873 390.025 497.309 390.37 496.843 390.937C496.566 391.305 496.305 391.723 496.029 392.091C495.592 392.929 495.374 393.838 495.425 394.803C495.407 394.837 495.441 394.854 495.424 394.888C495.469 395.21 495.592 395.956 495.688 396.262C495.704 396.313 495.72 396.364 495.736 396.415C495.752 396.466 495.802 396.534 495.818 396.585C496.013 397.028 496.225 397.522 496.438 397.932C496.503 398.051 496.553 398.12 496.636 398.206C496.951 398.583 497.282 399.011 497.597 399.389C497.647 399.457 497.68 399.475 497.73 399.543C497.235 398.774 496.774 398.022 496.28 397.253C496.314 397.27 496.296 397.304 496.33 397.321L496.346 397.372C496.559 397.782 496.721 398.207 496.933 398.616C497.215 398.976 497.53 399.354 497.829 399.68C497.829 399.68 497.862 399.697 497.896 399.715L497.929 399.732C498.33 400.027 498.731 400.321 499.15 400.582C499.25 400.634 499.367 400.737 499.467 400.79C500.004 401.069 500.593 401.248 501.148 401.41C501.266 401.429 501.4 401.499 501.536 401.484C501.805 401.539 502.143 401.545 502.397 401.549C502.684 401.571 503.005 401.61 503.258 401.615C503.343 401.616 503.394 401.6 503.445 401.584C503.936 401.541 504.462 401.432 504.955 401.305C505.09 401.29 505.21 401.225 505.312 401.193C505.755 400.997 506.249 400.786 506.709 400.557C506.778 400.507 506.829 400.491 506.897 400.441C507.563 400.064 508.028 399.581 508.411 398.928C508.877 398.361 509.175 397.706 509.306 396.964C509.504 396.258 509.482 395.564 509.291 394.867C509.235 394.156 508.975 393.509 508.596 392.928C508.315 392.568 508 392.191 507.718 391.831C506.969 391.142 506.131 390.705 505.137 390.485C504.681 390.461 504.191 390.418 503.735 390.394C502.767 390.614 501.866 390.87 501.097 391.364Z" fill="#004916"/>
<path d="M530.075 350.572C531.282 351.201 532.802 351.311 534.111 350.928C535.335 350.542 536.637 349.516 537.216 348.325C537.778 347.083 538.073 345.617 537.571 344.289C537.103 342.979 536.242 341.849 534.968 341.184C533.761 340.555 532.241 340.445 530.932 340.829C529.708 341.214 528.406 342.241 527.828 343.432C527.266 344.674 526.971 346.14 527.472 347.468C527.974 348.795 528.801 349.908 530.075 350.572Z" fill="#004916"/>
<path d="M545.013 402.486C546.22 403.115 547.741 403.226 549.049 402.842C550.273 402.456 551.576 401.43 552.154 400.239C552.716 398.997 553.011 397.531 552.509 396.203C552.041 394.893 551.181 393.763 549.906 393.099C548.699 392.469 547.179 392.359 545.871 392.743C544.647 393.128 543.344 394.155 542.766 395.346C542.204 396.588 541.909 398.054 542.411 399.382C542.913 400.709 543.773 401.84 545.013 402.486Z" fill="#004916"/>
<path d="M815.712 518.719C815.712 518.719 736.728 506.246 673.319 454.566C609.877 402.867 454.984 416.361 367.805 458.795C280.643 501.195 237.204 601.473 258.782 608.499C280.36 615.525 319.371 625.752 353.442 614.945C387.513 604.137 417.438 589.505 431.205 570.289C431.205 570.289 402.162 514.434 414.342 519.205C426.522 523.976 429.562 562.398 445.159 555.05C460.79 547.72 526.541 531.51 547.933 534.558C547.933 534.558 521.779 483.876 533.987 489.984C546.229 496.108 561.014 529.993 566.266 528.424C571.518 526.855 631.393 528.217 631.393 528.217C631.393 528.217 613.408 482.475 621.611 487.433C629.814 492.39 652.508 524.598 652.508 524.598C652.508 524.598 772.644 536.563 815.712 518.719Z" fill="#008B3E"/>
<path opacity="0.39" d="M258.127 608.2C238.153 599.324 281.531 500.719 367.822 458.761C454.984 416.36 609.928 402.851 673.337 454.532C736.779 506.23 815.729 518.685 815.729 518.685C815.406 518.815 815.049 518.928 814.708 519.091C802.614 519.226 742.069 519.476 689.082 511.769C673.191 509.456 656.509 507.924 639.627 507.183C633.057 498.685 625.613 489.817 621.629 487.399C617.443 484.876 620.121 495.609 623.705 506.729C599.241 506.385 574.732 507.681 551.869 510.645C546.198 501.975 539.824 492.855 534.038 489.967C527.448 486.66 532.011 499.91 537.628 512.773C527.505 514.446 517.78 516.497 508.675 518.915C459.314 531.9 453.701 519.766 428.082 540.777C424.024 531.713 420.255 521.52 414.375 519.222C407.571 516.571 413.657 532.79 420.306 547.682C395.92 570.828 388.148 593.51 330.26 610.749C307.249 617.515 281.425 614.544 258.127 608.2Z" fill="#007000"/>
<path d="M815.028 519.13C816.196 519.099 816.856 519.06 816.856 519.06C816.347 519.136 815.705 519.142 815.028 519.13Z" fill="#08B859"/>
<path d="M406.515 448.657C510.291 413.807 612.592 412.383 673.319 454.565C731.84 495.256 796.987 518.979 815.062 519.148C805.688 519.464 761.957 520.419 734.698 512.351C704.039 503.278 684.088 500 684.088 500L658.69 467.746L669.567 501.683C669.567 501.683 621.173 492.363 589.001 495.847C586.866 496.098 584.815 496.351 582.832 496.639C575.531 484.307 554.925 452.675 530.318 442.707C530.318 442.707 561.706 472.795 573.472 498.156C550.959 502.411 535.795 509.174 508.437 512.992C475.265 517.575 475.265 517.575 475.265 517.575C475.265 517.575 436.809 473.4 438.259 482.725C439.708 492.05 453.316 516.495 453.316 516.495C453.316 516.495 440.426 507.688 419.329 526.324C405.802 538.289 397.313 557.357 382.931 572.927C373.921 562.645 352.331 542.226 321.929 541.004C321.929 541.004 356.504 562.606 369.251 584.94C364.067 588.505 358.231 591.603 351.41 593.975C313.393 607.117 248.831 608.94 247.147 594.419C245.481 579.865 302.705 483.489 406.515 448.657Z" fill="#08B859"/>
<g opacity="0.15">
<path d="M247.165 594.385C245.481 579.865 302.756 483.472 406.515 448.657C510.291 413.807 612.592 412.383 673.319 454.565C696.32 470.561 720.362 483.902 742.155 494.28C734.819 495.104 727.505 497.602 720.069 497.307C704.081 496.734 691.56 484.111 679.511 473.525C667.496 462.957 650.935 453.259 636.249 459.674C632.4 461.335 629.091 464.002 625.305 465.866C613.369 471.753 598.809 468.684 586.903 462.734C574.996 456.784 564.572 448.153 552.613 442.304C542.466 437.313 527.696 435.712 522.051 445.561C517.382 453.701 522.073 465.397 516 472.55C513.912 475.001 510.895 476.455 507.834 477.418C475.768 487.651 439.558 454.708 409.424 469.743C406.371 471.264 403.513 473.313 401.689 476.157C399.259 479.921 398.943 484.617 398.378 489.055C397.015 499.686 393.225 510.885 384.347 516.874C373.315 524.298 358.738 521.263 345.494 520.414C332.25 519.566 315.759 523.804 312.835 536.776C310.315 547.827 319.501 558.669 318.45 569.931C317.649 578.339 311.172 585.366 303.551 589.026C295.964 592.704 287.341 593.624 278.925 594.311C268.544 595.168 257.63 595.576 247.162 594.554C247.181 594.436 247.147 594.419 247.165 594.385Z" fill="#009551"/>
</g>
<path d="M816.889 519.077C816.889 519.077 746.432 499.408 665.771 448.926C579.52 394.933 414.31 418.568 335.729 477.635C257.954 536.056 216.303 639.61 219.379 648.76C222.437 657.943 236.873 653.316 236.873 653.316C236.873 653.316 251.625 536.338 372.263 469.219C372.263 469.219 543.31 381.133 679.177 465.25C772.65 523.136 816.889 519.077 816.889 519.077Z" fill="#92DA77"/>
<path opacity="0.15" d="M529.815 467.557C523.682 474.252 536.423 493.981 548.209 491.981C560.013 489.948 535.966 460.829 529.815 467.557Z" fill="#009551"/>
<path opacity="0.15" d="M356.924 531.615C352.348 540.231 365.298 552.523 379.014 549.439C392.73 546.355 361.499 523 356.924 531.615Z" fill="#009551"/>
</svg>
