<svg width="52" height="49" viewBox="0 0 52 49" fill="none" xmlns="http://www.w3.org/2000/svg">
<g filter="url(#filter0_d_19_1370)">
<path d="M34.1423 21.1661C34.0159 21.7819 33.7461 22.3206 33.2783 22.7519C32.8104 23.1832 32.252 23.4375 31.6163 23.4337C30.5618 23.4281 29.7713 22.7425 29.6204 21.6859C29.4393 20.4146 30.2958 19.1395 31.5352 18.7948C32.7293 18.4633 33.8159 19.0999 34.1064 20.3016C34.1178 20.3449 34.1291 20.3882 34.1404 20.4296C34.1423 20.6764 34.1423 20.9212 34.1423 21.1661Z" fill="white"/>
<path d="M24.9619 19.0898C26.3908 19.1181 27.5599 19.6893 28.375 20.8676C29.0791 21.8838 29.738 22.934 30.3781 23.9916C31.3043 25.5225 30.4534 27.5021 28.7177 27.9207C28.1886 28.0489 27.6672 28.0187 27.1608 27.8208C26.7033 27.6435 26.2439 27.4776 25.7564 27.4041C24.7793 27.2552 23.838 27.3796 22.9268 27.7529C22.6601 27.8654 22.3797 27.9421 22.0928 27.981C20.6847 28.1563 19.3349 27.076 19.1805 25.6639C19.1071 25.0022 19.2577 24.4045 19.6135 23.8502C20.2084 22.9208 20.8039 21.9913 21.4001 21.0618C22.1324 19.9231 23.1772 19.2764 24.5138 19.0954C24.5413 19.0911 24.5689 19.0885 24.5967 19.0879C24.7172 19.0898 24.8395 19.0898 24.9619 19.0898Z" fill="white"/>
<path d="M26.2317 15.9761C26.2109 16.7177 25.9538 17.4574 25.3544 18.0593C24.3524 19.0631 22.7793 18.9914 21.8718 17.8989C20.8924 16.7196 20.9038 14.9968 21.9002 13.8326C22.9325 12.6268 24.7551 12.7476 25.6759 14.0854C26.0483 14.627 26.226 15.227 26.2317 15.9761Z" fill="white"/>
<path d="M26.4923 17.1509C26.5413 16.1296 26.9317 15.2854 27.8125 14.7125C28.9856 13.9493 30.4624 14.4072 31.0074 15.6943C31.5864 17.0623 30.9263 18.7677 29.6061 19.3651C28.4274 19.8984 27.1411 19.3481 26.6771 18.1365C26.6157 17.9752 26.569 17.8087 26.5376 17.639C26.5055 17.4783 26.4903 17.3147 26.4923 17.1509Z" fill="white"/>
<path d="M16.9995 18.5479C17.0052 17.8441 17.2278 17.229 17.7748 16.7667C18.4558 16.1931 19.3612 16.1554 20.1629 16.6403C21.306 17.3309 21.7625 18.9064 21.157 20.0725C20.6156 21.1178 19.3688 21.4782 18.3483 20.8857C17.9375 20.6494 17.5964 20.3088 17.3596 19.8983C17.1227 19.4877 16.9985 19.0219 16.9995 18.5479Z" fill="white"/>
</g>
<defs>
<filter id="filter0_d_19_1370" x="-0.000488281" y="0" width="51.1428" height="48.9995" filterUnits="userSpaceOnUse" color-interpolation-filters="sRGB">
<feFlood flood-opacity="0" result="BackgroundImageFix"/>
<feColorMatrix in="SourceAlpha" type="matrix" values="0 0 0 0 0 0 0 0 0 0 0 0 0 0 0 0 0 0 127 0" result="hardAlpha"/>
<feOffset dy="4"/>
<feGaussianBlur stdDeviation="8.5"/>
<feComposite in2="hardAlpha" operator="out"/>
<feColorMatrix type="matrix" values="0 0 0 0 1 0 0 0 0 1 0 0 0 0 1 0 0 0 0.25 0"/>
<feBlend mode="normal" in2="BackgroundImageFix" result="effect1_dropShadow_19_1370"/>
<feBlend mode="normal" in="SourceGraphic" in2="effect1_dropShadow_19_1370" result="shape"/>
</filter>
</defs>
</svg>
