<svg width="505" height="790" viewBox="0 0 505 790" fill="none" xmlns="http://www.w3.org/2000/svg">
<path d="M336.441 52.5867C336.441 52.5867 318.771 93.3479 286.341 115.985C253.911 138.623 171.246 172.005 171.246 172.005C171.246 172.005 224.013 64.2189 336.441 52.5867Z" fill="#004916"/>
<path d="M143.772 189.701C144.776 192.966 185.806 144.524 187.126 62.4158C187.126 62.4158 124.854 128.048 143.772 189.701Z" fill="#004916"/>
<path d="M163.343 181.486C163.343 181.486 206.339 145.918 285.825 188.323C285.825 188.323 190.918 218.678 163.343 181.486Z" fill="#006D4B"/>
<path d="M247.111 231.967C247.111 231.967 148.773 226.651 134.799 202.04C134.799 202.04 209.152 190.94 247.111 231.967Z" fill="#004916"/>
<path d="M114.637 87.8635C114.637 87.8635 148.518 172.551 124.331 203.547C124.331 203.547 88.7362 138.461 114.637 87.8635Z" fill="#006D4B"/>
<path d="M120.258 212.447C120.258 212.447 197.163 216.836 225.742 264.42C225.718 264.418 130.203 243.165 120.258 212.447Z" fill="#006D4B"/>
<path d="M101.663 228.959C101.663 228.959 189.966 243.903 219.561 297.964C219.54 297.938 114.94 279.648 101.663 228.959Z" fill="#004916"/>
<path d="M103.159 223.371C103.159 223.371 110.553 166.307 83.8868 106.683C83.8868 106.683 63.4247 151.197 96.5931 228.586L103.159 223.371Z" fill="#004916"/>
<path d="M86.1445 246.078C86.1445 246.078 155.895 274.74 187.68 331.896C187.68 331.896 102.953 322.888 78.4511 250.423L86.1445 246.078Z" fill="#004916"/>
<path d="M78.9099 241.178C78.9099 241.178 73.3277 167.34 34.4575 130.233C34.4575 130.233 38.4133 199.283 70.9153 247.755L78.9099 241.178Z" fill="#006D4B"/>
<path d="M64.7768 259.727C64.7768 259.727 124.56 312.596 148.822 364.336C148.822 364.336 79.9802 331.776 56.7798 266.328L64.7768 259.727Z" fill="#006D4B"/>
<path d="M58.4915 257.917L47.0073 265.791C47.0073 265.791 -12.5865 248.408 -28.7944 181.899C-28.7728 181.926 32.9078 217.669 58.4915 257.917Z" fill="#004916"/>
<path d="M179.334 168.308C179.334 168.308 -7.00013 303.662 -44.5439 393.886C-44.5439 393.886 -47.7313 398.887 -52.4312 393.468C-57.1311 388.05 5.52885 278.916 179.334 168.308Z" fill="#004916"/>
<path d="M303.946 417.845C303.946 417.845 293.518 446.277 320.499 472.159C347.479 498.04 345.008 496.927 367.666 504.251L391.659 516.014C391.659 516.014 391.969 512.59 384.337 483.313C376.679 454.048 372.442 434.639 357.808 424.621C343.173 414.604 307.657 406.103 303.267 406.571C298.917 406.99 303.946 417.845 303.946 417.845Z" fill="#A2DD7D"/>
<path d="M268.743 366.114C268.743 366.114 281.172 377.841 303.787 387.719C326.391 397.571 344.671 398.348 359.302 397.759C373.959 397.157 393.565 394.335 393.565 394.335C393.565 394.335 357.998 358.945 336.505 351.568C315.013 344.19 280.482 353.711 268.743 366.114Z" fill="#A2DD7D"/>
<path d="M222.989 333.825C222.989 333.825 245.398 347.707 265.07 345.45C284.742 343.192 313.236 334.723 325.395 327.231C337.54 319.778 344.76 314.597 353.962 311.813C353.962 311.813 344.635 305.953 331.959 301.347C319.283 296.74 309.096 290.986 282.58 294.03C256.038 297.086 223.496 315.572 222.989 333.825Z" fill="#A2DD7D"/>
<path d="M158.736 321.606C158.736 321.606 190.797 324.083 209.315 316.117C227.832 308.15 246.202 297.621 256.565 282.362C266.901 267.114 277.037 248.42 277.037 248.42C277.037 248.42 255.637 251.359 227.666 259.876C199.656 268.379 162.904 304.119 158.736 321.606Z" fill="#A2DD7D"/>
<path d="M90.8653 321.618C90.8653 321.618 110.799 322.873 130.105 314.709C149.399 306.519 164.656 289.126 174.163 263.454C183.683 237.808 203.328 221.825 203.328 221.825C203.328 221.825 144.84 224.823 120.025 254.111C95.2108 283.398 92.9877 314.563 90.8653 321.618Z" fill="#A2DD7D"/>
<path d="M77.2777 306.405C87.5971 294.326 92.9551 278.652 94.5373 260.981C96.1196 243.31 89.9434 237.288 96.58 224.046C103.217 210.803 106.849 200.629 106.849 200.629C106.849 200.629 75.9325 220.294 55.6461 240.915C35.3597 261.536 26.9221 268.953 23.7844 287.76C20.6467 306.567 22.237 333.33 22.237 333.33C22.237 333.33 66.9583 318.484 77.2777 306.405Z" fill="#A2DD7D"/>
<path d="M38.0548 341.032C38.0548 341.032 42.1439 352.653 52.7356 369.21C63.3012 385.779 64.2893 393.628 82.3606 403.981C100.42 414.308 112.585 413.73 119.049 418.652C125.514 423.574 137.739 431.637 137.739 431.637C137.739 431.637 143.132 420.016 130.948 392.939C118.765 365.862 113.838 344.635 92.6363 340.068C71.4351 335.501 38.6995 334.171 38.6995 334.171L38.0548 341.032Z" fill="#A2DD7D"/>
<path d="M144.46 329.264C144.46 329.264 140.995 347.968 144.861 362.161C148.728 376.354 153.077 385.418 165.671 398.698C178.266 411.978 186.3 418.793 187.771 421.512C189.242 424.232 192.47 417.619 193.613 396.109C194.717 374.584 187.435 322.869 144.46 329.264Z" fill="#A2DD7D"/>
<path d="M212.915 334.529C212.915 334.529 207.417 363.346 210.724 378.384C214.031 393.423 215.02 414.103 226.08 423.127C237.128 432.125 251.284 449.931 251.284 449.931C251.284 449.931 245.68 436.956 249.477 421.92C253.275 406.884 256.859 392.696 249.793 374.932C242.716 357.141 212.915 334.529 212.915 334.529Z" fill="#A2DD7D"/>
<path d="M277.704 386.22C277.704 386.22 261.159 435.328 268.476 464.183C275.794 493.037 285.105 515.457 285.105 515.457C285.105 515.457 280.421 500.348 287.119 466.674C293.806 432.974 283.79 399.292 277.704 386.22Z" fill="#A2DD7D"/>
<path d="M310.599 417.332C310.599 417.332 271.79 379.11 252.248 366.038C232.706 352.965 230.012 344.943 212.323 339.833C194.633 334.722 183.581 332.829 168.128 331.378C152.687 329.953 119.26 326.805 107.243 325.689C95.2266 324.573 85.8196 323.694 61.6238 332.676C37.4281 341.657 2.88626 341.044 -9.83594 347.63C-22.5581 354.216 -50.0051 361.183 -60.0945 367.151C-70.1722 373.145 -79.2962 378.335 -87.8884 377.528C-96.4806 376.722 -109.471 367.719 -103.289 366.572C-97.145 365.41 -71.0101 363.538 -59.2272 357.718C-47.4444 351.898 -15.5351 343.647 -4.69152 338.593C6.16371 333.564 9.83696 331.29 25.7352 327.597C41.6595 323.892 75.0397 318.362 83.7677 317.449C92.4957 316.536 108.963 316.342 125.257 317.854C141.551 319.366 164.706 321.523 182 321.428C199.321 321.322 216.75 328.989 226.651 334.247C236.553 339.504 268.059 363.197 274.362 369.85C280.68 376.466 310.599 417.332 310.599 417.332Z" fill="#8AC65C"/>
<path d="M385.352 505.17C379.083 494.965 372.223 485.12 365.164 475.457C361.674 470.609 357.987 465.88 354.351 461.127C350.65 456.436 346.911 451.73 343.065 447.135C339.219 442.54 335.28 438.018 331.327 433.533L325.227 426.914C324.2 425.81 323.199 424.695 322.157 423.629L318.968 420.429C314.778 416.113 310.36 412.056 305.875 408.061L298.947 402.314C296.517 400.526 294.058 398.813 291.625 397.088C300.583 405.054 308.572 413.86 316.547 422.705C324.456 431.61 332.205 440.649 339.808 449.849C347.476 458.987 355.001 468.221 362.562 477.47C370.084 486.768 377.634 495.991 385.352 505.17Z" fill="#8AC65C"/>
<path d="M281.645 496.732C281.881 487.426 281.349 478.151 280.663 468.883C280.283 464.203 279.995 459.795 280.071 455.223C280.185 450.666 280.351 446.085 280.734 441.501L281.695 427.676C281.94 423.06 282.262 418.409 282.253 413.719C282.283 409.043 282.185 404.361 281.562 399.697C280.899 395.081 279.96 390.339 277.715 386.246C279.062 390.711 279.395 395.287 279.472 399.852C279.588 404.432 279.23 409.005 278.937 413.58C278.527 418.176 278.144 422.761 277.671 427.354C277.235 431.962 276.838 436.584 276.478 441.221C276.181 445.86 276.036 450.556 276.045 455.247C276.18 459.942 276.618 464.753 277.362 469.269C278.654 478.422 280.125 487.557 281.645 496.732Z" fill="#8AC65C"/>
<path d="M386.509 391.931C385.228 392.006 383.946 391.799 382.704 391.542C381.448 391.324 380.209 391.004 378.97 390.683C376.481 390.017 374.046 389.264 371.614 388.446C366.761 386.838 361.942 385.026 357.164 383.165L342.89 377.367C338.088 375.454 333.298 373.567 328.387 371.828C323.487 370.115 318.504 368.565 313.459 367.293C310.914 366.714 308.384 366.097 305.783 365.669C304.5 365.462 303.209 365.165 301.925 365.022L298.007 364.59C287.599 363.503 276.805 364.624 267.233 368.607C277.333 366.358 287.6 366.225 297.587 367.908C307.588 369.553 317.359 372.427 326.99 375.897C336.652 379.228 346.175 383.153 356.086 386.34C361.028 387.94 366.005 389.336 371.094 390.495C373.641 391.01 376.199 391.552 378.781 391.864C381.312 392.136 383.957 392.451 386.509 391.931Z" fill="#8AC65C"/>
<path d="M212.915 334.529C219.146 341.089 224.24 348.535 227.994 356.551C229.794 360.563 231.334 364.691 232.37 368.951C233.446 373.162 234.016 377.569 234.432 381.983C235.264 390.809 235.117 399.825 235.594 408.906C235.813 413.439 236.21 418.017 237.171 422.53C238.173 426.994 239.746 431.545 242.745 435.018C240.547 431.029 239.633 426.62 239.254 422.221C238.812 417.819 238.871 413.349 238.945 408.841C239.056 404.348 239.129 399.84 239.217 395.294C239.215 390.757 239.1 386.178 238.704 381.599C238.18 377.015 237.592 372.428 236.285 367.914C234.939 363.449 233.23 359.083 230.957 355.065C226.44 346.953 220.312 339.783 212.915 334.529Z" fill="#8AC65C"/>
<path d="M341.586 316.241C341.441 314.804 340.356 313.57 339.176 312.754C338.879 312.511 338.58 312.333 338.229 312.177C337.903 312.01 337.566 311.817 337.253 311.677C336.559 311.456 335.883 311.134 335.175 310.951C332.334 310.129 329.411 310.032 326.538 309.976C320.758 310.067 315.013 310.862 309.417 312.059C298.178 314.349 287.299 317.792 276.469 320.994C265.66 324.312 254.824 327.361 243.786 329.404C232.738 331.421 221.496 332.242 210.12 331.996C221.32 334.011 232.918 334.125 244.3 332.709C249.991 332.002 255.622 330.883 261.209 329.596C266.761 328.23 272.269 326.697 277.716 325.097L293.952 320.064C299.34 318.334 304.758 316.81 310.188 315.312L314.257 314.268L318.359 313.366C321.105 312.79 323.845 312.343 326.642 312.089C329.412 311.847 332.218 311.683 334.921 312.129C335.608 312.196 336.264 312.402 336.923 312.545C337.564 312.789 338.234 312.957 338.833 313.314C340.035 313.901 341.21 314.845 341.586 316.241Z" fill="#8AC65C"/>
<path d="M187.468 413.167C187.377 404.947 186.263 396.747 184.645 388.68C183.028 380.612 180.792 372.634 177.883 364.896C174.921 357.182 171.34 349.62 166.656 342.741C162.063 335.852 156.294 329.554 149.35 325.097C155.151 330.912 159.86 337.498 163.81 344.487C165.785 347.982 167.616 351.573 169.238 355.257C170.939 358.906 172.457 362.637 173.871 366.415C175.337 370.17 176.646 373.994 177.878 377.854C179.162 381.69 180.251 385.582 181.405 389.477C183.633 397.302 185.604 405.179 187.468 413.167Z" fill="#8AC65C"/>
<path d="M154.271 324.767C157.164 324.658 160.032 324.215 162.874 323.785C165.743 323.342 168.552 322.77 171.4 322.211C177.048 320.991 182.655 319.538 188.165 317.66C193.686 315.808 199.122 313.556 204.236 310.447C206.821 308.817 209.119 307.035 211.382 305.174C213.657 303.34 215.836 301.361 217.939 299.353C222.121 295.285 225.984 290.923 229.839 286.752C231.779 284.66 233.729 282.659 235.789 280.764C236.8 279.81 237.91 278.936 238.982 278.048L242.367 275.34C251.379 268.228 260.334 260.986 269.008 253.4C259.256 259.561 249.745 266.051 240.357 272.674L236.815 275.172C235.615 276.054 234.465 276.978 233.326 277.927C231.086 279.839 228.957 281.859 226.915 283.933C222.869 288.096 219.087 292.36 214.976 296.239C212.951 298.211 210.865 300.118 208.707 301.932C206.56 303.771 204.29 305.478 202.066 307.008C197.466 310.075 192.259 312.349 186.994 314.493C181.705 316.585 176.311 318.442 170.847 320.144C168.102 321 165.372 321.819 162.592 322.597C161.208 322.999 159.838 323.364 158.442 323.74C157.084 324.13 155.688 324.506 154.271 324.767Z" fill="#8AC65C"/>
<path d="M134.595 422.471C135.189 416.822 133.435 411.1 130.9 406.01C129.615 403.426 127.989 401.058 126.285 398.725C125.4 397.589 124.474 396.502 123.522 395.427L120.534 392.325C116.571 388.377 112.71 384.445 108.921 380.325C105.105 376.217 100.994 372.148 96.5955 368.552C87.757 361.409 78.4752 355.092 68.8961 349.158C64.0994 346.21 59.2076 343.398 54.2179 340.787C51.7028 339.506 49.1995 338.252 46.5893 337.107C44.0168 335.977 41.3779 334.909 38.6475 334.194C41.2199 335.324 43.6138 336.753 46.0337 338.17C48.4275 339.599 50.7926 341.104 53.1317 342.62C57.8359 345.641 62.4449 348.799 67.0279 351.968C71.5705 355.186 76.1652 358.382 80.6386 361.725C85.1265 365.031 89.6143 368.337 93.8624 371.875C98.1912 375.315 102.069 379.144 105.991 383.142C109.94 387.128 114.004 391.093 118.258 394.786C122.414 398.397 126.13 402.424 129.055 407.058C131.982 411.627 134.23 416.846 134.595 422.471Z" fill="#8AC65C"/>
<path d="M24.01 336.164C24.547 335.547 25.3517 335.249 26.0577 334.869L28.2626 333.786C29.7123 333.041 31.1502 332.271 32.5908 331.437C35.4315 329.817 38.1671 327.964 40.7947 325.94C46.0123 321.877 50.6879 317.024 54.4828 311.535C55.4344 310.169 56.3367 308.763 57.1895 307.316C57.6159 306.592 58.0539 305.895 58.4426 305.157L59.6086 302.944C60.4236 301.483 61.0383 299.924 61.7662 298.408C62.3809 296.85 63.0333 295.305 63.5348 293.703C65.7437 287.329 66.6472 280.696 67.894 274.41C69.0653 268.095 70.6284 261.886 72.9462 255.964C75.1742 250.051 78.2871 244.366 81.4729 238.774C87.9837 227.622 95.2843 216.835 102.797 206.172C93.912 215.73 85.7749 226.047 78.6316 237.045C75.0658 242.558 71.7965 248.312 69.1869 254.49C66.641 260.671 64.9774 267.144 63.6965 273.634C62.5055 280.114 61.6387 286.48 59.701 292.482C57.9141 298.541 54.9665 304.245 51.7223 309.707C48.3415 315.073 44.2112 320.025 39.4555 324.35C37.0893 326.539 34.5775 328.542 31.9552 330.439C30.6368 331.406 29.3211 332.309 27.9417 333.21L25.903 334.595C25.2439 335.078 24.4481 335.467 24.01 336.164Z" fill="#8AC65C"/>
<path d="M193.89 226.874C192.398 226.479 190.846 226.925 189.384 227.363C187.957 227.878 186.539 228.483 185.205 229.207C182.488 230.614 179.963 232.31 177.474 234.085C172.582 237.689 167.982 241.662 163.576 245.861C159.104 250.121 155.307 255.049 152.074 260.255C148.852 265.488 146.217 271.051 143.875 276.64C141.57 282.243 139.556 287.935 137.146 293.304C134.725 298.647 131.981 303.759 126.894 306.23C124.354 307.682 121.668 308.95 118.945 310.204C116.248 311.446 113.478 312.595 110.696 313.718C105.133 315.965 99.4526 317.951 93.7606 319.911C99.7082 318.869 105.558 317.401 111.367 315.701C117.141 313.924 122.911 311.929 128.418 309.207C129.761 308.573 131.303 307.756 132.6 306.673C133.872 305.601 135.021 304.397 135.982 303.121C137.955 300.545 139.438 297.783 140.793 295.016C143.391 289.437 145.455 283.786 147.78 278.299C152.253 267.278 157.842 256.79 165.907 248.195C170.022 243.907 174.239 239.636 178.735 235.709C180.977 233.733 183.304 231.875 185.751 230.214C186.962 229.357 188.258 228.619 189.589 227.959C190.944 227.351 192.376 226.708 193.89 226.874Z" fill="#8AC65C"/>
<path d="M122.398 403.832C123.822 359.664 149.832 305.461 149.832 305.461C158.337 340.841 141.716 390.016 133.329 407.311C160.202 371.655 211.518 330.493 211.518 330.493C207.858 364.002 163.597 398.088 144.678 410.857C183.701 392.267 262.626 392.596 262.626 392.596C235.72 426.382 148.166 424.756 148.166 424.756L146.46 425.635C219.364 421.164 274.608 475.466 274.608 475.466C223.499 487.482 141.092 431.056 141.092 431.056L139.496 434.905C204.832 457.508 222.869 547.049 222.869 547.049C175.635 523.837 134.511 439.388 134.511 439.388L133.188 440.28C133.188 440.28 144.251 469.699 149.338 491.901C154.425 514.104 143.236 555.69 143.236 555.69C143.236 555.69 123.931 530.028 114.981 500.706C106.03 471.384 114.004 437.311 114.004 437.311C114.004 437.311 100.328 484.018 88.3289 501.728C76.3101 519.443 60.8382 527.998 60.8382 527.998C60.8382 527.998 49.8485 503.561 56.7704 479.554C63.6875 455.528 110.9 424.817 110.9 424.817C110.9 424.817 85.8895 434.575 52.9213 440.678C19.9332 446.787 2.07359 432.44 2.07359 432.44C32.5311 396.861 109.586 416.381 109.586 416.381C24.9039 363.441 -56.026 372.904 -66.6147 375.777C-72.6311 377.41 -67.601 365.742 -67.601 365.742C-9.70271 341.313 111.407 413.722 111.407 413.722C92.2766 382.363 77.1545 314.246 77.1545 314.246C114.788 342.916 122.398 403.832 122.398 403.832Z" fill="#67B058"/>
</svg>
