<svg width="871" height="435" viewBox="0 0 871 435" fill="none" xmlns="http://www.w3.org/2000/svg">
<path d="M340.863 111.633C361.195 67.4651 410.796 23.5891 410.796 23.5891C404.311 63.0833 366.336 105.849 350.445 119.812C392.977 95.1577 462.618 75.4107 462.618 75.4107C444.565 107.836 385.09 123.435 360.435 128.284C407.992 126.122 487.856 160.241 487.856 160.241C446.142 183.026 358.04 143.883 358.04 143.883L355.936 144.058C431.77 170.699 464.546 249.395 464.546 249.395C407.583 239.697 348.166 147.213 348.166 147.213L344.894 150.426C401.507 201.313 381.468 299.873 381.468 299.873C343.492 256.114 337.942 152.88 337.942 152.88L336.189 153.231C336.189 153.231 334.846 187.817 330.464 212.472C326.141 237.127 296.987 274.576 296.987 274.576C296.987 274.576 288.399 240.281 291.846 206.746C295.293 173.211 317.961 142.013 317.961 142.013C317.961 142.013 284.134 183.494 264.329 196.347C244.582 209.142 225.185 211.187 225.185 211.187C225.185 211.187 224.484 181.683 241.777 160.3C259.071 138.917 320.065 127.933 320.065 127.933C320.065 127.933 290.561 127.115 254.455 119.17C218.408 111.224 206.431 89.0817 206.431 89.0817C252.527 66.0629 322.343 118.819 322.343 118.819C259.129 28.9056 173.013 3.842 161.036 2.20615C154.259 1.27137 164.308 -8.36847 164.308 -8.36847C233.481 -8.36847 325.323 116.891 325.323 116.891C319.363 76.9297 333.151 1.32979 333.151 1.32979C359.208 46.5495 340.863 111.633 340.863 111.633Z" fill="#67B058"/>
<path d="M448.596 60.7465C430.251 98.9554 398.995 129.043 361.136 147.564C340.338 157.729 318.779 166.025 299.617 179.171C282.44 190.972 267.192 205.344 252.527 220.067C237.571 235.023 223.14 250.506 207.541 264.761C192.293 278.666 175.876 291.227 158.174 301.86C123.47 322.775 84.5601 336.855 44.5401 343.282C4.40323 349.767 -36.7852 348.832 -76.4547 339.66C-81.3622 338.55 -86.2114 337.264 -91.0605 335.862C-97.4286 334.051 -94.7412 324.119 -88.3146 325.93C-49.9889 336.855 -9.67679 339.66 29.8759 334.986C68.9026 330.37 107.228 318.218 141.698 299.406C158.992 290 175.35 278.899 190.365 266.163C206.373 252.609 220.979 237.419 235.643 222.462C250.249 207.564 265.03 192.725 281.505 179.813C289.743 173.328 298.331 167.311 307.387 162.053C317.436 156.269 328.069 151.478 338.585 146.687C358.274 137.807 377.436 128.342 394.087 114.321C409.452 101.409 422.656 85.927 432.822 68.5752C435.334 64.3103 437.613 59.9286 439.774 55.43C441.001 52.9178 444.565 52.2751 446.785 53.5604C449.297 55.1963 449.765 58.2343 448.596 60.7465Z" fill="#005530"/>
<path d="M275.663 96.7937C283.667 88.6144 291.437 79.442 298.273 69.8605L255.799 55.8389L305.342 59.2275C318.429 38.0782 325.965 15.9942 320.941 -0.71492C312.703 -27.9986 297.864 -5.33035 262.226 -5.03823C226.646 -4.74611 203.043 0.862532 170.735 15.9942C161.212 20.4344 153.675 23.5308 146.898 26.043C153.441 36.2087 160.043 49.3539 160.043 61.2723L125.924 33.8133C118.154 36.7929 109.916 40.4151 98.9907 46.2575C69.779 61.9149 58.2696 79.9093 29.7006 99.5396C1.13156 119.17 6.62335 128.518 6.62335 128.518C6.62335 128.518 28.4737 151.653 38.8731 166.376C49.2724 181.099 43.6638 191.089 43.6638 191.089C37.5877 177.768 -10.0273 139.151 -10.0273 139.151L-33.3382 173.211C-42.277 185.305 -53.319 198.334 -63.952 214.108C-48.5283 218.84 -28.2554 227.487 -20.193 241.684C-20.193 241.684 -51.5079 231.284 -75.1693 232.277C-80.5443 241.859 -85.5103 252.434 -89.7752 264.235C-104.79 306.241 -76.6299 337.615 -76.6299 337.615C-55.7144 354.791 -18.9076 362.445 7.44131 348.248C33.7903 334.051 58.9123 304.781 58.9123 304.781L29.6422 279.717L72.1744 291.577C72.1744 291.577 91.6877 279.425 109.799 264.469C127.91 249.512 191.358 177.768 187.035 176.366C182.77 174.964 144.094 148.265 144.094 148.265L193.228 163.221C193.111 163.338 247.444 125.538 275.663 96.7937Z" fill="#84CF75"/>
<path opacity="0.41" d="M263.219 40.2982C267.192 25.5171 305.926 6.47109 306.452 -2.58453C306.978 -11.6402 261.349 12.8976 244.815 25.5755C228.282 38.195 227.171 34.1053 210.755 37.9613C194.396 41.8172 195.506 53.9109 185.632 64.0765C175.759 74.2422 156.947 63.4338 134.804 69.1009C112.662 74.768 118.971 105.732 110.792 122.441C102.613 139.151 88.5329 136.872 68.961 140.377C49.4476 143.883 63.995 179.813 50.6745 192.725C37.354 205.695 21.5797 180.865 -2.08182 185.539C-25.7433 190.213 9.48605 219.483 2.12469 236.309C-5.23663 253.076 -27.6713 253.894 -49.1126 260.437C-70.554 266.981 -58.8693 300.107 -75.7537 315.94C-80.6028 320.497 -84.9846 320.088 -88.7236 317.225C-83.5824 330.02 -76.7469 337.673 -76.7469 337.673C-55.8313 354.85 -19.0245 362.503 7.3244 348.306C14.2184 344.626 20.9954 339.893 27.3051 334.869C4.81213 338.958 -32.754 350.76 -40.5828 345.21C-52.4427 336.738 -5.52878 338.549 14.6857 313.486C34.9002 288.481 14.1599 280.71 21.4044 257.516C28.6489 234.322 58.3864 255.062 87.8317 226.201C117.219 197.34 107.579 167.603 133.227 151.945C158.816 136.288 166.294 133.892 184.347 114.204C202.4 94.5735 208.593 103.98 240.784 86.6279C259.947 76.287 262.868 67.0561 262.927 58.1758L255.916 55.8388L262.927 56.3062C262.693 50.9313 261.758 45.6731 263.219 40.2982Z" fill="#42B164"/>
<path d="M306.452 -2.52606C306.452 -2.52606 291.437 5.88692 249.489 31.5932C207.6 57.2995 -59.4534 263.826 -117 421.219C-117 421.219 -105.491 436.759 -101.226 431.034C-97.0196 425.25 -52.3842 256.582 306.452 -2.52606Z" fill="#74D179"/>
<path opacity="0.41" d="M77.4326 82.9473C99.283 87.6796 99.575 122.85 83.5086 123.552C67.5006 124.253 55.5823 78.2734 77.4326 82.9473Z" fill="#42B164"/>
<path opacity="0.41" d="M217.24 120.105C215.604 127.933 196.675 133.133 186.334 125.596C175.935 118.118 218.876 112.276 217.24 120.105Z" fill="#42B164"/>
<path opacity="0.41" d="M151.105 179.404C153.793 191.673 128.554 196.172 123.237 186.065C117.921 175.957 148.418 167.135 151.105 179.404Z" fill="#42B164"/>
<path d="M177.804 236.075C177.863 235.841 177.863 235.607 177.921 235.374C177.863 234.497 178.096 233.68 178.447 232.92C178.68 232.161 179.148 231.459 179.732 230.875C180.316 230.233 180.959 229.824 181.777 229.59C182.536 229.181 183.354 229.006 184.231 229.064C184.815 229.123 185.341 229.239 185.925 229.298C186.977 229.59 187.911 230.116 188.729 230.934C189.08 231.343 189.372 231.81 189.722 232.219C190.307 233.212 190.599 234.264 190.599 235.432C190.657 235.666 190.657 235.9 190.716 236.133C190.774 237.01 190.54 237.828 190.19 238.587C189.956 239.405 189.489 240.048 188.846 240.632C188.262 241.275 187.561 241.684 186.801 241.976C186.042 242.385 185.224 242.56 184.348 242.501C183.763 242.443 183.238 242.326 182.653 242.268C181.543 241.976 180.608 241.391 179.849 240.632C179.498 240.223 179.206 239.756 178.856 239.347C178.096 238.295 177.804 237.243 177.804 236.075Z" fill="#004916"/>
<path d="M198.077 210.369C198.077 210.31 198.019 210.252 198.019 210.193C198.135 210.427 198.252 210.719 198.311 210.953C198.311 210.894 198.252 210.836 198.194 210.778C198.369 211.011 198.544 211.186 198.661 211.42C198.603 211.362 198.603 211.362 198.544 211.303C198.778 211.479 198.953 211.654 199.187 211.771C199.129 211.771 199.129 211.712 199.07 211.712C199.304 211.829 199.596 211.946 199.83 212.004C199.771 212.004 199.771 212.004 199.713 211.946C200.005 212.004 200.297 212.004 200.531 212.063C200.472 212.063 200.472 212.063 200.414 212.063C201.466 210.719 202.459 209.375 203.51 208.032C203.627 208.265 203.627 208.441 203.627 208.674C203.744 209.2 203.744 209.784 203.569 210.31C203.452 210.661 203.277 210.953 203.16 211.303C202.926 211.595 202.751 211.888 202.517 212.121C202.751 211.829 202.926 211.595 203.16 211.303C203.101 211.42 203.043 211.537 202.985 211.654C203.101 211.303 203.277 210.953 203.394 210.661C203.335 210.778 203.277 210.953 203.277 211.128C203.335 210.719 203.394 210.369 203.452 209.96C203.452 210.076 203.452 210.135 203.452 210.252C203.394 209.843 203.335 209.434 203.277 209.083C203.335 209.259 203.335 209.492 203.335 209.667C203.452 210.252 203.452 210.836 203.277 211.479V211.537C203.277 211.595 203.277 211.595 203.277 211.654C203.335 211.245 203.394 210.894 203.452 210.485C203.452 210.544 203.452 210.602 203.452 210.602C203.394 210.193 203.335 209.843 203.277 209.434C203.277 209.492 203.277 209.551 203.335 209.551C203.16 209.2 203.043 208.85 202.868 208.499C202.868 208.557 202.926 208.557 202.926 208.616C202.692 208.324 202.459 208.032 202.225 207.74C202.284 207.798 202.283 207.798 202.342 207.856C202.05 207.623 201.758 207.389 201.466 207.155C201.524 207.214 201.582 207.272 201.699 207.272C201.991 207.506 202.283 207.74 202.576 207.915C202.985 208.324 203.277 208.791 203.452 209.317C203.627 209.667 203.744 210.018 203.744 210.427C203.861 211.011 203.861 211.595 203.686 212.121C203.569 212.472 203.394 212.822 203.277 213.173C203.043 213.465 202.809 213.757 202.634 214.049C202.225 214.458 201.758 214.75 201.232 214.926C200.706 215.218 200.18 215.335 199.596 215.276C199.187 215.276 198.72 215.159 198.311 215.101C198.252 215.101 198.252 215.101 198.194 215.101C197.785 214.984 197.434 214.809 197.084 214.633C197.025 214.633 197.025 214.575 196.967 214.575C196.616 214.341 196.324 214.108 196.032 213.816C196.032 213.816 196.032 213.816 196.032 213.757C195.915 213.64 195.565 213.173 195.682 213.29C195.682 213.29 195.448 212.998 195.331 212.822L195.273 212.764C195.097 212.413 194.922 212.004 194.805 211.595C194.688 211.128 194.63 210.661 194.63 210.252C194.63 209.375 194.747 209.2 195.039 208.499C195.214 208.148 195.156 208.149 195.273 207.973C195.273 207.973 195.273 207.973 195.273 207.915C195.506 207.564 195.74 207.272 196.032 206.922C196.091 206.863 196.149 206.805 196.207 206.746C196.558 206.454 196.909 206.162 197.259 205.928C197.318 205.87 197.434 205.812 197.493 205.812C197.902 205.578 198.311 205.461 198.72 205.286C198.369 205.403 198.077 205.578 197.726 205.695C198.194 205.403 198.72 205.227 199.246 205.227C199.771 205.11 200.356 205.11 200.881 205.286C201.232 205.403 201.524 205.578 201.875 205.695C202.517 206.045 202.985 206.571 203.335 207.155C203.335 207.214 203.394 207.214 203.394 207.272C202.459 206.746 201.582 206.221 200.648 205.695C200.823 205.695 200.998 205.753 201.115 205.753C201.232 205.753 201.466 205.812 201.582 205.812C201.875 205.87 202.459 206.162 202.459 206.162C202.517 206.162 202.517 206.221 202.576 206.221C202.809 206.396 203.101 206.571 203.277 206.805C203.802 207.389 203.919 207.681 204.211 208.382C204.211 208.441 204.27 208.441 204.27 208.499C204.328 208.791 204.387 209.2 204.387 209.492C204.387 209.901 204.328 210.31 204.095 210.719C203.978 211.128 203.744 211.42 203.452 211.712C203.218 211.888 203.043 212.063 202.809 212.18C202.459 212.413 202.05 212.53 201.641 212.53C201.349 212.589 201.057 212.589 200.823 212.53C200.414 212.53 200.005 212.413 199.654 212.18C199.421 212.004 199.245 211.829 199.012 211.712C198.486 211.362 198.194 210.894 198.077 210.369Z" fill="#004916"/>
<path d="M160.452 235.549C160.978 235.491 161.504 235.491 162.088 235.432C160.744 236.484 159.342 237.536 157.998 238.529C158.174 238.12 158.349 237.652 158.524 237.243C158.758 236.893 159.05 236.601 159.284 236.25C159.693 235.783 160.219 235.432 160.803 235.257C161.387 234.965 161.971 234.848 162.614 234.848C163.257 234.848 163.899 234.965 164.425 235.257C165.009 235.432 165.535 235.783 165.944 236.25C166.411 236.659 166.762 237.185 166.937 237.769C167.229 238.353 167.346 238.938 167.346 239.58C167.288 239.989 167.229 240.398 167.171 240.866C166.937 241.684 166.528 242.385 165.944 242.969C165.594 243.203 165.301 243.495 164.951 243.728C164.191 244.137 163.432 244.371 162.556 244.371C162.147 244.313 161.738 244.254 161.27 244.196C160.628 244.021 160.102 243.787 159.634 243.319C159.109 242.969 158.7 242.56 158.407 241.976C158.232 241.567 158.057 241.158 157.882 240.69C159.225 241.742 160.628 242.794 161.971 243.787C161.445 243.728 160.92 243.728 160.335 243.67C159.751 243.67 159.225 243.553 158.758 243.319C158.232 243.144 157.823 242.852 157.414 242.443C157.005 242.093 156.713 241.625 156.538 241.099C156.304 240.632 156.187 240.048 156.187 239.522C156.246 239.171 156.304 238.762 156.363 238.412C156.538 237.711 156.888 237.127 157.414 236.601C157.706 236.367 157.998 236.192 158.232 235.958C158.992 235.724 159.693 235.549 160.452 235.549Z" fill="#004916"/>
<path d="M225.303 271.713C223.725 271.713 222.089 271.012 220.979 269.902C219.928 268.851 219.11 267.098 219.168 265.579C219.343 262.249 221.856 259.444 225.303 259.444C226.88 259.444 228.516 260.145 229.626 261.255C230.678 262.307 231.495 264.06 231.437 265.579C231.262 268.909 228.691 271.713 225.303 271.713Z" fill="#004916"/>
<path d="M864.863 135.587C863.285 135.587 861.649 134.886 860.539 133.776C859.488 132.724 858.67 130.971 858.728 129.452C858.903 126.122 861.416 123.318 864.863 123.318C866.44 123.318 868.076 124.019 869.186 125.129C870.238 126.181 871.055 127.933 870.997 129.452C870.822 132.782 868.251 135.587 864.863 135.587Z" fill="#004916"/>
<path d="M833.84 133.834C833.898 133.542 833.898 133.25 833.956 132.958C833.956 132.841 834.015 132.666 834.015 132.549C834.015 132.49 834.015 132.432 834.015 132.315V132.257C834.073 131.848 834.132 131.38 834.19 130.971C834.365 130.562 834.541 130.212 834.657 129.803C834.891 129.452 835.183 129.102 835.417 128.81C835.884 128.342 836.352 127.992 836.994 127.816C837.579 127.524 838.221 127.349 838.864 127.407C839.273 127.466 839.74 127.524 840.149 127.583C840.967 127.816 841.668 128.225 842.311 128.81C842.428 128.985 842.603 129.16 842.72 129.335C843.012 129.628 843.246 129.978 843.363 130.387C843.655 130.971 843.83 131.614 843.772 132.257C843.772 132.257 843.772 132.257 843.772 132.315C843.772 132.373 843.772 132.432 843.772 132.549C843.772 132.724 843.83 132.841 843.83 133.016C843.888 133.308 843.888 133.6 843.947 133.892C843.947 134.593 843.83 135.236 843.538 135.82C843.363 136.463 843.012 136.989 842.486 137.456C842.019 137.924 841.493 138.274 840.85 138.508C840.266 138.8 839.623 138.975 838.922 138.917C838.455 138.858 838.046 138.8 837.579 138.742C836.702 138.508 836.001 138.04 835.359 137.456C835.066 137.106 834.833 136.755 834.541 136.405C834.073 135.587 833.84 134.71 833.84 133.834Z" fill="#004916"/>
<path d="M759.113 212.471C759.113 212.471 728.792 204.525 709.57 184.369C690.291 164.213 658.158 110.23 658.158 110.23C658.158 110.23 738.899 135.41 759.113 212.471Z" fill="#004916"/>
<path d="M642.851 92.9948C640.689 94.0464 678.84 117.416 736.153 109.529C736.212 109.529 683.806 73.1893 642.851 92.9948Z" fill="#004916"/>
<path d="M650.739 105.731C650.739 105.731 680.126 131.846 659.152 191.789C659.152 191.789 627.778 128.925 650.739 105.731Z" fill="#006D4B"/>
<path d="M624.564 169.53C624.564 169.53 617.67 100.473 633.328 88.0873C633.328 88.0873 649.043 138.682 624.564 169.53Z" fill="#004916"/>
<path d="M710.68 61.7383C710.68 61.7383 655.353 94.4554 631.166 80.9596C631.166 80.9596 672.647 49.1773 710.68 61.7383Z" fill="#006D4B"/>
<path d="M624.506 79.0901C624.506 79.0901 629.706 133.132 599.676 158.137C599.676 158.137 604.175 89.3142 624.506 79.0901Z" fill="#006D4B"/>
<path d="M611.01 67.8729C611.01 67.8729 610.075 130.97 575.606 157.436C575.664 157.436 577.125 82.5956 611.01 67.8729Z" fill="#004916"/>
<path d="M615.041 68.3403C615.041 68.3403 655.587 67.3471 694.263 42.3419C694.263 42.3419 661.079 32.8773 610.718 64.3091L615.041 68.3403Z" fill="#004916"/>
<path d="M597.397 58.934C597.397 58.934 584.953 110.58 548.555 138.916C548.555 138.916 545.692 78.9148 593.541 54.0848L597.397 58.934Z" fill="#004916"/>
<path d="M600.026 53.3253C600.026 53.3253 650.855 41.5238 672.53 10.4426C672.53 10.4426 624.856 20.6083 594.593 48.4762L600.026 53.3253Z" fill="#006D4B"/>
<path d="M585.596 45.4966C585.596 45.4966 555.216 92.8195 521.797 115.254C521.797 115.254 537.046 63.7831 580.162 40.5891L585.596 45.4966Z" fill="#006D4B"/>
<path d="M586.181 40.9396L579.462 33.8119C579.462 33.8119 585.187 -9.53822 629.706 -28C629.764 -28 611.478 18.7971 586.181 40.9396Z" fill="#004916"/>
<path d="M661.604 115.488C661.604 115.488 547.27 0.277002 480.434 -16.1984C480.434 -16.1984 476.636 -17.8927 479.849 -21.7486C483.121 -25.6045 565.849 6.29462 661.604 115.488Z" fill="#004916"/>
<path d="M569.649 82.5969C585.014 109.53 594.245 109.355 589.338 148.791C584.43 188.226 566.67 186.824 573.68 207.272C573.68 207.272 568.89 191.79 541.723 193.017C514.614 194.244 477.808 192.55 452.569 179.171C427.33 165.792 418.975 174.555 395.372 139.969C371.769 105.324 345.187 108.362 367.913 81.9542C390.64 55.5468 412.899 66.9394 416.697 51.8661C420.494 36.7929 424.175 10.0934 448.07 -1.007C471.965 -12.1074 488.441 3.2579 513.446 21.486C538.393 39.7141 554.284 55.6637 569.649 82.5969ZM477.749 9.62606C486.513 -1.24069 461.683 0.687295 455.49 12.1967C449.297 23.7061 477.749 9.62606 477.749 9.62606ZM516.016 40.532C514.965 29.7237 474.945 37.6109 478.976 49.5877C483.066 61.506 517.068 51.3404 516.016 40.532ZM408.109 89.1987C421.02 71.6717 401.799 68.5753 382.636 91.7693C363.531 114.905 395.139 106.784 408.109 89.1987ZM453.679 84.2327C440.183 64.1935 419.384 112.334 418.858 135.295C418.333 158.255 431.653 159.891 431.653 159.891C444.565 158.956 467.175 104.272 453.679 84.2327ZM483.942 109.647C474.77 107.193 476.055 123.61 476.113 133.308C476.172 143.007 471.381 146.395 468.226 159.015C465.071 171.634 472.608 175.548 472.608 175.548C493.582 168.362 493.114 112.101 483.942 109.647ZM520.398 135.295C513.796 133.484 515.724 147.33 510.934 161.468C506.143 175.548 509.707 177.243 509.707 177.243C520.924 178.82 527 137.164 520.398 135.295ZM436.385 23.5893C426.512 25.6925 425.051 56.3063 435.1 51.1651C445.149 45.9654 446.259 21.486 436.385 23.5893ZM546.806 131.906C547.331 143.182 570.876 157.028 570.876 157.028C578.938 160.475 582.619 136.58 576.076 123.026C569.532 109.413 546.28 120.63 546.806 131.906ZM546.689 67.5236C534.069 61.3308 508.071 78.0398 510.7 88.3807C513.329 98.7217 555.627 86.8618 555.627 86.8618C561.996 83.0058 559.308 73.7165 546.689 67.5236Z" fill="#00805C"/>
<path d="M546.572 170.874C538.626 169.122 528.811 168.83 518.236 169.063C515.958 174.205 513.037 177.71 509.648 177.242C509.648 177.242 507.545 176.249 508.772 169.355C499.074 169.764 489.142 170.29 479.911 170.29C477.866 172.744 475.412 174.613 472.608 175.548C472.608 175.548 469.745 174.029 468.284 169.881C453.562 168.83 442.052 165.266 438.489 155.509C436.093 158.138 433.698 159.716 431.595 159.832C431.595 159.832 418.274 158.196 418.8 135.236C418.975 128.05 421.137 118.41 424.409 109.179C420.319 105.615 414.243 103.571 405.012 103.279C400.63 103.162 396.015 103.045 391.341 102.87C382.986 107.018 375.683 107.427 376.735 101.76C370.484 101.058 364.525 99.9484 359.208 98.1373C359.266 109.413 378.079 114.554 395.314 139.91C418.917 174.555 427.33 165.792 452.51 179.112C477.749 192.491 514.556 194.127 541.664 192.958C551.538 192.549 558.432 194.302 563.222 196.697C564.975 185.714 562.346 174.321 546.572 170.874Z" fill="#007957"/>
<path d="M523.144 28.8474C497.671 34.9818 469.687 41.1162 458.002 34.047C447.194 27.562 443.396 15.5852 441.234 2.90737C443.279 1.44678 445.558 0.10304 448.012 -1.007C471.907 -12.1074 488.382 3.2579 513.387 21.486C516.834 23.9982 520.048 26.452 523.144 28.8474ZM455.49 12.1967C449.297 23.6477 477.749 9.62606 477.749 9.62606C486.513 -1.18227 461.683 0.745719 455.49 12.1967Z" fill="#007957"/>
<path d="M560.827 117.476C528.694 114.087 492.18 110.698 488.557 84.1743C484.059 51.2819 515.724 51.165 542.073 45.5564C552.414 56.0142 561.119 67.6404 569.649 82.5968C580.282 101.234 587.994 106.901 590.097 121.682C584.897 120.455 578.938 119.52 572.629 118.761C569.298 116.541 564.975 116.366 560.827 117.476ZM555.627 86.8033C561.996 83.0058 559.308 73.658 546.747 67.4652C534.186 61.2723 508.129 77.9814 510.758 88.3223C513.329 98.6632 555.627 86.8033 555.627 86.8033Z" fill="#007957"/>
<path d="M453.678 84.2326C458.995 92.1782 458.703 105.499 455.548 118.761C464.312 106.492 469.628 82.9473 461.741 70.6784C455.022 60.279 444.506 69.8604 438.196 84.0573C443.454 78.5071 449.005 77.2802 453.678 84.2326Z" fill="#006A41"/>
<path d="M541.138 180.397C524.663 164.74 510.817 185.363 496.269 186.24C481.663 187.175 466.999 182.267 457.71 174.964C448.362 167.603 440.65 170.582 431.711 168.245C422.773 165.908 411.906 138.566 406.998 124.019C402.091 109.471 395.606 115.022 375.976 116.365C375.274 116.424 374.573 116.424 373.931 116.424C380.299 121.916 388.011 129.102 395.431 139.968C419.034 174.614 427.447 165.85 452.627 179.171C477.866 192.55 514.673 194.185 541.781 193.017C544.41 192.9 546.864 192.958 549.084 193.134C547.507 188.46 544.994 184.078 541.138 180.397Z" fill="#006A41"/>
<path d="M569.649 82.5969C554.284 55.6637 538.451 39.6557 513.446 21.486C488.441 3.2579 471.966 -12.1074 448.07 -1.007C447.077 -0.539617 446.142 -0.0722299 445.208 0.45358C450.758 -1.47439 455.432 -2.17545 457.535 -0.364325C459.814 1.62207 460.223 4.19268 460.339 6.99701C469.512 0.453588 485.052 0.687282 477.808 9.62606C477.808 9.62606 467.876 14.5336 461.04 16.1695C461.858 18.7985 463.67 21.3107 467.467 23.5308C479.97 30.7169 517.536 20.4344 521.625 36.0334C525.715 51.6325 504.098 47.3676 521.392 64.6609C523.32 66.5888 525.189 68.2247 527 69.6269C533.894 66.3551 541.489 64.8946 546.806 67.5236C558.374 73.1907 561.529 81.4868 557.088 85.7517C560.068 87.9134 563.048 90.6593 566.086 94.4568C573.155 103.337 573.33 112.334 574.382 120.338C575.083 121.098 575.667 121.974 576.193 123.026C577.712 126.122 578.647 129.803 579.172 133.6C581.276 136.171 584.314 138.391 588.929 140.261C589.397 140.436 589.806 140.611 590.273 140.728C592.785 109.296 583.846 107.544 569.649 82.5969Z" fill="#006A41"/>
<path d="M412.724 58.5264C421.429 54.1446 431.536 52.5088 441.468 53.4435C446.434 53.9693 451.283 55.2547 455.957 57.0658C457.126 57.5332 458.294 58.0006 459.404 58.5264L462.676 60.2791C463.786 60.8049 464.838 61.506 465.889 62.1486C466.941 62.7913 467.993 63.4339 469.044 64.0766C485.578 74.9433 499.541 88.7897 512.57 103.279C518.996 110.64 525.189 118.118 530.915 126.122C536.465 134.185 541.606 142.422 546.514 150.777C551.421 159.131 556.095 167.661 560.535 176.249C562.697 180.573 564.858 184.896 566.903 189.336C567.897 191.556 568.89 193.776 569.766 195.997C570.233 197.107 570.642 198.275 571.051 199.385C571.402 200.554 571.811 201.722 571.928 202.89C571.694 201.722 571.168 200.612 570.701 199.502C570.175 198.392 569.649 197.34 569.123 196.289C568.013 194.127 566.845 192.024 565.676 189.921C563.281 185.714 560.886 181.566 558.374 177.418C553.408 169.122 548.325 160.943 543.183 152.763C537.925 144.642 532.726 136.522 527.059 128.81C521.392 121.156 515.199 113.678 508.83 106.55C502.462 99.3059 495.86 92.3535 488.908 85.6932C482.014 79.033 474.653 72.7817 466.941 67.2315C465.948 66.5304 464.955 65.8877 463.961 65.2451C462.968 64.6024 461.975 63.9013 460.923 63.3755L457.827 61.5644L454.672 59.987C450.407 58.0006 445.85 56.54 441.176 55.7805C431.77 54.3199 421.838 55.1962 412.724 58.5264Z" fill="#006A41"/>
<path d="M-26.6779 219.483C-6.9308 210.135 19.3013 228.714 30.5186 231.752C41.7359 234.731 44.7739 209.142 80.2369 221.82C115.7 234.497 129.605 255.939 149.001 293.622C168.339 331.363 159.517 330.253 168.222 366.184C176.928 402.114 163.373 434.247 163.373 434.247C150.228 419.291 129.78 419.115 114.882 414.85C99.984 410.527 80.6458 401.588 49.5646 382.25C18.4834 362.912 20.6451 362.678 -3.71748 344.684C-28.08 326.748 -28.489 316.349 -41.6343 290.058C-54.8964 263.826 -46.4834 228.889 -26.6779 219.483ZM159.693 389.904C176.811 390.897 143.217 347.079 133.344 351.753C123.47 356.369 142.633 388.91 159.693 389.904ZM149.819 325.93C157.589 320.964 149.702 306.942 134.512 298.938C119.322 290.934 98.4066 286.903 106.352 298.296C114.298 309.747 142.049 330.896 149.819 325.93ZM79.5942 389.962C110.851 400.128 115.057 333.876 84.6186 327.098C54.2385 320.321 48.3377 379.796 79.5942 389.962ZM116.343 263.183C123.178 256.173 100.802 246.474 91.8047 250.097C82.7491 253.719 109.507 270.194 116.343 263.183ZM83.0412 231.518C76.7315 224.449 58.2697 224.273 59.7303 233.621C61.2493 243.027 89.4094 238.646 83.0412 231.518ZM35.3093 333.058C50.733 341.646 60.8403 299.055 47.1108 297.244C33.3813 295.433 19.8855 324.469 35.3093 333.058ZM-25.7431 288.598C-25.7431 288.598 -18.6739 286.027 0.547379 275.394C19.7102 264.819 45.5918 269.96 37.3541 255.705C29.1164 241.45 -3.65907 244.137 -17.3886 256.64C-31.1765 269.259 -45.2565 285.735 -25.7431 288.598Z" fill="#00805B"/>
<path d="M26.1367 325.112C8.31761 311.383 39.4573 275.628 57.2764 279.075C66.7994 280.886 62.3593 297.77 53.4789 311.032C53.8879 303.963 52.0767 297.887 47.1107 297.244C35.7766 295.725 24.6761 315.239 29.759 326.923C28.5321 326.573 27.3052 325.989 26.1367 325.112Z" fill="#007052"/>
<path d="M-3.77567 344.742C-28.1382 326.806 -28.5472 316.407 -41.6924 290.117C-54.8961 263.826 -46.4832 228.889 -26.6777 219.541C-25.9182 219.191 -25.1586 218.898 -24.3991 218.606C-24.9249 227.896 -26.0934 236.951 -24.107 241.158C-19.141 251.616 -4.00935 227.662 21.9306 240.223C26.1371 242.268 28.3572 245.247 29.2336 248.986C16.0883 243.086 -6.57999 246.825 -17.4467 256.757C-31.1762 269.318 -45.3147 285.793 -25.8013 288.656C-25.8013 288.656 -18.7321 286.085 0.489212 275.452C9.07744 270.72 19.0094 269.143 26.6629 267.565C19.5352 288.247 2.76776 315.648 8.20113 336.563C15.6209 365.424 34.4916 344.509 59.7889 347.313C56.4004 363.555 62.3596 384.353 79.6529 390.02C87.8906 392.708 94.2003 390.079 98.5237 384.645C100.335 389.436 103.022 394.928 107.93 401.647C128.378 429.632 127.911 406.613 148.476 416.136C154.902 419.115 159.927 425.542 163.899 432.962C163.549 433.838 163.374 434.364 163.374 434.364C150.228 419.407 129.78 419.232 114.882 414.967C99.9842 410.644 80.6461 401.705 49.5648 382.367C18.4836 362.97 20.5869 362.678 -3.77567 344.742Z" fill="#007052"/>
<path d="M163.315 434.305C163.432 431.735 163.139 429.106 162.789 426.535C162.38 423.965 161.796 421.394 161.036 418.882C159.576 413.857 157.414 409.008 154.843 404.393C152.214 399.836 149.118 395.454 145.671 391.423C142.341 387.45 139.069 383.594 135.972 379.504C129.78 371.383 123.996 362.971 118.796 354.207C113.655 345.444 108.981 336.388 105.476 326.923L104.132 323.418L102.963 319.854C102.554 318.686 102.204 317.459 101.912 316.232L100.918 312.551C99.5163 307.235 97.5299 302.269 95.1929 297.478C92.856 292.687 90.227 288.13 87.4227 283.69C84.6184 279.25 81.6388 274.927 78.4255 270.778C72.0573 262.424 65.0465 254.654 57.2178 247.643C53.3034 244.196 49.1554 240.924 44.7152 238.12C42.4951 236.718 40.2166 235.491 37.8212 234.322C35.4259 233.271 32.9721 232.394 30.4599 231.81C35.309 233.68 39.5739 236.542 43.6052 239.697C47.5779 242.91 51.317 246.358 54.8224 250.097C58.3278 253.777 61.7164 257.633 64.8713 261.664C68.0261 265.696 71.1226 269.727 73.9853 273.933C79.6524 282.405 85.0273 291.11 89.117 300.282C91.2202 304.839 93.0313 309.513 94.1998 314.187C95.4851 319.211 96.8873 324.47 98.8736 329.377C99.8084 331.889 100.918 334.285 101.912 336.738C103.022 339.134 104.132 341.529 105.359 343.866C107.696 348.598 110.325 353.155 113.071 357.596C115.933 362.036 118.796 366.417 121.951 370.566C123.47 372.727 125.106 374.772 126.683 376.817C128.377 378.862 129.955 380.906 131.708 382.834C135.096 386.807 138.66 390.663 142.282 394.402C145.788 397.966 149.059 401.88 151.922 406.087C154.843 410.235 157.239 414.734 159.225 419.407C161.153 424.198 162.73 429.164 163.315 434.305Z" fill="#006A41"/>
<path d="M149.001 293.68C136.966 280.243 116.576 276.329 104.6 263.651C109.39 265.287 114.006 265.637 116.343 263.242C122.302 257.107 106.06 248.928 95.8362 249.395C91.2792 238.762 93.5577 235.724 83.0999 231.635C77.4912 225.384 62.4764 224.507 60.0227 230.875C54.0635 230.758 48.5133 229.473 44.8326 224.332C51.4344 219.424 61.1327 215.159 80.2371 221.995C115.7 234.556 129.605 255.939 149.001 293.68Z" fill="#007052"/>
<path d="M164.191 387.742C164.834 386.106 164.367 383.652 163.256 380.731C163.14 379.504 163.081 378.336 163.081 377.05C162.731 353.447 156.83 353.564 151.747 337.03C150.403 332.649 150.52 328.618 151.221 324.762C152.799 323.126 153.208 320.847 152.74 318.335C153.909 313.836 155.077 309.513 154.61 305.015C166.645 331.539 160.569 334.285 168.281 366.184C171.67 380.264 171.669 393.701 170.384 404.918C167.93 400.42 165.535 394.578 164.191 387.742Z" fill="#007052"/>
</svg>
