<?xml version="1.0" encoding="utf-8"?>
<!-- Generator: Adobe Illustrator 25.4.5, SVG Export Plug-In . SVG Version: 6.00 Build 0)  -->
<svg version="1.1" id="Layer_1" xmlns="http://www.w3.org/2000/svg" xmlns:xlink="http://www.w3.org/1999/xlink" x="0px" y="0px"
	 viewBox="0 0 2000 2000" style="enable-background:new 0 0 2000 2000;" xml:space="preserve">
<style type="text/css">
	.st0{fill:#A2DD7D;}
	.st1{fill:#8AC65C;}
</style>
<path class="st0" d="M1268.7,1426.4c0,0,75.9-74.1,197.3-25s114.3,42.8,170.2,104.7l72,59.8c0,0-10.5,5.9-115,23.5
	c-104.5,17.5-172.6,31.8-225.6-0.6c-53-32.4-131.1-133.7-135.9-148.4C1226.8,1425.9,1268.7,1426.4,1268.7,1426.4z"/>
<path class="st0" d="M1052.9,1388.1c0,0,55.3,22.9,119.3,81c63.9,58.1,92.6,115.4,111.7,163c19.1,47.7,38.2,114.4,38.2,114.4
	s-164.1-62.9-218.5-121C1049.2,1567.4,1030.1,1443.4,1052.9,1388.1z"/>
<path class="st0" d="M884.1,1288.2c0,0,76.5,51.7,97.5,117.8c21,66.1,34.8,169.3,28.3,218.9c-6.4,49.5-12.6,80-8.3,113.4
	c0,0-32.1-21.4-65-55.3s-65.9-58.2-94.2-147.3C814.1,1446.5,826.5,1316,884.1,1288.2z"/>
<path class="st0" d="M752.9,1100.4c0,0,53.9,98.9,55,169.5c1.1,70.6-6.2,144.4-40.1,199.4c-33.9,54.9-79.1,114.1-79.1,114.1
	s-21.3-72.6-34.2-174.2C641.5,1307.5,703,1138.8,752.9,1100.4z"/>
<path class="st0" d="M655.6,883.5c0,0,32.6,61.9,34.2,135.3c1.5,73.4-32.2,147.1-100.6,214.3c-68.3,67.2-91.2,152.9-91.2,152.9
	s-74.3-191.2-16.3-312.5S636.1,900.4,655.6,883.5z"/>
<path class="st0" d="M587.5,861.9c-23.8,50.3-66.2,89.9-120.4,120.3c-54.2,30.4-82.3,19.3-115.1,59.5
	c-32.8,40.2-60.1,66.4-60.1,66.4s18.5-127,55.3-221.4c36.8-94.4,48.4-132,104-169c55.6-37,143.4-70.3,143.4-70.3
	S611.3,811.6,587.5,861.9z"/>
<path class="st0" d="M641.9,686.9c0,0,43-3.6,111.1,6.5c68.1,10,94.6,1.9,153.6,44.8c58.9,42.9,74.5,82.6,99.5,96.2
	c25,13.6,68.3,41.1,68.3,41.1S1045,909.4,941,909.3c-104-0.1-178.9,14.6-223.9-46.6c-45-61.2-96.2-163.9-96.2-163.9L641.9,686.9z"/>
<path class="st0" d="M756.9,1043.8c0,0,54.8-37.9,105.7-45.9c50.9-8,86.1-7.1,146.6,14.1c60.5,21.2,93.8,37.1,104.6,37.9
	c10.8,0.8-5.7,20.6-72.8,55.1C973.8,1139.4,798.1,1190.3,756.9,1043.8z"/>
<path class="st0" d="M871.9,1255c0,0,84.2-58.9,137-69.9c52.8-11,120.3-37.5,165-15.1c44.6,22.4,121.8,42.1,121.8,42.1
	s-49.5,0.7-92.1,34.4c-42.6,33.7-82.8,65.5-149.7,68.4C986.9,1317.8,871.9,1255,871.9,1255z"/>
<path class="st0" d="M1130,1387.9c0,0,133.2-123.3,235.9-141.3c102.7-18,187.7-20.4,187.7-20.4s-55,6.7-153,76.4
	C1302.5,1372.3,1180.5,1388.6,1130,1387.9z"/>
<path class="st1" d="M1276.6,1448.4c0,0-177.8-69.2-247.6-112.9c-69.8-43.7-99.3-40.8-141-90c-41.7-49.2-63.6-81.8-90.4-129.1
	c-26.7-47.3-84.7-149.6-105.5-186.4c-20.8-36.8-37.1-65.6-43.1-155.8c-6-90.2-57.5-199.7-54.7-249.8c2.8-50.1-14.3-147.8-9.7-188.6
	c4.7-40.8,8.2-77.4-6.7-103.7c-14.9-26.3-62.3-54.9-57.1-33.5c5.1,21.3,36.6,107.5,34.9,153.5c-1.7,46,17.7,159.8,17.1,201.7
	c-0.5,41.9-2.5,56.9,8.5,113c11,56.2,41.2,170.8,50.8,200c9.6,29.2,32.6,82.1,60.8,132c28.2,49.9,68.3,120.8,92.8,176.2
	c24.5,55.5,74,100.2,105,124.3c31,24.1,151.9,90.8,182.2,101.4C1103.1,1411.4,1276.6,1448.4,1276.6,1448.4z"/>
<path class="st1" d="M1664.5,1561.3c-41.6-5.4-82.9-13.2-123.9-21.9c-20.5-4.2-40.9-9.2-61.3-14c-20.3-5.1-40.7-10.3-60.9-16
	c-20.2-5.7-40.3-11.8-60.3-18l-29.9-10c-5-1.7-10-3.3-14.9-5.1l-14.8-5.6c-19.8-7.2-39.1-15.5-58.3-24.1l-28.3-13.9
	c-9.2-5.2-18.2-10.6-27.2-15.9c38.3,17.2,77.9,30.1,117.6,42.9c39.8,12.5,79.8,24.3,120.1,35.4c40.2,11.4,80.5,22.2,120.9,33.1
	C1583.8,1538.9,1624.1,1549.8,1664.5,1561.3z"/>
<path class="st1" d="M1488.8,1242c-29.4,14.1-59.8,25.7-90.4,36.8c-15.5,5.5-30,10.9-44.5,17.7c-14.4,6.9-28.8,14-42.9,21.8
	l-42.8,22.9c-14.4,7.4-28.8,15.1-43.8,21.8c-14.9,6.8-30,13.2-45.8,17.9c-15.7,4.5-32.2,8.3-48.5,7c16.2-2.1,31.3-7.6,46-13.9
	c14.8-6.2,28.9-13.9,43.1-21.4c14.1-7.9,28.2-15.7,42.2-23.8c14.1-8,28.3-15.9,42.6-23.7c14.4-7.6,29.2-14.8,44.2-21.5
	c15.2-6.3,31.2-11.8,46.7-15.9C1426,1258.7,1457.3,1250.3,1488.8,1242z"/>
<path class="st1" d="M1304.3,1727.4c-1.6-4.2-4.1-8-6.7-11.6c-2.5-3.7-5.3-7.2-8.1-10.7c-5.7-7-11.6-13.7-17.7-20.3
	c-12.1-13.2-24.8-26-37.6-38.6l-39-37.3c-13-12.6-25.9-25.2-38.5-38.4c-12.5-13.2-24.6-26.9-35.9-41.2c-5.5-7.3-11.1-14.5-16.2-22.2
	c-2.5-3.8-5.3-7.5-7.6-11.4l-7-11.9c-18.4-31.7-30.3-67.8-31.3-104.1c7.3,35.5,21.6,68.5,41.3,98c19.6,29.6,42.8,56.7,67.7,82.5
	c24.5,26.1,50.7,50.9,75.1,78c12.2,13.5,23.8,27.4,34.8,42c5.3,7.4,10.7,14.8,15.4,22.6C1297.5,1710.5,1302.3,1718.5,1304.3,1727.4z
	"/>
<path class="st1" d="M871.9,1255c29.9,10.5,61,16.1,92,16.6c15.4,0,30.8-1,45.9-3.8c15-2.6,29.9-7.1,44.6-12.1
	c29.4-10,58-23.4,87.7-34.9c14.8-5.8,30-11.1,45.8-14.5c15.7-3.2,32.5-4.7,47.9-0.1c-15.9-1.3-31.3,2.1-45.9,7.2
	c-14.7,4.9-28.9,11.5-43.2,18.2c-14.2,6.8-28.5,13.5-42.9,20.3c-14.5,6.5-29.3,12.7-44.5,18c-15.4,4.9-30.9,9.6-47.2,11.9
	c-16.2,2.1-32.6,2.9-48.7,1.4C931,1280.4,899.3,1271.1,871.9,1255z"/>
<path class="st1" d="M998,1692.4c-4.8,1.6-10.3-0.1-14.6-2.7c-1.2-0.6-2.2-1.3-3.2-2.2c-1-0.8-2.1-1.6-3-2.4
	c-1.7-1.9-3.7-3.6-5.3-5.6c-6.7-7.9-11.2-17.1-15.5-26.2c-8-18.6-13.7-38.1-17.9-57.7c-8.8-39.2-13.4-78.9-18.7-118.1
	c-4.9-39.3-10.7-78.3-20-116.5c-9.4-38.2-22.9-75.3-40-111.3c22.5,32.9,39.5,69.8,51.3,108.2c5.9,19.2,10.4,38.8,14.3,58.5
	c3.6,19.7,6.6,39.5,9.3,59.2l7.2,59.1c2.2,19.7,5.1,39.2,8.1,58.7l2.5,14.5l3,14.4c2.1,9.6,4.6,19,7.8,28.3
	c3.2,9.2,6.7,18.4,12,26.4c1.2,2.1,2.8,3.9,4.2,5.8c1.7,1.7,3.2,3.6,5.2,5C988.3,1690.8,993,1693.2,998,1692.4z"/>
<path class="st1" d="M1086.7,1060.9c-26.4,11.5-54.2,19.7-82.3,26.1c-28.1,6.4-56.8,10.7-85.7,12.5c-28.9,1.6-58.2,1-86.9-4.1
	c-28.6-4.8-57-14.2-81.2-30c26.9,10.2,54.7,15.8,82.7,18.4c14,1.3,28.1,2,42.2,1.9c14.1,0.2,28.2-0.3,42.3-1.2
	c14.1-0.7,28.2-2,42.3-3.6c14.1-1.4,28.1-3.5,42.2-5.4C1030.5,1071.4,1058.5,1066.4,1086.7,1060.9z"/>
<path class="st1" d="M756.6,1081.6c3.8,9.4,6.5,19.2,9.2,28.9c2.7,9.8,4.9,19.6,7.2,29.5c4.2,19.8,7.6,39.8,9.5,60.1
	c2,20.3,2.6,40.9,0,61.7c-1.5,10.6-3.9,20.5-6.6,30.4c-2.6,9.9-5.8,19.7-9.2,29.3c-7,19.2-15.4,37.8-23.2,56.1
	c-3.9,9.2-7.5,18.3-10.6,27.6c-1.6,4.6-2.8,9.4-4.1,14.1L725,1434c-9.8,39-20.1,78-31.9,116.6c5.7-40,12.8-79.7,20.5-119.2l2.9-14.9
	c1.1-5.1,2.4-10.1,3.8-15.1c2.9-9.9,6.3-19.6,10-29.1c7.5-18.9,15.7-37.1,22.2-55.8c3.4-9.3,6.5-18.7,9.2-28.2
	c2.8-9.5,5-19.2,6.7-28.5c3.2-19.1,3-39,2.3-58.9c-0.9-19.9-2.7-39.8-5.1-59.7c-1.2-10-2.5-19.9-4-29.9c-0.7-5-1.5-9.9-2.3-14.9
	C758.6,1091.5,757.8,1086.5,756.6,1081.6z"/>
<path class="st1" d="M1040.6,878.6c-17.2,10-38,12.6-57.9,11.8c-10.1-0.4-20-2.2-29.9-4.3c-4.9-1.2-9.7-2.6-14.5-4.1l-14.2-5.1
	c-18.3-7-36.4-13.7-55-19.9c-18.6-6.3-37.5-13.6-55.3-22.5c-35.5-18-69-38.6-101.7-60.7c-16.3-11.1-32.3-22.7-47.8-34.9
	c-7.7-6.2-15.3-12.4-22.7-19.1c-7.3-6.6-14.5-13.5-20.7-21.2c7.3,6.6,15.3,12.2,23.3,17.9c8,5.6,16.2,11,24.4,16.3
	c16.4,10.7,33.1,20.9,49.8,31c16.8,9.9,33.6,20,50.7,29.5c17,9.6,34,19.2,51.4,27.7c17.2,8.9,35,15.8,53.4,22.6
	c18.4,6.9,36.9,14.2,54.8,22.5c17.5,8.1,35.7,14.2,54.7,16.9C1002.2,885.8,1022.1,885.5,1040.6,878.6z"/>
<path class="st1" d="M606.2,649c-1.2,2.6-1,5.6-1.2,8.4l-0.3,8.6c-0.3,5.7-0.7,11.4-1.3,17.2c-1.1,11.4-3.1,22.8-5.8,34.1
	c-5.5,22.5-14.3,44.4-26.4,64.4c-3,5-6.2,9.9-9.6,14.7c-1.7,2.4-3.3,4.8-5.1,7.1l-5.4,6.9c-3.5,4.7-7.6,8.9-11.4,13.4
	c-4.1,4.2-8.1,8.5-12.5,12.4c-17.2,16.2-37.1,28.6-55.4,41.6c-18.5,12.8-36.1,26.7-51.7,42.6c-15.7,15.6-29.4,33.7-42.7,51.9
	c-26.3,36.8-50.3,75.6-73.6,114.9c17.8-42.1,39.1-82.9,64-121.5c12.5-19.3,26.2-38,42.2-55.2c16.1-17,34.4-31.6,53.3-45
	c19-13.1,38.1-25,54.5-39.8c16.8-14.4,30.8-32,43.6-50.2c12.3-18.5,22.2-38.8,29.2-60.2c3.6-10.7,6.4-21.6,8.7-32.7
	c1.2-5.6,2.2-11.1,3.1-16.8l1.5-8.5C604.5,654.5,604.6,651.4,606.2,649z"/>
<path class="st1" d="M500.6,1348.6c-3.4-4.2-4.2-9.8-4.9-15.1c-0.4-5.3-0.5-10.7-0.1-16c0.6-10.7,2.4-21.2,4.5-31.7
	c4.5-20.8,10.6-41.2,17.7-61.3c7.2-20.4,17.5-39.6,29.5-57.4c12.1-17.8,26.1-34.2,40.6-49.7c14.6-15.4,29.9-30,43.6-45.4
	c13.6-15.4,26-31.5,26.6-51.3c1-10.2,1.2-20.6,1.3-31.1c0.1-10.4-0.2-20.9-0.6-31.4c-0.8-21-2.6-42-4.5-63
	c5.2,20.5,8.9,41.3,11.8,62.3c2.6,21,4.5,42.3,3.7,63.8c-0.1,5.2-0.5,11.3-2.1,17c-1.6,5.6-3.8,11-6.5,15.9c-5.4,10-12.1,18.7-19,27
	c-14.1,16.3-29.2,31-43.4,46.3c-28.8,30.1-54.3,63-70.2,101.1c-7.8,19.3-15.4,38.9-21.5,58.9c-3.1,10-5.7,20.1-7.5,30.3
	c-1,5.1-1.5,10.3-1.7,15.5C497.9,1338.5,497.9,1344,500.6,1348.6z"/>
</svg>
