<svg width="603" height="564" viewBox="0 0 603 564" fill="none" xmlns="http://www.w3.org/2000/svg">
<path d="M215.118 261.118C215.118 261.118 224.324 240.672 251.997 240.949C279.67 241.226 277.811 240.513 293.574 248.402L312.441 254.616C312.441 254.616 310.822 256.563 291.629 268.13C272.435 279.697 260.123 287.72 247.198 285.451C234.274 283.181 210.984 269.263 208.897 266.854C206.81 264.445 215.118 261.118 215.118 261.118Z" fill="#B4DC82"/>
<path d="M169.692 270.259C179.898 270.917 189.937 273.184 199.436 276.976C212.667 281.91 224.521 289.947 234.003 300.411C241.461 308.334 250.369 319.994 250.369 319.994C250.369 319.994 213.217 320.302 198.024 313.056C182.831 305.809 169.475 282.908 169.692 270.259Z" fill="#B4DC82"/>
<path d="M128.768 263.654C128.768 263.654 147.833 267.893 157.054 279.296C166.276 290.699 177.011 309.942 179.551 320.17C182.091 330.398 183.237 336.888 186.665 343.131C180.807 341.722 175.095 339.76 169.608 337.273C160.518 333.151 152.136 330.917 139.679 315.574C127.221 300.231 119.569 273.654 128.768 263.654Z" fill="#B4DC82"/>
<path d="M88.4106 236.858C88.4106 236.858 106.657 252.157 112.345 265.95C118.033 279.743 122.29 294.852 119.848 308.295C117.407 321.738 113.113 336.909 113.113 336.909C105.639 326.854 98.8896 316.281 92.9149 305.268C82.5095 286.26 81.5665 248.235 88.4106 236.858Z" fill="#B4DC82"/>
<path d="M52.5208 201.658C59.852 208.386 65.7023 216.567 69.6992 225.68C75.6704 240.013 74.7346 257.133 66.466 275.636C61.4773 287.349 59.3764 300.089 60.3404 312.783C60.3404 312.783 30.8808 280.887 32.9893 252.543C35.0978 224.199 49.9971 206.494 52.5208 201.658Z" fill="#B4DC82"/>
<path d="M37.4341 202.622C36.7146 214.379 31.4146 225.534 23.0516 235.638C14.6887 245.742 8.25748 245.808 4.99593 256.251C3.08544 262.27 0.853212 268.183 -1.69108 273.963C-1.69108 273.963 -7.86212 247.545 -7.9047 226.105C-7.94729 204.665 -8.58655 196.379 -0.500157 184.808C7.58624 173.237 22.2726 159.873 22.2726 159.873C22.2726 159.873 38.25 190.918 37.4341 202.622Z" fill="#B4DC82"/>
<path d="M34.6363 164.017C41.8182 160.814 49.3135 158.366 57.0015 156.714C71.1572 153.416 75.6887 149.762 90.6748 153.685C105.661 157.607 111.729 164.158 117.695 164.903C123.662 165.648 134.309 167.711 134.309 167.711C134.309 167.711 131.148 176.636 110.68 184.67C90.2133 192.703 76.5959 201.3 63.0261 192.807C49.4562 184.314 31.3644 167.988 31.3644 167.988L34.6363 164.017Z" fill="#B4DC82"/>
<path d="M84.8254 225.378C84.8254 225.378 92.6831 213.758 102.088 208.161C111.492 202.563 118.465 200.038 132.073 199.579C145.681 199.119 153.38 199.616 155.59 198.936C157.8 198.256 156.044 203.425 145.512 215.4C134.979 227.375 104.272 251.007 84.8254 225.378Z" fill="#B4DC82"/>
<path d="M123.772 258.052C123.772 258.052 135.801 239.951 145.335 233.706C154.869 227.461 166.116 217.033 176.631 217.983C187.146 218.934 203.859 216.856 203.859 216.856C197.432 219.832 192.046 224.668 188.396 230.739C182.619 240.661 177.164 250.042 164.226 255.778C151.288 261.513 123.772 258.052 123.772 258.052Z" fill="#B4DC82"/>
<path d="M184.854 264.259C184.854 264.259 201.528 229.633 220.349 218.229C231.714 211.306 243.514 205.124 255.676 199.721C255.676 199.721 245.362 205.292 231.454 226.579C217.546 247.865 194.85 260.497 184.854 264.259Z" fill="#B4DC82"/>
<path d="M218.365 264.831C218.365 264.831 178.028 264.962 160.928 261.755C143.828 258.547 138.21 261.405 126.203 254.941C116.326 249.799 107.022 243.624 98.4475 236.518L63.2926 207.994C56.3663 202.361 50.9191 197.947 42.7668 180.66C34.6145 163.373 16.0264 145.796 12.6968 135.727C9.36725 125.658 -1.49065 107.819 -3.78252 99.3428C-6.07439 90.8663 -8.10243 83.4786 -13.1009 79.4651C-18.0993 75.4515 -29.5949 73.474 -26.9308 77.2825C-24.2666 81.091 -11.418 95.6832 -8.19662 104.791C-4.97519 113.898 7.63549 134.895 10.7532 143.173C13.871 151.451 14.6573 154.566 21.1698 164.755C27.6823 174.943 42.4624 195.185 46.624 200.192C53.3691 207.924 60.7835 215.045 68.7809 221.472C78.1778 229.103 91.5622 239.949 100.647 248.991C109.732 258.033 122.974 262.979 130.925 265.322C138.875 267.666 167.821 271.457 174.644 271.208C181.466 270.959 218.365 264.831 218.365 264.831Z" fill="#9DC563"/>
<path d="M303.423 257.077C294.811 259.26 286.105 260.879 277.356 262.348C272.991 263.101 268.602 263.684 264.177 264.325C259.752 264.967 255.378 265.417 250.984 265.868C246.59 266.319 242.136 266.659 237.777 266.995L231.105 267.221C230.009 267.258 228.894 267.295 227.778 267.333L224.452 267.445C220.01 267.595 215.558 267.424 211.199 267.211L204.557 266.66C202.352 266.337 200.145 265.995 197.976 265.633C206.804 265.9 215.64 265.684 224.445 264.985C233.255 264.385 242.059 263.615 250.857 262.674C259.646 261.81 268.43 260.813 277.254 259.891C286.078 258.968 294.596 257.943 303.423 257.077Z" fill="#9DC563"/>
<path d="M244.179 207.811C239.487 212.852 234.402 217.49 229.238 222.036C226.628 224.319 224.185 226.502 221.903 228.964C219.621 231.425 217.322 233.944 215.14 236.572L208.478 244.367C206.218 246.941 203.979 249.553 201.565 252.038C199.183 254.563 196.633 256.926 193.933 259.108C191.256 261.345 188.2 263.083 184.91 264.238C187.833 262.518 190.5 260.396 192.833 257.934C195.271 255.581 197.452 252.952 199.655 250.38C201.858 247.808 204 245.124 206.123 242.422C208.245 239.72 210.466 237.109 212.685 234.479C214.905 231.849 217.279 229.309 219.731 226.842C222.229 224.415 224.89 222.162 227.697 220.101C233.12 215.962 238.621 211.878 244.179 207.811Z" fill="#9DC563"/>
<path d="M245.388 317.607C244.734 316.904 243.988 316.293 243.17 315.79C242.376 315.268 241.565 314.784 240.735 314.301C239.096 313.373 237.402 312.521 235.708 311.689C232.28 309.912 228.808 308.497 225.332 306.987L214.778 302.65C211.247 301.179 207.715 299.69 204.217 298.067C200.718 296.444 197.309 294.667 193.97 292.736C192.309 291.732 190.649 290.747 189.059 289.627C188.265 289.068 187.434 288.566 186.676 287.967L184.382 286.152C178.22 281.401 173.335 275.193 170.167 268.086C174.319 274.406 179.642 279.873 185.848 284.191C192.07 288.499 198.668 292.235 205.563 295.353C212.408 298.585 219.487 301.45 226.359 304.889C229.806 306.665 233.177 308.444 236.443 310.472C238.068 311.515 239.692 312.539 241.226 313.717C242.81 314.786 244.215 316.099 245.388 317.607Z" fill="#9DC563"/>
<path d="M123.772 258.051C130.396 257.815 136.94 256.514 143.151 254.199C146.194 253.046 149.123 251.61 151.899 249.91C154.654 248.172 157.27 246.224 159.725 244.082C164.748 239.844 169.334 235.015 174.285 230.344C176.747 228.007 179.389 225.868 182.187 223.946C184.948 221.961 188.153 220.683 191.522 220.224C188.387 221.283 185.502 222.971 183.042 225.185C180.55 227.355 178.183 229.665 175.953 232.104C173.689 234.546 171.387 236.971 169.066 239.415C166.746 241.858 164.27 244.175 161.733 246.399C159.122 248.616 156.328 250.61 153.382 252.358C150.379 254.072 147.195 255.449 143.889 256.464C137.384 258.479 130.513 259.021 123.772 258.051Z" fill="#9DC563"/>
<path d="M182.395 334.381C181.956 334.699 181.453 334.918 180.921 335.024C180.389 335.13 179.841 335.121 179.313 334.996C179.04 334.965 178.772 334.904 178.512 334.815L177.728 334.558C177.247 334.328 176.73 334.137 176.266 333.869C174.402 332.782 172.695 331.446 171.194 329.896C168.233 326.844 165.584 323.504 163.288 319.925C158.529 312.913 154.549 305.44 150.48 298.121C146.542 290.788 142.196 283.682 137.462 276.835C132.611 270.028 127.093 263.723 120.989 258.013C127.978 262.828 134.197 268.673 139.437 275.349C142.085 278.685 144.474 282.2 146.77 285.756C149.066 289.312 151.121 293.009 153.176 296.705L159.229 307.855C161.247 311.572 163.264 315.289 165.275 318.798L166.897 321.449L168.612 324.06C169.761 325.778 170.998 327.435 172.319 329.025C173.615 330.624 175.099 332.061 176.739 333.304C177.147 333.612 177.59 333.843 178.015 334.113C178.46 334.356 178.93 334.549 179.416 334.69C179.906 334.852 180.425 334.908 180.939 334.855C181.453 334.802 181.949 334.64 182.395 334.381Z" fill="#9DC563"/>
<path d="M151.063 203.233C146.705 207.496 141.964 211.35 136.9 214.744C131.847 218.186 126.527 221.22 120.991 223.816C115.431 226.45 109.587 228.438 103.574 229.741C97.5687 231.112 91.3459 231.238 85.2895 230.112C91.2861 229.999 97.239 229.066 102.982 227.338C105.83 226.504 108.6 225.578 111.438 224.46C114.276 223.342 117.039 222.227 119.665 220.965C122.29 219.703 125.046 218.38 127.702 216.909C130.358 215.438 132.96 214.044 135.597 212.574C140.796 209.635 145.951 206.522 151.063 203.233Z" fill="#9DC563"/>
<path d="M87.7083 232.851C89.1124 234.439 90.4317 236.1 91.6606 237.827C92.9485 239.543 94.1432 241.301 95.3573 243.076C97.7264 246.667 99.8984 250.385 101.864 254.211C103.904 258.067 105.508 262.139 106.645 266.351C107.124 268.485 107.469 270.648 107.677 272.826C107.92 274.994 108.069 277.146 108.142 279.32C108.288 283.649 108.017 287.954 107.913 292.159C107.852 294.261 107.846 296.343 107.973 298.402C108.008 299.441 108.137 300.478 108.247 301.496L108.638 304.662C109.737 313.103 110.706 321.624 111.388 330.079C109.424 321.762 107.76 313.397 106.228 305.027L105.63 301.868C105.461 300.795 105.33 299.702 105.217 298.608C105.03 296.438 104.957 294.264 104.998 292.106C105.023 287.809 105.221 283.582 105.061 279.405C104.99 277.307 104.92 275.228 104.698 273.154C104.511 271.093 104.214 269.044 103.81 267.014C102.831 262.969 101.463 259.029 99.7229 255.249C98.0038 251.408 96.1159 247.612 94.0982 243.895C93.1083 242.036 92.0806 240.178 91.015 238.322C90.4917 237.393 89.9495 236.465 89.4086 235.575C88.8677 234.685 88.3235 233.7 87.7083 232.851Z" fill="#9DC563"/>
<path d="M127.965 170.933C125.178 174.138 121.547 176.497 117.485 177.74C115.469 178.413 113.395 178.901 111.29 179.198C110.236 179.347 109.16 179.44 108.104 179.533L104.928 179.64C100.789 179.78 96.701 179.747 92.5675 180.057C88.3599 180.287 84.1416 180.233 79.9412 179.897C71.6192 179.048 63.3578 177.684 55.2049 175.812C51.1251 174.908 47.0963 173.833 43.1014 172.643C41.1878 172.008 39.1229 171.377 37.1683 170.648C35.1836 169.943 33.2568 169.084 31.405 168.08C33.3586 168.755 35.3487 169.32 37.3657 169.771C39.3875 170.246 41.4082 170.688 43.4278 171.1C47.4867 171.947 51.5431 172.718 55.6139 173.356C59.6848 173.995 63.7771 174.708 67.8636 175.252C71.9502 175.795 76.0386 176.395 80.1181 176.73C84.1912 177.105 88.2844 177.213 92.3715 177.055C96.5296 176.914 100.733 177 104.905 177.256C108.948 177.528 113.009 177.219 116.965 176.338C121.024 175.48 124.805 173.622 127.965 170.933Z" fill="#9DC563"/>
<path d="M24.6758 159.319C24.7134 159.921 24.855 160.511 25.0942 161.065L25.6815 162.767C26.0604 163.902 26.4213 165.064 26.7641 166.25C27.4127 168.603 27.9106 170.994 28.2547 173.41C28.9274 178.297 28.8524 183.258 28.0323 188.122C27.8463 189.339 27.5847 190.559 27.2841 191.743C27.1533 192.353 27.003 192.945 26.8527 193.536L26.3072 195.315C25.9877 196.499 25.5157 197.65 25.101 198.819C24.6863 199.987 24.1765 201.14 23.608 202.238C21.3356 206.567 18.7638 210.732 15.9114 214.704C13.2371 218.608 10.9318 222.754 9.02551 227.085C7.2307 231.474 5.76402 235.989 4.63755 240.594C2.30227 249.889 0.578817 259.372 -0.972614 268.905C-0.745297 259.212 0.328013 249.557 2.23506 240.051C3.15489 235.231 4.50895 230.505 6.28066 225.929C8.17732 221.366 10.5209 217.002 13.2771 212.9C16.0902 209.056 18.6471 205.032 20.9311 200.852C23.0489 196.649 24.6278 192.196 25.6304 187.598C26.6256 182.969 26.9875 178.227 26.7061 173.5C26.5868 171.11 26.3169 168.73 25.8979 166.374C25.7065 165.189 25.4779 164.023 25.2109 162.84L24.8479 161.054C24.7014 160.488 24.6434 159.903 24.6758 159.319Z" fill="#9DC563"/>
<path d="M57.9631 305.161C57.029 304.515 56.2917 303.623 55.8325 302.584C55.3407 301.562 54.9194 300.508 54.5717 299.428C53.8917 297.272 53.3683 295.07 53.0058 292.839C52.3167 288.397 51.9001 283.918 51.7583 279.426C51.663 274.851 52.1445 270.282 53.1914 265.827C54.2428 261.415 55.6341 257.091 57.3528 252.894C59.1044 248.728 60.8598 244.676 62.4249 240.592C63.99 236.509 65.1185 232.383 63.6993 228.457C63.0986 226.357 62.3473 224.282 61.5967 222.226C60.8461 220.169 59.9261 218.138 59.0438 216.105C57.2603 212.039 55.2898 208.037 53.2821 204.055C55.8752 207.703 58.2586 211.496 60.4207 215.415C62.6431 219.344 64.5349 223.452 66.0766 227.695C66.5073 228.821 66.8133 229.991 66.9891 231.184C67.0972 232.401 67.0814 233.625 66.9422 234.838C66.6198 237.147 66.0624 239.417 65.2787 241.612C63.7773 245.902 61.9274 249.958 60.3258 254.08C56.7757 262.082 54.7369 270.671 54.3124 279.415C54.2714 283.807 54.2891 288.253 54.6457 292.651C54.7824 294.854 55.0714 297.044 55.5104 299.207C55.7163 300.283 55.9987 301.342 56.3553 302.377C56.6322 303.432 57.1874 304.394 57.9631 305.161Z" fill="#9DC563"/>
<path d="M173.032 152.401C169.319 111.334 187.221 58.1669 187.221 58.1669C199.15 89.9408 189.321 137.376 183.546 154.371C204.378 118.254 247.237 74.2833 247.237 74.2833C247.663 105.723 210.542 142.39 194.459 156.372C228.542 134.743 301.697 125.886 301.697 125.886C280.646 160.259 199.305 168.742 199.305 168.742L197.871 169.748C264.82 157.347 322.283 201.23 322.283 201.23C276.297 218.231 193.5 175.441 193.5 175.441L192.461 179.195C255.594 192.613 282.508 273.461 282.508 273.461C236.103 257.39 188.368 183.903 188.368 183.903L187.237 184.876C187.237 184.876 200.845 210.859 208.086 230.816C215.327 250.773 209.656 290.607 209.656 290.607C209.656 290.607 188.838 269.056 177.207 242.941C165.576 216.826 169.058 184.343 169.058 184.343C169.058 184.343 161.724 229.155 152.605 246.95C147.163 257.59 139.513 266.949 130.166 274.402C130.166 274.402 117.187 253.043 120.867 229.996C124.547 206.948 164.777 173.096 164.777 173.096C148.103 181.66 130.734 188.799 112.858 194.437C82.9857 203.872 64.793 192.651 64.793 192.651C88.958 156.204 162.596 165.425 162.596 165.425C78.0885 126.132 4.16411 144.177 -5.31243 148.064C-10.6838 150.271 -7.37022 138.895 -7.37022 138.895C43.486 109.621 163.965 162.767 163.965 162.767C142.659 135.928 120.888 74.576 120.888 74.576C159.047 96.881 173.032 152.401 173.032 152.401Z" fill="#80AE5E"/>
<path d="M455.222 200.347C455.222 200.347 395.952 164.556 361.944 102.29C327.937 40.0249 199.297 0.313964 115.548 5.81755C31.7999 11.3212 -35.7235 77.6275 -20.7072 90.3185C-5.69096 103.009 22.2425 123.95 53.0664 126.388C83.8903 128.825 112.695 126.915 130.015 116.001C130.015 116.001 124.932 61.7126 133.127 69.5193C141.322 77.3261 131.24 109.122 146.156 108.345C161.071 107.568 219.104 116.055 235.208 125.547C235.208 125.547 230.745 76.351 238.569 85.238C246.392 94.125 247.206 126.24 251.912 126.616C256.618 126.992 304.212 147.721 304.212 147.721C304.212 147.721 304.804 105.169 309.762 111.817C314.719 118.464 322.409 151.711 322.409 151.711C322.409 151.711 414.859 200.587 455.222 200.347Z" fill="#008A45"/>
<path opacity="0.39" d="M-21.1515 89.8894C-34.2923 76.231 32.6786 11.3603 115.541 5.90357C199.29 0.399973 327.923 40.1975 361.937 102.376C395.952 164.555 455.215 200.433 455.215 200.433L454.28 200.421C444.552 196.593 395.885 176.996 355.899 153.496C343.517 146.244 330.777 139.621 317.728 133.652C315.223 124.702 312.122 115.19 309.743 111.913C307.364 108.635 305.85 117.996 305.105 128.073C285.98 119.903 266.298 113.106 246.209 107.732C244.486 98.9442 242.356 89.5346 238.65 85.3095C234.433 80.5306 233.786 92.6192 234.08 104.774C225.419 102.821 217 101.246 208.873 100.229C165.099 94.4832 164.496 82.9124 137.132 91.3333C136.809 82.7258 137.128 73.3326 133.157 69.5539C128.569 65.1909 128.118 80.2141 128.647 94.3052C101.543 104.882 87.908 120.541 35.8849 115.413C15.2654 113.357 -4.51566 102.616 -21.1515 89.8894Z" fill="#006F18"/>
<path d="M454.547 200.476L456.038 201.023C455.53 200.873 455.032 200.69 454.547 200.476Z" fill="#68B760"/>
<path d="M149.907 10.4511C244.5 16.446 327.022 48.7155 361.937 102.377C395.616 154.106 440.087 194.462 454.548 200.476C446.936 197.672 411.549 184.144 392.291 168.73C380.616 159.23 368.416 150.395 355.747 142.268L345.915 108.18L343.584 138.937C343.584 138.937 307.827 115.654 280.884 107.949C279.106 107.444 277.329 106.938 275.673 106.552C273.844 94.2484 267.637 62.1798 251.151 46.1445C251.151 46.1445 266.51 80.5558 267.677 104.718C248.215 100.754 233.825 101.226 210.665 95.3457L182.577 88.1895C182.577 88.1895 166.136 40.197 164.269 48.1453C162.402 56.0936 165.286 80.1681 165.286 80.1681C165.286 80.1681 157.811 68.8706 134.83 76.9551C120.067 82.133 107.049 94.6307 90.419 102.421C86.5493 91.2457 75.8914 67.8275 51.9111 56.9038C51.9111 56.9038 72.6003 85.5029 75.5366 107.6C69.8776 108.858 64.0719 109.333 58.2824 109.012C23.5257 107.133 -28.8612 87.4913 -25.4319 75.3375C-22.0026 63.1837 55.2716 4.431 149.907 10.4511Z" fill="#68B760"/>
<g opacity="0.15">
<path d="M-25.4348 75.2393C-22.0452 63.0387 55.3365 4.43639 149.907 10.4512C244.477 16.4659 327.022 48.7156 361.937 102.377C374.536 121.598 388.67 139.768 404.202 156.708C398.049 154.982 391.376 154.564 385.503 151.935C372.846 146.244 366.949 132.017 360.741 119.604C354.533 107.191 344.433 94.0328 330.568 94.3407C326.935 94.423 323.445 95.4317 319.773 95.7286C308.273 96.5468 297.611 89.343 290.03 80.6937C282.448 72.0444 276.835 61.6841 269.181 53.116C262.667 45.796 251.34 39.6808 243.619 45.7101C237.222 50.7159 237.161 61.6223 229.952 65.3634C227.403 66.5205 224.583 66.9482 221.805 66.5989C192.753 64.329 174.43 26.0695 145.385 28.2648C142.429 28.3668 139.556 29.2669 137.071 30.8697C133.916 33.1039 132.127 36.7572 130.229 40.1402C125.684 48.2058 118.987 55.9637 109.916 57.8419C98.6524 60.1714 87.946 52.9857 77.5843 47.9844C67.2227 42.9832 52.6325 40.9664 46.0592 50.4114C40.4278 58.453 44.2389 70.0808 39.7462 78.8476C36.3875 85.3229 28.8723 88.821 21.5822 89.2885C14.2921 89.756 7.08837 87.6934 0.113304 85.4971C-8.6959 82.8688 -17.2514 79.4535 -25.45 75.2925L-25.4348 75.2393Z" fill="#069456"/>
</g>
<path d="M456.038 201.023C456.038 201.023 405.952 162.231 357.716 95.3869C306.123 23.8998 165.95 -11.1189 83.6635 10.5235C2.23173 31.964 -64.9362 101.392 -65.5219 109.783C-66.1075 118.175 -52.9892 119.145 -52.9892 119.145C-52.9892 119.145 -3.00051 30.1615 115.652 15.779C115.652 15.779 281.569 1.03744 363.083 112.903C419.241 189.84 456.038 201.023 456.038 201.023Z" fill="#A9D97C"/>
<path opacity="0.15" d="M242.617 65.8926C235.456 69.311 239.298 89.25 249.404 91.5079C259.51 93.7657 249.777 62.4742 242.617 65.8926Z" fill="#069456"/>
<path opacity="0.15" d="M83.0764 60.7632C76.631 66.2332 82.9465 80.2667 94.9564 82.2782C106.966 84.2897 89.5499 55.3499 83.0764 60.7632Z" fill="#069456"/>
</svg>
