<svg width="359" height="299" viewBox="0 0 359 299" fill="none" xmlns="http://www.w3.org/2000/svg">
<path d="M64.4211 131.855C64.4211 131.855 86.8808 134.137 100.591 109.872C114.302 85.6073 113.954 87.5974 115.061 69.881L119.126 50.3808C119.126 50.3808 116.596 50.7897 96.8608 61.7071C77.1388 72.6411 63.9028 79.2842 59.3701 91.7035C54.8375 104.123 55.2554 131.343 56.4041 134.427C57.5096 137.491 64.4211 131.855 64.4211 131.855Z" fill="#A2DD7D"/>
<path d="M33.5578 166.831C33.5578 166.831 39.7325 155.689 42.6913 137.532C45.6334 119.388 42.8195 106.042 39.6924 95.5842C36.552 85.1094 30.8937 71.4704 30.8937 71.4704C30.8937 71.4704 11.9009 103.692 10.5409 120.577C9.18082 137.461 22.4325 160.643 33.5578 166.831Z" fill="#A2DD7D"/>
<path d="M18.6851 205.837C18.6851 205.837 24.5737 187.09 19.3114 173.299C14.049 159.508 2.67112 140.493 -4.98434 133.094C-12.6099 125.699 -17.6843 121.441 -21.3944 115.309C-21.3944 115.309 -23.9042 123.127 -24.8907 133.132C-25.8773 143.138 -28.1527 151.558 -21.0581 170.146C-13.9502 188.751 5.40868 208.841 18.6851 205.837Z" fill="#A2DD7D"/>
<path d="M21.7236 254.499C21.7236 254.499 17.5936 230.886 8.42086 218.983C-0.751862 207.08 -11.7475 195.757 -24.6817 191.09C-37.6025 186.439 -52.975 182.571 -52.975 182.571C-52.975 182.571 -46.9013 197.484 -35.5855 216.113C-24.2732 234.772 8.32478 254.717 21.7236 254.499Z" fill="#A2DD7D"/>
<path d="M34.2643 303.515C34.2643 303.515 31.4903 288.887 22.0298 276.451C12.5527 264.028 -2.82625 256.221 -23.1225 254.094C-43.4022 251.954 -58.5728 240.717 -58.5728 240.717C-58.5728 240.717 -45.6085 282.404 -19.8748 294.919C5.85887 307.433 28.7773 303.285 34.2643 303.515Z" fill="#A2DD7D"/>
<path d="M25.7854 316.137C15.1561 310.914 2.8473 309.938 -10.2075 312.058C-23.2622 314.178 -26.4709 319.75 -37.2605 317.402C-48.0501 315.054 -56.0685 314.309 -56.0685 314.309C-56.0685 314.309 -36.1576 333.007 -17.5193 343.851C1.11907 354.695 8.03362 359.42 22.1962 358.213C36.3587 357.007 55.3933 350.917 55.3933 350.917C55.3933 350.917 36.4147 321.359 25.7854 316.137Z" fill="#A2DD7D"/>
<path d="M58.0357 338.071C58.0357 338.071 65.6737 332.972 75.6763 322.266C85.6921 311.576 91.1786 309.413 95.319 294.45C99.4428 279.5 96.7797 270.822 99.1408 265.244C101.502 259.666 105.069 249.348 105.069 249.348C105.069 249.348 95.68 247.599 78.3737 261.397C61.0673 275.196 46.6459 282.674 47.262 298.829C47.8782 314.984 52.9615 338.872 52.9615 338.872L58.0357 338.071Z" fill="#A2DD7D"/>
<path d="M29.8902 263.395C29.8902 263.395 44.0388 262.445 53.5755 257.032C63.1123 251.619 68.855 246.804 76.1209 235.256C83.3868 223.708 86.8254 216.648 88.5179 215.083C90.2105 213.519 84.8388 212.408 69.0924 215.555C53.3426 218.731 17.3372 233.538 29.8902 263.395Z" fill="#A2DD7D"/>
<path d="M21.0537 212.983C21.0537 212.983 42.8813 211.633 53.1321 206.468C63.3828 201.303 78.1356 196.771 82.6113 187.117C87.0703 177.476 97.3161 163.965 97.3161 163.965C97.3161 163.965 88.9798 170.408 77.4196 170.441C65.8593 170.475 54.9505 170.506 43.425 178.889C31.8829 187.285 21.0537 212.983 21.0537 212.983Z" fill="#A2DD7D"/>
<path d="M46.4241 156.648C46.4241 156.648 84.9461 159.53 104.435 148.917C123.923 138.305 138.396 127.441 138.396 127.441C138.396 127.441 128.349 133.614 102.792 134.993C77.2185 136.386 54.7413 149.839 46.4241 156.648Z" fill="#A2DD7D"/>
<path d="M62.8219 127.145C62.8219 127.145 42.3825 162.232 36.5495 178.759C30.7165 195.287 25.4195 198.713 24.995 212.432C24.5705 226.152 25.2435 234.483 27.0486 245.912C28.8703 257.327 32.7681 282.05 34.1809 290.935C35.5938 299.82 36.6958 306.776 47.6499 322.592C58.604 338.409 64.5384 363.469 71.644 371.442C78.7495 379.414 88.849 397.95 95.0219 404.135C101.211 410.307 106.645 415.938 107.648 422.293C108.652 428.647 104.549 439.692 102.579 435.439C100.605 431.216 94.428 412.686 88.049 405.251C81.6699 397.815 69.8199 376.293 64.1674 369.395C58.5316 362.483 56.2107 360.25 50.6082 349.45C44.9925 338.633 34.835 315.546 32.5641 309.411C30.2933 303.276 27.1133 291.418 25.1968 279.371C23.2803 267.324 20.5627 250.203 17.3012 237.73C14.0264 225.241 16.3462 211.237 18.315 203.115C20.2839 194.994 31.5788 167.864 35.2201 162.083C38.8314 156.299 62.8219 127.145 62.8219 127.145Z" fill="#8AC65C"/>
<path d="M112.459 56.9386C106.247 63.3508 100.403 70.1228 94.7277 77.005C91.8703 80.4211 89.1356 83.9571 86.3744 87.4599C83.6696 90.9994 80.9614 94.5688 78.3528 98.1949C75.7442 101.821 73.2052 105.501 70.6961 109.184L67.042 114.811C66.4346 115.757 65.814 116.686 65.2365 117.635L63.5139 120.529C61.1706 124.352 59.0564 128.292 56.9986 132.268L54.1278 138.334C53.2848 140.419 52.5015 142.511 51.7051 144.586C55.804 136.646 60.6893 129.25 65.6044 121.857C70.576 114.501 75.6736 107.235 80.914 100.046C86.0979 92.8205 91.3781 85.6814 96.6616 78.5124C101.988 71.3634 107.255 64.2076 112.459 56.9386Z" fill="#8AC65C"/>
<path d="M125.511 133.396C118.747 134.944 112.147 137.041 105.58 139.247C102.27 140.385 99.1393 141.407 95.8234 142.197C92.511 142.956 89.172 143.682 85.7902 144.251L75.6278 146.109C72.2491 146.785 68.8306 147.411 65.4447 148.283C62.0622 149.125 58.6994 150.061 55.4453 151.372C52.2343 152.703 48.983 154.257 46.4407 156.633C49.4169 154.836 52.6604 153.751 55.9433 152.852C59.2297 151.923 62.5982 151.337 65.9569 150.704C69.3519 150.152 72.7337 149.582 76.1386 149.076C79.5469 148.539 82.9586 147.973 86.3737 147.377C89.7789 146.735 93.1978 145.972 96.5837 145.1C99.9499 144.135 103.343 142.931 106.468 141.559C112.84 138.937 119.166 136.188 125.511 133.396Z" fill="#8AC65C"/>
<path d="M30.4613 77.011C30.7515 77.9225 30.8387 78.8866 30.8828 79.8307C30.9568 80.7782 30.9543 81.7321 30.9518 82.686C30.9302 84.6071 30.8355 86.5048 30.6943 88.4123C30.4285 92.214 30.0098 96.0287 29.5479 99.8233L27.996 111.203C27.5008 115.024 27.0223 118.832 26.6732 122.7C26.3408 126.555 26.1413 130.44 26.1545 134.319C26.2059 136.263 26.2275 138.205 26.3986 140.163C26.4858 141.127 26.5099 142.114 26.6437 143.068L27.0549 145.978C28.1915 153.695 30.9938 161.284 35.6377 167.462C32.1489 160.583 30.1572 153.192 29.5286 145.668C28.8701 138.142 29.1424 130.554 29.8701 122.958C30.4914 115.365 31.5681 107.762 32.0403 100.016C32.283 96.1509 32.3727 92.2988 32.2698 88.4097C32.1718 86.475 32.0904 84.527 31.8395 82.6052C31.5685 80.7266 31.3077 78.7582 30.4613 77.011Z" fill="#8AC65C"/>
<path d="M21.0543 212.983C24.6422 207.272 29.0793 202.218 34.1756 198.027C36.7402 195.986 39.4374 194.112 42.3231 192.577C45.1657 191.022 48.2434 189.797 51.354 188.682C57.5753 186.451 64.114 184.892 70.584 182.872C73.8173 181.876 77.051 180.745 80.1328 179.217C83.1715 177.669 86.1681 175.693 88.1231 172.886C85.6475 175.209 82.6323 176.684 79.525 177.77C76.4276 178.902 73.1882 179.684 69.9189 180.463C66.6529 181.213 63.3836 181.992 60.0844 182.768C56.8083 183.607 53.5219 184.536 50.2883 185.667C47.0743 186.892 43.8701 188.164 40.8508 189.941C37.8747 191.738 35.0375 193.778 32.5551 196.161C27.5305 200.921 23.4837 206.671 21.0543 212.983Z" fill="#8AC65C"/>
<path d="M-15.9113 123.431C-16.9227 123.8 -17.6134 124.812 -17.9849 125.815C-18.1052 126.074 -18.179 126.323 -18.2263 126.606C-18.2868 126.871 -18.364 127.15 -18.4078 127.403C-18.4392 127.945 -18.5469 128.493 -18.5484 129.038C-18.6172 131.241 -18.1475 133.37 -17.6576 135.455C-16.525 139.613 -14.8901 143.616 -12.9922 147.436C-9.26289 155.13 -4.76791 162.351 -0.455762 169.582C3.93625 176.776 8.13863 184.04 11.6521 191.634C15.149 199.241 17.8173 207.208 19.7402 215.47C19.1273 207.009 17.0684 198.611 13.9448 190.652C12.3829 186.673 10.535 182.813 8.5738 179.015C6.56268 175.257 4.4384 171.562 2.2774 167.924L-4.35548 157.128C-6.59975 153.555 -8.70095 149.924 -10.7855 146.279L-12.2907 143.533L-13.6994 140.737C-14.6219 138.86 -15.4512 136.963 -16.1507 134.99C-16.837 133.034 -17.4733 131.038 -17.6508 129.004C-17.7293 128.495 -17.7014 127.983 -17.72 127.481C-17.6622 126.973 -17.6642 126.457 -17.5166 125.959C-17.3147 124.983 -16.85 123.96 -15.9113 123.431Z" fill="#8AC65C"/>
<path d="M82.5474 216.842C76.6269 218.425 70.9106 220.744 65.3828 223.402C59.8551 226.06 54.5057 229.147 49.4544 232.677C44.4295 236.24 39.6295 240.223 35.5258 244.876C31.3991 249.465 27.9152 254.794 25.9789 260.632C29.1069 255.369 32.9945 250.752 37.3129 246.609C39.4721 244.537 41.7275 242.552 44.0889 240.7C46.4105 238.798 48.8249 237.013 51.2923 235.294C53.7332 233.542 56.2536 231.89 58.8137 230.288C61.3474 228.653 63.9572 227.147 66.5571 225.595C71.7967 222.541 77.1223 219.663 82.5474 216.842Z" fill="#8AC65C"/>
<path d="M24.8308 257.14C24.2179 255.071 23.3689 253.081 22.5331 251.108C21.684 249.118 20.7517 247.194 19.8228 245.241C17.8983 241.387 15.8142 237.606 13.4404 233.973C11.0833 230.327 8.45333 226.817 5.26392 223.698C3.60941 222.131 1.89779 220.801 0.136204 219.51C-1.60873 218.206 -3.44035 216.998 -5.27876 215.85C-8.98888 213.58 -12.8526 211.595 -16.5767 209.582C-18.4454 208.566 -20.2508 207.528 -21.9995 206.39C-22.8756 205.836 -23.7115 205.195 -24.5509 204.585L-27.1317 202.641C-33.9321 197.444 -40.8156 192.315 -47.896 187.45C-41.646 193.356 -35.2025 199.027 -28.6857 204.584L-26.2282 206.681C-25.3691 207.385 -24.4901 208.045 -23.5943 208.692C-21.7994 209.957 -19.9477 211.122 -18.0726 212.213C-14.319 214.367 -10.5415 216.311 -6.98095 218.564C-5.18229 219.662 -3.42035 220.817 -1.71177 222.041C0.0134655 223.252 1.66529 224.576 3.18083 225.899C6.24487 228.656 8.84871 231.997 11.3693 235.404C13.8566 238.837 16.1939 242.389 18.4314 246.022C19.5568 247.846 20.6522 249.667 21.7276 251.531C22.2736 252.456 22.7898 253.378 23.3191 254.317C23.8519 255.226 24.3813 256.165 24.8308 257.14Z" fill="#8AC65C"/>
<path d="M99.0291 253.311C94.8396 253.925 91.0311 256.249 87.8231 259.019C86.1941 260.424 84.7839 262.036 83.4135 263.698C82.7565 264.547 82.1427 265.416 81.5421 266.302L79.8532 269.033C77.7332 272.624 75.6068 276.138 73.3309 279.636C71.0683 283.15 68.8882 286.87 67.1033 290.711C63.5767 298.413 60.7277 306.283 58.2107 314.297C56.9672 318.306 55.8398 322.358 54.8753 326.444C54.4146 328.496 53.9706 330.536 53.6261 332.633C53.285 334.699 53.0004 336.802 52.9883 338.906C53.3294 336.84 53.9195 334.847 54.4964 332.838C55.0866 330.845 55.7366 328.859 56.3998 326.89C57.713 322.934 59.1424 319.023 60.5851 315.128C62.0709 311.252 63.5302 307.344 65.119 303.496C66.6779 299.644 68.2368 295.793 70.0081 292.071C71.693 288.31 73.743 284.802 75.9061 281.231C78.0559 277.644 80.1694 273.976 82.0505 270.222C83.8914 266.554 86.1139 263.126 88.9203 260.159C91.6801 257.201 95.0339 254.614 99.0291 253.311Z" fill="#8AC65C"/>
<path d="M57.1139 349.113C56.5695 348.839 56.2052 348.313 55.8009 347.874L54.6113 346.481C53.8059 345.572 52.9839 344.675 52.1154 343.789C50.4215 342.036 48.5777 340.403 46.6306 338.879C42.7329 335.861 38.3653 333.38 33.6998 331.653C32.5376 331.217 31.3553 330.825 30.153 330.477C29.5519 330.302 28.9674 330.115 28.3628 329.97L26.5491 329.537C25.3434 329.218 24.104 329.062 22.8749 328.816C21.6355 328.66 20.3995 328.474 19.1499 328.407C14.1387 327.989 9.18144 328.561 4.41111 328.821C-0.366035 329.141 -5.13907 329.159 -9.84407 328.578C-14.526 328.061 -19.2061 326.862 -23.8329 325.593C-33.0895 322.95 -42.2281 319.669 -51.3163 316.212C-42.7729 320.864 -33.8189 324.836 -24.557 327.965C-19.9177 329.522 -15.158 330.821 -10.2141 331.565C-5.28008 332.263 -0.297709 332.269 4.62556 331.996C9.52572 331.66 14.2835 331.11 18.976 331.402C23.682 331.573 28.3459 332.649 32.8894 333.984C37.3894 335.435 41.7282 337.503 45.7299 340.14C47.7474 341.444 49.6581 342.889 51.5121 344.432C52.4541 345.206 53.3495 345.989 54.2547 346.819L55.631 348.036C56.1019 348.423 56.5294 348.926 57.1139 349.113Z" fill="#8AC65C"/>
<path d="M-53.1851 246.601C-53.1947 247.751 -52.5858 248.789 -52 249.765C-51.3643 250.7 -50.6653 251.613 -49.8964 252.443C-48.3785 254.145 -46.6873 255.655 -44.9461 257.125C-41.4403 259.993 -37.721 262.582 -33.8749 264.988C-29.9725 267.431 -25.7128 269.264 -21.3555 270.638C-16.9816 271.999 -12.4768 272.875 -8.008 273.534C-3.53579 274.164 0.946977 274.568 5.2693 275.317C9.57498 276.08 13.7736 277.118 16.4974 280.335C18.0156 281.902 19.4272 283.607 20.8353 285.342C22.2301 287.061 23.5716 288.849 24.8965 290.651C27.5462 294.254 30.0293 297.99 32.4958 301.739C30.6451 297.636 28.5049 293.682 26.2049 289.8C23.855 285.958 21.3487 282.159 18.3663 278.685C17.6606 277.832 16.7856 276.869 15.7638 276.132C14.7552 275.412 13.6732 274.804 12.5742 274.346C10.3498 273.396 8.08105 272.835 5.83205 272.367C1.32384 271.521 -3.13889 271.074 -7.53123 270.408C-16.3163 269.212 -24.9228 267.112 -32.6197 262.874C-36.4763 260.694 -40.3394 258.437 -44.0056 255.915C-45.8471 254.66 -47.6185 253.323 -49.27 251.862C-50.1124 251.146 -50.8847 250.346 -51.6072 249.506C-52.2963 248.64 -53.0251 247.725 -53.1851 246.601Z" fill="#8AC65C"/>
<g clip-path="url(#clip0_133_750)">
<path d="M87.8199 265.563C55.6576 272.689 11.7092 263.912 11.7092 263.912C35.6911 251.237 74.2749 254.161 88.3143 257.025C57.601 244.2 18.3987 214.738 18.3987 214.738C43.2754 211.195 76.0648 236.868 88.7802 248.174C68.1489 223.423 53.8145 166.361 53.8145 166.361C83.1835 179.555 98.1743 243.088 98.1743 243.088L99.1244 244.158C82.4343 192.331 111.453 142.407 111.453 142.407C129.568 177.1 104.031 247.035 104.031 247.035L107.105 247.477C111.366 196.116 172.705 166.558 172.705 166.558C164.662 204.957 111.263 250.249 111.263 250.249L112.151 251.04C112.151 251.04 131.356 237.618 146.452 229.845C161.548 222.072 193.648 222.474 193.648 222.474C193.648 222.474 178.679 241.155 159.155 253.033C139.63 264.911 113.549 265.443 113.549 265.443C113.549 265.443 149.807 266.697 164.813 272.093C179.827 277.503 188.862 287.098 188.862 287.098C188.862 287.098 173.242 299.546 154.626 298.98C135.996 298.42 105.099 269.992 105.099 269.992C105.099 269.992 116.764 286.254 127.259 308.937C137.761 331.634 130.697 347.182 130.697 347.182C99.378 331.754 99.2487 272.499 99.2487 272.499C76.6492 343.433 98.4262 400.135 102.456 407.252C104.746 411.296 95.3904 409.817 95.3904 409.817C67.0572 372.512 96.9922 271.674 96.9922 271.674C77.876 291.281 31.4718 314.779 31.4718 314.779C45.23 282.306 87.8199 265.563 87.8199 265.563Z" fill="#67B058"/>
</g>
<defs>
<clipPath id="clip0_133_750">
<rect width="305.636" height="305.636" fill="white" transform="matrix(-0.882797 0.469756 0.469756 0.882797 171.225 63.4814)"/>
</clipPath>
</defs>
</svg>
