<svg width="353" height="298" viewBox="0 0 353 298" fill="none" xmlns="http://www.w3.org/2000/svg">
<path d="M242.938 289.227C253.38 293.681 256.084 296.656 267.749 295.869C279.414 295.083 278.853 295.695 292.834 293.644C306.814 291.593 314.762 289.407 320.216 286.931C325.67 284.456 331.76 279.43 339.336 280.566C339.336 280.566 335.327 267.733 323.786 259.286C312.245 250.839 315.144 248.974 300.027 242.686C284.91 236.398 275.545 233.588 261.89 238.738C248.235 243.888 253.755 252.14 249.708 254.108C245.66 256.076 233.276 257.073 229.772 264.755C226.269 272.437 232.503 284.8 242.938 289.227ZM309.91 263.748C311.681 259.892 332.497 264.443 327.202 268.402C321.906 272.362 308.188 267.609 309.944 263.767L309.91 263.748ZM288.636 254.74C283.439 253.346 290.617 249.325 297.097 247.901C303.577 246.477 309.396 248.636 308.334 252.038C307.272 255.439 293.867 256.152 288.67 254.759L288.636 254.74ZM289.433 268.623C300.106 263.036 315.381 283.604 303.618 288.386C291.855 293.168 278.779 274.243 289.433 268.623ZM272.337 244.159C274.092 240.82 283.102 238.119 282.847 241.892C282.592 245.666 270.585 247.507 272.345 244.186L272.337 244.159ZM258.787 247.305C256.014 244.901 261.504 240.346 265.134 240.859C268.764 241.371 261.573 249.725 258.794 247.332L258.787 247.305ZM270.915 269.191C275.419 266.308 283.054 281.372 276.362 282.685C269.671 283.997 266.416 272.092 270.922 269.218L270.915 269.191ZM241.767 273.331C242.682 266.212 251.693 257.264 257.674 259.388C263.655 261.511 254.742 266.464 251.713 274.346C250.452 277.917 248.962 281.404 247.252 284.783C240.806 288.875 240.851 280.48 241.775 273.358L241.767 273.331Z" fill="#0F7F5D"/>
<path d="M271.689 282.654C263.014 283.059 263.278 264.75 269.396 261.32C272.674 259.453 275.562 265.565 276.263 271.739C274.633 269.546 272.576 268.204 270.934 269.262C267.22 271.64 268.796 280.16 273.216 282.341C272.732 282.542 272.213 282.648 271.689 282.654Z" fill="#006F54"/>
<path d="M267.757 295.896C256.089 296.673 253.415 293.701 242.938 289.227C232.462 284.754 226.259 272.365 229.753 264.685C229.889 264.391 230.039 264.111 230.192 263.841C232.356 266.719 234.273 269.667 235.916 270.412C239.987 272.264 238.464 261.422 249.268 258.645C250 258.421 250.776 258.373 251.53 258.507C252.285 258.641 252.996 258.952 253.606 259.415C248.25 260.914 242.493 267.708 241.768 273.332C240.844 280.453 240.784 288.795 247.262 284.818C248.973 281.439 250.463 277.953 251.723 274.381C253.079 270.841 255.608 267.893 257.474 265.529C260.533 273.406 262.41 285.649 269.202 290.47C278.596 297.116 278.933 286.266 287.098 280.782C290.157 286.419 297.094 291.076 303.606 288.409C304.905 287.972 306.025 287.119 306.792 285.983C307.559 284.847 307.931 283.491 307.851 282.123C310.05 283.335 312.408 284.231 314.857 284.786C327.872 287.941 321.996 281.27 330.431 278.957C333.074 278.217 336.159 278.854 339.167 280.063C339.266 280.415 339.32 280.609 339.32 280.609C331.717 279.48 325.638 284.541 320.2 286.974C314.763 289.407 306.788 291.6 292.818 293.687C278.847 295.773 279.469 295.144 267.757 295.896Z" fill="#006F54"/>
<path d="M339.38 280.62C338.746 279.837 338.044 279.112 337.282 278.454C336.517 277.797 335.712 277.189 334.872 276.632C333.165 275.52 331.338 274.605 329.425 273.903C327.483 273.224 325.485 272.719 323.454 272.394C321.463 272.068 319.55 271.749 317.622 271.311C313.782 270.474 309.994 269.41 306.28 268.124C302.574 266.868 298.985 265.29 295.555 263.407L294.284 262.7L293.039 261.918C292.626 261.664 292.228 261.396 291.862 261.109L290.676 260.263C288.961 259.086 287.135 258.077 285.225 257.251C281.459 255.649 277.545 254.42 273.539 253.582C269.591 252.692 265.567 252.181 261.522 252.055C259.494 251.995 257.464 252.1 255.453 252.367C254.452 252.505 253.462 252.706 252.487 252.97C251.517 253.245 250.576 253.613 249.678 254.069C251.566 253.456 253.538 253.138 255.523 253.126C257.494 253.066 259.466 253.148 261.425 253.373C263.382 253.576 265.366 253.875 267.272 254.272C269.179 254.669 271.122 255.093 273.028 255.623C276.825 256.661 280.528 258.016 284.098 259.674C285.842 260.463 287.509 261.411 289.08 262.504C290.727 263.711 292.448 264.815 294.232 265.809C295.125 266.319 296.051 266.743 296.961 267.21C297.871 267.677 298.81 268.078 299.759 268.449C301.628 269.255 303.54 269.944 305.465 270.574C307.389 271.203 309.352 271.736 311.325 272.199C312.298 272.449 313.293 272.645 314.276 272.864C315.258 273.083 316.284 273.251 317.274 273.392C319.267 273.727 321.239 273.982 323.275 274.162C325.217 274.34 327.139 274.688 329.019 275.203C330.916 275.706 332.754 276.41 334.5 277.306C336.268 278.186 337.91 279.301 339.38 280.62V280.62Z" fill="#006A45"/>
<path d="M300.075 242.758C293.168 241.843 286.193 245.741 279.497 244.966C281.305 244.261 282.802 243.196 282.853 241.919C283.082 238.628 276.255 240.272 273.346 242.947C269.349 240.952 269.253 239.488 265.167 240.878C261.963 240.427 257.307 243.922 258.164 246.407C256.375 247.857 254.434 248.865 252.034 248.265C252.76 245.157 254.554 241.484 261.889 238.739C275.544 233.589 284.967 236.468 300.075 242.758Z" fill="#006F54"/>
<path d="M260.267 246.349C263.846 242.537 267.118 238.448 270.05 234.119L251.029 228.306L273.094 229.309C278.698 219.767 281.834 209.89 279.428 202.513C275.511 190.481 269.095 200.658 253.281 201.182C237.467 201.705 227.017 204.42 212.779 211.461C208.606 213.521 205.259 214.97 202.289 216.171C205.313 220.632 208.366 226.413 208.474 231.689L193.026 219.874C188.953 221.541 184.994 223.473 181.174 225.658C168.342 232.903 163.408 241.072 150.871 250.047C138.334 259.023 140.888 263.16 140.888 263.16C140.888 263.16 150.84 273.228 155.595 279.663C160.35 286.098 157.965 290.61 157.965 290.61C155.13 284.758 133.562 268.076 133.562 268.076L123.522 283.464C119.675 288.935 114.887 294.841 110.303 301.952C117.222 303.899 126.332 307.53 130.039 313.783C130.039 313.783 116.015 309.467 105.497 310.141C103.04 314.748 100.974 319.552 99.3223 324.504C93.0692 343.341 105.91 356.978 105.91 356.978C115.39 364.407 131.837 367.437 143.421 360.863C155.006 354.29 165.879 341.033 165.879 341.033L152.609 330.175L171.646 335.024C177.38 331.212 182.88 327.061 188.118 322.593C196.02 315.759 223.539 283.254 221.596 282.659C219.652 282.063 202.213 270.596 202.213 270.596L224.216 276.78C224.216 276.78 247.999 259.408 260.267 246.349Z" fill="#9DCE7A"/>
<g style="mix-blend-mode:multiply" opacity="0.41">
<path d="M254.16 221.365C255.771 214.763 272.821 205.891 272.958 201.866C273.096 197.84 253.043 209.223 245.825 215.002C238.606 220.781 238.05 218.962 230.806 220.846C223.562 222.731 224.17 228.095 219.874 232.705C215.578 237.315 207.106 232.708 197.298 235.443C187.489 238.178 190.617 251.903 187.152 259.414C183.686 266.924 177.38 266.049 168.726 267.816C160.071 269.582 166.922 285.408 161.098 291.281C155.274 297.154 148.037 286.297 137.553 288.623C127.07 290.948 143.049 303.612 139.933 311.148C136.816 318.684 126.846 319.281 117.373 322.397C107.899 325.513 113.415 340.136 106.078 347.324C103.954 349.409 102.015 349.268 100.329 348.031C101.694 351.29 103.566 354.313 105.875 356.988C115.355 364.417 131.802 367.447 143.387 360.874C146.467 359.076 149.387 357.017 152.115 354.72C142.141 356.76 125.563 362.396 122.022 359.998C116.646 356.366 137.546 356.67 146.291 345.347C155.036 334.024 145.728 330.772 148.712 320.387C151.696 310.002 165.152 318.91 177.945 305.79C190.738 292.67 186.153 279.543 197.393 272.316C208.633 265.089 211.916 263.952 219.746 255.03C227.576 246.109 230.434 250.245 244.573 242.207C253.006 237.408 254.197 233.278 254.134 229.318L251.013 228.349L254.122 228.495C254.02 226.093 253.574 223.75 254.16 221.365Z" fill="#70AF68"/>
</g>
<path d="M272.958 201.866C272.958 201.866 266.367 205.779 247.96 217.575C229.552 229.371 112.858 323.954 88.8144 394.512C88.8144 394.512 94.099 401.311 95.9207 398.723C97.7424 396.134 115.927 320.694 272.958 201.866Z" fill="#95D07D"/>
<g style="mix-blend-mode:multiply" opacity="0.41">
<path d="M171.932 242.199C181.711 244.077 182.179 259.704 175.062 260.176C167.946 260.649 162.165 240.328 171.932 242.199Z" fill="#70AF68"/>
</g>
<g style="mix-blend-mode:multiply" opacity="0.41">
<path d="M234.506 257.298C233.86 260.792 225.494 263.285 220.801 260.061C216.108 256.836 235.153 253.804 234.506 257.298Z" fill="#70AF68"/>
</g>
<g style="mix-blend-mode:multiply" opacity="0.41">
<path d="M205.664 284.326C206.982 289.748 195.807 292.011 193.335 287.558C190.863 283.104 204.344 278.895 205.664 284.326Z" fill="#70AF68"/>
</g>
<g style="mix-blend-mode:multiply" opacity="0.41">
<path d="M124.46 295.542C130.08 296.817 136.744 305.49 132.279 307.356C127.813 309.223 118.843 294.275 124.46 295.542Z" fill="#70AF68"/>
</g>
<path d="M-19.3471 133.378C-21.0208 127.742 -22.256 121.985 -23.0414 116.159L-0.934871 119.939L-23.6622 109.81C-24.4764 97.3779 -22.6402 85.8506 -16.4916 79.6392C-6.48342 69.5143 -5.16995 83.0045 10.5163 91.4894C26.2025 99.9742 35.3278 107.996 46.0908 122.253C49.2574 126.457 51.8894 129.591 54.252 132.298C48.9513 135.268 42.9566 139.543 40.1666 144.794L61.7364 140.651C64.9888 144.394 67.9984 148.341 70.7467 152.468C80.0036 166.238 80.8617 176.915 88.9106 192.295C96.9595 207.675 92.3331 210.531 92.3331 210.531C92.3331 210.531 77.2236 215.657 69.2202 219.714C61.2168 223.772 61.2718 229.552 61.2718 229.552C67.0963 225.088 97.2425 219.166 97.2425 219.166L99.5492 239.724C100.661 247.176 102.484 255.53 103.509 265.006C95.5857 263.459 84.5517 262.536 77.656 266.957C77.656 266.957 93.958 269.688 104.205 275.675C104.345 281.552 103.992 287.43 103.151 293.249C99.9398 315.351 80.1018 322.624 80.1018 322.624C66.7842 325.281 48.6985 320.076 40.3628 307.61C32.027 295.144 27.7883 276.324 27.7883 276.324L46.6435 272.117L24.9938 267.407C21.176 260.657 17.7637 253.685 14.775 246.529C10.2789 235.661 -0.960151 189.032 1.25848 189.427C3.47711 189.822 26.8777 187.059 26.8777 187.059L1.58271 182.172C1.58271 182.172 -13.6165 152.711 -19.3471 133.378Z" fill="#9DCE7A"/>
<g style="mix-blend-mode:multiply" opacity="0.41">
<path d="M-0.59347 111.289C1.11769 103.828 -11.5561 86.2986 -9.65725 82.1852C-7.75842 78.0719 6.70433 99.6234 11.0569 109.098C15.4095 118.573 16.8763 117.008 23.223 122.556C29.5696 128.105 26.203 133.207 28.2112 140.001C30.2195 146.796 41.0582 146.447 49.547 154.144C58.0358 161.841 47.9562 174.082 47.6387 183.388C47.3212 192.694 54.0982 195 61.9489 201.144C69.7996 207.287 54.9045 219.795 57.759 228.62C60.6135 237.445 73.4264 230.192 82.8059 237.822C92.1853 245.452 69.6953 250.13 69.0163 259.291C68.3373 268.452 78.0764 274.078 86.0685 281.989C94.0607 289.9 81.0753 301.853 84.8209 312.791C85.9085 315.951 87.932 316.797 90.2486 316.394C87.2296 318.989 83.8197 321.09 80.145 322.622C66.8274 325.279 48.7418 320.074 40.406 307.608C38.2047 304.24 36.301 300.687 34.7166 296.989C43.724 304.092 57.5557 318.111 62.3436 317.477C69.5679 316.525 48.3981 306.302 45.3228 290.493C42.2474 274.683 53.2602 276.103 55.4938 264.123C57.7275 252.142 39.6918 254.344 33.4521 234.684C27.2124 215.023 38.4664 204.111 30.8028 191.178C23.1392 178.246 20.4135 175.427 17.0303 162.494C13.647 149.562 8.70714 152.291 -1.46293 137.056C-7.52482 127.974 -6.64146 123.214 -4.56806 119.266L-0.915443 119.89L-4.12042 118.456C-2.79822 116.183 -1.18352 113.999 -0.59347 111.289Z" fill="#70AF68"/>
</g>
<path d="M-9.6224 82.1962C-9.6224 82.1962 -4.94149 89.4406 7.58124 110.637C20.104 131.833 89.7857 285.867 78.3258 369.012C78.3258 369.012 69.5658 373.196 69.0408 369.675C68.5159 366.154 88.361 281.005 -9.6224 82.1962Z" fill="#95D07D"/>
<g style="mix-blend-mode:multiply" opacity="0.41">
<path d="M64.9934 203.583C55.4206 200.879 47.9748 214.639 54.137 218.259C60.2991 221.88 74.5662 206.287 64.9934 203.583Z" fill="#70AF68"/>
</g>
<g style="mix-blend-mode:multiply" opacity="0.41">
<path d="M2.28507 189.062C1.33342 192.452 7.64548 198.441 13.2909 197.669C18.9363 196.896 3.27831 185.652 2.28507 189.062Z" fill="#70AF68"/>
</g>
<g style="mix-blend-mode:multiply" opacity="0.41">
<path d="M15.9252 226.132C12.3096 230.39 21.2874 237.419 25.4895 234.544C29.6917 231.669 19.5585 221.869 15.9252 226.132Z" fill="#70AF68"/>
</g>
<g style="mix-blend-mode:multiply" opacity="0.41">
<path d="M83.4733 272.514C77.8816 271.136 68.0025 275.894 71.1986 279.575C74.3948 283.256 89.0676 273.901 83.4733 272.514Z" fill="#70AF68"/>
</g>
<path d="M90.7717 179.254L90.5694 178.362L89.9268 180.886L89.9885 180.869C90.3226 180.525 90.5607 180.099 90.6791 179.635C90.7975 179.17 90.792 178.683 90.6632 178.221C90.5546 177.749 90.3884 177.292 90.1683 176.86L89.7266 176.3C89.4849 176.046 89.1804 175.859 88.8437 175.759C88.6393 175.637 88.4046 175.574 88.1662 175.579C87.8086 175.501 87.4369 175.52 87.0889 175.633L86.42 175.925L85.8596 176.366C85.605 176.611 85.4158 176.915 85.3092 177.251C85.1514 177.564 85.0755 177.912 85.0885 178.262C85.0899 178.399 85.1056 178.534 85.1352 178.667C85.1404 178.796 85.1604 178.924 85.1947 179.049L85.372 179.683C85.5015 180.144 85.7498 180.564 86.092 180.899C86.4343 181.235 86.8587 181.475 87.3228 181.596L87.3844 181.579L85.5337 179.752L85.7801 180.632C85.8522 180.968 86.0176 181.277 86.2576 181.524C86.4518 181.794 86.7028 182.018 86.993 182.181C87.2831 182.344 87.6054 182.442 87.9374 182.468C88.2727 182.545 88.623 182.526 88.948 182.413L89.5842 182.14C89.9661 181.912 90.2817 181.588 90.4993 181.201L90.7465 180.59C90.8605 180.149 90.8553 179.685 90.7315 179.247L90.7717 179.254Z" fill="#004A20"/>
<path d="M104.709 172.669L103.742 172.778L105.278 173.649C105.179 173.402 105.023 173.182 104.823 173.007L104.353 172.654L104.266 172.613C104.031 172.488 103.786 172.385 103.533 172.305C103.107 172.193 102.659 172.196 102.235 172.315C101.811 172.434 101.425 172.663 101.119 172.98C100.811 173.292 100.591 173.682 100.485 174.107C100.388 174.418 100.375 174.749 100.449 175.066C100.468 175.401 100.575 175.725 100.759 176.005C100.981 176.374 101.296 176.678 101.671 176.889C102.043 177.101 102.464 177.213 102.892 177.212C103.343 177.209 103.784 177.086 104.17 176.854C104.393 176.701 104.603 176.528 104.795 176.338L104.865 176.318C105.006 176.174 105.127 176.013 105.225 175.837C105.371 175.611 105.458 175.351 105.479 175.083L104.237 176.38L105.185 176.171C105.41 176.117 105.618 176.007 105.789 175.85C105.978 175.725 106.129 175.552 106.228 175.348L106.399 174.939C106.466 174.718 106.475 174.484 106.426 174.258C106.421 174.103 106.379 173.952 106.303 173.818C106.226 173.6 106.097 173.405 105.926 173.249L105.615 172.918C105.357 172.767 105.062 172.689 104.763 172.692L104.709 172.669Z" fill="#004A20"/>
<path d="M95.4983 190.339C95.4897 190.401 95.4711 190.461 95.4432 190.516L95.7222 189.85C95.6898 189.923 95.6484 189.992 95.5992 190.055L96.036 189.477C95.9832 189.547 95.9207 189.609 95.8502 189.662L96.417 189.209C96.341 189.277 96.2529 189.331 96.1572 189.367L96.8526 189.068C96.748 189.112 96.6386 189.142 96.5266 189.159L97.2762 189.054C97.018 189.074 96.7611 189.108 96.5065 189.155C96.1346 189.242 95.7925 189.426 95.5158 189.689C95.0639 190.043 95.324 189.819 95.214 189.935L97.1754 189.101L97.0108 189.09L97.7215 189.186C97.6334 189.172 97.5471 189.148 97.4643 189.115L98.1175 189.379L97.9372 189.277L98.5015 189.698C98.2945 189.562 98.079 189.438 97.8564 189.328C97.2124 189.004 96.475 188.915 95.7718 189.076L95.0941 189.37C94.7858 189.541 94.5279 189.79 94.3461 190.092C94.1852 190.26 94.0694 190.465 94.0097 190.689C93.8457 191.001 93.7666 191.351 93.7802 191.703L93.8804 192.434C94.0149 192.9 94.2674 193.323 94.6136 193.663L94.6259 193.707C94.813 193.859 95.0081 194 95.2104 194.132L95.2829 194.187L95.3795 194.227C95.6109 194.337 95.8477 194.435 96.089 194.522L96.2698 194.557C96.5269 194.603 96.7864 194.635 97.0471 194.652L97.1352 194.628L95.7826 194.275L95.2182 193.854C95.3967 194.018 95.5902 194.164 95.7963 194.29L96.4608 194.56C96.9656 194.681 97.4926 194.674 97.994 194.539C98.0578 194.531 98.1201 194.514 98.179 194.488C98.4712 194.391 98.7558 194.274 99.0305 194.135C99.0945 194.107 99.1547 194.072 99.2096 194.028L99.5617 193.759L99.9177 193.469L99.9822 193.394C100.154 193.194 100.31 192.97 100.46 192.758C100.502 192.706 100.538 192.648 100.564 192.586C100.668 192.348 100.776 192.09 100.861 191.848L100.886 191.737C101 191.379 101.015 190.998 100.929 190.633C100.908 190.251 100.785 189.883 100.573 189.565C100.398 189.242 100.142 188.97 99.83 188.776C99.5549 188.535 99.2236 188.366 98.8664 188.286L98.1381 188.196C97.6283 188.194 97.1279 188.334 96.6932 188.6L96.1175 189.055C95.7796 189.405 95.537 189.836 95.413 190.306L95.4983 190.339Z" fill="#004A20"/>
<path d="M92.0375 164.765C95.4119 163.821 93.9339 158.539 90.5595 159.483C87.1851 160.428 88.6543 165.712 92.0375 164.765Z" fill="#004A20"/>
<path d="M115.994 179.014C119.368 178.069 117.89 172.787 114.516 173.731C111.141 174.676 112.61 179.96 115.994 179.014Z" fill="#004A20"/>
<path d="M73.0524 121.532C73.0524 121.532 75.9611 140.653 69.2525 156.504C62.5438 172.354 39.8285 203.658 39.8285 203.658C39.8285 203.658 34.3717 151.664 73.0524 121.532Z" fill="#004A20"/>
<path d="M33.7965 216.527C34.9245 217.503 38.8445 190.158 20.4012 159.521C20.3888 159.477 12.6025 198.061 33.7965 216.527Z" fill="#004A20"/>
<path d="M39.0998 208.996C39.0998 208.996 46.7199 185.98 85.7432 183.386C85.7432 183.386 57.8193 216.413 39.0998 208.996Z" fill="#006D4E"/>
<path d="M81.5742 208.418C81.5742 208.418 44.1689 229.051 33.34 223.148C33.34 223.148 58.138 201.97 81.5742 208.418Z" fill="#004A20"/>
<path d="M-0.429998 185.503C-0.429998 185.503 31.5813 209.05 29.8285 226.077C29.8383 226.112 1.71443 210.211 -0.429998 185.503Z" fill="#006D4E"/>
<path d="M30.3859 230.345C30.3859 230.345 59.6964 214.293 81.1888 225.338C81.1839 225.321 41.1365 239.431 30.3859 230.345Z" fill="#006D4E"/>
<path d="M27.3525 240.724C27.3525 240.724 63.2956 225.968 86.6546 239.167C86.6546 239.167 43.9352 256.427 27.3525 240.724Z" fill="#004A20"/>
<path d="M26.6196 238.309C18.6727 222.777 6.98551 209.466 -7.39029 199.573C-7.39029 199.573 -4.64901 220.744 25.3987 241.754L26.6196 238.309Z" fill="#004A20"/>
<path d="M25.6 250.621C25.6 250.621 57.8748 245.198 82.7632 259.042C82.7632 259.042 49.5065 275.183 23.7801 253.998L25.6 250.621Z" fill="#004A20"/>
<path d="M21.7974 250.481C21.7974 250.481 2.72582 224.491 -20.1553 219.653C-20.1553 219.653 -2.76612 244.282 20.3796 254.75L21.7974 250.481Z" fill="#006D4E"/>
<path d="M20.8897 260.578C20.8897 260.578 55.0875 266.407 75.9461 279.974C75.9461 279.974 43.1014 283.734 19.4655 264.859L20.8897 260.578Z" fill="#006D4E"/>
<path d="M18.155 261.362L15.756 266.913C7.36701 268.773 -1.35401 268.502 -9.6092 266.123C-17.8644 263.745 -25.3902 259.336 -31.498 253.299C-31.498 253.299 -0.549119 252.338 18.155 261.362Z" fill="#004A20"/>
<path d="M41.9389 200.437C41.9389 200.437 4.60888 293.318 11.6026 335.323C11.6026 335.323 11.5829 337.901 8.60744 336.978C5.63193 336.054 3.5147 281.293 41.9389 200.437Z" fill="#004A20"/>
<path d="M258.921 127.221C258.921 127.221 224.794 150.402 182.621 153.317C140.448 156.232 86.9341 215.993 69.0712 262.703C51.2082 309.413 70.301 362.471 80.9089 357.5C91.5167 352.529 109.805 342.617 118.796 326.536C127.787 310.455 133.921 294.385 132.324 282.292C132.324 282.292 101.667 271.533 107.933 269.04C114.199 266.546 128.904 279.917 132.195 271.649C135.487 263.38 154.524 234.074 163.671 227.718C163.671 227.718 135.926 217.891 142.684 215.867C149.443 213.843 167.032 221.395 168.407 218.941C169.781 216.487 192.848 195.879 192.848 195.879C192.848 195.879 169.959 184.968 174.792 183.939C179.624 182.909 199.537 187.02 199.537 187.02C199.537 187.02 249.006 149.133 258.921 127.221Z" fill="#008A45"/>
<path opacity="0.39" d="M80.5665 357.634C69.9017 361.349 51.4486 308.947 69.1164 262.729C86.9794 216.019 140.538 156.283 182.666 153.343C224.794 150.402 258.966 127.246 258.966 127.246L258.727 127.75C254.234 132.064 231.513 153.534 208.839 169.334C201.831 174.233 195.075 179.482 188.596 185.06C183.127 184.189 177.206 183.501 174.839 183.973C172.473 184.446 177.164 187.595 182.434 190.506C173.251 198.827 164.673 207.791 156.764 217.329C151.578 216.075 145.954 214.886 142.744 215.841C139.107 216.935 145.491 220.294 152.145 223.159C148.931 227.362 145.984 231.528 143.41 235.675C129.406 257.944 122.991 255.391 120.74 272.301C116 270.333 110.994 267.823 107.96 269.033C104.456 270.431 112.477 274.414 120.237 277.634C119.218 294.94 124.303 306.219 108.579 333.107C102.335 343.759 91.5964 351.795 80.5665 357.634Z" fill="#006F18"/>
<path d="M258.823 127.619L259.491 126.948C259.283 127.186 259.06 127.41 258.823 127.619Z" fill="#68B760"/>
<path d="M80.13 245.256C106.917 195.536 144.925 158.891 182.665 153.343C219.053 147.983 251.968 133.951 258.823 127.619C255.41 131.042 239.28 146.833 226.142 153.423C218.093 157.379 210.274 161.786 202.721 166.622L181.82 163.461L197.891 172.378C197.891 172.378 176.387 185.942 165.51 198.611C164.794 199.447 164.078 200.284 163.457 201.084C156.341 199.012 137.435 194.392 124.651 199.326C124.651 199.326 147.103 199.575 160.474 204.956C153.485 214.506 150.159 222.414 141.212 233.49L130.347 246.915C130.347 246.915 100.273 243.872 104.111 246.861C107.95 249.85 121.701 254.28 121.701 254.28C121.701 254.28 113.725 255.515 112.382 269.969C111.511 279.25 115.038 289.408 115.116 300.35C108.103 299.664 92.7726 299.606 80.8907 309.87C80.8907 309.87 101.523 305.786 114.216 309.696C113.489 313.073 112.302 316.334 110.687 319.389C101.02 337.738 77.3486 361.211 71.6221 356.33C65.8956 351.448 53.319 294.991 80.13 245.256Z" fill="#68B760"/>
<g opacity="0.15">
<path d="M71.5692 356.307C65.8075 351.435 53.339 294.957 80.131 245.255C106.923 195.553 144.926 158.89 182.666 153.342C196.208 151.305 209.562 148.175 222.599 143.982C220.133 146.884 218.246 150.393 215.361 152.918C209.13 158.354 199.96 158.006 191.695 158.277C183.43 158.549 173.793 160.743 170.509 168.325C169.649 170.313 169.327 172.453 168.574 174.515C166.154 180.945 159.601 184.924 153.032 186.876C146.462 188.828 139.456 189.288 132.913 191.3C127.329 193.005 121.199 197.615 122.542 203.296C123.66 208.005 129.549 210.752 129.781 215.586C129.773 217.254 129.302 218.887 128.422 220.304C119.963 235.467 94.6896 235.866 88.6496 252.137C87.9692 253.763 87.7416 255.542 87.9909 257.286C88.4153 259.55 89.9478 261.428 91.307 263.297C94.5426 267.765 97.0759 273.321 95.8352 278.7C94.2932 285.378 87.7384 289.386 82.4521 293.751C77.1658 298.116 72.4429 305.512 75.9204 311.422C78.8725 316.472 86.1161 317.302 89.7442 321.916C92.414 325.346 92.4375 330.286 90.8763 334.349C89.3151 338.412 86.4057 341.798 83.4807 345.028C79.8654 349.143 75.8872 352.925 71.5942 356.328L71.5692 356.307Z" fill="#069456"/>
</g>
<path d="M259.491 126.948C259.491 126.948 226.024 144.41 177.831 153.889C126.289 164.029 72.4456 231.202 63.6838 281.137C55.0255 330.559 75.8968 384.201 80.294 386.607C84.6911 389.012 88.4811 382.151 88.4811 382.151C88.4811 382.151 52.7475 332.943 74.49 265.127C74.49 265.127 107.801 171.633 188.65 155.342C244.279 144.086 259.491 126.948 259.491 126.948Z" fill="#A9D97C"/>
<path opacity="0.15" d="M133.22 208.862C133.288 213.589 145.039 216.471 148.776 211.562C152.514 206.652 133.151 204.134 133.22 208.862Z" fill="#069456"/>
<path opacity="0.15" d="M90.7372 293.958C92.0945 298.808 101.264 298.882 105.342 292.88C109.42 286.879 89.4176 289.106 90.7372 293.958Z" fill="#069456"/>
</svg>
