<svg width="606" height="1041" viewBox="0 0 606 1041" fill="none" xmlns="http://www.w3.org/2000/svg">
<path d="M336.601 475.878C367.932 444.714 389.837 388.727 389.837 388.727C358.161 406.635 333.531 452.327 326.601 470.255C334.352 426.285 329.46 360.683 329.46 360.683C307.449 386.212 312.704 441.828 316.267 464.374C303.251 423.155 249.186 365.656 249.186 365.656C242.825 408.376 303.723 471.301 303.723 471.301L304.244 473.149C257.796 416.779 180.406 413.409 180.406 413.409C206.472 458.983 303.941 480.772 303.941 480.772L302.214 484.563C241.124 452.194 163.337 500.067 163.337 500.067C212.526 518.783 302.335 491.267 302.335 491.267L302.585 492.843C302.585 492.843 273.524 504.815 253.816 516.236C234.109 527.657 211.324 564.201 211.324 564.201C211.324 564.201 243.259 560.819 270.808 547.369C298.357 533.918 317.839 504.849 317.839 504.849C317.839 504.849 293.006 546.704 288.236 567.558C283.477 588.429 287.772 605.579 287.772 605.579C287.772 605.579 313.139 596.951 325.976 575.517C338.831 554.072 329.094 498.598 329.094 498.598C329.094 498.598 339.014 523.545 357.034 551.819C375.063 580.112 397.736 583.39 397.736 583.39C402.986 536.85 336.16 493.806 336.16 493.806C432.63 519.636 480.901 585.28 486.022 594.983C488.93 600.497 494.034 588.861 494.034 588.861C472.415 529.856 336.862 490.661 336.862 490.661C372.844 483.266 432.976 447.871 432.976 447.871C386.342 439.9 336.601 475.878 336.601 475.878Z" fill="#67B058"/>
<path d="M129.275 634.263C129.275 634.263 215.465 622.258 285.475 567.18C355.486 512.101 523.85 529.887 617.984 577.831C712.118 625.774 757.534 735.91 733.933 743.127C710.308 750.356 667.671 760.724 630.785 748.279C593.887 735.809 561.565 719.299 546.928 698.078C546.928 698.078 579.581 637.778 566.232 642.75C552.882 647.722 548.892 689.504 532.011 681.209C515.13 672.915 443.87 653.951 420.499 656.841C420.499 656.841 449.926 602.14 436.487 608.528C423.061 614.942 406.346 651.588 400.66 649.768C394.986 647.973 329.782 648.226 329.782 648.226C329.782 648.226 350.144 598.783 341.129 604.017C332.115 609.25 306.832 643.918 306.832 643.918C306.832 643.918 175.825 654.584 129.275 634.263Z" fill="#008B3E"/>
<path opacity="0.39" d="M734.622 742.847C756.552 733.56 711.098 625.262 617.984 577.831C523.851 529.887 355.461 512.114 285.476 567.18C215.491 622.246 129.275 634.263 129.275 634.263C129.632 634.404 130.002 634.57 130.359 634.711C143.517 635.1 209.435 636.596 267.269 629.236C284.609 627.027 302.803 625.699 321.201 625.227C328.507 616.124 336.769 606.576 341.168 604.029C345.784 601.343 342.685 613.004 338.554 625.022C365.202 625.123 391.862 627.036 416.699 630.721C423.011 621.413 430.138 611.57 436.487 608.528C443.717 605.079 438.502 619.392 432.165 633.309C443.156 635.353 453.687 637.755 463.556 640.551C517.055 655.712 523.405 642.588 550.868 665.958C555.471 656.162 559.742 645.127 566.194 642.737C573.64 639.978 566.742 657.556 559.207 673.602C585.319 699.306 593.364 724.168 656.095 744.103C680.97 752.013 709.122 749.321 734.622 742.847Z" fill="#007000"/>
<path d="M575.985 566.055C463.644 526.05 352.298 522.436 285.45 567.193C220.986 610.345 149.637 634.917 129.963 634.749C140.163 635.274 187.759 637.204 217.556 628.937C251.089 619.667 272.878 616.481 272.878 616.481L301.133 581.829L288.65 618.596C288.65 618.596 341.486 609.391 376.46 613.856C378.768 614.14 380.999 614.462 383.179 614.81C391.352 601.509 414.353 567.437 441.332 557.098C441.332 557.098 406.626 589.29 393.354 616.688C417.796 621.751 434.192 629.457 463.887 634.132C499.906 639.798 499.906 639.798 499.906 639.798C499.906 639.798 542.567 592.403 540.808 602.535C539.049 612.667 523.812 639.002 523.812 639.002C523.812 639.002 538.029 629.641 560.622 650.4C575.131 663.707 584.018 684.639 599.395 701.917C609.378 690.903 633.272 669.086 666.371 668.328C666.371 668.328 628.337 691.172 614.057 715.275C619.629 719.291 625.953 722.771 633.323 725.475C674.454 740.555 744.72 743.806 746.811 728.02C748.902 712.235 688.326 606.06 575.985 566.055Z" fill="#08B859"/>
<g opacity="0.15">
<path d="M746.812 728.02C748.903 712.235 688.327 606.06 576.012 566.042C463.671 526.037 352.325 522.423 285.476 567.18C260.116 584.145 233.737 598.238 209.817 609.091C217.799 610.149 225.704 612.968 233.788 612.826C251.217 612.519 265.076 598.996 278.362 587.706C291.66 576.442 309.841 566.218 325.715 573.452C329.872 575.334 333.455 578.3 337.509 580.425C350.412 587.067 366.286 584.026 379.355 577.79C392.424 571.554 403.95 562.355 417.057 556.196C428.213 550.979 444.329 549.508 450.271 560.327C455.192 569.294 449.875 581.935 456.352 589.87C458.571 592.592 461.86 594.205 465.163 595.332C499.881 607.136 539.929 571.927 572.442 588.884C575.718 590.599 578.829 592.875 580.755 596.03C583.305 600.182 583.56 605.288 584.108 610.151C585.383 621.768 589.31 634.039 598.86 640.728C610.73 649.002 626.655 646 641.113 645.356C655.572 644.713 673.384 649.639 676.38 663.81C678.917 675.914 668.717 687.514 669.674 699.832C670.362 708.998 677.337 716.78 685.535 720.953C693.733 725.125 703.079 726.3 712.233 727.219C723.53 728.345 735.375 729.038 746.824 728.109C746.812 728.084 746.799 728.058 746.812 728.02Z" fill="#009551"/>
</g>
<path d="M128 634.644C128 634.644 205.061 614.624 293.801 561.206C388.713 504.069 568.08 533.114 652.55 599.028C736.152 664.226 779.579 777.908 776.085 787.82C772.566 797.745 756.973 792.413 756.973 792.413C756.973 792.413 743.05 664.644 612.948 589.119C612.948 589.119 428.353 489.74 278.909 578.722C176.068 639.945 128 634.644 128 634.644Z" fill="#92DA77"/>
<path opacity="0.15" d="M441.434 584.17C448 591.582 433.746 612.864 420.932 610.421C408.144 608.029 434.868 576.758 441.434 584.17Z" fill="#009551"/>
<path opacity="0.15" d="M628.478 657.438C633.297 666.903 619.005 680.068 604.125 676.422C589.233 672.815 623.645 647.948 628.478 657.438Z" fill="#009551"/>
<path d="M541.632 149.321C541.632 149.321 544.557 236.295 502.275 314.699C459.992 393.104 506.333 555.939 569.681 640.478C633.03 725.016 749.314 750.911 752.384 726.424C755.463 701.909 758.38 658.128 739.806 623.916C721.204 589.696 699.405 560.678 675.992 549.889C675.992 549.889 622.171 592.381 624.784 578.378C627.398 564.374 667.88 553.291 656.819 538.079C645.758 522.866 614.876 455.904 613.724 432.383C613.724 432.383 564.866 470.739 568.86 456.405C572.882 442.08 606.126 419.339 603.359 414.048C600.62 408.765 589.709 344.48 589.709 344.48C589.709 344.48 544.481 373.004 548.094 363.227C551.707 353.45 581.536 322.606 581.536 322.606C581.536 322.606 569.621 191.707 541.632 149.321Z" fill="#008B3E"/>
<path opacity="0.39" d="M752.226 727.15C746.83 750.346 632.351 724.099 569.681 640.478C506.333 555.94 460 393.077 502.275 314.699C544.549 236.322 541.632 149.321 541.632 149.321C541.832 149.649 542.06 149.985 542.26 150.313C544.895 163.21 557.651 227.899 560.299 286.139C561.09 303.602 562.896 321.755 565.58 339.962C557.862 348.718 549.869 358.493 548.113 363.262C546.256 368.27 557.215 363.221 568.348 357.094C573.009 383.331 579.457 409.271 587.339 433.111C579.248 440.922 570.77 449.629 568.86 456.405C566.7 464.118 579.909 456.53 592.535 447.905C596.431 458.384 600.6 468.349 605.044 477.593C629.139 527.708 617.294 536.21 645.02 559.268C636.157 565.48 626.016 571.577 624.765 578.342C623.321 586.151 639.46 576.346 653.979 566.175C683.773 587.503 709.645 591.174 740.023 649.566C752.074 672.721 754.24 700.918 752.226 727.15Z" fill="#007000"/>
<path d="M550.891 601.114C492.248 497.279 469.628 388.194 502.283 314.672C533.765 243.773 545.762 169.271 542.229 149.916C544.492 159.876 554.541 206.439 551.495 237.211C548.101 271.836 548.692 293.85 548.692 293.85L519.388 327.618L553.476 309.027C553.476 309.027 553.45 362.659 563.835 396.352C564.51 398.577 565.209 400.72 565.925 402.808C554.219 413.137 524.587 441.631 519.019 469.981C519.019 469.981 544.795 430.278 569.517 412.511C578.688 435.726 589.088 450.562 598.776 479.018C610.524 513.536 610.524 513.536 610.524 513.536C610.524 513.536 571.131 563.68 580.812 560.212C590.493 556.744 613.831 537.225 613.831 537.225C613.831 537.225 607.042 552.834 631.362 571.541C646.956 583.559 669.1 588.731 688.755 600.924C679.612 612.645 662.206 639.92 667.125 672.661C667.125 672.661 683.123 631.278 704.426 613.084C709.336 617.886 713.847 623.521 717.772 630.319C739.67 668.262 754.9 736.935 739.705 741.697C724.51 746.459 609.534 704.95 550.891 601.114Z" fill="#08B859"/>
<g opacity="0.15">
<path d="M739.705 741.697C724.51 746.459 609.534 704.951 550.883 601.142C492.24 497.307 469.62 388.222 502.275 314.7C514.649 286.81 524.018 258.408 530.618 232.984C533.026 240.666 537.157 247.972 538.401 255.961C541.081 273.186 530.13 289.155 521.281 304.177C512.459 319.207 505.498 338.87 515.342 353.271C517.908 357.044 521.443 360.067 524.23 363.698C532.983 375.273 532.704 391.434 528.797 405.377C524.89 419.32 517.8 432.25 513.975 446.218C510.744 458.103 512.053 474.233 523.73 478.235C533.406 481.549 544.951 474.147 553.878 479.17C556.939 480.89 559.091 483.855 560.767 486.916C578.34 519.102 550.504 564.585 572.776 593.715C575.027 596.65 577.802 599.326 581.24 600.682C585.767 602.484 590.841 601.862 595.727 601.569C607.39 600.837 620.152 602.606 628.377 610.87C638.561 621.149 638.328 637.353 640.169 651.708C642.01 666.063 649.912 682.769 664.388 683.295C676.747 683.724 686.43 671.689 698.73 670.522C707.878 669.632 716.739 675.171 722.253 682.534C727.767 689.898 730.524 698.904 732.997 707.767C736.04 718.704 738.75 730.255 739.795 741.695C739.768 741.686 739.74 741.678 739.705 741.697Z" fill="#009551"/>
</g>
<path d="M541.79 148C541.79 148 535.255 227.351 497.814 323.925C457.765 427.215 517.083 598.964 596.482 670.905C675.028 742.114 794.464 765.442 803.633 760.304C812.809 755.138 804.887 740.687 804.887 740.687C804.887 740.687 676.62 748.839 579.941 633.584C579.941 633.584 450.433 468.722 512.523 306.254C555.239 194.451 541.79 148 541.79 148Z" fill="#92DA77"/>
<path opacity="0.15" d="M545.708 465.448C554.134 470.649 572.663 452.962 568.063 440.755C563.517 428.565 537.281 460.247 545.708 465.448Z" fill="#009551"/>
<path d="M363.287 473.866C356.44 466.904 349.799 459.049 343.959 450.874L380.233 438.897L337.914 441.783C326.739 423.692 320.304 404.868 324.609 390.601C331.616 367.312 344.349 386.64 374.737 386.914C405.125 387.189 425.277 391.975 452.895 404.868C461.024 408.669 467.482 411.28 473.23 413.456C467.619 422.158 462.009 433.379 462.032 443.523L491.206 420.074C497.825 422.638 504.901 425.707 514.221 430.699C539.159 444.05 548.983 459.462 573.417 476.202C597.829 492.964 593.134 500.934 593.134 500.934C593.134 500.934 574.471 520.719 565.609 533.291C556.746 545.863 561.532 554.405 561.532 554.405C566.731 543.024 607.401 510.048 607.401 510.048L627.324 539.154C634.95 549.504 644.385 560.634 653.476 574.099C640.285 578.129 622.973 585.503 616.103 597.663C616.103 597.663 642.85 588.778 663.048 589.602C667.628 597.801 671.91 606.8 675.506 616.922C688.33 652.783 664.262 679.576 664.262 679.576C646.377 694.255 614.958 700.782 592.424 688.668C569.914 676.554 548.479 651.547 548.479 651.547L573.486 630.112L537.167 640.257C537.167 640.257 520.473 629.906 505.015 617.105C489.558 604.327 435.376 543.047 439.04 541.856C442.704 540.665 475.726 517.857 475.726 517.857L433.773 530.612C433.819 530.681 387.401 498.415 363.287 473.866Z" fill="#84CF75"/>
<path opacity="0.41" d="M373.935 425.616C370.546 413.021 337.456 396.739 337.021 388.998C336.586 381.281 375.561 402.235 389.645 413.021C403.751 423.806 404.736 420.303 418.728 423.6C432.72 426.898 431.758 437.226 440.185 445.882C448.612 454.538 464.688 445.332 483.604 450.164C502.542 454.996 497.138 481.469 504.099 495.735C511.061 510.002 523.129 508.056 539.823 511.055C556.517 514.055 544.06 544.718 555.464 555.779C566.868 566.863 580.31 545.657 600.508 549.665C620.706 553.672 590.615 578.679 596.913 593.015C603.21 607.35 622.378 608.06 640.698 613.625C659.018 619.189 649.056 647.539 663.437 661.028C667.605 664.943 671.315 664.577 674.498 662.127C670.101 673.05 664.239 679.576 664.239 679.576C646.354 694.255 614.935 700.782 592.402 688.668C586.516 685.508 580.723 681.454 575.341 677.218C594.554 680.699 626.614 690.797 633.324 686.034C643.468 678.821 603.394 680.332 586.127 658.966C568.86 637.601 586.585 630.96 580.402 611.151C574.219 591.343 548.8 609.045 523.679 584.404C498.557 559.764 506.801 534.345 484.909 520.971C463.039 507.598 456.673 505.537 441.262 488.751C425.85 471.965 420.56 480.026 393.08 465.187C376.706 456.347 374.233 448.47 374.187 440.867L380.187 438.875L374.21 439.287C374.416 434.707 375.172 430.196 373.935 425.616Z" fill="#42B164"/>
<path d="M337.043 388.998C337.043 388.998 349.867 396.166 385.683 418.127C421.476 440.088 649.514 616.464 698.68 750.91C698.68 750.91 688.833 764.192 685.238 759.314C681.643 754.414 643.491 610.327 337.043 388.998Z" fill="#74D179"/>
<path opacity="0.41" d="M532.632 462.049C513.969 466.08 513.717 496.102 527.434 496.697C541.128 497.292 551.296 458.019 532.632 462.049Z" fill="#42B164"/>
<path opacity="0.41" d="M413.209 493.766C414.606 500.43 430.75 504.872 439.635 498.483C448.498 492.094 411.812 487.102 413.209 493.766Z" fill="#42B164"/>
<path opacity="0.41" d="M469.703 544.421C467.39 554.886 488.962 558.756 493.496 550.1C498.053 541.421 472.016 533.933 469.703 544.421Z" fill="#42B164"/>
<path opacity="0.41" d="M626.042 562.397C615.302 565.076 602.821 582.022 611.546 585.435C620.271 588.87 636.782 559.718 626.042 562.397Z" fill="#42B164"/>
</svg>
